<svg xmlns="http://www.w3.org/2000/svg" width="16" height="16" viewBox="0 0 16 16" fill="none">
<path d="M14.2222 0.657837H1.77778C0.8 0.657837 0 1.42305 0 2.35832V14.2617C0 15.1978 0.8 15.9622 1.77778 15.9622H8V10.0105H6.22222V7.90615H8V6.16315C8 4.32323 9.07733 3.03086 11.3476 3.03086L12.9502 3.03256V5.24744H11.8862C11.0027 5.24744 10.6667 5.88172 10.6667 6.47009V7.907H12.9493L12.4444 10.0105H10.6667V15.9622H14.2222C15.2 15.9622 16 15.1978 16 14.2617V2.35832C16 1.42305 15.2 0.657837 14.2222 0.657837Z" fill="black"/>
</svg>