<svg xmlns="http://www.w3.org/2000/svg" width="16" height="17" viewBox="0 0 16 17" fill="none">
  <path d="M7.99785 4.20529C5.72636 4.20529 3.89315 6.03852 3.89315 8.31006C3.89315 10.5816 5.72636 12.4148 7.99785 12.4148C10.2693 12.4148 12.1025 10.5816 12.1025 8.31006C12.1025 6.03852 10.2693 4.20529 7.99785 4.20529ZM7.99785 10.9779C6.52888 10.9779 5.3301 9.77905 5.3301 8.31006C5.3301 6.84107 6.52888 5.64226 7.99785 5.64226C9.46681 5.64226 10.6656 6.84107 10.6656 8.31006C10.6656 9.77905 9.46681 10.9779 7.99785 10.9779ZM12.2707 3.08053C11.7403 3.08053 11.312 3.50881 11.312 4.03917C11.312 4.56953 11.7403 4.99782 12.2707 4.99782C12.801 4.99782 13.2293 4.57153 13.2293 4.03917C13.2294 3.91324 13.2048 3.78851 13.1566 3.67213C13.1085 3.55575 13.0379 3.45 12.9489 3.36095C12.8598 3.2719 12.7541 3.2013 12.6377 3.15318C12.5213 3.10506 12.3966 3.08037 12.2707 3.08053ZM15.9991 8.31006C15.9991 7.20531 16.0091 6.11057 15.9471 5.00783C15.885 3.72696 15.5928 2.59019 14.6562 1.65356C13.7176 0.714927 12.5829 0.424731 11.302 0.362689C10.1973 0.300647 9.10258 0.310654 7.99985 0.310654C6.89512 0.310654 5.80041 0.300647 4.69768 0.362689C3.41684 0.424731 2.28009 0.716928 1.34348 1.65356C0.404861 2.5922 0.11467 3.72696 0.0526294 5.00783C-0.00941132 6.11257 0.000595279 7.20731 0.000595279 8.31006C0.000595279 9.4128 -0.00941132 10.5095 0.0526294 11.6123C0.11467 12.8932 0.406862 14.0299 1.34348 14.9666C2.28209 15.9052 3.41684 16.1954 4.69768 16.2574C5.80241 16.3195 6.89713 16.3095 7.99985 16.3095C9.10458 16.3095 10.1993 16.3195 11.302 16.2574C12.5829 16.1954 13.7196 15.9032 14.6562 14.9666C15.5948 14.0279 15.885 12.8932 15.9471 11.6123C16.0111 10.5095 15.9991 9.41481 15.9991 8.31006ZM14.238 13.0292C14.0919 13.3935 13.9157 13.6657 13.6336 13.9459C13.3514 14.2281 13.0812 14.4042 12.717 14.5503C11.6643 14.9686 9.16462 14.8745 7.99785 14.8745C6.83108 14.8745 4.32944 14.9686 3.27675 14.5523C2.91251 14.4062 2.64033 14.2301 2.36015 13.9479C2.07796 13.6657 1.90184 13.3955 1.75575 13.0312C1.33948 11.9765 1.43354 9.47685 1.43354 8.31006C1.43354 7.14327 1.33948 4.64158 1.75575 3.58887C1.90184 3.22462 2.07796 2.95244 2.36015 2.67225C2.64233 2.39206 2.91251 2.21394 3.27675 2.06784C4.32944 1.65156 6.83108 1.74562 7.99785 1.74562C9.16462 1.74562 11.6663 1.65156 12.719 2.06784C13.0832 2.21394 13.3554 2.39006 13.6356 2.67225C13.9177 2.95444 14.0939 3.22462 14.24 3.58887C14.6562 4.64158 14.5622 7.14327 14.5622 8.31006C14.5622 9.47685 14.6562 11.9765 14.238 13.0292Z" fill="black"/>
</svg>