<svg xmlns="http://www.w3.org/2000/svg" width="17" height="17" fill="none"><path fill="#000000" d="M3.56337 2.05219c0 .944-.63111 1.75645-1.77867 1.75645-1.079998 0-1.7768875-.76623-1.7768875-1.71023 0-.96888.6755555-1.823996 1.7777775-1.823996 1.10222 0 1.75645.808886 1.77778 1.777776ZM.0078125 16.2744V4.71886H3.56337V16.2744H.0078125ZM5.34067 8.66936c0-1.37334-.04534-2.52089-.09067-3.512h3.19467l.15822 1.53155h.06756c.44977-.72089 1.55195-1.77778 3.39735-1.77778 2.2506 0 3.9395 1.50667 3.9395 4.74845v6.61512h-3.5555V10.176c0-1.41687-.5396-2.49776-1.7778-2.49776-.944 0-1.41689.76445-1.66489 1.39467-.09066.22578-.11289.54045-.11289.856v6.34579H5.34067V8.66936Z"/></svg>