<svg xmlns="http://www.w3.org/2000/svg" width="14" height="17" viewBox="0 0 14 17" fill="none">
  <path d="M7 0.310059C6.70263 0.310059 6.46154 0.559949 6.46154 0.868198V11.2868C6.46154 12.2115 5.73831 12.9612 4.84615 12.9612C3.954 12.9612 3.23077 12.2115 3.23077 11.2868C3.23077 10.3621 3.954 9.61238 4.84615 9.61238C5.14354 9.61238 5.38462 9.36249 5.38462 9.05424V6.82169C5.38462 6.51344 5.14354 6.26355 4.84615 6.26355C2.1697 6.26355 0 8.51255 0 11.2868C0 14.0611 2.1697 16.3101 4.84615 16.3101C7.52259 16.3101 9.69231 14.0611 9.69231 11.2868V6.98325C10.7804 7.70518 12.0741 8.12401 13.4615 8.12401C13.7589 8.12401 14 7.87411 14 7.56587V5.33331C14 5.02506 13.7589 4.77518 13.4615 4.77518C11.3798 4.77518 9.69231 3.02597 9.69231 0.868198C9.69231 0.559949 9.45122 0.310059 9.15385 0.310059H7Z" fill="black"/>
</svg>