<svg xmlns="http://www.w3.org/2000/svg" width="16" height="15" viewBox="0 0 16 15" fill="none">
  <path d="M14.3617 3.84076C14.3687 3.99048 14.3713 4.14204 14.3713 4.29176C14.3713 8.90336 11.0696 14.2192 5.03217 14.2192C3.17739 14.2192 1.45304 13.6416 0 12.6509C0.859457 12.7613 1.73097 12.6907 2.56473 12.443C3.39849 12.1953 4.17814 11.7754 4.85913 11.2073C4.17428 11.1936 3.51059 10.9527 2.96085 10.5184C2.41112 10.0841 2.00282 9.47808 1.79304 8.78507C2.28527 8.8829 2.79186 8.86237 3.27565 8.725C2.53271 8.56489 1.8647 8.1367 1.38482 7.51301C0.904951 6.88931 0.642734 6.10847 0.642609 5.3028V5.25936C1.09843 5.52885 1.60823 5.67872 2.12957 5.69649C1.4338 5.20353 0.941284 4.44694 0.752536 3.58117C0.563788 2.71539 0.693041 1.8057 1.11391 1.03776C1.93808 2.11576 2.96639 2.99746 4.13207 3.62557C5.29774 4.25369 6.5747 4.61417 7.88 4.68361C7.82353 4.42264 7.79523 4.15568 7.79565 3.8879C7.79565 3.42991 7.88054 2.97642 8.04548 2.55331C8.21041 2.1302 8.45215 1.74576 8.7569 1.42197C9.06165 1.09817 9.42344 0.841342 9.82159 0.666164C10.2197 0.490986 10.6465 0.400884 11.0774 0.401006C11.5265 0.400227 11.9709 0.497526 12.3832 0.686866C12.7954 0.876205 13.1667 1.15355 13.4739 1.50169C14.2088 1.34708 14.9136 1.06082 15.5583 0.655152C15.3131 1.46306 14.8001 2.14881 14.1148 2.58482C14.7654 2.50284 15.4009 2.3178 16 2.03586C15.5599 2.73678 15.005 3.3481 14.3617 3.84076Z" fill="black"/>
</svg>