<svg width="35" height="34" viewBox="0 0 35 34" fill="none" xmlns="http://www.w3.org/2000/svg">
<path d="M29.7788 19.7109C29.7788 21.3103 29.4612 22.8939 28.8442 24.3715C28.2271 25.8491 27.3227 27.1916 26.1825 28.3225C25.0424 29.4534 23.6888 30.3505 22.1991 30.9625C20.7094 31.5745 19.1128 31.8896 17.5004 31.8896C15.8879 31.8896 14.2913 31.5745 12.8016 30.9625C11.3119 30.3505 9.95835 29.4534 8.8182 28.3225C7.67804 27.1916 6.77361 25.8491 6.15656 24.3715C5.53951 22.8939 5.22192 21.3103 5.22192 19.7109" stroke="#2D3AAF" stroke-width="4.12857"/>
<path d="M4.85207 15.3769C5.04652 15.1265 5.42491 15.1265 5.61936 15.3769L8.72855 19.3814C8.97632 19.7005 8.7489 20.165 8.3449 20.165H2.12653C1.72253 20.165 1.49511 19.7005 1.74288 19.3814L4.85207 15.3769Z" fill="#2D3AAF"/>
<path d="M29.3806 15.3769C29.5751 15.1265 29.9535 15.1265 30.1479 15.3769L33.2571 19.3814C33.5049 19.7005 33.2775 20.165 32.8735 20.165H26.6551C26.2511 20.165 26.0237 19.7005 26.2714 19.3814L29.3806 15.3769Z" fill="#2D3AAF"/>
<line x1="17.3785" y1="9.28906" x2="17.3785" y2="31.8494" stroke="#2D3AAF" stroke-width="4.12857"/>
<path d="M22.9385 17.3047H12.1574" stroke="#2D3AAF" stroke-width="4.12857" stroke-linecap="round"/>
<circle cx="17.4349" cy="5.33846" r="2.7273" stroke="#2D3AAF" stroke-width="4.12857"/>
</svg>