<svg width="427" height="379" viewBox="0 0 427 379" fill="none" xmlns="http://www.w3.org/2000/svg">
<g filter="url(#filter0_d_1201_9812)">
<rect x="18.4834" y="14" width="390" height="343" rx="12" fill="#F9F9F9"/>
<rect x="69.7412" y="122.5" width="289" height="55" rx="11.5" fill="white"/>
<path d="M146.604 144.2H148.326V154H146.604V144.2ZM152.447 149.828V154H150.753V146.608H152.447V147.756C152.569 147.579 152.699 147.415 152.839 147.266C152.989 147.107 153.157 146.967 153.343 146.846C153.539 146.725 153.749 146.631 153.973 146.566C154.207 146.491 154.468 146.454 154.757 146.454C155.597 146.454 156.246 146.711 156.703 147.224C157.161 147.737 157.389 148.428 157.389 149.296V154H155.695V149.8C155.695 149.221 155.555 148.778 155.275 148.47C155.005 148.153 154.617 147.994 154.113 147.994C153.619 147.994 153.217 148.157 152.909 148.484C152.601 148.801 152.447 149.249 152.447 149.828ZM161.129 149.828V154H159.435V146.608H161.129V147.756C161.25 147.579 161.381 147.415 161.521 147.266C161.67 147.107 161.838 146.967 162.025 146.846C162.221 146.725 162.431 146.631 162.655 146.566C162.888 146.491 163.15 146.454 163.439 146.454C164.279 146.454 164.928 146.711 165.385 147.224C165.842 147.737 166.071 148.428 166.071 149.296V154H164.377V149.8C164.377 149.221 164.237 148.778 163.957 148.47C163.686 148.153 163.299 147.994 162.795 147.994C162.3 147.994 161.899 148.157 161.591 148.484C161.283 148.801 161.129 149.249 161.129 149.828ZM175.593 150.304C175.593 150.836 175.49 151.335 175.285 151.802C175.089 152.269 174.813 152.679 174.459 153.034C174.113 153.379 173.698 153.655 173.213 153.86C172.727 154.065 172.2 154.168 171.631 154.168C171.071 154.168 170.548 154.07 170.063 153.874C169.587 153.669 169.171 153.393 168.817 153.048C168.471 152.693 168.201 152.287 168.005 151.83C167.809 151.363 167.711 150.864 167.711 150.332C167.711 149.8 167.809 149.301 168.005 148.834C168.21 148.358 168.485 147.947 168.831 147.602C169.185 147.247 169.601 146.967 170.077 146.762C170.562 146.557 171.089 146.454 171.659 146.454C172.228 146.454 172.751 146.557 173.227 146.762C173.712 146.958 174.127 147.233 174.473 147.588C174.827 147.933 175.103 148.339 175.299 148.806C175.495 149.273 175.593 149.772 175.593 150.304ZM173.899 150.332C173.899 150.005 173.843 149.697 173.731 149.408C173.619 149.119 173.46 148.867 173.255 148.652C173.059 148.428 172.821 148.255 172.541 148.134C172.27 148.003 171.967 147.938 171.631 147.938C171.295 147.938 170.987 148.003 170.707 148.134C170.436 148.255 170.203 148.423 170.007 148.638C169.811 148.853 169.661 149.105 169.559 149.394C169.456 149.674 169.405 149.977 169.405 150.304C169.405 150.631 169.461 150.943 169.573 151.242C169.685 151.531 169.839 151.783 170.035 151.998C170.24 152.213 170.478 152.385 170.749 152.516C171.029 152.637 171.332 152.698 171.659 152.698C172.004 152.698 172.312 152.637 172.583 152.516C172.863 152.385 173.101 152.213 173.297 151.998C173.493 151.783 173.642 151.536 173.745 151.256C173.847 150.967 173.899 150.659 173.899 150.332ZM180.002 152.04L182.004 146.608H183.782L180.758 154.056H179.232L176.194 146.608H178.014L180.002 152.04ZM191.067 154H189.387V153.09C189.135 153.389 188.813 153.641 188.421 153.846C188.029 154.051 187.553 154.154 186.993 154.154C186.638 154.154 186.302 154.103 185.985 154C185.667 153.907 185.387 153.767 185.145 153.58C184.911 153.384 184.72 153.146 184.571 152.866C184.431 152.577 184.361 152.245 184.361 151.872V151.844C184.361 151.443 184.435 151.093 184.585 150.794C184.734 150.495 184.939 150.248 185.201 150.052C185.471 149.856 185.789 149.711 186.153 149.618C186.526 149.515 186.927 149.464 187.357 149.464C187.805 149.464 188.183 149.492 188.491 149.548C188.808 149.604 189.111 149.679 189.401 149.772V149.59C189.401 149.077 189.242 148.685 188.925 148.414C188.617 148.143 188.169 148.008 187.581 148.008C187.161 148.008 186.787 148.05 186.461 148.134C186.134 148.218 185.803 148.33 185.467 148.47L185.005 147.112C185.415 146.925 185.835 146.776 186.265 146.664C186.694 146.552 187.212 146.496 187.819 146.496C188.92 146.496 189.737 146.771 190.269 147.322C190.801 147.863 191.067 148.629 191.067 149.618V154ZM189.429 151.326V150.864C189.214 150.78 188.957 150.71 188.659 150.654C188.369 150.598 188.061 150.57 187.735 150.57C187.203 150.57 186.787 150.673 186.489 150.878C186.19 151.083 186.041 151.377 186.041 151.76V151.788C186.041 152.143 186.176 152.413 186.447 152.6C186.727 152.787 187.067 152.88 187.469 152.88C187.749 152.88 188.005 152.843 188.239 152.768C188.481 152.693 188.691 152.591 188.869 152.46C189.046 152.32 189.181 152.157 189.275 151.97C189.377 151.774 189.429 151.559 189.429 151.326ZM195.057 148.064V151.69C195.057 152.017 195.137 152.255 195.295 152.404C195.454 152.544 195.678 152.614 195.967 152.614C196.331 152.614 196.681 152.53 197.017 152.362V153.748C196.803 153.869 196.574 153.963 196.331 154.028C196.089 154.093 195.809 154.126 195.491 154.126C195.183 154.126 194.899 154.089 194.637 154.014C194.376 153.939 194.147 153.818 193.951 153.65C193.765 153.482 193.62 153.263 193.517 152.992C193.415 152.712 193.363 152.367 193.363 151.956V148.064H192.425V146.608H193.363V144.578H195.057V146.608H197.045V148.064H195.057ZM200.603 145.474H198.783V143.864H200.603V145.474ZM200.547 154H198.853V146.608H200.547V154ZM205.869 152.04L207.871 146.608H209.649L206.625 154.056H205.099L202.061 146.608H203.881L205.869 152.04ZM211.952 150.906C212.054 151.513 212.297 151.979 212.68 152.306C213.062 152.623 213.529 152.782 214.08 152.782C214.5 152.782 214.864 152.707 215.172 152.558C215.48 152.409 215.783 152.189 216.082 151.9L217.076 152.782C216.721 153.202 216.296 153.538 215.802 153.79C215.316 154.042 214.733 154.168 214.052 154.168C213.52 154.168 213.02 154.075 212.554 153.888C212.096 153.701 211.695 153.44 211.35 153.104C211.014 152.768 210.748 152.367 210.552 151.9C210.356 151.424 210.258 150.897 210.258 150.318C210.258 149.786 210.346 149.287 210.524 148.82C210.701 148.353 210.948 147.947 211.266 147.602C211.592 147.247 211.975 146.967 212.414 146.762C212.852 146.557 213.338 146.454 213.87 146.454C214.458 146.454 214.971 146.561 215.41 146.776C215.858 146.991 216.226 147.28 216.516 147.644C216.814 148.008 217.038 148.433 217.188 148.918C217.337 149.403 217.412 149.912 217.412 150.444C217.412 150.519 217.407 150.593 217.398 150.668C217.398 150.743 217.393 150.822 217.384 150.906H211.952ZM211.938 149.786H215.732C215.704 149.515 215.643 149.263 215.55 149.03C215.456 148.787 215.33 148.582 215.172 148.414C215.013 148.237 214.822 148.097 214.598 147.994C214.383 147.891 214.136 147.84 213.856 147.84C213.333 147.84 212.899 148.022 212.554 148.386C212.218 148.741 212.012 149.207 211.938 149.786ZM230.8 144.2V145.768H225.228V148.442H230.17V150.01H225.228V154H223.506V144.2H230.8ZM233.581 150.906C233.683 151.513 233.926 151.979 234.309 152.306C234.691 152.623 235.158 152.782 235.709 152.782C236.129 152.782 236.493 152.707 236.801 152.558C237.109 152.409 237.412 152.189 237.711 151.9L238.705 152.782C238.35 153.202 237.925 153.538 237.431 153.79C236.945 154.042 236.362 154.168 235.681 154.168C235.149 154.168 234.649 154.075 234.183 153.888C233.725 153.701 233.324 153.44 232.979 153.104C232.643 152.768 232.377 152.367 232.181 151.9C231.985 151.424 231.887 150.897 231.887 150.318C231.887 149.786 231.975 149.287 232.153 148.82C232.33 148.353 232.577 147.947 232.895 147.602C233.221 147.247 233.604 146.967 234.043 146.762C234.481 146.557 234.967 146.454 235.499 146.454C236.087 146.454 236.6 146.561 237.039 146.776C237.487 146.991 237.855 147.28 238.145 147.644C238.443 148.008 238.667 148.433 238.817 148.918C238.966 149.403 239.041 149.912 239.041 150.444C239.041 150.519 239.036 150.593 239.027 150.668C239.027 150.743 239.022 150.822 239.013 150.906H233.581ZM233.567 149.786H237.361C237.333 149.515 237.272 149.263 237.179 149.03C237.085 148.787 236.959 148.582 236.801 148.414C236.642 148.237 236.451 148.097 236.227 147.994C236.012 147.891 235.765 147.84 235.485 147.84C234.962 147.84 234.528 148.022 234.183 148.386C233.847 148.741 233.641 149.207 233.567 149.786ZM246.944 154H245.264V153.09C245.012 153.389 244.69 153.641 244.298 153.846C243.906 154.051 243.43 154.154 242.87 154.154C242.515 154.154 242.179 154.103 241.862 154C241.544 153.907 241.264 153.767 241.022 153.58C240.788 153.384 240.597 153.146 240.448 152.866C240.308 152.577 240.238 152.245 240.238 151.872V151.844C240.238 151.443 240.312 151.093 240.462 150.794C240.611 150.495 240.816 150.248 241.078 150.052C241.348 149.856 241.666 149.711 242.03 149.618C242.403 149.515 242.804 149.464 243.234 149.464C243.682 149.464 244.06 149.492 244.368 149.548C244.685 149.604 244.988 149.679 245.278 149.772V149.59C245.278 149.077 245.119 148.685 244.802 148.414C244.494 148.143 244.046 148.008 243.458 148.008C243.038 148.008 242.664 148.05 242.338 148.134C242.011 148.218 241.68 148.33 241.344 148.47L240.882 147.112C241.292 146.925 241.712 146.776 242.142 146.664C242.571 146.552 243.089 146.496 243.696 146.496C244.797 146.496 245.614 146.771 246.146 147.322C246.678 147.863 246.944 148.629 246.944 149.618V154ZM245.306 151.326V150.864C245.091 150.78 244.834 150.71 244.536 150.654C244.246 150.598 243.938 150.57 243.612 150.57C243.08 150.57 242.664 150.673 242.366 150.878C242.067 151.083 241.918 151.377 241.918 151.76V151.788C241.918 152.143 242.053 152.413 242.324 152.6C242.604 152.787 242.944 152.88 243.346 152.88C243.626 152.88 243.882 152.843 244.116 152.768C244.358 152.693 244.568 152.591 244.746 152.46C244.923 152.32 245.058 152.157 245.152 151.97C245.254 151.774 245.306 151.559 245.306 151.326ZM250.934 148.064V151.69C250.934 152.017 251.014 152.255 251.172 152.404C251.331 152.544 251.555 152.614 251.844 152.614C252.208 152.614 252.558 152.53 252.894 152.362V153.748C252.68 153.869 252.451 153.963 252.208 154.028C251.966 154.093 251.686 154.126 251.368 154.126C251.06 154.126 250.776 154.089 250.514 154.014C250.253 153.939 250.024 153.818 249.828 153.65C249.642 153.482 249.497 153.263 249.394 152.992C249.292 152.712 249.24 152.367 249.24 151.956V148.064H248.302V146.608H249.24V144.578H250.934V146.608H252.922V148.064H250.934ZM259.49 150.78V146.608H261.184V154H259.49V152.852C259.248 153.207 258.944 153.515 258.58 153.776C258.216 154.028 257.75 154.154 257.18 154.154C256.34 154.154 255.692 153.897 255.234 153.384C254.777 152.871 254.548 152.18 254.548 151.312V146.608H256.242V150.808C256.242 151.387 256.378 151.835 256.648 152.152C256.928 152.46 257.32 152.614 257.824 152.614C258.319 152.614 258.72 152.455 259.028 152.138C259.336 151.811 259.49 151.359 259.49 150.78ZM265.008 151.186V154H263.314V146.608H265.008V148.274C265.241 147.714 265.573 147.266 266.002 146.93C266.431 146.594 266.973 146.44 267.626 146.468V148.26H267.528C267.155 148.26 266.814 148.321 266.506 148.442C266.198 148.563 265.932 148.745 265.708 148.988C265.484 149.231 265.311 149.539 265.19 149.912C265.069 150.276 265.008 150.701 265.008 151.186ZM270.139 150.906C270.242 151.513 270.484 151.979 270.867 152.306C271.25 152.623 271.716 152.782 272.267 152.782C272.687 152.782 273.051 152.707 273.359 152.558C273.667 152.409 273.97 152.189 274.269 151.9L275.263 152.782C274.908 153.202 274.484 153.538 273.989 153.79C273.504 154.042 272.92 154.168 272.239 154.168C271.707 154.168 271.208 154.075 270.741 153.888C270.284 153.701 269.882 153.44 269.537 153.104C269.201 152.768 268.935 152.367 268.739 151.9C268.543 151.424 268.445 150.897 268.445 150.318C268.445 149.786 268.534 149.287 268.711 148.82C268.888 148.353 269.136 147.947 269.453 147.602C269.78 147.247 270.162 146.967 270.601 146.762C271.04 146.557 271.525 146.454 272.057 146.454C272.645 146.454 273.158 146.561 273.597 146.776C274.045 146.991 274.414 147.28 274.703 147.644C275.002 148.008 275.226 148.433 275.375 148.918C275.524 149.403 275.599 149.912 275.599 150.444C275.599 150.519 275.594 150.593 275.585 150.668C275.585 150.743 275.58 150.822 275.571 150.906H270.139ZM270.125 149.786H273.919C273.891 149.515 273.83 149.263 273.737 149.03C273.644 148.787 273.518 148.582 273.359 148.414C273.2 148.237 273.009 148.097 272.785 147.994C272.57 147.891 272.323 147.84 272.043 147.84C271.52 147.84 271.086 148.022 270.741 148.386C270.405 148.741 270.2 149.207 270.125 149.786ZM282.578 151.816C282.578 152.208 282.508 152.549 282.368 152.838C282.228 153.127 282.032 153.37 281.78 153.566C281.538 153.753 281.248 153.897 280.912 154C280.576 154.093 280.217 154.14 279.834 154.14C279.302 154.14 278.761 154.047 278.21 153.86C277.669 153.673 277.165 153.398 276.698 153.034L277.454 151.886C277.856 152.185 278.262 152.413 278.672 152.572C279.092 152.721 279.494 152.796 279.876 152.796C280.24 152.796 280.52 152.726 280.716 152.586C280.922 152.437 281.024 152.241 281.024 151.998V151.97C281.024 151.83 280.978 151.709 280.884 151.606C280.8 151.503 280.679 151.415 280.52 151.34C280.371 151.256 280.194 151.186 279.988 151.13C279.792 151.065 279.587 150.999 279.372 150.934C279.102 150.85 278.826 150.757 278.546 150.654C278.276 150.551 278.028 150.421 277.804 150.262C277.59 150.094 277.412 149.893 277.272 149.66C277.132 149.417 277.062 149.119 277.062 148.764V148.736C277.062 148.391 277.128 148.078 277.258 147.798C277.398 147.518 277.585 147.28 277.818 147.084C278.061 146.888 278.341 146.739 278.658 146.636C278.985 146.533 279.33 146.482 279.694 146.482C280.161 146.482 280.632 146.557 281.108 146.706C281.584 146.855 282.018 147.061 282.41 147.322L281.738 148.526C281.384 148.311 281.024 148.143 280.66 148.022C280.296 147.891 279.96 147.826 279.652 147.826C279.326 147.826 279.069 147.896 278.882 148.036C278.705 148.176 278.616 148.353 278.616 148.568V148.596C278.616 148.727 278.663 148.843 278.756 148.946C278.85 149.039 278.971 149.128 279.12 149.212C279.279 149.287 279.456 149.361 279.652 149.436C279.858 149.501 280.068 149.567 280.282 149.632C280.553 149.716 280.824 149.814 281.094 149.926C281.365 150.038 281.608 150.178 281.822 150.346C282.046 150.505 282.228 150.701 282.368 150.934C282.508 151.167 282.578 151.452 282.578 151.788V151.816Z" fill="#454545"/>
<rect x="69.7412" y="122.5" width="289" height="55" rx="11.5" stroke="#EFEFEF"/>
<rect x="69.7412" y="192.5" width="287" height="55" rx="11.5" fill="white"/>
<path d="M146.641 214.2H148.363V224H146.641V214.2ZM152.485 219.828V224H150.791V216.608H152.485V217.756C152.606 217.579 152.737 217.415 152.877 217.266C153.026 217.107 153.194 216.967 153.381 216.846C153.577 216.725 153.787 216.631 154.011 216.566C154.244 216.491 154.505 216.454 154.795 216.454C155.635 216.454 156.283 216.711 156.741 217.224C157.198 217.737 157.427 218.428 157.427 219.296V224H155.733V219.8C155.733 219.221 155.593 218.778 155.313 218.47C155.042 218.153 154.655 217.994 154.151 217.994C153.656 217.994 153.255 218.157 152.947 218.484C152.639 218.801 152.485 219.249 152.485 219.828ZM161.516 218.064V221.69C161.516 222.017 161.596 222.255 161.754 222.404C161.913 222.544 162.137 222.614 162.426 222.614C162.79 222.614 163.14 222.53 163.476 222.362V223.748C163.262 223.869 163.033 223.963 162.79 224.028C162.548 224.093 162.268 224.126 161.95 224.126C161.642 224.126 161.358 224.089 161.096 224.014C160.835 223.939 160.606 223.818 160.41 223.65C160.224 223.482 160.079 223.263 159.976 222.992C159.874 222.712 159.822 222.367 159.822 221.956V218.064H158.884V216.608H159.822V214.578H161.516V216.608H163.504V218.064H161.516ZM166.297 220.906C166.4 221.513 166.643 221.979 167.025 222.306C167.408 222.623 167.875 222.782 168.425 222.782C168.845 222.782 169.209 222.707 169.517 222.558C169.825 222.409 170.129 222.189 170.427 221.9L171.421 222.782C171.067 223.202 170.642 223.538 170.147 223.79C169.662 224.042 169.079 224.168 168.397 224.168C167.865 224.168 167.366 224.075 166.899 223.888C166.442 223.701 166.041 223.44 165.695 223.104C165.359 222.768 165.093 222.367 164.897 221.9C164.701 221.424 164.603 220.897 164.603 220.318C164.603 219.786 164.692 219.287 164.869 218.82C165.047 218.353 165.294 217.947 165.611 217.602C165.938 217.247 166.321 216.967 166.759 216.762C167.198 216.557 167.683 216.454 168.215 216.454C168.803 216.454 169.317 216.561 169.755 216.776C170.203 216.991 170.572 217.28 170.861 217.644C171.16 218.008 171.384 218.433 171.533 218.918C171.683 219.403 171.757 219.912 171.757 220.444C171.757 220.519 171.753 220.593 171.743 220.668C171.743 220.743 171.739 220.822 171.729 220.906H166.297ZM166.283 219.786H170.077C170.049 219.515 169.989 219.263 169.895 219.03C169.802 218.787 169.676 218.582 169.517 218.414C169.359 218.237 169.167 218.097 168.943 217.994C168.729 217.891 168.481 217.84 168.201 217.84C167.679 217.84 167.245 218.022 166.899 218.386C166.563 218.741 166.358 219.207 166.283 219.786ZM175.251 224H173.557V213.78H175.251V224ZM179.256 224H177.562V213.78H179.256V224ZM183.318 215.474H181.498V213.864H183.318V215.474ZM183.262 224H181.568V216.608H183.262V224ZM192.742 222.488C192.742 223.795 192.397 224.751 191.706 225.358C191.015 225.965 190.035 226.268 188.766 226.268C187.534 226.268 186.433 225.974 185.462 225.386L186.092 224.112C186.484 224.355 186.895 224.546 187.324 224.686C187.753 224.826 188.22 224.896 188.724 224.896C189.48 224.896 190.059 224.705 190.46 224.322C190.861 223.939 191.062 223.375 191.062 222.628V222.054C190.754 222.455 190.395 222.782 189.984 223.034C189.573 223.286 189.065 223.412 188.458 223.412C188.019 223.412 187.599 223.337 187.198 223.188C186.797 223.029 186.437 222.801 186.12 222.502C185.812 222.203 185.565 221.839 185.378 221.41C185.191 220.981 185.098 220.491 185.098 219.94C185.098 219.389 185.191 218.899 185.378 218.47C185.565 218.041 185.812 217.677 186.12 217.378C186.437 217.079 186.797 216.851 187.198 216.692C187.609 216.533 188.029 216.454 188.458 216.454C189.083 216.454 189.597 216.58 189.998 216.832C190.409 217.075 190.759 217.369 191.048 217.714V216.608H192.742V222.488ZM191.076 219.94C191.076 219.632 191.015 219.352 190.894 219.1C190.782 218.839 190.628 218.619 190.432 218.442C190.236 218.265 190.003 218.129 189.732 218.036C189.471 217.933 189.195 217.882 188.906 217.882C188.607 217.882 188.332 217.933 188.08 218.036C187.828 218.129 187.604 218.265 187.408 218.442C187.221 218.619 187.072 218.834 186.96 219.086C186.857 219.338 186.806 219.618 186.806 219.926C186.806 220.234 186.862 220.514 186.974 220.766C187.086 221.018 187.235 221.237 187.422 221.424C187.609 221.601 187.828 221.741 188.08 221.844C188.341 221.937 188.617 221.984 188.906 221.984C189.195 221.984 189.471 221.937 189.732 221.844C190.003 221.741 190.236 221.601 190.432 221.424C190.628 221.237 190.782 221.023 190.894 220.78C191.015 220.528 191.076 220.248 191.076 219.94ZM196.143 220.906C196.246 221.513 196.488 221.979 196.871 222.306C197.254 222.623 197.72 222.782 198.271 222.782C198.691 222.782 199.055 222.707 199.363 222.558C199.671 222.409 199.974 222.189 200.273 221.9L201.267 222.782C200.912 223.202 200.488 223.538 199.993 223.79C199.508 224.042 198.924 224.168 198.243 224.168C197.711 224.168 197.212 224.075 196.745 223.888C196.288 223.701 195.886 223.44 195.541 223.104C195.205 222.768 194.939 222.367 194.743 221.9C194.547 221.424 194.449 220.897 194.449 220.318C194.449 219.786 194.538 219.287 194.715 218.82C194.892 218.353 195.14 217.947 195.457 217.602C195.784 217.247 196.166 216.967 196.605 216.762C197.044 216.557 197.529 216.454 198.061 216.454C198.649 216.454 199.162 216.561 199.601 216.776C200.049 216.991 200.418 217.28 200.707 217.644C201.006 218.008 201.23 218.433 201.379 218.918C201.528 219.403 201.603 219.912 201.603 220.444C201.603 220.519 201.598 220.593 201.589 220.668C201.589 220.743 201.584 220.822 201.575 220.906H196.143ZM196.129 219.786H199.923C199.895 219.515 199.834 219.263 199.741 219.03C199.648 218.787 199.522 218.582 199.363 218.414C199.204 218.237 199.013 218.097 198.789 217.994C198.574 217.891 198.327 217.84 198.047 217.84C197.524 217.84 197.09 218.022 196.745 218.386C196.409 218.741 196.204 219.207 196.129 219.786ZM204.998 219.828V224H203.304V216.608H204.998V217.756C205.12 217.579 205.25 217.415 205.39 217.266C205.54 217.107 205.708 216.967 205.894 216.846C206.09 216.725 206.3 216.631 206.524 216.566C206.758 216.491 207.019 216.454 207.308 216.454C208.148 216.454 208.797 216.711 209.254 217.224C209.712 217.737 209.94 218.428 209.94 219.296V224H208.246V219.8C208.246 219.221 208.106 218.778 207.826 218.47C207.556 218.153 207.168 217.994 206.664 217.994C206.17 217.994 205.768 218.157 205.46 218.484C205.152 218.801 204.998 219.249 204.998 219.828ZM218.426 222.782C218.062 223.193 217.647 223.529 217.18 223.79C216.713 224.042 216.121 224.168 215.402 224.168C214.851 224.168 214.343 224.07 213.876 223.874C213.409 223.669 213.003 223.393 212.658 223.048C212.322 222.693 212.056 222.287 211.86 221.83C211.673 221.363 211.58 220.864 211.58 220.332C211.58 219.8 211.673 219.301 211.86 218.834C212.056 218.367 212.322 217.957 212.658 217.602C213.003 217.247 213.409 216.967 213.876 216.762C214.352 216.557 214.865 216.454 215.416 216.454C216.116 216.454 216.695 216.571 217.152 216.804C217.619 217.037 218.025 217.345 218.37 217.728L217.32 218.862C217.059 218.591 216.779 218.372 216.48 218.204C216.191 218.027 215.831 217.938 215.402 217.938C215.094 217.938 214.809 218.003 214.548 218.134C214.287 218.255 214.063 218.423 213.876 218.638C213.689 218.853 213.54 219.105 213.428 219.394C213.325 219.674 213.274 219.977 213.274 220.304C213.274 220.64 213.325 220.953 213.428 221.242C213.54 221.531 213.694 221.783 213.89 221.998C214.086 222.213 214.319 222.385 214.59 222.516C214.861 222.637 215.159 222.698 215.486 222.698C215.887 222.698 216.237 222.614 216.536 222.446C216.844 222.269 217.133 222.045 217.404 221.774L218.426 222.782ZM221.067 220.906C221.17 221.513 221.412 221.979 221.795 222.306C222.178 222.623 222.644 222.782 223.195 222.782C223.615 222.782 223.979 222.707 224.287 222.558C224.595 222.409 224.898 222.189 225.197 221.9L226.191 222.782C225.836 223.202 225.412 223.538 224.917 223.79C224.432 224.042 223.848 224.168 223.167 224.168C222.635 224.168 222.136 224.075 221.669 223.888C221.212 223.701 220.81 223.44 220.465 223.104C220.129 222.768 219.863 222.367 219.667 221.9C219.471 221.424 219.373 220.897 219.373 220.318C219.373 219.786 219.462 219.287 219.639 218.82C219.816 218.353 220.064 217.947 220.381 217.602C220.708 217.247 221.09 216.967 221.529 216.762C221.968 216.557 222.453 216.454 222.985 216.454C223.573 216.454 224.086 216.561 224.525 216.776C224.973 216.991 225.342 217.28 225.631 217.644C225.93 218.008 226.154 218.433 226.303 218.918C226.452 219.403 226.527 219.912 226.527 220.444C226.527 220.519 226.522 220.593 226.513 220.668C226.513 220.743 226.508 220.822 226.499 220.906H221.067ZM221.053 219.786H224.847C224.819 219.515 224.758 219.263 224.665 219.03C224.572 218.787 224.446 218.582 224.287 218.414C224.128 218.237 223.937 218.097 223.713 217.994C223.498 217.891 223.251 217.84 222.971 217.84C222.448 217.84 222.014 218.022 221.669 218.386C221.333 218.741 221.128 219.207 221.053 219.786ZM234.077 216.762C234.077 216.958 234.11 217.126 234.175 217.266C234.241 217.406 234.357 217.537 234.525 217.658C234.703 217.779 234.941 217.891 235.239 217.994C235.547 218.097 235.935 218.204 236.401 218.316C236.915 218.447 237.367 218.591 237.759 218.75C238.161 218.909 238.492 219.105 238.753 219.338C239.015 219.562 239.211 219.828 239.341 220.136C239.481 220.435 239.551 220.789 239.551 221.2C239.551 221.667 239.463 222.082 239.285 222.446C239.117 222.81 238.879 223.118 238.571 223.37C238.263 223.622 237.895 223.813 237.465 223.944C237.036 224.075 236.565 224.14 236.051 224.14C235.295 224.14 234.572 224.014 233.881 223.762C233.191 223.501 232.551 223.104 231.963 222.572L232.999 221.34C233.475 221.751 233.956 222.068 234.441 222.292C234.927 222.507 235.477 222.614 236.093 222.614C236.625 222.614 237.045 222.502 237.353 222.278C237.671 222.054 237.829 221.751 237.829 221.368C237.829 221.191 237.797 221.032 237.731 220.892C237.675 220.752 237.563 220.626 237.395 220.514C237.237 220.393 237.013 220.281 236.723 220.178C236.443 220.075 236.075 219.968 235.617 219.856C235.095 219.735 234.628 219.599 234.217 219.45C233.816 219.301 233.475 219.114 233.195 218.89C232.925 218.666 232.715 218.395 232.565 218.078C232.425 217.761 232.355 217.373 232.355 216.916C232.355 216.487 232.439 216.099 232.607 215.754C232.775 215.399 233.004 215.096 233.293 214.844C233.592 214.592 233.947 214.401 234.357 214.27C234.768 214.13 235.216 214.06 235.701 214.06C236.42 214.06 237.064 214.167 237.633 214.382C238.212 214.587 238.753 214.891 239.257 215.292L238.333 216.594C237.885 216.267 237.442 216.02 237.003 215.852C236.565 215.675 236.121 215.586 235.673 215.586C235.169 215.586 234.777 215.703 234.497 215.936C234.217 216.16 234.077 216.435 234.077 216.762ZM242.668 220.906C242.771 221.513 243.014 221.979 243.396 222.306C243.779 222.623 244.246 222.782 244.796 222.782C245.216 222.782 245.58 222.707 245.888 222.558C246.196 222.409 246.5 222.189 246.798 221.9L247.792 222.782C247.438 223.202 247.013 223.538 246.518 223.79C246.033 224.042 245.45 224.168 244.768 224.168C244.236 224.168 243.737 224.075 243.27 223.888C242.813 223.701 242.412 223.44 242.066 223.104C241.73 222.768 241.464 222.367 241.268 221.9C241.072 221.424 240.974 220.897 240.974 220.318C240.974 219.786 241.063 219.287 241.24 218.82C241.418 218.353 241.665 217.947 241.982 217.602C242.309 217.247 242.692 216.967 243.13 216.762C243.569 216.557 244.054 216.454 244.586 216.454C245.174 216.454 245.688 216.561 246.126 216.776C246.574 216.991 246.943 217.28 247.232 217.644C247.531 218.008 247.755 218.433 247.904 218.918C248.054 219.403 248.128 219.912 248.128 220.444C248.128 220.519 248.124 220.593 248.114 220.668C248.114 220.743 248.11 220.822 248.1 220.906H242.668ZM242.654 219.786H246.448C246.42 219.515 246.36 219.263 246.266 219.03C246.173 218.787 246.047 218.582 245.888 218.414C245.73 218.237 245.538 218.097 245.314 217.994C245.1 217.891 244.852 217.84 244.572 217.84C244.05 217.84 243.616 218.022 243.27 218.386C242.934 218.741 242.729 219.207 242.654 219.786ZM256.032 224H254.352V223.09C254.1 223.389 253.778 223.641 253.386 223.846C252.994 224.051 252.518 224.154 251.958 224.154C251.603 224.154 251.267 224.103 250.95 224C250.632 223.907 250.352 223.767 250.11 223.58C249.876 223.384 249.685 223.146 249.536 222.866C249.396 222.577 249.326 222.245 249.326 221.872V221.844C249.326 221.443 249.4 221.093 249.55 220.794C249.699 220.495 249.904 220.248 250.166 220.052C250.436 219.856 250.754 219.711 251.118 219.618C251.491 219.515 251.892 219.464 252.322 219.464C252.77 219.464 253.148 219.492 253.456 219.548C253.773 219.604 254.076 219.679 254.366 219.772V219.59C254.366 219.077 254.207 218.685 253.89 218.414C253.582 218.143 253.134 218.008 252.546 218.008C252.126 218.008 251.752 218.05 251.426 218.134C251.099 218.218 250.768 218.33 250.432 218.47L249.97 217.112C250.38 216.925 250.8 216.776 251.23 216.664C251.659 216.552 252.177 216.496 252.784 216.496C253.885 216.496 254.702 216.771 255.234 217.322C255.766 217.863 256.032 218.629 256.032 219.618V224ZM254.394 221.326V220.864C254.179 220.78 253.922 220.71 253.624 220.654C253.334 220.598 253.026 220.57 252.7 220.57C252.168 220.57 251.752 220.673 251.454 220.878C251.155 221.083 251.006 221.377 251.006 221.76V221.788C251.006 222.143 251.141 222.413 251.412 222.6C251.692 222.787 252.032 222.88 252.434 222.88C252.714 222.88 252.97 222.843 253.204 222.768C253.446 222.693 253.656 222.591 253.834 222.46C254.011 222.32 254.146 222.157 254.24 221.97C254.342 221.774 254.394 221.559 254.394 221.326ZM259.74 221.186V224H258.046V216.608H259.74V218.274C259.974 217.714 260.305 217.266 260.734 216.93C261.164 216.594 261.705 216.44 262.358 216.468V218.26H262.26C261.887 218.26 261.546 218.321 261.238 218.442C260.93 218.563 260.664 218.745 260.44 218.988C260.216 219.231 260.044 219.539 259.922 219.912C259.801 220.276 259.74 220.701 259.74 221.186ZM270.024 222.782C269.66 223.193 269.244 223.529 268.778 223.79C268.311 224.042 267.718 224.168 267 224.168C266.449 224.168 265.94 224.07 265.474 223.874C265.007 223.669 264.601 223.393 264.256 223.048C263.92 222.693 263.654 222.287 263.458 221.83C263.271 221.363 263.178 220.864 263.178 220.332C263.178 219.8 263.271 219.301 263.458 218.834C263.654 218.367 263.92 217.957 264.256 217.602C264.601 217.247 265.007 216.967 265.474 216.762C265.95 216.557 266.463 216.454 267.014 216.454C267.714 216.454 268.292 216.571 268.75 216.804C269.216 217.037 269.622 217.345 269.968 217.728L268.918 218.862C268.656 218.591 268.376 218.372 268.078 218.204C267.788 218.027 267.429 217.938 267 217.938C266.692 217.938 266.407 218.003 266.146 218.134C265.884 218.255 265.66 218.423 265.474 218.638C265.287 218.853 265.138 219.105 265.026 219.394C264.923 219.674 264.872 219.977 264.872 220.304C264.872 220.64 264.923 220.953 265.026 221.242C265.138 221.531 265.292 221.783 265.488 221.998C265.684 222.213 265.917 222.385 266.188 222.516C266.458 222.637 266.757 222.698 267.084 222.698C267.485 222.698 267.835 222.614 268.134 222.446C268.442 222.269 268.731 222.045 269.002 221.774L270.024 222.782ZM273.276 219.828V224H271.582V213.78H273.276V217.756C273.397 217.579 273.528 217.415 273.668 217.266C273.817 217.107 273.985 216.967 274.172 216.846C274.368 216.725 274.578 216.631 274.802 216.566C275.035 216.491 275.296 216.454 275.586 216.454C276.426 216.454 277.074 216.711 277.532 217.224C277.989 217.737 278.218 218.428 278.218 219.296V224H276.524V219.8C276.524 219.221 276.384 218.778 276.104 218.47C275.833 218.153 275.446 217.994 274.942 217.994C274.447 217.994 274.046 218.157 273.738 218.484C273.43 218.801 273.276 219.249 273.276 219.828Z" fill="#454545"/>
<rect x="69.7412" y="192.5" width="287" height="55" rx="11.5" stroke="#EFEFEF"/>
<rect x="69.7412" y="262.5" width="287" height="55" rx="11.5" fill="white"/>
<path d="M130.008 284.2V285.74H124.464V288.288H129.378V289.828H124.464V292.46H130.078V294H122.742V284.2H130.008ZM133.619 289.828V294H131.925V286.608H133.619V287.756C133.741 287.579 133.871 287.415 134.011 287.266C134.161 287.107 134.329 286.967 134.515 286.846C134.711 286.725 134.921 286.631 135.145 286.566C135.379 286.491 135.64 286.454 135.929 286.454C136.769 286.454 137.418 286.711 137.875 287.224C138.333 287.737 138.561 288.428 138.561 289.296V294H136.867V289.8C136.867 289.221 136.727 288.778 136.447 288.47C136.177 288.153 135.789 287.994 135.285 287.994C134.791 287.994 134.389 288.157 134.081 288.484C133.773 288.801 133.619 289.249 133.619 289.828ZM142.301 289.828V294H140.607V283.78H142.301V287.756C142.422 287.579 142.553 287.415 142.693 287.266C142.842 287.107 143.01 286.967 143.197 286.846C143.393 286.725 143.603 286.631 143.827 286.566C144.06 286.491 144.322 286.454 144.611 286.454C145.451 286.454 146.1 286.711 146.557 287.224C147.014 287.737 147.243 288.428 147.243 289.296V294H145.549V289.8C145.549 289.221 145.409 288.778 145.129 288.47C144.858 288.153 144.471 287.994 143.967 287.994C143.472 287.994 143.071 288.157 142.763 288.484C142.455 288.801 142.301 289.249 142.301 289.828ZM155.491 294H153.811V293.09C153.559 293.389 153.237 293.641 152.845 293.846C152.453 294.051 151.977 294.154 151.417 294.154C151.062 294.154 150.726 294.103 150.409 294C150.091 293.907 149.811 293.767 149.569 293.58C149.335 293.384 149.144 293.146 148.995 292.866C148.855 292.577 148.785 292.245 148.785 291.872V291.844C148.785 291.443 148.859 291.093 149.009 290.794C149.158 290.495 149.363 290.248 149.625 290.052C149.895 289.856 150.213 289.711 150.577 289.618C150.95 289.515 151.351 289.464 151.781 289.464C152.229 289.464 152.607 289.492 152.915 289.548C153.232 289.604 153.535 289.679 153.825 289.772V289.59C153.825 289.077 153.666 288.685 153.349 288.414C153.041 288.143 152.593 288.008 152.005 288.008C151.585 288.008 151.211 288.05 150.885 288.134C150.558 288.218 150.227 288.33 149.891 288.47L149.429 287.112C149.839 286.925 150.259 286.776 150.689 286.664C151.118 286.552 151.636 286.496 152.243 286.496C153.344 286.496 154.161 286.771 154.693 287.322C155.225 287.863 155.491 288.629 155.491 289.618V294ZM153.853 291.326V290.864C153.638 290.78 153.381 290.71 153.083 290.654C152.793 290.598 152.485 290.57 152.159 290.57C151.627 290.57 151.211 290.673 150.913 290.878C150.614 291.083 150.465 291.377 150.465 291.76V291.788C150.465 292.143 150.6 292.413 150.871 292.6C151.151 292.787 151.491 292.88 151.893 292.88C152.173 292.88 152.429 292.843 152.663 292.768C152.905 292.693 153.115 292.591 153.293 292.46C153.47 292.32 153.605 292.157 153.699 291.97C153.801 291.774 153.853 291.559 153.853 291.326ZM159.199 289.828V294H157.505V286.608H159.199V287.756C159.321 287.579 159.451 287.415 159.591 287.266C159.741 287.107 159.909 286.967 160.095 286.846C160.291 286.725 160.501 286.631 160.725 286.566C160.959 286.491 161.22 286.454 161.509 286.454C162.349 286.454 162.998 286.711 163.455 287.224C163.913 287.737 164.141 288.428 164.141 289.296V294H162.447V289.8C162.447 289.221 162.307 288.778 162.027 288.47C161.757 288.153 161.369 287.994 160.865 287.994C160.371 287.994 159.969 288.157 159.661 288.484C159.353 288.801 159.199 289.249 159.199 289.828ZM172.627 292.782C172.263 293.193 171.848 293.529 171.381 293.79C170.914 294.042 170.322 294.168 169.603 294.168C169.052 294.168 168.544 294.07 168.077 293.874C167.61 293.669 167.204 293.393 166.859 293.048C166.523 292.693 166.257 292.287 166.061 291.83C165.874 291.363 165.781 290.864 165.781 290.332C165.781 289.8 165.874 289.301 166.061 288.834C166.257 288.367 166.523 287.957 166.859 287.602C167.204 287.247 167.61 286.967 168.077 286.762C168.553 286.557 169.066 286.454 169.617 286.454C170.317 286.454 170.896 286.571 171.353 286.804C171.82 287.037 172.226 287.345 172.571 287.728L171.521 288.862C171.26 288.591 170.98 288.372 170.681 288.204C170.392 288.027 170.032 287.938 169.603 287.938C169.295 287.938 169.01 288.003 168.749 288.134C168.488 288.255 168.264 288.423 168.077 288.638C167.89 288.853 167.741 289.105 167.629 289.394C167.526 289.674 167.475 289.977 167.475 290.304C167.475 290.64 167.526 290.953 167.629 291.242C167.741 291.531 167.895 291.783 168.091 291.998C168.287 292.213 168.52 292.385 168.791 292.516C169.062 292.637 169.36 292.698 169.687 292.698C170.088 292.698 170.438 292.614 170.737 292.446C171.045 292.269 171.334 292.045 171.605 291.774L172.627 292.782ZM175.268 290.906C175.371 291.513 175.613 291.979 175.996 292.306C176.379 292.623 176.845 292.782 177.396 292.782C177.816 292.782 178.18 292.707 178.488 292.558C178.796 292.409 179.099 292.189 179.398 291.9L180.392 292.782C180.037 293.202 179.613 293.538 179.118 293.79C178.633 294.042 178.049 294.168 177.368 294.168C176.836 294.168 176.337 294.075 175.87 293.888C175.413 293.701 175.011 293.44 174.666 293.104C174.33 292.768 174.064 292.367 173.868 291.9C173.672 291.424 173.574 290.897 173.574 290.318C173.574 289.786 173.663 289.287 173.84 288.82C174.017 288.353 174.265 287.947 174.582 287.602C174.909 287.247 175.291 286.967 175.73 286.762C176.169 286.557 176.654 286.454 177.186 286.454C177.774 286.454 178.287 286.561 178.726 286.776C179.174 286.991 179.543 287.28 179.832 287.644C180.131 288.008 180.355 288.433 180.504 288.918C180.653 289.403 180.728 289.912 180.728 290.444C180.728 290.519 180.723 290.593 180.714 290.668C180.714 290.743 180.709 290.822 180.7 290.906H175.268ZM175.254 289.786H179.048C179.02 289.515 178.959 289.263 178.866 289.03C178.773 288.787 178.647 288.582 178.488 288.414C178.329 288.237 178.138 288.097 177.914 287.994C177.699 287.891 177.452 287.84 177.172 287.84C176.649 287.84 176.215 288.022 175.87 288.386C175.534 288.741 175.329 289.207 175.254 289.786ZM189.695 294H188.001V292.768C187.731 293.151 187.39 293.477 186.979 293.748C186.578 294.019 186.079 294.154 185.481 294.154C185.043 294.154 184.618 294.07 184.207 293.902C183.797 293.734 183.433 293.487 183.115 293.16C182.798 292.824 182.541 292.418 182.345 291.942C182.149 291.466 182.051 290.92 182.051 290.304C182.051 289.688 182.145 289.142 182.331 288.666C182.527 288.19 182.784 287.789 183.101 287.462C183.419 287.126 183.783 286.874 184.193 286.706C184.613 286.538 185.043 286.454 185.481 286.454C186.088 286.454 186.592 286.585 186.993 286.846C187.395 287.107 187.731 287.411 188.001 287.756V283.78H189.695V294ZM188.029 290.304C188.029 289.94 187.969 289.613 187.847 289.324C187.735 289.035 187.581 288.787 187.385 288.582C187.189 288.367 186.961 288.204 186.699 288.092C186.438 287.98 186.167 287.924 185.887 287.924C185.598 287.924 185.323 287.98 185.061 288.092C184.809 288.195 184.585 288.349 184.389 288.554C184.193 288.759 184.039 289.011 183.927 289.31C183.815 289.599 183.759 289.931 183.759 290.304C183.759 290.668 183.815 290.999 183.927 291.298C184.039 291.587 184.193 291.835 184.389 292.04C184.585 292.245 184.809 292.404 185.061 292.516C185.323 292.628 185.598 292.684 185.887 292.684C186.167 292.684 186.438 292.628 186.699 292.516C186.961 292.404 187.189 292.245 187.385 292.04C187.581 291.825 187.735 291.573 187.847 291.284C187.969 290.995 188.029 290.668 188.029 290.304ZM204.727 292.432C204.475 292.703 204.209 292.945 203.929 293.16C203.659 293.365 203.365 293.547 203.047 293.706C202.73 293.855 202.38 293.967 201.997 294.042C201.624 294.126 201.209 294.168 200.751 294.168C200.033 294.168 199.37 294.037 198.763 293.776C198.157 293.515 197.629 293.16 197.181 292.712C196.743 292.255 196.397 291.718 196.145 291.102C195.893 290.486 195.767 289.823 195.767 289.114C195.767 288.414 195.889 287.756 196.131 287.14C196.383 286.524 196.733 285.987 197.181 285.53C197.629 285.063 198.161 284.699 198.777 284.438C199.393 284.167 200.075 284.032 200.821 284.032C201.269 284.032 201.675 284.069 202.039 284.144C202.413 284.219 202.753 284.326 203.061 284.466C203.369 284.597 203.654 284.755 203.915 284.942C204.177 285.129 204.424 285.334 204.657 285.558L203.551 286.832C203.159 286.468 202.744 286.174 202.305 285.95C201.867 285.726 201.367 285.614 200.807 285.614C200.341 285.614 199.907 285.707 199.505 285.894C199.113 286.071 198.773 286.319 198.483 286.636C198.194 286.944 197.97 287.308 197.811 287.728C197.653 288.148 197.573 288.601 197.573 289.086C197.573 289.571 197.653 290.029 197.811 290.458C197.97 290.878 198.194 291.247 198.483 291.564C198.773 291.881 199.113 292.133 199.505 292.32C199.907 292.497 200.341 292.586 200.807 292.586C201.405 292.586 201.918 292.474 202.347 292.25C202.777 292.017 203.201 291.704 203.621 291.312L204.727 292.432ZM208.035 289.828V294H206.341V283.78H208.035V287.756C208.157 287.579 208.287 287.415 208.427 287.266C208.577 287.107 208.745 286.967 208.931 286.846C209.127 286.725 209.337 286.631 209.561 286.566C209.795 286.491 210.056 286.454 210.345 286.454C211.185 286.454 211.834 286.711 212.291 287.224C212.749 287.737 212.977 288.428 212.977 289.296V294H211.283V289.8C211.283 289.221 211.143 288.778 210.863 288.47C210.593 288.153 210.205 287.994 209.701 287.994C209.207 287.994 208.805 288.157 208.497 288.484C208.189 288.801 208.035 289.249 208.035 289.828ZM221.225 294H219.545V293.09C219.293 293.389 218.971 293.641 218.579 293.846C218.187 294.051 217.711 294.154 217.151 294.154C216.796 294.154 216.46 294.103 216.143 294C215.826 293.907 215.546 293.767 215.303 293.58C215.07 293.384 214.878 293.146 214.729 292.866C214.589 292.577 214.519 292.245 214.519 291.872V291.844C214.519 291.443 214.594 291.093 214.743 290.794C214.892 290.495 215.098 290.248 215.359 290.052C215.63 289.856 215.947 289.711 216.311 289.618C216.684 289.515 217.086 289.464 217.515 289.464C217.963 289.464 218.341 289.492 218.649 289.548C218.966 289.604 219.27 289.679 219.559 289.772V289.59C219.559 289.077 219.4 288.685 219.083 288.414C218.775 288.143 218.327 288.008 217.739 288.008C217.319 288.008 216.946 288.05 216.619 288.134C216.292 288.218 215.961 288.33 215.625 288.47L215.163 287.112C215.574 286.925 215.994 286.776 216.423 286.664C216.852 286.552 217.37 286.496 217.977 286.496C219.078 286.496 219.895 286.771 220.427 287.322C220.959 287.863 221.225 288.629 221.225 289.618V294ZM219.587 291.326V290.864C219.372 290.78 219.116 290.71 218.817 290.654C218.528 290.598 218.22 290.57 217.893 290.57C217.361 290.57 216.946 290.673 216.647 290.878C216.348 291.083 216.199 291.377 216.199 291.76V291.788C216.199 292.143 216.334 292.413 216.605 292.6C216.885 292.787 217.226 292.88 217.627 292.88C217.907 292.88 218.164 292.843 218.397 292.768C218.64 292.693 218.85 292.591 219.027 292.46C219.204 292.32 219.34 292.157 219.433 291.97C219.536 291.774 219.587 291.559 219.587 291.326ZM224.934 291.186V294H223.24V286.608H224.934V288.274C225.167 287.714 225.498 287.266 225.928 286.93C226.357 286.594 226.898 286.44 227.552 286.468V288.26H227.454C227.08 288.26 226.74 288.321 226.432 288.442C226.124 288.563 225.858 288.745 225.634 288.988C225.41 289.231 225.237 289.539 225.116 289.912C224.994 290.276 224.934 290.701 224.934 291.186ZM231.067 288.064V291.69C231.067 292.017 231.146 292.255 231.305 292.404C231.464 292.544 231.688 292.614 231.977 292.614C232.341 292.614 232.691 292.53 233.027 292.362V293.748C232.812 293.869 232.584 293.963 232.341 294.028C232.098 294.093 231.818 294.126 231.501 294.126C231.193 294.126 230.908 294.089 230.647 294.014C230.386 293.939 230.157 293.818 229.961 293.65C229.774 293.482 229.63 293.263 229.527 292.992C229.424 292.712 229.373 292.367 229.373 291.956V288.064H228.435V286.608H229.373V284.578H231.067V286.608H233.055V288.064H231.067ZM235.848 290.906C235.951 291.513 236.193 291.979 236.576 292.306C236.959 292.623 237.425 292.782 237.976 292.782C238.396 292.782 238.76 292.707 239.068 292.558C239.376 292.409 239.679 292.189 239.978 291.9L240.972 292.782C240.617 293.202 240.193 293.538 239.698 293.79C239.213 294.042 238.629 294.168 237.948 294.168C237.416 294.168 236.917 294.075 236.45 293.888C235.993 293.701 235.591 293.44 235.246 293.104C234.91 292.768 234.644 292.367 234.448 291.9C234.252 291.424 234.154 290.897 234.154 290.318C234.154 289.786 234.243 289.287 234.42 288.82C234.597 288.353 234.845 287.947 235.162 287.602C235.489 287.247 235.871 286.967 236.31 286.762C236.749 286.557 237.234 286.454 237.766 286.454C238.354 286.454 238.867 286.561 239.306 286.776C239.754 286.991 240.123 287.28 240.412 287.644C240.711 288.008 240.935 288.433 241.084 288.918C241.233 289.403 241.308 289.912 241.308 290.444C241.308 290.519 241.303 290.593 241.294 290.668C241.294 290.743 241.289 290.822 241.28 290.906H235.848ZM235.834 289.786H239.628C239.6 289.515 239.539 289.263 239.446 289.03C239.353 288.787 239.227 288.582 239.068 288.414C238.909 288.237 238.718 288.097 238.494 287.994C238.279 287.891 238.032 287.84 237.752 287.84C237.229 287.84 236.795 288.022 236.45 288.386C236.114 288.741 235.909 289.207 235.834 289.786ZM244.703 291.186V294H243.009V286.608H244.703V288.274C244.937 287.714 245.268 287.266 245.697 286.93C246.127 286.594 246.668 286.44 247.321 286.468V288.26H247.223C246.85 288.26 246.509 288.321 246.201 288.442C245.893 288.563 245.627 288.745 245.403 288.988C245.179 289.231 245.007 289.539 244.885 289.912C244.764 290.276 244.703 290.701 244.703 291.186ZM261.502 294H259.472L257.064 290.584H254.908V294H253.186V284.2H257.554C258.114 284.2 258.618 284.275 259.066 284.424C259.523 284.564 259.906 284.769 260.214 285.04C260.531 285.301 260.774 285.628 260.942 286.02C261.11 286.403 261.194 286.832 261.194 287.308C261.194 287.719 261.133 288.087 261.012 288.414C260.9 288.731 260.741 289.016 260.536 289.268C260.33 289.511 260.083 289.721 259.794 289.898C259.514 290.066 259.201 290.197 258.856 290.29L261.502 294ZM259.444 287.406C259.444 286.865 259.266 286.459 258.912 286.188C258.557 285.908 258.058 285.768 257.414 285.768H254.908V289.058H257.428C258.044 289.058 258.534 288.909 258.898 288.61C259.262 288.311 259.444 287.91 259.444 287.406ZM269.309 294H267.629V293.09C267.377 293.389 267.055 293.641 266.663 293.846C266.271 294.051 265.795 294.154 265.235 294.154C264.88 294.154 264.544 294.103 264.227 294C263.91 293.907 263.63 293.767 263.387 293.58C263.154 293.384 262.962 293.146 262.813 292.866C262.673 292.577 262.603 292.245 262.603 291.872V291.844C262.603 291.443 262.678 291.093 262.827 290.794C262.976 290.495 263.182 290.248 263.443 290.052C263.714 289.856 264.031 289.711 264.395 289.618C264.768 289.515 265.17 289.464 265.599 289.464C266.047 289.464 266.425 289.492 266.733 289.548C267.05 289.604 267.354 289.679 267.643 289.772V289.59C267.643 289.077 267.484 288.685 267.167 288.414C266.859 288.143 266.411 288.008 265.823 288.008C265.403 288.008 265.03 288.05 264.703 288.134C264.376 288.218 264.045 288.33 263.709 288.47L263.247 287.112C263.658 286.925 264.078 286.776 264.507 286.664C264.936 286.552 265.454 286.496 266.061 286.496C267.162 286.496 267.979 286.771 268.511 287.322C269.043 287.863 269.309 288.629 269.309 289.618V294ZM267.671 291.326V290.864C267.456 290.78 267.2 290.71 266.901 290.654C266.612 290.598 266.304 290.57 265.977 290.57C265.445 290.57 265.03 290.673 264.731 290.878C264.432 291.083 264.283 291.377 264.283 291.76V291.788C264.283 292.143 264.418 292.413 264.689 292.6C264.969 292.787 265.31 292.88 265.711 292.88C265.991 292.88 266.248 292.843 266.481 292.768C266.724 292.693 266.934 292.591 267.111 292.46C267.288 292.32 267.424 292.157 267.517 291.97C267.62 291.774 267.671 291.559 267.671 291.326ZM273.299 288.064V291.69C273.299 292.017 273.379 292.255 273.537 292.404C273.696 292.544 273.92 292.614 274.209 292.614C274.573 292.614 274.923 292.53 275.259 292.362V293.748C275.045 293.869 274.816 293.963 274.573 294.028C274.331 294.093 274.051 294.126 273.733 294.126C273.425 294.126 273.141 294.089 272.879 294.014C272.618 293.939 272.389 293.818 272.193 293.65C272.007 293.482 271.862 293.263 271.759 292.992C271.657 292.712 271.605 292.367 271.605 291.956V288.064H270.667V286.608H271.605V284.578H273.299V286.608H275.287V288.064H273.299ZM278.846 285.474H277.026V283.864H278.846V285.474ZM278.79 294H277.096V286.608H278.79V294ZM282.697 289.828V294H281.003V286.608H282.697V287.756C282.819 287.579 282.949 287.415 283.089 287.266C283.239 287.107 283.407 286.967 283.593 286.846C283.789 286.725 283.999 286.631 284.223 286.566C284.457 286.491 284.718 286.454 285.007 286.454C285.847 286.454 286.496 286.711 286.953 287.224C287.411 287.737 287.639 288.428 287.639 289.296V294H285.945V289.8C285.945 289.221 285.805 288.778 285.525 288.47C285.255 288.153 284.867 287.994 284.363 287.994C283.869 287.994 283.467 288.157 283.159 288.484C282.851 288.801 282.697 289.249 282.697 289.828ZM296.951 292.488C296.951 293.795 296.606 294.751 295.915 295.358C295.224 295.965 294.244 296.268 292.975 296.268C291.743 296.268 290.642 295.974 289.671 295.386L290.301 294.112C290.693 294.355 291.104 294.546 291.533 294.686C291.962 294.826 292.429 294.896 292.933 294.896C293.689 294.896 294.268 294.705 294.669 294.322C295.07 293.939 295.271 293.375 295.271 292.628V292.054C294.963 292.455 294.604 292.782 294.193 293.034C293.782 293.286 293.274 293.412 292.667 293.412C292.228 293.412 291.808 293.337 291.407 293.188C291.006 293.029 290.646 292.801 290.329 292.502C290.021 292.203 289.774 291.839 289.587 291.41C289.4 290.981 289.307 290.491 289.307 289.94C289.307 289.389 289.4 288.899 289.587 288.47C289.774 288.041 290.021 287.677 290.329 287.378C290.646 287.079 291.006 286.851 291.407 286.692C291.818 286.533 292.238 286.454 292.667 286.454C293.292 286.454 293.806 286.58 294.207 286.832C294.618 287.075 294.968 287.369 295.257 287.714V286.608H296.951V292.488ZM295.285 289.94C295.285 289.632 295.224 289.352 295.103 289.1C294.991 288.839 294.837 288.619 294.641 288.442C294.445 288.265 294.212 288.129 293.941 288.036C293.68 287.933 293.404 287.882 293.115 287.882C292.816 287.882 292.541 287.933 292.289 288.036C292.037 288.129 291.813 288.265 291.617 288.442C291.43 288.619 291.281 288.834 291.169 289.086C291.066 289.338 291.015 289.618 291.015 289.926C291.015 290.234 291.071 290.514 291.183 290.766C291.295 291.018 291.444 291.237 291.631 291.424C291.818 291.601 292.037 291.741 292.289 291.844C292.55 291.937 292.826 291.984 293.115 291.984C293.404 291.984 293.68 291.937 293.941 291.844C294.212 291.741 294.445 291.601 294.641 291.424C294.837 291.237 294.991 291.023 295.103 290.78C295.224 290.528 295.285 290.248 295.285 289.94ZM304.342 291.816C304.342 292.208 304.272 292.549 304.132 292.838C303.992 293.127 303.796 293.37 303.544 293.566C303.301 293.753 303.012 293.897 302.676 294C302.34 294.093 301.981 294.14 301.598 294.14C301.066 294.14 300.525 294.047 299.974 293.86C299.433 293.673 298.929 293.398 298.462 293.034L299.218 291.886C299.619 292.185 300.025 292.413 300.436 292.572C300.856 292.721 301.257 292.796 301.64 292.796C302.004 292.796 302.284 292.726 302.48 292.586C302.685 292.437 302.788 292.241 302.788 291.998V291.97C302.788 291.83 302.741 291.709 302.648 291.606C302.564 291.503 302.443 291.415 302.284 291.34C302.135 291.256 301.957 291.186 301.752 291.13C301.556 291.065 301.351 290.999 301.136 290.934C300.865 290.85 300.59 290.757 300.31 290.654C300.039 290.551 299.792 290.421 299.568 290.262C299.353 290.094 299.176 289.893 299.036 289.66C298.896 289.417 298.826 289.119 298.826 288.764V288.736C298.826 288.391 298.891 288.078 299.022 287.798C299.162 287.518 299.349 287.28 299.582 287.084C299.825 286.888 300.105 286.739 300.422 286.636C300.749 286.533 301.094 286.482 301.458 286.482C301.925 286.482 302.396 286.557 302.872 286.706C303.348 286.855 303.782 287.061 304.174 287.322L303.502 288.526C303.147 288.311 302.788 288.143 302.424 288.022C302.06 287.891 301.724 287.826 301.416 287.826C301.089 287.826 300.833 287.896 300.646 288.036C300.469 288.176 300.38 288.353 300.38 288.568V288.596C300.38 288.727 300.427 288.843 300.52 288.946C300.613 289.039 300.735 289.128 300.884 289.212C301.043 289.287 301.22 289.361 301.416 289.436C301.621 289.501 301.831 289.567 302.046 289.632C302.317 289.716 302.587 289.814 302.858 289.926C303.129 290.038 303.371 290.178 303.586 290.346C303.81 290.505 303.992 290.701 304.132 290.934C304.272 291.167 304.342 291.452 304.342 291.788V291.816Z" fill="#454545"/>
<rect x="69.7412" y="262.5" width="287" height="55" rx="11.5" stroke="#EFEFEF"/>
<path fill-rule="evenodd" clip-rule="evenodd" d="M150.882 67.3188C150.882 68.376 151.092 69.423 151.5 70.4004C151.908 71.3778 152.507 72.2668 153.262 73.0163C154.018 73.7657 154.916 74.3609 155.905 74.7673C156.894 75.1736 157.954 75.3829 159.026 75.3829C160.097 75.3829 161.157 75.1736 162.146 74.7673C163.135 74.3609 164.033 73.7657 164.789 73.0163C165.544 72.2668 166.143 71.3778 166.551 70.4004C166.959 69.423 167.169 68.376 167.169 67.3188H170.461C170.461 68.812 170.164 70.2902 169.589 71.6689L168.07 71.0347L169.589 71.6689C169.013 73.0476 168.169 74.2994 167.107 75.3533C166.044 76.4071 164.784 77.2424 163.397 77.812C162.011 78.3816 160.526 78.6746 159.026 78.6746C157.526 78.6746 156.04 78.3816 154.654 77.812C153.268 77.2424 152.007 76.4071 150.944 75.3533C149.882 74.2994 149.038 73.0476 148.463 71.6689C147.887 70.2902 147.59 68.812 147.59 67.3188H150.882Z" fill="#2D3AAF"/>
<path d="M148.942 63.8563C149.097 63.6566 149.398 63.6566 149.553 63.8563L152.032 67.049C152.23 67.3034 152.049 67.6738 151.726 67.6738H146.769C146.446 67.6738 146.265 67.3034 146.463 67.049L148.942 63.8563Z" fill="#2D3AAF"/>
<path d="M168.498 63.8563C168.653 63.6566 168.955 63.6566 169.11 63.8563L171.589 67.049C171.786 67.3034 171.605 67.6738 171.283 67.6738H166.325C166.003 67.6738 165.822 67.3034 166.019 67.049L168.498 63.8563Z" fill="#2D3AAF"/>
<path fill-rule="evenodd" clip-rule="evenodd" d="M157.283 76.995V59.0078H160.575V76.995H157.283Z" fill="#2D3AAF"/>
<path fill-rule="evenodd" clip-rule="evenodd" d="M165.007 65.3986C165.007 66.3076 164.27 67.0444 163.361 67.0444H154.766C153.857 67.0444 153.12 66.3076 153.12 65.3986C153.12 64.4896 153.857 63.7528 154.766 63.7528H163.361C164.27 63.7528 165.007 64.4896 165.007 65.3986Z" fill="#2D3AAF"/>
<path fill-rule="evenodd" clip-rule="evenodd" d="M158.973 57.3546C159.8 57.3546 160.47 56.6845 160.47 55.8579C160.47 55.0313 159.8 54.3611 158.973 54.3611C158.147 54.3611 157.477 55.0313 157.477 55.8579C157.477 56.6845 158.147 57.3546 158.973 57.3546ZM158.973 59.6782C161.083 59.6782 162.794 57.9678 162.794 55.8579C162.794 53.748 161.083 52.0376 158.973 52.0376C156.864 52.0376 155.153 53.748 155.153 55.8579C155.153 57.9678 156.864 59.6782 158.973 59.6782Z" fill="#2D3AAF"/>
<path d="M182.834 65.5646C182.834 52.5491 172.151 41.9683 159.026 41.9683C145.9 41.9683 135.209 52.5566 135.209 65.5646C135.209 71.6065 137.514 77.3327 141.692 81.7289C141.753 81.8191 141.821 81.9092 141.897 81.9844L157.926 97.8706C158.222 98.1637 158.609 98.314 159.003 98.314C159.397 98.314 159.784 98.1637 160.08 97.8706C160.671 97.2844 160.671 96.3301 160.08 95.7364L144.217 80.023C144.179 79.9704 144.141 79.9103 144.088 79.8652C140.327 76.0026 138.25 70.9302 138.25 65.5721C138.25 54.2173 147.569 44.9817 159.018 44.9817C170.467 44.9817 179.794 54.2173 179.794 65.5721C179.794 71.0654 177.633 76.2281 173.705 80.1207C173.705 80.1207 173.705 80.1282 173.69 80.1358C173.69 80.1358 173.675 80.1433 173.675 80.1508L170.665 83.1341C170.073 83.7203 170.073 84.6747 170.665 85.2608C170.96 85.5539 171.347 85.7042 171.741 85.7042C172.135 85.7042 172.522 85.5539 172.818 85.2608L175.828 82.2775C175.828 82.2775 175.836 82.2699 175.843 82.2624C175.843 82.2624 175.858 82.2549 175.858 82.2474C180.362 77.7836 182.842 71.862 182.842 65.5646H182.834Z" fill="#2D3AAF"/>
<path fill-rule="evenodd" clip-rule="evenodd" d="M134.241 65.5645C134.241 52.0132 145.374 41 159.026 41C172.351 41 183.269 51.4858 183.783 64.5964H183.81V65.5645C183.81 72.1018 181.242 78.2524 176.584 82.8915C176.548 82.9317 176.514 82.9641 176.485 82.989L173.499 85.9483C173.017 86.4261 172.384 86.6722 171.741 86.6722C171.099 86.6722 170.465 86.4261 169.983 85.9483C169.009 84.9834 169.009 83.4113 169.983 82.4464L172.95 79.5057C172.95 79.5057 172.95 79.5056 172.95 79.5057C172.985 79.466 173.019 79.4339 173.047 79.4093C176.778 75.6998 178.826 70.7939 178.826 65.572C178.826 54.7603 169.941 45.9497 159.018 45.9497C148.095 45.9497 139.218 54.7598 139.218 65.572C139.218 70.6649 141.187 75.4868 144.761 79.1678C144.836 79.2384 144.892 79.3062 144.927 79.3527C144.938 79.3674 144.949 79.3814 144.958 79.3938L160.763 95.0507L160.765 95.053C161.731 96.022 161.737 97.5908 160.761 98.5581C160.279 99.0358 159.645 99.282 159.003 99.282C158.36 99.282 157.727 99.0358 157.245 98.5581L141.215 82.6719C141.103 82.5606 141.011 82.4428 140.938 82.3406C136.624 77.7736 134.241 71.8319 134.241 65.5645ZM181.866 66.1549V65.5645C181.866 53.092 171.624 42.9363 159.026 42.9363C146.427 42.9363 136.177 53.0997 136.177 65.5645C136.177 71.3557 138.385 76.8438 142.394 81.0618L142.45 81.1208L142.496 81.1884C142.539 81.2527 142.567 81.2847 142.579 81.2966L158.608 97.1828C158.717 97.2913 158.857 97.3457 159.003 97.3457C159.149 97.3457 159.289 97.2913 159.398 97.1828C159.604 96.9784 159.611 96.6397 159.395 96.4213C159.395 96.4207 159.394 96.4201 159.394 96.4196L143.479 80.6542L143.432 80.589C143.425 80.5796 143.419 80.5708 143.414 80.5636L143.405 80.5508L143.395 80.5405C139.46 76.4991 137.282 71.1851 137.282 65.572C137.282 53.6746 147.042 44.0134 159.018 44.0134C170.994 44.0134 180.762 53.6741 180.762 65.572C180.762 71.2048 178.59 76.508 174.643 80.55V80.5542L174.43 80.7657C174.398 80.8019 174.365 80.8341 174.331 80.8628L171.346 83.8217C171.137 84.029 171.137 84.3657 171.346 84.5731C171.455 84.6815 171.595 84.7359 171.741 84.7359C171.887 84.7359 172.027 84.6815 172.136 84.5731L175.147 81.5897L175.147 81.5893L175.148 81.5884L175.177 81.5596C175.179 81.5575 175.181 81.5553 175.184 81.5531C179.36 77.4104 181.717 71.9677 181.866 66.1549ZM173.26 79.2682C173.26 79.2682 173.26 79.2683 173.26 79.2683C173.258 79.2694 173.255 79.2705 173.253 79.2716L173.254 79.2709L173.257 79.2695L173.259 79.2688L173.259 79.2685L173.26 79.2683C173.26 79.2682 173.26 79.2682 173.66 80.075L173.26 79.2682ZM174.12 81.0029L174.12 81.0028L174.121 81.0026C174.12 81.0027 174.12 81.0028 174.12 81.0029Z" fill="#2D3AAF"/>
<path d="M198.52 57.8488H195.778V55.4234H198.52V57.8488ZM198.435 70.6928H195.883V59.5571H198.435V70.6928Z" fill="#2D3AAF"/>
<path d="M214.47 68.3307C214.091 68.7384 213.69 69.104 213.268 69.4274C212.86 69.7367 212.417 70.0109 211.939 70.2499C211.461 70.4749 210.934 70.6436 210.358 70.7561C209.795 70.8826 209.169 70.9459 208.481 70.9459C207.398 70.9459 206.4 70.749 205.486 70.3554C204.572 69.9617 203.777 69.4274 203.102 68.7525C202.442 68.0635 201.921 67.2551 201.542 66.3271C201.162 65.3991 200.972 64.4009 200.972 63.3323C200.972 62.2778 201.155 61.2865 201.521 60.3585C201.9 59.4306 202.428 58.6221 203.102 57.9332C203.777 57.2302 204.579 56.6818 205.507 56.2881C206.435 55.8804 207.461 55.6765 208.586 55.6765C209.261 55.6765 209.872 55.7327 210.421 55.8452C210.983 55.9577 211.496 56.1194 211.96 56.3303C212.424 56.5271 212.853 56.7662 213.247 57.0474C213.641 57.3286 214.013 57.6379 214.365 57.9753L212.699 59.8946C212.108 59.3462 211.482 58.9033 210.822 58.5659C210.161 58.2284 209.408 58.0597 208.565 58.0597C207.862 58.0597 207.208 58.2003 206.603 58.4815C206.013 58.7487 205.5 59.1212 205.064 59.5993C204.628 60.0633 204.291 60.6116 204.052 61.2443C203.813 61.877 203.693 62.559 203.693 63.2901C203.693 64.0212 203.813 64.7102 204.052 65.3569C204.291 65.9897 204.628 66.545 205.064 67.0231C205.5 67.5011 206.013 67.8808 206.603 68.162C207.208 68.4291 207.862 68.5627 208.565 68.5627C209.465 68.5627 210.238 68.394 210.885 68.0565C211.532 67.705 212.171 67.234 212.804 66.6435L214.47 68.3307Z" fill="#2D3AAF"/>
<path d="M219.014 64.4079V70.6928H216.462V55.2969H219.014V61.2865C219.197 61.0194 219.394 60.7733 219.605 60.5484C219.83 60.3093 220.083 60.0984 220.364 59.9157C220.659 59.7329 220.975 59.5923 221.313 59.4938C221.664 59.3814 222.058 59.3251 222.494 59.3251C223.759 59.3251 224.737 59.7118 225.425 60.4851C226.114 61.2584 226.459 62.2989 226.459 63.6065V70.6928H223.907V64.3657C223.907 63.494 223.696 62.8261 223.274 62.3621C222.867 61.8841 222.283 61.6451 221.524 61.6451C220.779 61.6451 220.174 61.8911 219.71 62.3832C219.246 62.8613 219.014 63.5362 219.014 64.4079Z" fill="#2D3AAF"/>
<path d="M238.444 70.6928H235.913V69.3219C235.534 69.7719 235.049 70.1515 234.458 70.4608C233.868 70.7701 233.151 70.9248 232.307 70.9248C231.773 70.9248 231.266 70.8475 230.788 70.6928C230.31 70.5522 229.889 70.3413 229.523 70.0601C229.171 69.7648 228.883 69.4063 228.658 68.9845C228.447 68.5486 228.342 68.0495 228.342 67.4871V67.4449C228.342 66.8403 228.454 66.313 228.679 65.8631C228.904 65.4132 229.214 65.0406 229.607 64.7453C230.015 64.4501 230.493 64.2321 231.041 64.0915C231.604 63.9369 232.208 63.8595 232.855 63.8595C233.53 63.8595 234.1 63.9017 234.564 63.9861C235.042 64.0704 235.499 64.1829 235.934 64.3235V64.0493C235.934 63.276 235.695 62.6855 235.217 62.2778C234.753 61.87 234.078 61.6661 233.193 61.6661C232.56 61.6661 231.998 61.7294 231.505 61.856C231.013 61.9825 230.514 62.1512 230.008 62.3621L229.312 60.3164C229.931 60.0352 230.563 59.8102 231.21 59.6415C231.857 59.4728 232.637 59.3884 233.551 59.3884C235.21 59.3884 236.441 59.8032 237.242 60.6327C238.043 61.4482 238.444 62.6011 238.444 64.0915V70.6928ZM235.977 66.6645V65.9686C235.653 65.842 235.267 65.7366 234.817 65.6522C234.381 65.5679 233.917 65.5257 233.425 65.5257C232.623 65.5257 231.998 65.6803 231.548 65.9897C231.098 66.299 230.873 66.7419 230.873 67.3183V67.3605C230.873 67.8948 231.077 68.3026 231.484 68.5838C231.906 68.865 232.419 69.0056 233.024 69.0056C233.446 69.0056 233.832 68.9493 234.184 68.8368C234.549 68.7244 234.866 68.5697 235.133 68.3729C235.4 68.162 235.604 67.9159 235.745 67.6347C235.899 67.3394 235.977 67.0161 235.977 66.6645Z" fill="#2D3AAF"/>
<path d="M243.592 66.4536V70.6928H241.04V59.5571H243.592V62.0669C243.943 61.2232 244.443 60.5484 245.089 60.0422C245.736 59.536 246.552 59.304 247.536 59.3462V62.0458H247.388C246.826 62.0458 246.313 62.1372 245.849 62.3199C245.385 62.5027 244.984 62.7769 244.646 63.1425C244.309 63.508 244.049 63.972 243.866 64.5344C243.683 65.0828 243.592 65.7225 243.592 66.4536Z" fill="#2D3AAF"/>
<path d="M252.392 61.7505V67.2129C252.392 67.705 252.511 68.0635 252.75 68.2885C252.989 68.4994 253.327 68.6049 253.763 68.6049C254.311 68.6049 254.838 68.4783 255.345 68.2252V70.3132C255.021 70.496 254.677 70.6366 254.311 70.735C253.946 70.8334 253.524 70.8826 253.046 70.8826C252.582 70.8826 252.153 70.8264 251.759 70.7139C251.365 70.6014 251.021 70.4186 250.726 70.1655C250.445 69.9125 250.227 69.582 250.072 69.1743C249.917 68.7525 249.84 68.2323 249.84 67.6136V61.7505H248.427V59.5571H249.84V56.499H252.392V59.5571H255.387V61.7505H252.392Z" fill="#2D3AAF"/>
<path d="M259.155 66.0318C259.31 66.9458 259.675 67.6488 260.252 68.1409C260.828 68.6189 261.531 68.8579 262.361 68.8579C262.993 68.8579 263.542 68.7455 264.006 68.5205C264.47 68.2955 264.927 67.9651 265.377 67.5292L266.874 68.8579C266.34 69.4906 265.7 69.9968 264.955 70.3764C264.224 70.7561 263.345 70.9459 262.319 70.9459C261.517 70.9459 260.765 70.8053 260.062 70.5241C259.373 70.2429 258.768 69.8492 258.248 69.343C257.742 68.8368 257.341 68.2323 257.046 67.5292C256.751 66.8122 256.603 66.0178 256.603 65.146C256.603 64.3446 256.737 63.5924 257.004 62.8894C257.271 62.1864 257.644 61.5748 258.122 61.0545C258.614 60.5202 259.19 60.0984 259.851 59.7891C260.512 59.4798 261.243 59.3251 262.044 59.3251C262.93 59.3251 263.703 59.4868 264.364 59.8102C265.039 60.1336 265.595 60.5694 266.03 61.1178C266.48 61.6661 266.818 62.3059 267.043 63.037C267.268 63.7681 267.38 64.5344 267.38 65.3359C267.38 65.4483 267.373 65.5608 267.359 65.6733C267.359 65.7858 267.352 65.9053 267.338 66.0318H259.155ZM259.134 64.3446H264.849C264.807 63.9369 264.716 63.5572 264.575 63.2057C264.435 62.8402 264.245 62.5308 264.006 62.2778C263.767 62.0106 263.479 61.7997 263.141 61.6451C262.818 61.4904 262.445 61.4131 262.023 61.4131C261.236 61.4131 260.582 61.6872 260.062 62.2356C259.556 62.7699 259.246 63.4729 259.134 64.3446Z" fill="#2D3AAF"/>
<path d="M272.056 66.4536V70.6928H269.504V59.5571H272.056V62.0669C272.407 61.2232 272.906 60.5484 273.553 60.0422C274.2 59.536 275.015 59.304 275.999 59.3462V62.0458H275.852C275.289 62.0458 274.776 62.1372 274.312 62.3199C273.848 62.5027 273.448 62.7769 273.11 63.1425C272.773 63.508 272.513 63.972 272.33 64.5344C272.147 65.0828 272.056 65.7225 272.056 66.4536Z" fill="#2D3AAF"/>
<path d="M202.822 79.8102C202.822 80.3098 202.731 80.779 202.549 81.2178C202.366 81.6499 202.106 82.0246 201.769 82.3419C201.438 82.6592 201.04 82.909 200.574 83.0912C200.115 83.2735 199.608 83.3647 199.055 83.3647H196.412V76.276H199.055C199.608 76.276 200.115 76.3671 200.574 76.5494C201.04 76.7249 201.438 76.9713 201.769 77.2886C202.106 77.6059 202.366 77.9806 202.549 78.4127C202.731 78.8448 202.822 79.3106 202.822 79.8102ZM201.516 79.8304C201.516 79.4794 201.455 79.1587 201.333 78.8684C201.219 78.5714 201.053 78.3148 200.837 78.0988C200.628 77.8827 200.371 77.714 200.067 77.5924C199.764 77.4709 199.426 77.4102 199.055 77.4102H197.657V82.2305H199.055C199.426 82.2305 199.764 82.1731 200.067 82.0583C200.371 81.9368 200.628 81.7714 200.837 81.5621C201.053 81.3461 201.219 81.0929 201.333 80.8026C201.455 80.5056 201.516 80.1815 201.516 79.8304Z" fill="#2D3AAF"/>
<path d="M205.206 81.3292V83.3647H203.98V78.0178H205.206V79.2228C205.374 78.8178 205.614 78.4937 205.925 78.2507C206.235 78.0076 206.627 77.8962 207.099 77.9165V79.2127H207.029C206.758 79.2127 206.512 79.2566 206.289 79.3444C206.066 79.4321 205.874 79.5638 205.712 79.7393C205.55 79.9148 205.425 80.1376 205.337 80.4077C205.25 80.671 205.206 80.9781 205.206 81.3292Z" fill="#2D3AAF"/>
<path d="M213.182 80.6912C213.182 81.076 213.108 81.4372 212.959 81.7748C212.818 82.1123 212.619 82.4094 212.362 82.6659C212.112 82.9157 211.812 83.1149 211.461 83.2634C211.11 83.4119 210.728 83.4862 210.316 83.4862C209.911 83.4862 209.533 83.4153 209.182 83.2735C208.838 83.125 208.537 82.9258 208.281 82.6761C208.031 82.4195 207.835 82.1258 207.694 81.795C207.552 81.4575 207.481 81.0963 207.481 80.7115C207.481 80.3267 207.552 79.9655 207.694 79.6279C207.842 79.2836 208.041 78.9866 208.291 78.7368C208.548 78.4802 208.848 78.2777 209.192 78.1292C209.543 77.9806 209.925 77.9064 210.337 77.9064C210.748 77.9064 211.127 77.9806 211.471 78.1292C211.822 78.2709 212.122 78.4701 212.372 78.7266C212.629 78.9764 212.828 79.2701 212.97 79.6077C213.111 79.9452 213.182 80.3064 213.182 80.6912ZM211.957 80.7115C211.957 80.4752 211.916 80.2524 211.835 80.0431C211.754 79.8338 211.64 79.6515 211.491 79.4963C211.349 79.3342 211.177 79.2093 210.975 79.1216C210.779 79.0271 210.559 78.9798 210.316 78.9798C210.073 78.9798 209.851 79.0271 209.648 79.1216C209.452 79.2093 209.283 79.3309 209.142 79.4861C209 79.6414 208.892 79.8237 208.818 80.033C208.743 80.2355 208.706 80.4549 208.706 80.6912C208.706 80.9275 208.747 81.1537 208.828 81.3697C208.909 81.579 209.02 81.7613 209.162 81.9165C209.31 82.0718 209.483 82.1967 209.678 82.2912C209.881 82.379 210.1 82.4229 210.337 82.4229C210.586 82.4229 210.809 82.379 211.005 82.2912C211.208 82.1967 211.38 82.0718 211.521 81.9165C211.663 81.7613 211.771 81.5824 211.846 81.3798C211.92 81.1705 211.957 80.9478 211.957 80.7115Z" fill="#2D3AAF"/>
<path d="M219.748 80.6912C219.748 81.1368 219.677 81.5317 219.536 81.876C219.401 82.2203 219.215 82.514 218.979 82.7571C218.749 82.9934 218.483 83.1723 218.179 83.2938C217.882 83.4153 217.574 83.4761 217.257 83.4761C216.818 83.4761 216.454 83.3815 216.163 83.1925C215.873 83.0035 215.634 82.7841 215.445 82.5343V84.9849H214.219V78.0178H215.445V78.9089C215.64 78.6254 215.883 78.3891 216.174 78.2C216.464 78.0043 216.825 77.9064 217.257 77.9064C217.574 77.9064 217.882 77.9671 218.179 78.0887C218.476 78.2102 218.739 78.3925 218.969 78.6355C219.205 78.8718 219.394 79.1621 219.536 79.5064C219.677 79.8507 219.748 80.2456 219.748 80.6912ZM218.503 80.6912C218.503 80.4279 218.462 80.1916 218.381 79.9823C218.3 79.7663 218.189 79.584 218.047 79.4355C217.912 79.287 217.75 79.1722 217.561 79.0912C217.379 79.0102 217.183 78.9697 216.974 78.9697C216.764 78.9697 216.565 79.0102 216.376 79.0912C216.187 79.1722 216.022 79.2904 215.88 79.4456C215.738 79.5942 215.623 79.7731 215.536 79.9823C215.455 80.1916 215.414 80.4279 215.414 80.6912C215.414 80.9545 215.455 81.1908 215.536 81.4001C215.623 81.6094 215.738 81.7917 215.88 81.9469C216.022 82.0955 216.187 82.2102 216.376 82.2912C216.565 82.3722 216.764 82.4128 216.974 82.4128C217.183 82.4128 217.379 82.3722 217.561 82.2912C217.75 82.2102 217.912 82.0955 218.047 81.9469C218.189 81.7984 218.3 81.6195 218.381 81.4102C218.462 81.1942 218.503 80.9545 218.503 80.6912Z" fill="#2D3AAF"/>
<path d="M227.425 76.2253L230.544 83.3647H229.228L228.509 81.6533H225.157L224.428 83.3647H223.152L226.271 76.2253H227.425ZM228.053 80.5494L226.828 77.714L225.612 80.5494H228.053Z" fill="#2D3AAF"/>
<path d="M232.632 80.3469V83.3647H231.407V78.0178H232.632V78.8482C232.72 78.7199 232.815 78.6017 232.916 78.4937C233.024 78.3789 233.145 78.2777 233.28 78.1899C233.422 78.1022 233.574 78.0346 233.736 77.9874C233.905 77.9334 234.094 77.9064 234.303 77.9064C234.911 77.9064 235.38 78.092 235.711 78.4633C236.042 78.8347 236.207 79.3342 236.207 79.9621V83.3647H234.982V80.3267C234.982 79.9081 234.88 79.5874 234.678 79.3646C234.482 79.1351 234.202 79.0203 233.837 79.0203C233.479 79.0203 233.189 79.1385 232.966 79.3747C232.744 79.6043 232.632 79.9283 232.632 80.3469Z" fill="#2D3AAF"/>
<path d="M244.108 76.2253L247.227 83.3647H245.911L245.192 81.6533H241.84L241.111 83.3647H239.835L242.954 76.2253H244.108ZM244.736 80.5494L243.511 77.714L242.296 80.5494H244.736Z" fill="#2D3AAF"/>
<path d="M249.316 80.3469V83.3647H248.09V78.0178H249.316V78.8482C249.403 78.7199 249.498 78.6017 249.599 78.4937C249.707 78.3789 249.829 78.2777 249.964 78.1899C250.105 78.1022 250.257 78.0346 250.419 77.9874C250.588 77.9334 250.777 77.9064 250.986 77.9064C251.594 77.9064 252.063 78.092 252.394 78.4633C252.725 78.8347 252.89 79.3342 252.89 79.9621V83.3647H251.665V80.3267C251.665 79.9081 251.564 79.5874 251.361 79.3646C251.165 79.1351 250.885 79.0203 250.521 79.0203C250.163 79.0203 249.873 79.1385 249.65 79.3747C249.427 79.6043 249.316 79.9283 249.316 80.3469Z" fill="#2D3AAF"/>
<path d="M258.817 82.4836C258.554 82.7807 258.254 83.0237 257.916 83.2128C257.578 83.395 257.15 83.4862 256.63 83.4862C256.232 83.4862 255.864 83.4153 255.526 83.2735C255.189 83.125 254.895 82.9258 254.645 82.6761C254.402 82.4195 254.21 82.1258 254.068 81.795C253.933 81.4575 253.865 81.0963 253.865 80.7115C253.865 80.3267 253.933 79.9655 254.068 79.6279C254.21 79.2904 254.402 78.9933 254.645 78.7368C254.895 78.4802 255.189 78.2777 255.526 78.1292C255.87 77.9806 256.242 77.9064 256.64 77.9064C257.146 77.9064 257.565 77.9908 257.896 78.1595C258.233 78.3283 258.527 78.5511 258.777 78.8279L258.017 79.6482C257.828 79.4524 257.626 79.2937 257.41 79.1722C257.2 79.0439 256.94 78.9798 256.63 78.9798C256.407 78.9798 256.201 79.0271 256.012 79.1216C255.823 79.2093 255.661 79.3309 255.526 79.4861C255.391 79.6414 255.283 79.8237 255.202 80.033C255.128 80.2355 255.091 80.4549 255.091 80.6912C255.091 80.9343 255.128 81.1604 255.202 81.3697C255.283 81.579 255.394 81.7613 255.536 81.9165C255.678 82.0718 255.847 82.1967 256.043 82.2912C256.238 82.379 256.454 82.4229 256.691 82.4229C256.981 82.4229 257.234 82.3621 257.45 82.2406C257.673 82.1123 257.882 81.9503 258.078 81.7545L258.817 82.4836Z" fill="#2D3AAF"/>
<path d="M260.959 80.3469V83.3647H259.733V75.9722H260.959V78.8482C261.046 78.7199 261.141 78.6017 261.242 78.4937C261.35 78.3789 261.472 78.2777 261.607 78.1899C261.749 78.1022 261.9 78.0346 262.062 77.9874C262.231 77.9334 262.42 77.9064 262.63 77.9064C263.237 77.9064 263.706 78.092 264.037 78.4633C264.368 78.8347 264.533 79.3342 264.533 79.9621V83.3647H263.308V80.3267C263.308 79.9081 263.207 79.5874 263.004 79.3646C262.808 79.1351 262.528 79.0203 262.164 79.0203C261.806 79.0203 261.516 79.1385 261.293 79.3747C261.07 79.6043 260.959 79.9283 260.959 80.3469Z" fill="#2D3AAF"/>
<path d="M271.21 80.6912C271.21 81.076 271.136 81.4372 270.987 81.7748C270.845 82.1123 270.646 82.4094 270.39 82.6659C270.14 82.9157 269.839 83.1149 269.488 83.2634C269.137 83.4119 268.756 83.4862 268.344 83.4862C267.939 83.4862 267.561 83.4153 267.21 83.2735C266.865 83.125 266.565 82.9258 266.308 82.6761C266.059 82.4195 265.863 82.1258 265.721 81.795C265.579 81.4575 265.508 81.0963 265.508 80.7115C265.508 80.3267 265.579 79.9655 265.721 79.6279C265.87 79.2836 266.069 78.9866 266.319 78.7368C266.575 78.4802 266.876 78.2777 267.22 78.1292C267.571 77.9806 267.952 77.9064 268.364 77.9064C268.776 77.9064 269.154 77.9806 269.498 78.1292C269.849 78.2709 270.15 78.4701 270.4 78.7266C270.656 78.9764 270.855 79.2701 270.997 79.6077C271.139 79.9452 271.21 80.3064 271.21 80.6912ZM269.984 80.7115C269.984 80.4752 269.944 80.2524 269.863 80.0431C269.782 79.8338 269.667 79.6515 269.519 79.4963C269.377 79.3342 269.205 79.2093 269.002 79.1216C268.806 79.0271 268.587 78.9798 268.344 78.9798C268.101 78.9798 267.878 79.0271 267.676 79.1216C267.48 79.2093 267.311 79.3309 267.169 79.4861C267.027 79.6414 266.919 79.8237 266.845 80.033C266.771 80.2355 266.734 80.4549 266.734 80.6912C266.734 80.9275 266.774 81.1537 266.855 81.3697C266.936 81.579 267.048 81.7613 267.189 81.9165C267.338 82.0718 267.51 82.1967 267.706 82.2912C267.908 82.379 268.128 82.4229 268.364 82.4229C268.614 82.4229 268.837 82.379 269.033 82.2912C269.235 82.1967 269.407 82.0718 269.549 81.9165C269.691 81.7613 269.799 81.5824 269.873 81.3798C269.947 81.1705 269.984 80.9478 269.984 80.7115Z" fill="#2D3AAF"/>
<path d="M273.472 81.3292V83.3647H272.247V78.0178H273.472V79.2228C273.641 78.8178 273.88 78.4937 274.191 78.2507C274.502 78.0076 274.893 77.8962 275.366 77.9165V79.2127H275.295C275.025 79.2127 274.778 79.2566 274.556 79.3444C274.333 79.4321 274.14 79.5638 273.978 79.7393C273.816 79.9148 273.691 80.1376 273.604 80.4077C273.516 80.671 273.472 80.9781 273.472 81.3292Z" fill="#2D3AAF"/>
<rect x="18.9834" y="14.5" width="389" height="342" rx="11.5" stroke="#2D3AAF"/>
</g>
<defs>
<filter id="filter0_d_1201_9812" x="0.483398" y="0" width="426" height="379" filterUnits="userSpaceOnUse" color-interpolation-filters="sRGB">
<feFlood flood-opacity="0" result="BackgroundImageFix"/>
<feColorMatrix in="SourceAlpha" type="matrix" values="0 0 0 0 0 0 0 0 0 0 0 0 0 0 0 0 0 0 127 0" result="hardAlpha"/>
<feOffset dy="4"/>
<feGaussianBlur stdDeviation="9"/>
<feComposite in2="hardAlpha" operator="out"/>
<feColorMatrix type="matrix" values="0 0 0 0 0 0 0 0 0 0 0 0 0 0 0 0 0 0 0.08 0"/>
<feBlend mode="normal" in2="BackgroundImageFix" result="effect1_dropShadow_1201_9812"/>
<feBlend mode="normal" in="SourceGraphic" in2="effect1_dropShadow_1201_9812" result="shape"/>
</filter>
</defs>
</svg>
