<svg width="95" height="41" viewBox="0 0 95 41" fill="none" xmlns="http://www.w3.org/2000/svg">
<path d="M23.6796 18.6074C23.6796 19.4616 23.51 20.3074 23.1804 21.0966C22.8509 21.8858 22.3678 22.6028 21.7589 23.2068C21.1499 23.8108 20.427 24.2899 19.6314 24.6168C18.8357 24.9437 17.983 25.1119 17.1218 25.1119C16.2606 25.1119 15.4079 24.9437 14.6122 24.6168C13.8166 24.2899 13.0937 23.8108 12.4847 23.2068C11.8758 22.6028 11.3927 21.8858 11.0631 21.0966C10.7336 20.3074 10.564 19.4616 10.564 18.6074" stroke="#2D3AAF" strokeWidth="2.20504"/>
<path d="M10.3666 16.2873C10.4705 16.1536 10.6726 16.1536 10.7765 16.2873L12.437 18.4261C12.5694 18.5965 12.4479 18.8446 12.2321 18.8446H8.91095C8.69518 18.8446 8.57372 18.5965 8.70605 18.4261L10.3666 16.2873Z" fill="#2D3AAF"/>
<path d="M23.4672 16.2873C23.5711 16.1536 23.7732 16.1536 23.877 16.2873L25.5376 18.4261C25.67 18.5965 25.5485 18.8446 25.3327 18.8446H22.0115C21.7958 18.8446 21.6743 18.5965 21.8066 18.4261L23.4672 16.2873Z" fill="#2D3AAF"/>
<line x1="17.057" y1="13.041" x2="17.057" y2="25.0904" stroke="#2D3AAF" strokeWidth="2.20504"/>
<path d="M20.0264 17.3203H14.2683" stroke="#2D3AAF" strokeWidth="2.20504" stroke-linecap="round"/>
<circle cx="17.0869" cy="10.9302" r="1.7809" stroke="#2D3AAF" strokeWidth="1.5565"/>
<path d="M33.0709 17.4338C33.0709 8.71486 25.9141 1.62695 17.1218 1.62695C8.32956 1.62695 1.16772 8.7199 1.16772 17.4338C1.16772 21.4812 2.71184 25.3171 5.51054 28.262C5.55117 28.3224 5.59688 28.3828 5.64768 28.4331L16.3853 39.0751C16.5834 39.2714 16.8425 39.3721 17.1066 39.3721C17.3707 39.3721 17.6298 39.2714 17.8279 39.0751C18.2241 38.6824 18.2241 38.0431 17.8279 37.6454L7.20195 27.1193C7.17655 27.084 7.15115 27.0437 7.1156 27.0135C4.59626 24.4261 3.20453 21.0281 3.20453 17.4388C3.20453 9.83241 9.447 3.6456 17.1168 3.6456C24.7865 3.6456 31.0341 9.83241 31.0341 17.4388C31.0341 21.1187 29.5865 24.5771 26.9554 27.1847C26.9554 27.1847 26.9554 27.1897 26.9452 27.1948C26.9452 27.1948 26.9351 27.1998 26.9351 27.2048L24.9186 29.2033C24.5224 29.596 24.5224 30.2353 24.9186 30.628C25.1167 30.8243 25.3757 30.925 25.6399 30.925C25.904 30.925 26.163 30.8243 26.3611 30.628L28.3776 28.6295C28.3776 28.6295 28.3827 28.6244 28.3878 28.6194C28.3878 28.6194 28.3979 28.6144 28.3979 28.6093C31.415 25.6191 33.076 21.6523 33.076 17.4338H33.0709Z" fill="#2D3AAF" stroke="#2D3AAF" strokeWidth="1.29708" stroke-miterlimit="10"/>
<path d="M42.9298 16.9673H41.0931V15.3426H42.9298V16.9673ZM42.8733 25.5713H41.1638V18.1117H42.8733V25.5713Z" fill="#2D3AAF"/>
<path d="M53.6148 23.989C53.3605 24.2621 53.0921 24.507 52.8095 24.7236C52.5364 24.9308 52.2397 25.1145 51.9195 25.2746C51.5992 25.4253 51.246 25.5383 50.8599 25.6137C50.4831 25.6985 50.064 25.7408 49.6025 25.7408C48.8772 25.7408 48.2085 25.609 47.5963 25.3453C46.9841 25.0815 46.4519 24.7236 45.9998 24.2715C45.5571 23.81 45.2086 23.2684 44.9543 22.6468C44.7 22.0252 44.5729 21.3564 44.5729 20.6406C44.5729 19.9342 44.6953 19.2702 44.9402 18.6485C45.1945 18.0269 45.5477 17.4853 45.9998 17.0238C46.4519 16.5529 46.9888 16.1856 47.6104 15.9218C48.232 15.6487 48.9196 15.5121 49.6731 15.5121C50.1252 15.5121 50.5349 15.5498 50.9023 15.6251C51.279 15.7005 51.6228 15.8088 51.9336 15.9501C52.2444 16.0819 52.5317 16.2421 52.7954 16.4304C53.0591 16.6188 53.3087 16.826 53.5442 17.0521L52.4281 18.3377C52.0325 17.9704 51.6134 17.6737 51.1707 17.4477C50.728 17.2216 50.2241 17.1086 49.659 17.1086C49.188 17.1086 48.7501 17.2028 48.3451 17.3912C47.9495 17.5701 47.6057 17.8197 47.3137 18.1399C47.0217 18.4508 46.7957 18.8181 46.6356 19.2419C46.4755 19.6658 46.3954 20.1226 46.3954 20.6123C46.3954 21.1021 46.4755 21.5636 46.6356 21.9969C46.7957 22.4207 47.0217 22.7928 47.3137 23.113C47.6057 23.4333 47.9495 23.6876 48.3451 23.8759C48.7501 24.0549 49.188 24.1444 49.659 24.1444C50.2618 24.1444 50.7798 24.0313 51.2131 23.8053C51.6463 23.5698 52.0749 23.2543 52.4987 22.8587L53.6148 23.989Z" fill="#2D3AAF"/>
<path d="M56.6587 21.3611V25.5713H54.9492V15.2578H56.6587V19.2702C56.7811 19.0912 56.913 18.9264 57.0543 18.7757C57.205 18.6156 57.3745 18.4743 57.5629 18.3519C57.7607 18.2294 57.9726 18.1352 58.1987 18.0693C58.4341 17.9939 58.6979 17.9563 58.9898 17.9563C59.8375 17.9563 60.4921 18.2153 60.9536 18.7333C61.4152 19.2513 61.6459 19.9483 61.6459 20.8243V25.5713H59.9364V21.3329C59.9364 20.7489 59.7951 20.3015 59.5126 19.9907C59.2394 19.6705 58.8486 19.5104 58.3399 19.5104C57.8408 19.5104 57.4357 19.6752 57.1249 20.0048C56.8141 20.3251 56.6587 20.7772 56.6587 21.3611Z" fill="#2D3AAF"/>
<path d="M69.6747 25.5713H67.9793V24.653C67.725 24.9544 67.4 25.2087 67.0045 25.4159C66.6089 25.6231 66.1285 25.7267 65.5634 25.7267C65.2055 25.7267 64.8664 25.6749 64.5462 25.5713C64.2259 25.4771 63.9434 25.3358 63.6985 25.1475C63.463 24.9497 63.2699 24.7095 63.1192 24.4269C62.978 24.1349 62.9073 23.8006 62.9073 23.4238V23.3956C62.9073 22.9906 62.9827 22.6374 63.1334 22.336C63.2841 22.0346 63.4913 21.785 63.755 21.5872C64.0281 21.3894 64.3484 21.2434 64.7157 21.1492C65.0925 21.0456 65.4975 20.9938 65.9307 20.9938C66.3828 20.9938 66.7643 21.0221 67.0751 21.0786C67.3953 21.1351 67.7014 21.2104 67.9934 21.3046V21.121C67.9934 20.6029 67.8333 20.2073 67.5131 19.9342C67.2023 19.6611 66.7502 19.5245 66.1568 19.5245C65.7329 19.5245 65.3562 19.5669 65.0265 19.6516C64.6969 19.7364 64.3625 19.8494 64.0234 19.9907L63.5572 18.6203C63.9716 18.4319 64.3955 18.2812 64.8287 18.1682C65.262 18.0552 65.7847 17.9987 66.3969 17.9987C67.5084 17.9987 68.3325 18.2765 68.8694 18.8322C69.4062 19.3785 69.6747 20.1508 69.6747 21.1492V25.5713ZM68.0217 22.8728V22.4066C67.805 22.3218 67.546 22.2512 67.2446 22.1947C66.9527 22.1382 66.6418 22.1099 66.3122 22.1099C65.7753 22.1099 65.3562 22.2135 65.0548 22.4207C64.7534 22.628 64.6027 22.9246 64.6027 23.3108V23.3391C64.6027 23.697 64.7393 23.9701 65.0124 24.1585C65.295 24.3469 65.6387 24.4411 66.0437 24.4411C66.3263 24.4411 66.5853 24.4034 66.8208 24.328C67.0657 24.2527 67.2776 24.1491 67.4566 24.0172C67.6355 23.8759 67.7721 23.7111 67.8663 23.5227C67.9699 23.3249 68.0217 23.1083 68.0217 22.8728Z" fill="#2D3AAF"/>
<path d="M73.1231 22.7316V25.5713H71.4136V18.1117H73.1231V19.7929C73.3585 19.2278 73.6929 18.7757 74.1261 18.4366C74.5594 18.0976 75.1057 17.9421 75.765 17.9704V19.7788H75.6661C75.2894 19.7788 74.9456 19.84 74.6348 19.9625C74.3239 20.0849 74.0555 20.2686 73.8295 20.5135C73.6034 20.7583 73.4292 21.0692 73.3067 21.4459C73.1843 21.8132 73.1231 22.2418 73.1231 22.7316Z" fill="#2D3AAF"/>
<path d="M79.018 19.581V23.2402C79.018 23.5698 79.0981 23.81 79.2582 23.9607C79.4183 24.102 79.6444 24.1726 79.9364 24.1726C80.3037 24.1726 80.6569 24.0879 80.996 23.9183V25.317C80.7793 25.4394 80.5486 25.5336 80.3037 25.5996C80.0588 25.6655 79.7762 25.6985 79.456 25.6985C79.1452 25.6985 78.8579 25.6608 78.5942 25.5854C78.3305 25.5101 78.0997 25.3876 77.9019 25.2181C77.7135 25.0486 77.5675 24.8272 77.4639 24.5541C77.3603 24.2715 77.3085 23.923 77.3085 23.5086V19.581H76.3619V18.1117H77.3085V16.0631H79.018V18.1117H81.0242V19.581H79.018Z" fill="#2D3AAF"/>
<path d="M83.5485 22.449C83.6521 23.0612 83.897 23.5322 84.2832 23.8618C84.6694 24.182 85.1403 24.3422 85.696 24.3422C86.1198 24.3422 86.4872 24.2668 86.798 24.1161C87.1088 23.9654 87.4149 23.7441 87.7163 23.4521L88.7194 24.3422C88.3615 24.766 87.9329 25.1051 87.4338 25.3594C86.944 25.6137 86.3553 25.7408 85.6677 25.7408C85.1309 25.7408 84.627 25.6467 84.156 25.4583C83.6945 25.2699 83.2895 25.0062 82.941 24.6671C82.602 24.328 82.3335 23.923 82.1357 23.4521C81.9379 22.9717 81.839 22.4396 81.839 21.8556C81.839 21.3188 81.9285 20.8149 82.1075 20.3439C82.2864 19.873 82.536 19.4633 82.8563 19.1148C83.1859 18.7569 83.5721 18.4743 84.0148 18.2671C84.4574 18.0599 84.9472 17.9563 85.4841 17.9563C86.0775 17.9563 86.5955 18.0646 87.0382 18.2812C87.4903 18.4978 87.8623 18.7898 88.1543 19.1572C88.4557 19.5245 88.6817 19.953 88.8324 20.4428C88.9831 20.9326 89.0585 21.4459 89.0585 21.9828C89.0585 22.0581 89.0538 22.1335 89.0444 22.2088C89.0444 22.2842 89.0396 22.3642 89.0302 22.449H83.5485ZM83.5344 21.3188H87.3631C87.3349 21.0456 87.2736 20.7913 87.1795 20.5558C87.0853 20.311 86.9581 20.1037 86.798 19.9342C86.6379 19.7552 86.4448 19.614 86.2187 19.5104C86.0021 19.4068 85.7525 19.355 85.47 19.355C84.9425 19.355 84.5045 19.5386 84.156 19.9059C83.817 20.2639 83.6098 20.7348 83.5344 21.3188Z" fill="#2D3AAF"/>
<path d="M92.1904 22.7316V25.5713H90.4809V18.1117H92.1904V19.7929C92.4259 19.2278 92.7603 18.7757 93.1935 18.4366C93.6268 18.0976 94.1731 17.9421 94.8324 17.9704V19.7788H94.7335C94.3567 19.7788 94.0129 19.84 93.7021 19.9625C93.3913 20.0849 93.1229 20.2686 92.8968 20.5135C92.6708 20.7583 92.4965 21.0692 92.3741 21.4459C92.2516 21.8132 92.1904 22.2418 92.1904 22.7316Z" fill="#2D3AAF"/>
</svg>
