<svg width="107" height="88" viewBox="0 0 107 88" fill="none" xmlns="http://www.w3.org/2000/svg">
<g id="Group">
<path id="Vector" d="M89.8716 59.6021C81.1088 80.0246 57.978 88.7963 39.8543 87.3006C34.906 86.8924 24.9495 86.0705 17.1754 78.7404C2.24576 64.6632 4.54522 35.2377 18.8371 17.9137C20.6774 15.6828 33.4171 0.73544 53.2692 0.935585C67.804 1.08204 78.0058 9.26863 79.2462 10.2884C80.8135 11.5767 84.2696 14.6386 87.3847 19.4954C94.7038 30.9079 95.3472 46.8398 89.8713 59.6018L89.8716 59.6021Z" fill="url(#paint0_linear_3203_32200)"/>
<g id="Group_2">
<g id="freepik--fishes-1--inject-2-2">
<path id="Vector_2" d="M31.1992 58.0882C31.1992 58.0882 41.0121 72.0141 42.3723 70.9454C43.7325 69.909 46.5501 57.7644 46.5501 57.7644L49.5944 57.6996C49.5944 57.6996 59.1158 66.379 60.9618 65.1483C62.8402 63.9177 62.2249 60.3552 62.2249 60.3552C70.548 58.4445 78.0615 56.1451 83.8586 49.7974L83.1461 45.0691L83.6966 40.4379C83.6966 40.4379 72.0054 33.6369 64.2651 32.4063C64.2651 32.4063 65.3663 27.2893 63.3907 27.1274C61.4476 26.9978 49.9506 35.1267 49.9506 35.1267L31.9441 53.5218L31.2316 58.0558L31.1992 58.0882Z" fill="#2D3AAF"/>
<path id="Vector_3" d="M29.7441 35.7385C29.7441 35.7385 41.2087 20.3552 41.9212 23.3995C43.5405 24.5006 44.1558 28.0954 42.0508 30.3948L36.1242 36.2891L29.7441 35.7385Z" fill="#2D3AAF"/>
<path id="Vector_4" d="M5.24981 50.3053C5.24981 50.3053 34.2452 74.3475 85.2852 47.5644C87.6494 46.5929 90.2726 46.5605 92.6692 47.4349C94.0618 46.1071 94.0942 43.9048 92.7664 42.5122C92.7016 42.4475 92.6368 42.3827 92.572 42.3179C89.884 42.9656 87.0988 42.998 84.4108 42.4799C84.4108 42.4799 67.6349 33.1203 37.5161 33.7033C7.3973 34.2862 2.09961 44.5291 2.09961 44.5291L14.7004 44.0049L3.38145 48.2047L5.24981 50.3053Z" fill="#738FE4"/>
</g>
<path id="Vector_5" d="M30.8432 47.4648L30.3574 45.716C30.3574 45.716 41.5953 38.7207 45.6435 41.2468C47.6191 42.4774 57.1729 42.9956 58.1445 45.0683C59.116 47.141 30.8756 47.4325 30.8756 47.4325L30.8432 47.4648Z" fill="#2D3AAF"/>
</g>
<path id="Vector_6" d="M88.8466 47.1368C88.8466 47.1368 102.934 60.0263 104.618 59.0224C106.303 58.0184 98.0117 48.7561 97.9794 46.2624C97.947 43.7687 106.756 37.0648 106.205 35.3807C105.655 33.6967 88.8142 43.1533 88.8142 43.1533L87.875 45.3232L88.879 47.1692L88.8466 47.1368Z" fill="#2D3AAF"/>
<path id="Vector_7" d="M13.2439 44.4396C13.2839 44.9966 5.62706 46.5293 1.99669 47.409C8.05569 54.3354 20.4823 57.5729 20.4823 57.5729C23.3632 49.4298 22.0075 42.7076 20.7442 39.0631C20.1288 37.2844 18.2922 36.2459 16.4473 36.6058C7.49032 38.3592 3.38637 41.8392 2.0498 44.7002C5.43147 44.6153 13.2105 43.882 13.2504 44.439L13.2439 44.4396Z" fill="#2D3AAF"/>
<g id="Group_3">
<path id="Vector_8" d="M13.0176 52.8906L17.4547 47.0713" stroke="white" stroke-width="0.74924" stroke-miterlimit="10" stroke-linecap="round"/>
<path id="Vector_9" d="M17.8357 52.5596L12.6345 47.4088" stroke="white" stroke-width="0.74924" stroke-miterlimit="10" stroke-linecap="round"/>
</g>
</g>
<defs>
<linearGradient id="paint0_linear_3203_32200" x1="98.7267" y1="98.7458" x2="35.1111" y2="29.9668" gradientUnits="userSpaceOnUse">
<stop stop-color="#DAE3FE"/>
<stop offset="1" stop-color="#E9EFFD"/>
</linearGradient>
</defs>
</svg>
