<svg width="464" height="152" viewBox="0 0 464 152" fill="none" xmlns="http://www.w3.org/2000/svg">
<path d="M12.46 34.46C12.46 35.22 12.3133 35.8867 12.02 36.46C11.7267 37.0333 11.3267 37.5133 10.82 37.9C10.3267 38.2867 9.74667 38.58 9.08 38.78C8.41333 38.9667 7.70667 39.06 6.96 39.06H3.56V44H1.98V30H7.22C8.00667 30 8.72 30.1067 9.36 30.32C10.0133 30.52 10.5667 30.8133 11.02 31.2C11.4867 31.5733 11.84 32.04 12.08 32.6C12.3333 33.1467 12.46 33.7667 12.46 34.46ZM10.86 34.52C10.86 33.5067 10.5133 32.7467 9.82 32.24C9.14 31.72 8.23333 31.46 7.1 31.46H3.56V37.62H7.02C7.59333 37.62 8.11333 37.5467 8.58 37.4C9.06 37.2533 9.46667 37.0467 9.8 36.78C10.1467 36.5 10.4067 36.1733 10.58 35.8C10.7667 35.4133 10.86 34.9867 10.86 34.52ZM16.4747 44H14.9347V29.4H16.4747V44ZM23.504 34.88C22.8907 34.88 22.3307 34.9533 21.824 35.1C21.3307 35.2333 20.844 35.4133 20.364 35.64L19.904 34.38C20.4774 34.1133 21.0574 33.9067 21.644 33.76C22.2307 33.6 22.904 33.52 23.664 33.52C25.0774 33.52 26.164 33.8733 26.924 34.58C27.684 35.2733 28.064 36.3067 28.064 37.68V44H26.584V42.44C26.224 42.9067 25.7374 43.32 25.124 43.68C24.524 44.04 23.764 44.22 22.844 44.22C22.364 44.22 21.8907 44.1533 21.424 44.02C20.9707 43.8867 20.5574 43.6867 20.184 43.42C19.824 43.14 19.5307 42.8 19.304 42.4C19.0907 42 18.984 41.5267 18.984 40.98C18.984 40.4333 19.0907 39.9533 19.304 39.54C19.5174 39.1133 19.8174 38.76 20.204 38.48C20.604 38.2 21.0707 37.9867 21.604 37.84C22.1507 37.6933 22.7507 37.62 23.404 37.62C24.0707 37.62 24.6507 37.66 25.144 37.74C25.6374 37.82 26.1174 37.9267 26.584 38.06V37.7C26.584 36.7667 26.3107 36.0667 25.764 35.6C25.2307 35.12 24.4774 34.88 23.504 34.88ZM23.564 38.76C22.5907 38.76 21.844 38.9533 21.324 39.34C20.804 39.7267 20.544 40.2533 20.544 40.92C20.544 41.2533 20.6107 41.5467 20.744 41.8C20.8907 42.0533 21.084 42.2733 21.324 42.46C21.564 42.6333 21.8374 42.7667 22.144 42.86C22.464 42.9533 22.7974 43 23.144 43C23.624 43 24.0707 42.9333 24.484 42.8C24.9107 42.6533 25.2774 42.46 25.584 42.22C25.904 41.9667 26.1507 41.6733 26.324 41.34C26.5107 40.9933 26.604 40.6133 26.604 40.2V39.2C26.2174 39.0933 25.7707 38.9933 25.264 38.9C24.7707 38.8067 24.204 38.76 23.564 38.76ZM39.9414 42.24C39.4214 42.8267 38.8281 43.3067 38.1614 43.68C37.5081 44.0533 36.6948 44.24 35.7214 44.24C34.9614 44.24 34.2548 44.1 33.6014 43.82C32.9614 43.5267 32.4014 43.14 31.9214 42.66C31.4548 42.1667 31.0881 41.5933 30.8214 40.94C30.5548 40.2867 30.4214 39.5933 30.4214 38.86C30.4214 38.1267 30.5548 37.4333 30.8214 36.78C31.0881 36.1133 31.4548 35.5333 31.9214 35.04C32.4014 34.5467 32.9614 34.16 33.6014 33.88C34.2548 33.5867 34.9614 33.44 35.7214 33.44C36.2148 33.44 36.6614 33.4867 37.0614 33.58C37.4614 33.6733 37.8281 33.8067 38.1614 33.98C38.4948 34.14 38.8014 34.3333 39.0814 34.56C39.3614 34.7867 39.6214 35.0267 39.8614 35.28L38.8414 36.36C38.4281 35.9333 37.9748 35.5667 37.4814 35.26C37.0014 34.9533 36.4081 34.8 35.7014 34.8C35.1814 34.8 34.6948 34.9067 34.2414 35.12C33.7881 35.32 33.3948 35.6067 33.0614 35.98C32.7281 36.34 32.4681 36.7667 32.2814 37.26C32.0948 37.74 32.0014 38.26 32.0014 38.82C32.0014 39.38 32.0948 39.9067 32.2814 40.4C32.4814 40.8933 32.7481 41.3267 33.0814 41.7C33.4281 42.06 33.8281 42.3467 34.2814 42.56C34.7481 42.76 35.2548 42.86 35.8014 42.86C36.4681 42.86 37.0548 42.7133 37.5614 42.42C38.0814 42.1267 38.5481 41.76 38.9614 41.32L39.9414 42.24ZM42.8296 39.4C42.8829 39.96 43.0163 40.46 43.2296 40.9C43.4429 41.3267 43.7163 41.6933 44.0496 42C44.3829 42.2933 44.7563 42.52 45.1696 42.68C45.5829 42.8267 46.0163 42.9 46.4696 42.9C47.1896 42.9 47.8029 42.7667 48.3096 42.5C48.8296 42.2333 49.3029 41.88 49.7296 41.44L50.6896 42.3C50.1696 42.8867 49.5763 43.36 48.9096 43.72C48.2429 44.0667 47.4163 44.24 46.4296 44.24C45.7229 44.24 45.0563 44.1133 44.4296 43.86C43.8029 43.5933 43.2563 43.2267 42.7896 42.76C42.3229 42.28 41.9496 41.7067 41.6696 41.04C41.4029 40.3733 41.2696 39.64 41.2696 38.84C41.2696 38.0933 41.3896 37.3933 41.6296 36.74C41.8829 36.0733 42.2296 35.5 42.6696 35.02C43.1096 34.5267 43.6296 34.14 44.2296 33.86C44.8429 33.58 45.5096 33.44 46.2296 33.44C46.9896 33.44 47.6696 33.5867 48.2696 33.88C48.8696 34.16 49.3763 34.5467 49.7896 35.04C50.2029 35.5333 50.5163 36.1133 50.7296 36.78C50.9429 37.4467 51.0496 38.16 51.0496 38.92C51.0496 38.9867 51.0496 39.06 51.0496 39.14C51.0496 39.22 51.0429 39.3067 51.0296 39.4H42.8296ZM42.8296 38.26H49.4896C49.4496 37.7933 49.3496 37.3467 49.1896 36.92C49.0429 36.4933 48.8296 36.12 48.5496 35.8C48.2829 35.48 47.9496 35.2267 47.5496 35.04C47.1629 34.84 46.7096 34.74 46.1896 34.74C45.7363 34.74 45.3163 34.8333 44.9296 35.02C44.5429 35.1933 44.2029 35.44 43.9096 35.76C43.6163 36.0667 43.3763 36.4333 43.1896 36.86C43.0029 37.2867 42.8829 37.7533 42.8296 38.26ZM62.9124 34.88C62.299 34.88 61.739 34.9533 61.2324 35.1C60.739 35.2333 60.2524 35.4133 59.7724 35.64L59.3124 34.38C59.8857 34.1133 60.4657 33.9067 61.0524 33.76C61.639 33.6 62.3124 33.52 63.0724 33.52C64.4857 33.52 65.5724 33.8733 66.3324 34.58C67.0924 35.2733 67.4724 36.3067 67.4724 37.68V44H65.9924V42.44C65.6324 42.9067 65.1457 43.32 64.5324 43.68C63.9324 44.04 63.1724 44.22 62.2524 44.22C61.7724 44.22 61.299 44.1533 60.8324 44.02C60.379 43.8867 59.9657 43.6867 59.5924 43.42C59.2324 43.14 58.939 42.8 58.7124 42.4C58.499 42 58.3924 41.5267 58.3924 40.98C58.3924 40.4333 58.499 39.9533 58.7124 39.54C58.9257 39.1133 59.2257 38.76 59.6124 38.48C60.0124 38.2 60.479 37.9867 61.0124 37.84C61.559 37.6933 62.159 37.62 62.8124 37.62C63.479 37.62 64.059 37.66 64.5524 37.74C65.0457 37.82 65.5257 37.9267 65.9924 38.06V37.7C65.9924 36.7667 65.719 36.0667 65.1724 35.6C64.639 35.12 63.8857 34.88 62.9124 34.88ZM62.9724 38.76C61.999 38.76 61.2524 38.9533 60.7324 39.34C60.2124 39.7267 59.9524 40.2533 59.9524 40.92C59.9524 41.2533 60.019 41.5467 60.1524 41.8C60.299 42.0533 60.4924 42.2733 60.7324 42.46C60.9724 42.6333 61.2457 42.7667 61.5524 42.86C61.8724 42.9533 62.2057 43 62.5524 43C63.0324 43 63.479 42.9333 63.8924 42.8C64.319 42.6533 64.6857 42.46 64.9924 42.22C65.3124 41.9667 65.559 41.6733 65.7324 41.34C65.919 40.9933 66.0124 40.6133 66.0124 40.2V39.2C65.6257 39.0933 65.179 38.9933 64.6724 38.9C64.179 38.8067 63.6124 38.76 62.9724 38.76ZM72.0098 38.08V44H70.4698V33.66H72.0098V35.46C72.3564 34.9 72.8098 34.4267 73.3698 34.04C73.9298 33.64 74.6564 33.44 75.5498 33.44C76.1764 33.44 76.7298 33.54 77.2098 33.74C77.7031 33.94 78.1164 34.2267 78.4498 34.6C78.7964 34.96 79.0564 35.3933 79.2298 35.9C79.4164 36.4067 79.5098 36.9667 79.5098 37.58V44H77.9698V37.96C77.9698 37 77.7231 36.24 77.2298 35.68C76.7364 35.12 76.0298 34.84 75.1098 34.84C74.6698 34.84 74.2564 34.92 73.8698 35.08C73.4964 35.2267 73.1698 35.4467 72.8898 35.74C72.6098 36.02 72.3898 36.36 72.2298 36.76C72.0831 37.16 72.0098 37.6 72.0098 38.08Z" fill="#454545"/>
<path d="M90.6608 31.82H88.0608V29.52H90.6608V31.82ZM90.5808 44H88.1608V33.44H90.5808V44ZM105.919 41.76C105.559 42.1467 105.179 42.4933 104.779 42.8C104.392 43.0933 103.972 43.3533 103.519 43.58C103.066 43.7933 102.566 43.9533 102.019 44.06C101.486 44.18 100.892 44.24 100.239 44.24C99.2122 44.24 98.2655 44.0533 97.3988 43.68C96.5322 43.3067 95.7788 42.8 95.1388 42.16C94.5122 41.5067 94.0188 40.74 93.6588 39.86C93.2988 38.98 93.1188 38.0333 93.1188 37.02C93.1188 36.02 93.2922 35.08 93.6388 34.2C93.9988 33.32 94.4988 32.5533 95.1388 31.9C95.7788 31.2333 96.5388 30.7133 97.4188 30.34C98.2988 29.9533 99.2722 29.76 100.339 29.76C100.979 29.76 101.559 29.8133 102.079 29.92C102.612 30.0267 103.099 30.18 103.539 30.38C103.979 30.5667 104.386 30.7933 104.759 31.06C105.132 31.3267 105.486 31.62 105.819 31.94L104.239 33.76C103.679 33.24 103.086 32.82 102.459 32.5C101.832 32.18 101.119 32.02 100.319 32.02C99.6522 32.02 99.0322 32.1533 98.4588 32.42C97.8988 32.6733 97.4122 33.0267 96.9988 33.48C96.5855 33.92 96.2655 34.44 96.0388 35.04C95.8122 35.64 95.6988 36.2867 95.6988 36.98C95.6988 37.6733 95.8122 38.3267 96.0388 38.94C96.2655 39.54 96.5855 40.0667 96.9988 40.52C97.4122 40.9733 97.8988 41.3333 98.4588 41.6C99.0322 41.8533 99.6522 41.98 100.319 41.98C101.172 41.98 101.906 41.82 102.519 41.5C103.132 41.1667 103.739 40.72 104.339 40.16L105.919 41.76ZM110.36 38.04V44H107.94V29.4H110.36V35.08C110.533 34.8267 110.72 34.5933 110.92 34.38C111.133 34.1533 111.373 33.9533 111.64 33.78C111.92 33.6067 112.22 33.4733 112.54 33.38C112.873 33.2733 113.247 33.22 113.66 33.22C114.86 33.22 115.787 33.5867 116.44 34.32C117.093 35.0533 117.42 36.04 117.42 37.28V44H115V38C115 37.1733 114.8 36.54 114.4 36.1C114.013 35.6467 113.46 35.42 112.74 35.42C112.033 35.42 111.46 35.6533 111.02 36.12C110.58 36.5733 110.36 37.2133 110.36 38.04ZM128.918 44H126.518V42.7C126.158 43.1267 125.698 43.4867 125.138 43.78C124.578 44.0733 123.898 44.22 123.098 44.22C122.591 44.22 122.111 44.1467 121.658 44C121.204 43.8667 120.804 43.6667 120.458 43.4C120.124 43.12 119.851 42.78 119.638 42.38C119.438 41.9667 119.338 41.4933 119.338 40.96V40.92C119.338 40.3467 119.444 39.8467 119.658 39.42C119.871 38.9933 120.164 38.64 120.538 38.36C120.924 38.08 121.378 37.8733 121.898 37.74C122.431 37.5933 123.004 37.52 123.618 37.52C124.258 37.52 124.798 37.56 125.238 37.64C125.691 37.72 126.124 37.8267 126.538 37.96V37.7C126.538 36.9667 126.311 36.4067 125.858 36.02C125.418 35.6333 124.778 35.44 123.938 35.44C123.338 35.44 122.804 35.5 122.338 35.62C121.871 35.74 121.398 35.9 120.918 36.1L120.258 34.16C120.844 33.8933 121.444 33.68 122.058 33.52C122.671 33.36 123.411 33.28 124.278 33.28C125.851 33.28 127.018 33.6733 127.778 34.46C128.538 35.2333 128.918 36.3267 128.918 37.74V44ZM126.578 40.18V39.52C126.271 39.4 125.904 39.3 125.478 39.22C125.064 39.14 124.624 39.1 124.158 39.1C123.398 39.1 122.804 39.2467 122.378 39.54C121.951 39.8333 121.738 40.2533 121.738 40.8V40.84C121.738 41.3467 121.931 41.7333 122.318 42C122.718 42.2667 123.204 42.4 123.778 42.4C124.178 42.4 124.544 42.3467 124.878 42.24C125.224 42.1333 125.524 41.9867 125.778 41.8C126.031 41.6 126.224 41.3667 126.358 41.1C126.504 40.82 126.578 40.5133 126.578 40.18ZM133.931 39.98V44H131.511V33.44H133.931V35.82C134.265 35.02 134.738 34.38 135.351 33.9C135.965 33.42 136.738 33.2 137.671 33.24V35.8H137.531C136.998 35.8 136.511 35.8867 136.071 36.06C135.631 36.2333 135.251 36.4933 134.931 36.84C134.611 37.1867 134.365 37.6267 134.191 38.16C134.018 38.68 133.931 39.2867 133.931 39.98ZM142.408 35.52V40.7C142.408 41.1667 142.522 41.5067 142.748 41.72C142.975 41.92 143.295 42.02 143.708 42.02C144.228 42.02 144.728 41.9 145.208 41.66V43.64C144.902 43.8133 144.575 43.9467 144.228 44.04C143.882 44.1333 143.482 44.18 143.028 44.18C142.588 44.18 142.182 44.1267 141.808 44.02C141.435 43.9133 141.108 43.74 140.828 43.5C140.562 43.26 140.355 42.9467 140.208 42.56C140.062 42.16 139.988 41.6667 139.988 41.08V35.52H138.648V33.44H139.988V30.54H142.408V33.44H145.248V35.52H142.408ZM148.954 39.58C149.1 40.4467 149.447 41.1133 149.994 41.58C150.54 42.0333 151.207 42.26 151.994 42.26C152.594 42.26 153.114 42.1533 153.554 41.94C153.994 41.7267 154.427 41.4133 154.854 41L156.274 42.26C155.767 42.86 155.16 43.34 154.454 43.7C153.76 44.06 152.927 44.24 151.954 44.24C151.194 44.24 150.48 44.1067 149.814 43.84C149.16 43.5733 148.587 43.2 148.094 42.72C147.614 42.24 147.234 41.6667 146.954 41C146.674 40.32 146.534 39.5667 146.534 38.74C146.534 37.98 146.66 37.2667 146.914 36.6C147.167 35.9333 147.52 35.3533 147.974 34.86C148.44 34.3533 148.987 33.9533 149.614 33.66C150.24 33.3667 150.934 33.22 151.694 33.22C152.534 33.22 153.267 33.3733 153.894 33.68C154.534 33.9867 155.06 34.4 155.474 34.92C155.9 35.44 156.22 36.0467 156.434 36.74C156.647 37.4333 156.754 38.16 156.754 38.92C156.754 39.0267 156.747 39.1333 156.734 39.24C156.734 39.3467 156.727 39.46 156.714 39.58H148.954ZM148.934 37.98H154.354C154.314 37.5933 154.227 37.2333 154.094 36.9C153.96 36.5533 153.78 36.26 153.554 36.02C153.327 35.7667 153.054 35.5667 152.734 35.42C152.427 35.2733 152.074 35.2 151.674 35.2C150.927 35.2 150.307 35.46 149.814 35.98C149.334 36.4867 149.04 37.1533 148.934 37.98ZM161.319 39.98V44H158.899V33.44H161.319V35.82C161.653 35.02 162.126 34.38 162.739 33.9C163.353 33.42 164.126 33.2 165.059 33.24V35.8H164.919C164.386 35.8 163.899 35.8867 163.459 36.06C163.019 36.2333 162.639 36.4933 162.319 36.84C161.999 37.1867 161.753 37.6267 161.579 38.16C161.406 38.68 161.319 39.2867 161.319 39.98ZM173.437 30C174.85 30 175.97 30.32 176.797 30.96C177.623 31.6 178.037 32.4733 178.037 33.58C178.037 34.0067 177.977 34.3867 177.857 34.72C177.75 35.0533 177.603 35.3467 177.417 35.6C177.243 35.84 177.03 36.0533 176.777 36.24C176.537 36.4267 176.29 36.5867 176.037 36.72C176.45 36.8667 176.823 37.04 177.157 37.24C177.503 37.4267 177.797 37.6533 178.037 37.92C178.29 38.1867 178.483 38.5067 178.617 38.88C178.75 39.24 178.817 39.66 178.817 40.14C178.817 40.7667 178.69 41.32 178.437 41.8C178.197 42.28 177.85 42.6867 177.397 43.02C176.943 43.34 176.397 43.5867 175.757 43.76C175.117 43.92 174.41 44 173.637 44H167.157V30H173.437ZM172.937 35.9C173.737 35.9 174.377 35.7467 174.857 35.44C175.337 35.12 175.577 34.6333 175.577 33.98C175.577 33.4067 175.363 32.9667 174.937 32.66C174.523 32.34 173.917 32.18 173.117 32.18H169.577V35.9H172.937ZM173.657 41.82C174.497 41.82 175.157 41.66 175.637 41.34C176.117 41.0067 176.357 40.52 176.357 39.88C176.357 39.28 176.117 38.8133 175.637 38.48C175.17 38.1467 174.45 37.98 173.477 37.98H169.577V41.82H173.657ZM183.666 31.82H181.066V29.52H183.666V31.82ZM183.586 44H181.166V33.44H183.586V44ZM196.844 44H194.424V42.24C194.037 42.7867 193.55 43.2533 192.964 43.64C192.39 44.0267 191.677 44.22 190.824 44.22C190.197 44.22 189.59 44.1 189.004 43.86C188.417 43.62 187.897 43.2667 187.444 42.8C186.99 42.32 186.624 41.74 186.344 41.06C186.064 40.38 185.924 39.6 185.924 38.72C185.924 37.84 186.057 37.06 186.324 36.38C186.604 35.7 186.97 35.1267 187.424 34.66C187.877 34.18 188.397 33.82 188.984 33.58C189.584 33.34 190.197 33.22 190.824 33.22C191.69 33.22 192.41 33.4067 192.984 33.78C193.557 34.1533 194.037 34.5867 194.424 35.08V29.4H196.844V44ZM194.464 38.72C194.464 38.2 194.377 37.7333 194.204 37.32C194.044 36.9067 193.824 36.5533 193.544 36.26C193.264 35.9533 192.937 35.72 192.564 35.56C192.19 35.4 191.804 35.32 191.404 35.32C190.99 35.32 190.597 35.4 190.224 35.56C189.864 35.7067 189.544 35.9267 189.264 36.22C188.984 36.5133 188.764 36.8733 188.604 37.3C188.444 37.7133 188.364 38.1867 188.364 38.72C188.364 39.24 188.444 39.7133 188.604 40.14C188.764 40.5533 188.984 40.9067 189.264 41.2C189.544 41.4933 189.864 41.72 190.224 41.88C190.597 42.04 190.99 42.12 191.404 42.12C191.804 42.12 192.19 42.04 192.564 41.88C192.937 41.72 193.264 41.4933 193.544 41.2C193.824 40.8933 194.044 40.5333 194.204 40.12C194.377 39.7067 194.464 39.24 194.464 38.72Z" fill="#2D3AAF"/>
<g opacity="0.5">
<rect y="54" width="300" height="15" rx="7.5" fill="#BDBDBD"/>
</g>
<g opacity="0.5">
<rect y="73" width="221" height="15" rx="7.5" fill="#BDBDBD"/>
</g>
<rect x="0.5" y="104.5" width="277" height="47" rx="11.5" fill="white"/>
<path d="M126.2 129.1C126.2 129.647 126.093 130.147 125.88 130.6C125.68 131.053 125.393 131.447 125.02 131.78C124.647 132.113 124.2 132.387 123.68 132.6C123.16 132.8 122.58 132.927 121.94 132.98V134.96H120.2V132.96C119.32 132.853 118.48 132.633 117.68 132.3C116.893 131.967 116.16 131.527 115.48 130.98L116.76 129.16C117.333 129.627 117.9 130.007 118.46 130.3C119.02 130.58 119.627 130.773 120.28 130.88V126.96C119.547 126.773 118.913 126.56 118.38 126.32C117.847 126.08 117.4 125.8 117.04 125.48C116.693 125.147 116.433 124.767 116.26 124.34C116.087 123.9 116 123.4 116 122.84C116 122.307 116.1 121.813 116.3 121.36C116.5 120.907 116.787 120.513 117.16 120.18C117.533 119.847 117.973 119.58 118.48 119.38C119 119.18 119.573 119.053 120.2 119V117.84H121.94V119.04C122.673 119.133 123.34 119.307 123.94 119.56C124.553 119.813 125.14 120.147 125.7 120.56L124.58 122.44C123.713 121.787 122.807 121.36 121.86 121.16V124.96C123.38 125.347 124.48 125.867 125.16 126.52C125.853 127.16 126.2 128.02 126.2 129.1ZM120.28 124.54V121.02C119.64 121.073 119.16 121.26 118.84 121.58C118.52 121.887 118.36 122.26 118.36 122.7C118.36 123.127 118.487 123.487 118.74 123.78C118.993 124.06 119.507 124.313 120.28 124.54ZM123.84 129.24C123.84 129.013 123.807 128.813 123.74 128.64C123.687 128.453 123.58 128.287 123.42 128.14C123.273 127.98 123.073 127.84 122.82 127.72C122.567 127.587 122.247 127.46 121.86 127.34V130.96C122.5 130.907 122.987 130.727 123.32 130.42C123.667 130.113 123.84 129.72 123.84 129.24ZM127.567 120.1L131.327 118.9H133.047V133H130.607V121.4L128.087 122.1L127.567 120.1ZM148.032 125.98C148.032 126.98 147.886 127.927 147.592 128.82C147.299 129.7 146.886 130.467 146.352 131.12C145.819 131.773 145.172 132.293 144.412 132.68C143.666 133.053 142.832 133.24 141.912 133.24C140.992 133.24 140.159 133.053 139.412 132.68C138.666 132.307 138.026 131.793 137.492 131.14C136.959 130.487 136.546 129.72 136.252 128.84C135.972 127.96 135.832 127.02 135.832 126.02C135.832 125.02 135.979 124.08 136.272 123.2C136.566 122.307 136.979 121.533 137.512 120.88C138.046 120.227 138.686 119.713 139.432 119.34C140.192 118.953 141.032 118.76 141.952 118.76C142.872 118.76 143.706 118.947 144.452 119.32C145.199 119.693 145.839 120.207 146.372 120.86C146.906 121.513 147.312 122.28 147.592 123.16C147.886 124.04 148.032 124.98 148.032 125.98ZM145.492 126.02C145.492 125.327 145.406 124.673 145.232 124.06C145.072 123.447 144.832 122.913 144.512 122.46C144.206 122.007 143.832 121.647 143.392 121.38C142.952 121.113 142.459 120.98 141.912 120.98C141.366 120.98 140.872 121.113 140.432 121.38C140.006 121.633 139.639 121.987 139.332 122.44C139.026 122.88 138.786 123.407 138.612 124.02C138.452 124.633 138.372 125.287 138.372 125.98C138.372 126.687 138.452 127.347 138.612 127.96C138.786 128.56 139.026 129.093 139.332 129.56C139.652 130.013 140.032 130.373 140.472 130.64C140.912 130.893 141.406 131.02 141.952 131.02C142.499 131.02 142.986 130.893 143.412 130.64C143.852 130.373 144.226 130.013 144.532 129.56C144.839 129.107 145.072 128.58 145.232 127.98C145.406 127.367 145.492 126.713 145.492 126.02ZM162.22 125.98C162.22 126.98 162.074 127.927 161.78 128.82C161.487 129.7 161.074 130.467 160.54 131.12C160.007 131.773 159.36 132.293 158.6 132.68C157.854 133.053 157.02 133.24 156.1 133.24C155.18 133.24 154.347 133.053 153.6 132.68C152.854 132.307 152.214 131.793 151.68 131.14C151.147 130.487 150.734 129.72 150.44 128.84C150.16 127.96 150.02 127.02 150.02 126.02C150.02 125.02 150.167 124.08 150.46 123.2C150.754 122.307 151.167 121.533 151.7 120.88C152.234 120.227 152.874 119.713 153.62 119.34C154.38 118.953 155.22 118.76 156.14 118.76C157.06 118.76 157.894 118.947 158.64 119.32C159.387 119.693 160.027 120.207 160.56 120.86C161.094 121.513 161.5 122.28 161.78 123.16C162.074 124.04 162.22 124.98 162.22 125.98ZM159.68 126.02C159.68 125.327 159.594 124.673 159.42 124.06C159.26 123.447 159.02 122.913 158.7 122.46C158.394 122.007 158.02 121.647 157.58 121.38C157.14 121.113 156.647 120.98 156.1 120.98C155.554 120.98 155.06 121.113 154.62 121.38C154.194 121.633 153.827 121.987 153.52 122.44C153.214 122.88 152.974 123.407 152.8 124.02C152.64 124.633 152.56 125.287 152.56 125.98C152.56 126.687 152.64 127.347 152.8 127.96C152.974 128.56 153.214 129.093 153.52 129.56C153.84 130.013 154.22 130.373 154.66 130.64C155.1 130.893 155.594 131.02 156.14 131.02C156.687 131.02 157.174 130.893 157.6 130.64C158.04 130.373 158.414 130.013 158.72 129.56C159.027 129.107 159.26 128.58 159.42 127.98C159.594 127.367 159.68 126.713 159.68 126.02Z" fill="#454545"/>
<rect x="0.5" y="104.5" width="277" height="47" rx="11.5" stroke="#EFEFEF"/>
<rect x="287.5" y="106.5" width="114" height="43" rx="11.5" fill="#E0E2F0"/>
<path d="M341.778 129.928C341.778 130.44 341.677 130.888 341.474 131.272C341.282 131.656 340.999 131.976 340.626 132.232C340.263 132.488 339.821 132.68 339.298 132.808C338.786 132.936 338.215 133 337.586 133H332.258V121.8H337.458C338.61 121.8 339.511 122.061 340.162 122.584C340.823 123.107 341.154 123.811 341.154 124.696V124.728C341.154 125.048 341.111 125.331 341.026 125.576C340.951 125.821 340.845 126.045 340.706 126.248C340.578 126.44 340.423 126.611 340.242 126.76C340.071 126.909 339.885 127.037 339.682 127.144C340.333 127.389 340.845 127.725 341.218 128.152C341.591 128.568 341.778 129.149 341.778 129.896V129.928ZM338.706 125.144V125.112C338.706 124.739 338.567 124.456 338.29 124.264C338.013 124.061 337.613 123.96 337.09 123.96H334.658V126.328H336.93C337.474 126.328 337.906 126.237 338.226 126.056C338.546 125.864 338.706 125.56 338.706 125.144ZM339.33 129.624V129.592C339.33 129.219 339.186 128.925 338.898 128.712C338.61 128.488 338.146 128.376 337.506 128.376H334.658V130.84H337.586C338.13 130.84 338.557 130.744 338.866 130.552C339.175 130.349 339.33 130.04 339.33 129.624ZM346.157 123.48H343.597V121.32H346.157V123.48ZM346.093 133H343.661V124.424H346.093V133ZM357.001 133H354.569V131.768C354.27 132.173 353.908 132.509 353.481 132.776C353.065 133.032 352.537 133.16 351.897 133.16C351.396 133.16 350.91 133.064 350.441 132.872C349.972 132.68 349.556 132.397 349.193 132.024C348.83 131.64 348.537 131.176 348.313 130.632C348.1 130.077 347.993 129.443 347.993 128.728V128.696C347.993 127.981 348.1 127.352 348.313 126.808C348.537 126.253 348.825 125.789 349.177 125.416C349.54 125.032 349.956 124.744 350.425 124.552C350.894 124.36 351.385 124.264 351.897 124.264C352.548 124.264 353.081 124.392 353.497 124.648C353.924 124.904 354.281 125.203 354.569 125.544V121.32H357.001V133ZM354.601 128.728V128.696C354.601 128.344 354.542 128.024 354.425 127.736C354.318 127.437 354.169 127.187 353.977 126.984C353.796 126.771 353.577 126.611 353.321 126.504C353.076 126.387 352.809 126.328 352.521 126.328C352.233 126.328 351.961 126.387 351.705 126.504C351.46 126.611 351.241 126.771 351.049 126.984C350.857 127.187 350.702 127.432 350.585 127.72C350.478 128.008 350.425 128.333 350.425 128.696V128.728C350.425 129.08 350.478 129.405 350.585 129.704C350.702 129.992 350.857 130.243 351.049 130.456C351.241 130.659 351.46 130.819 351.705 130.936C351.961 131.043 352.233 131.096 352.521 131.096C352.809 131.096 353.076 131.043 353.321 130.936C353.577 130.819 353.796 130.659 353.977 130.456C354.169 130.243 354.318 129.992 354.425 129.704C354.542 129.405 354.601 129.08 354.601 128.728Z" fill="#2D3AAF"/>
<rect x="287.5" y="106.5" width="114" height="43" rx="11.5" stroke="#2D3AAF"/>
<path d="M463.942 97.5679C463.523 99.712 462.57 101.627 461.12 103.329C460.337 104.249 459.081 104.661 457.831 104.41C445.883 102.015 420.843 86.5645 396.526 73.0674C394.914 72.1726 393.801 71.158 394.56 69.5991L396.237 66.1558C396.991 64.6062 398.797 65.4784 400.493 66.1738C426.215 76.7243 453.497 85.9208 462.863 94.4297C463.762 95.2463 464.162 96.4361 463.942 97.5672V97.5679Z" fill="#2D3AAF"/>
<path d="M400.076 62.7602L394.503 74.2024C394.389 74.4355 394.108 74.5325 393.874 74.4191L391.118 73.0807C390.885 72.9673 390.787 72.6865 390.901 72.4534L396.474 61.0112C396.588 60.7781 396.869 60.6811 397.103 60.7945L399.859 62.1329C400.092 62.2463 400.19 62.5271 400.076 62.7602Z" fill="url(#paint0_linear_1201_9883)"/>
<path d="M374.769 51.0913L369.196 62.5335C369.083 62.7666 368.801 62.8636 368.568 62.7502L365.811 61.4118C365.578 61.2984 365.481 61.0176 365.594 60.7845L371.168 49.3422C371.281 49.1091 371.562 49.0121 371.796 49.1255L374.552 50.4639C374.786 50.5773 374.883 50.8582 374.769 51.0913Z" fill="url(#paint1_linear_1201_9883)"/>
<path d="M377.573 39.0449L359.584 75.9805L384.649 88.1472L402.638 51.2116L377.573 39.0449Z" fill="#2D3AAF"/>
<path d="M360.528 74.0308L358.266 78.6758L383.33 90.8425L385.593 86.1975L360.528 74.0308Z" fill="url(#paint2_linear_1201_9883)"/>
<path d="M384.352 88.7541L383.228 91.0624C382.884 91.7679 382.079 92.1223 381.326 91.8986C373.512 89.5824 365.951 85.9725 358.675 80.8897C358.038 80.4446 357.819 79.6022 358.159 78.9044L359.288 76.5859L384.352 88.7541Z" fill="url(#paint3_linear_1201_9883)"/>
<path d="M402.785 50.9292L405.047 46.2842L379.982 34.1174L377.72 38.7624L402.785 50.9292Z" fill="url(#paint4_linear_1201_9883)"/>
<path d="M404.023 48.3753L405.147 46.067C405.491 45.3615 405.273 44.5104 404.632 44.0567C397.982 39.3517 390.468 35.6432 381.971 33.0682C381.226 32.8429 380.428 33.191 380.088 33.8895L378.959 36.208L404.023 48.3761V48.3753Z" fill="url(#paint5_linear_1201_9883)"/>
<path d="M402.876 52.437L403.74 50.6629C403.844 50.4494 403.755 50.192 403.541 50.0888L377.45 37.4224C377.236 37.3183 376.978 37.4075 376.875 37.6211L376.01 39.3951C375.906 39.6087 375.995 39.866 376.209 39.9693L402.3 52.6357C402.514 52.7397 402.772 52.6505 402.876 52.437Z" fill="url(#paint6_linear_1201_9883)"/>
<g opacity="0.5">
<path d="M296.656 32.2358C300.091 28.807 300.091 23.2477 296.656 19.8189C293.222 16.39 287.653 16.39 284.219 19.8189C280.784 23.2477 280.784 28.807 284.219 32.2358C287.653 35.6647 293.222 35.6647 296.656 32.2358Z" fill="#E0E2F0"/>
<path d="M296.45 32.0294C299.771 28.7146 299.771 23.3401 296.45 20.0253C293.13 16.7104 287.747 16.7104 284.426 20.0253C281.106 23.3401 281.106 28.7146 284.426 32.0294C287.747 35.3443 293.13 35.3443 296.45 32.0294Z" fill="#2D3AAF"/>
<path opacity="0.78" d="M295.71 31.2932C298.52 28.4874 298.52 23.9383 295.71 21.1325C292.899 18.3267 288.343 18.3267 285.532 21.1325C282.722 23.9383 282.722 28.4874 285.532 31.2932C288.343 34.0991 292.899 34.0991 295.71 31.2932Z" fill="#C0D9FF"/>
<path d="M289.919 31.5535V30.772C289.103 30.7397 288.295 30.5473 287.722 30.2964C287.517 30.207 287.412 29.9776 287.472 29.7624L287.67 29.0346C287.743 28.7676 288.034 28.6297 288.29 28.7367C288.859 28.9748 289.561 29.1631 290.319 29.1631C291.076 29.1631 291.691 28.8968 291.691 28.352C291.691 27.8596 291.238 27.567 290.146 27.2745C288.587 26.8487 287.468 26.17 287.468 24.8C287.468 23.563 288.374 22.6187 289.946 22.3658V21.5843C289.946 21.3327 290.15 21.1289 290.402 21.1289H290.862C291.114 21.1289 291.319 21.3327 291.319 21.5843V22.2858C292.074 22.316 292.624 22.4452 293.06 22.5979C293.284 22.6766 293.406 22.9167 293.344 23.1447L293.16 23.818C293.09 24.0776 292.812 24.2195 292.56 24.1247C292.159 23.9733 291.591 23.8153 290.852 23.8153C289.92 23.8153 289.653 24.2013 289.653 24.5471C289.653 24.9728 290.213 25.2654 291.425 25.638C293.157 26.1566 293.877 26.8749 293.877 28.1656C293.877 29.3494 292.997 30.4135 291.292 30.6798V31.5549C291.292 31.8064 291.087 32.0102 290.835 32.0102H290.375C290.123 32.0102 289.919 31.8064 289.919 31.5549L289.919 31.5535Z" fill="#2D3AAF"/>
<path d="M326.297 26.4242C332.276 20.4551 332.276 10.7773 326.297 4.8082C320.317 -1.1609 310.624 -1.1609 304.644 4.8082C298.665 10.7773 298.665 20.4551 304.644 26.4242C310.624 32.3933 320.317 32.3933 326.297 26.4242Z" fill="#E0E2F0"/>
<path d="M325.938 26.0651C331.718 20.2944 331.718 10.9381 325.938 5.16728C320.158 -0.603504 310.786 -0.603506 305.005 5.16728C299.225 10.9381 299.225 20.2944 305.005 26.0651C310.786 31.8359 320.158 31.8359 325.938 26.0651Z" fill="#2D3AAF"/>
<path opacity="0.78" d="M324.652 24.7803C329.544 19.896 329.544 11.977 324.652 7.09274C319.759 2.20845 311.827 2.20845 306.935 7.09274C302.042 11.977 302.042 19.896 306.935 24.7803C311.827 29.6646 319.759 29.6646 324.652 24.7803Z" fill="#C0D9FF"/>
<path d="M314.564 25.2347V23.874C313.143 23.8175 311.737 23.4826 310.74 23.0461C310.383 22.89 310.201 22.4912 310.304 22.1165L310.65 20.8494C310.777 20.3846 311.283 20.1438 311.729 20.3301C312.719 20.7444 313.941 21.072 315.26 21.072C316.578 21.072 317.649 20.6086 317.649 19.6595C317.649 18.8026 316.86 18.2935 314.958 17.7843C312.244 17.0431 310.296 15.862 310.296 13.477C310.296 11.3233 311.873 9.67948 314.61 9.2396V7.87893C314.61 7.44107 314.966 7.08594 315.404 7.08594H316.206C316.644 7.08594 317 7.44107 317 7.87893V9.10038C318.314 9.15284 319.272 9.37749 320.031 9.64384C320.42 9.78038 320.633 10.1987 320.525 10.5962L320.206 11.7686C320.083 12.2206 319.6 12.4681 319.16 12.3026C318.461 12.039 317.473 11.7639 316.187 11.7639C314.564 11.7639 314.1 12.4351 314.1 13.0378C314.1 13.779 315.074 14.2881 317.185 14.9365C320.201 15.8398 321.453 17.0902 321.453 19.336C321.453 21.3968 319.922 23.2492 316.953 23.7126V25.2354C316.953 25.6732 316.598 26.0284 316.159 26.0284H315.358C314.919 26.0284 314.564 25.6732 314.564 25.2354V25.2347Z" fill="#2D3AAF"/>
<path d="M337.172 60.8792C343.324 54.737 343.324 44.7786 337.172 38.6364C331.019 32.4942 321.044 32.4942 314.892 38.6364C308.739 44.7786 308.739 54.737 314.892 60.8792C321.044 67.0214 331.019 67.0214 337.172 60.8792Z" fill="#E0E2F0"/>
<path d="M336.804 60.5097C342.752 54.5716 342.752 44.944 336.804 39.0059C330.856 33.0678 321.212 33.0678 315.264 39.0059C309.316 44.944 309.316 54.5716 315.264 60.5097C321.212 66.4478 330.856 66.4478 336.804 60.5097Z" fill="#2D3AAF"/>
<path opacity="0.78" d="M335.481 59.188C340.515 54.1622 340.515 46.0136 335.481 40.9878C330.446 35.9619 322.284 35.9619 317.25 40.9878C312.216 46.0136 312.216 54.1622 317.25 59.188C322.284 64.2139 330.446 64.2139 335.481 59.188Z" fill="#C0D9FF"/>
<path d="M325.1 59.6562V58.2558C323.638 58.1973 322.192 57.8529 321.165 57.4043C320.798 57.2442 320.611 56.8333 320.717 56.4472L321.073 55.143C321.204 54.6648 321.725 54.4173 322.184 54.609C323.202 55.0354 324.461 55.3731 325.817 55.3731C327.173 55.3731 328.275 54.8962 328.275 53.9196C328.275 53.0378 327.464 52.5138 325.507 51.9899C322.714 51.2272 320.709 50.0124 320.709 47.5581C320.709 45.3419 322.332 43.6503 325.149 43.1977V41.7973C325.149 41.3467 325.514 40.9814 325.966 40.9814H326.79C327.241 40.9814 327.607 41.3467 327.607 41.7973V43.0544C328.96 43.1082 329.945 43.3396 330.726 43.6133C331.126 43.7539 331.345 44.1844 331.234 44.5933L330.907 45.7993C330.78 46.2647 330.282 46.519 329.831 46.3488C329.111 46.0771 328.094 45.7946 326.772 45.7946C325.101 45.7946 324.624 46.4853 324.624 47.1048C324.624 47.8675 325.626 48.3915 327.798 49.0587C330.901 49.9882 332.19 51.2749 332.19 53.586C332.19 55.7067 330.614 57.6128 327.559 58.0897V59.6569C327.559 60.1075 327.193 60.4727 326.742 60.4727H325.918C325.467 60.4727 325.101 60.1075 325.101 59.6569L325.1 59.6562Z" fill="#2D3AAF"/>
<path d="M354.402 36.4805C358.91 31.9802 358.91 24.6838 354.402 20.1836C349.894 15.6833 342.586 15.6833 338.078 20.1836C333.57 24.6838 333.57 31.9802 338.078 36.4805C342.586 40.9808 349.894 40.9807 354.402 36.4805Z" fill="#E0E2F0"/>
<path d="M354.132 36.2099C358.49 31.8591 358.49 24.805 354.132 20.4542C349.774 16.1034 342.708 16.1034 338.35 20.4542C333.992 24.805 333.992 31.8591 338.35 36.2099C342.708 40.5607 349.774 40.5607 354.132 36.2099Z" fill="#2D3AAF"/>
<path opacity="0.78" d="M353.163 35.2436C356.851 31.5613 356.851 25.5911 353.163 21.9087C349.474 18.2264 343.494 18.2264 339.805 21.9087C336.117 25.5911 336.117 31.5613 339.805 35.2436C343.494 38.9259 349.474 38.9259 353.163 35.2436Z" fill="#C0D9FF"/>
<path d="M345.556 35.585V34.5593C344.485 34.5163 343.425 34.2641 342.672 33.9352C342.403 33.8174 342.267 33.5168 342.343 33.2343L342.604 32.2785C342.7 31.9281 343.082 31.7465 343.417 31.8871C344.164 32.1992 345.086 32.4467 346.079 32.4467C347.073 32.4467 347.88 32.0976 347.88 31.382C347.88 30.7363 347.286 30.3522 345.852 29.9682C343.805 29.4092 342.337 28.5194 342.337 26.7209C342.337 25.0972 343.526 23.8576 345.589 23.526V22.5003C345.589 22.17 345.858 21.9023 346.188 21.9023H346.792C347.123 21.9023 347.391 22.17 347.391 22.5003V23.4211C348.382 23.4608 349.104 23.6296 349.676 23.8307C349.969 23.9336 350.13 24.249 350.049 24.549L349.809 25.4328C349.717 25.7738 349.352 25.9601 349.021 25.835C348.493 25.6359 347.748 25.4288 346.779 25.4288C345.555 25.4288 345.205 25.9353 345.205 26.3893C345.205 26.9482 345.94 27.3322 347.531 27.8206C349.804 28.5012 350.749 29.4442 350.749 31.1378C350.749 32.6915 349.595 34.0885 347.357 34.4376V35.5857C347.357 35.916 347.088 36.1837 346.758 36.1837H346.154C345.823 36.1837 345.555 35.916 345.555 35.5857L345.556 35.585Z" fill="#2D3AAF"/>
</g>
<defs>
<linearGradient id="paint0_linear_1201_9883" x1="395.378" y1="68.1513" x2="387.088" y2="107.767" gradientUnits="userSpaceOnUse">
<stop stop-color="#09005D"/>
<stop offset="1" stop-color="#1A0F91"/>
</linearGradient>
<linearGradient id="paint1_linear_1201_9883" x1="370.2" y1="52.0729" x2="370.11" y2="70.7679" gradientUnits="userSpaceOnUse">
<stop stop-color="#09005D"/>
<stop offset="1" stop-color="#1A0F91"/>
</linearGradient>
<linearGradient id="paint2_linear_1201_9883" x1="375.523" y1="69.2093" x2="370.461" y2="87.8592" gradientUnits="userSpaceOnUse">
<stop stop-color="#4F52FF"/>
<stop offset="1" stop-color="#4042E2"/>
</linearGradient>
<linearGradient id="paint3_linear_1201_9883" x1="412.338" y1="162.199" x2="386.844" y2="113.835" gradientUnits="userSpaceOnUse">
<stop stop-color="#09005D"/>
<stop offset="1" stop-color="#1A0F91"/>
</linearGradient>
<linearGradient id="paint4_linear_1201_9883" x1="396.399" y1="33.8865" x2="388.328" y2="47.8176" gradientUnits="userSpaceOnUse">
<stop stop-color="#4F52FF"/>
<stop offset="1" stop-color="#4042E2"/>
</linearGradient>
<linearGradient id="paint5_linear_1201_9883" x1="417.383" y1="-87.8967" x2="403.1" y2="-14.8148" gradientUnits="userSpaceOnUse">
<stop stop-color="#09005D"/>
<stop offset="1" stop-color="#1A0F91"/>
</linearGradient>
<linearGradient id="paint6_linear_1201_9883" x1="418.967" y1="39.5594" x2="408.708" y2="41.4945" gradientUnits="userSpaceOnUse">
<stop stop-color="#4F52FF"/>
<stop offset="1" stop-color="#4042E2"/>
</linearGradient>
</defs>
</svg>
