<svg width="163" height="173" viewBox="0 0 163 173" fill="none" xmlns="http://www.w3.org/2000/svg">
<g id="Frame 1171276881">
<path id="Vector" d="M133.327 127.386C119.229 160.242 82.0165 174.354 52.8592 171.947C44.8983 171.291 28.8803 169.968 16.3733 158.176C-7.64548 135.528 -3.9461 88.1884 19.0467 60.3175C22.0074 56.7286 42.5029 32.6812 74.4411 33.0032C97.8246 33.2388 114.237 46.4094 116.233 48.05C118.754 50.1226 124.315 55.0486 129.326 62.8623C141.101 81.2226 142.136 106.854 133.326 127.385L133.327 127.386Z" fill="#E1E9FE"/>
<g id="Group">
<g id="Group_2">
<path id="Vector_2" d="M85.2968 130.158H31.125V142.762H85.2968V130.158Z" fill="#738FE4"/>
<path id="Vector_3" d="M30 137.115H86.2538V141.632C86.2538 141.81 86.1083 141.955 85.9296 141.955H30.4848C30.217 141.955 30 141.738 30 141.471V137.116V137.115Z" fill="#91B3FA"/>
<path id="Vector_4" d="M30 131.619H86.2538V135.979C86.2538 136.244 86.0381 136.459 85.7728 136.459H30.6001C30.269 136.459 30 136.191 30 135.86V131.619Z" fill="#91B3FA"/>
<path id="Vector_5" d="M30.4954 129.805H85.7521C86.0293 129.805 86.2538 130.029 86.2538 130.306V131.62H30V130.299C30 130.026 30.222 129.805 30.4954 129.805Z" fill="#738FE4"/>
</g>
</g>
<g id="Group_3">
<g id="Group_4">
<path id="Vector_6" d="M162.359 129.568C161.941 131.712 160.988 133.627 159.538 135.329C158.755 136.249 157.499 136.661 156.249 136.41C144.301 134.015 119.261 118.565 94.944 105.067C93.3323 104.173 92.219 103.158 92.9782 101.599L94.6549 98.1558C95.4094 96.6062 97.2155 97.4784 98.911 98.1738C124.633 108.724 151.915 117.921 161.281 126.43C162.18 127.246 162.58 128.436 162.359 129.567V129.568Z" fill="#91B3FA"/>
<path id="Vector_7" d="M98.4959 94.7602L92.9228 106.202C92.8092 106.436 92.5279 106.533 92.2944 106.419L89.538 105.081C89.3045 104.967 89.2073 104.687 89.3209 104.453L94.8941 93.0112C95.0077 92.7781 95.289 92.6811 95.5225 92.7945L98.2789 94.1329C98.5124 94.2463 98.6095 94.5271 98.4959 94.7602Z" fill="#738FE4"/>
<path id="Vector_8" d="M73.1912 83.0913L67.6181 94.5335C67.5045 94.7666 67.2232 94.8636 66.9897 94.7502L64.2333 93.4118C63.9998 93.2984 63.9026 93.0176 64.0163 92.7845L69.5894 81.3422C69.703 81.1091 69.9843 81.0121 70.2178 81.1255L72.9742 82.4639C73.2077 82.5773 73.3049 82.8582 73.1912 83.0913Z" fill="#738FE4"/>
<path id="Vector_9" d="M75.9966 71.0449L58.0078 107.98L83.0726 120.147L101.061 83.2116L75.9966 71.0449Z" fill="#91B3FA"/>
<path id="Vector_10" d="M58.9498 106.031L56.6875 110.676L81.7523 122.843L84.0145 118.198L58.9498 106.031Z" fill="url(#paint0_linear_1327_23705)"/>
<path id="Vector_11" d="M82.7743 120.754L81.65 123.062C81.306 123.768 80.5005 124.122 79.7476 123.899C71.9343 121.582 64.3726 117.973 57.0969 112.89C56.4599 112.445 56.2413 111.602 56.5813 110.904L57.7104 108.586L82.7743 120.754Z" fill="#738FE4"/>
<path id="Vector_12" d="M101.206 82.9292L103.469 78.2842L78.404 66.1174L76.1417 70.7624L101.206 82.9292Z" fill="url(#paint1_linear_1327_23705)"/>
<path id="Vector_13" d="M102.447 80.3753L103.571 78.067C103.915 77.3615 103.696 76.5104 103.056 76.0567C96.4058 71.3517 88.8919 67.6432 80.3947 65.0682C79.6503 64.8429 78.8519 65.191 78.5119 65.8895L77.3828 68.208L102.447 80.3761V80.3753Z" fill="#738FE4"/>
<path id="Vector_14" d="M101.299 84.437L102.164 82.6629C102.268 82.4494 102.179 82.192 101.965 82.0888L75.8735 69.4224C75.6596 69.3183 75.4018 69.4075 75.2984 69.6211L74.4342 71.3951C74.33 71.6087 74.4193 71.866 74.6332 71.9693L100.724 84.6357C100.938 84.7397 101.196 84.6505 101.299 84.437Z" fill="url(#paint2_linear_1327_23705)"/>
</g>
</g>
<g id="Group_5" opacity="0.5">
<g id="Group_6">
<path id="Vector_15" d="M18.6565 38.2358C22.091 34.807 22.091 29.2477 18.6565 25.8189C15.2219 22.39 9.65338 22.39 6.21882 25.8189C2.78426 29.2477 2.78426 34.807 6.21882 38.2358C9.65338 41.6647 15.2219 41.6647 18.6565 38.2358Z" fill="#E0E2F0"/>
<path id="Vector_16" d="M18.4503 38.0294C21.7706 34.7146 21.7706 29.3401 18.4503 26.0253C15.1299 22.7104 9.7465 22.7104 6.42613 26.0253C3.10576 29.3401 3.10576 34.7146 6.42613 38.0294C9.74651 41.3443 15.1299 41.3443 18.4503 38.0294Z" fill="#2D3AAF"/>
<path id="Vector_17" opacity="0.78" d="M17.7118 37.2932C20.5223 34.4874 20.5223 29.9383 17.7118 27.1325C14.9013 24.3267 10.3446 24.3267 7.53413 27.1325C4.72365 29.9383 4.72366 34.4874 7.53413 37.2932C10.3446 40.0991 14.9013 40.0991 17.7118 37.2932Z" fill="#C0D9FF"/>
<path id="Vector_18" d="M11.9166 37.5535V36.772C11.1007 36.7397 10.2929 36.5473 9.71957 36.2964C9.51476 36.207 9.41034 35.9776 9.46963 35.7624L9.66837 35.0346C9.74114 34.7676 10.0322 34.6297 10.2882 34.7367C10.8568 34.9748 11.5595 35.1631 12.3168 35.1631C13.074 35.1631 13.6891 34.8968 13.6891 34.352C13.6891 33.8596 13.2364 33.567 12.1436 33.2745C10.5846 32.8487 9.46558 32.17 9.46558 30.8C9.46558 29.563 10.3717 28.6187 11.9442 28.3658V27.5843C11.9442 27.3327 12.1483 27.1289 12.4003 27.1289H12.8605C13.1124 27.1289 13.3166 27.3327 13.3166 27.5843V28.2858C14.0718 28.316 14.6216 28.4452 15.0581 28.5979C15.2818 28.6766 15.4038 28.9167 15.3418 29.1447L15.1585 29.818C15.0878 30.0776 14.8102 30.2195 14.5582 30.1247C14.1567 29.9733 13.5887 29.8153 12.8504 29.8153C11.9179 29.8153 11.6511 30.2013 11.6511 30.5471C11.6511 30.9728 12.211 31.2654 13.423 31.638C15.1551 32.1566 15.8747 32.8749 15.8747 34.1656C15.8747 35.3494 14.9955 36.4135 13.2896 36.6798V37.5549C13.2896 37.8064 13.0855 38.0102 12.8335 38.0102H12.3734C12.1214 38.0102 11.9173 37.8064 11.9173 37.5549L11.9166 37.5535Z" fill="#2D3AAF"/>
</g>
<g id="Group_7">
<path id="Vector_19" d="M48.2983 32.4242C54.2774 26.4551 54.2774 16.7773 48.2983 10.8082C42.3193 4.8391 32.6254 4.8391 26.6463 10.8082C20.6673 16.7773 20.6673 26.4551 26.6463 32.4242C32.6254 38.3933 42.3193 38.3933 48.2983 32.4242Z" fill="#E0E2F0"/>
<path id="Vector_20" d="M47.9381 32.0651C53.7185 26.2944 53.7185 16.9381 47.9381 11.1673C42.1577 5.3965 32.7858 5.39649 27.0054 11.1673C21.225 16.9381 21.225 26.2944 27.0054 32.0651C32.7858 37.8359 42.1577 37.8359 47.9381 32.0651Z" fill="#2D3AAF"/>
<path id="Vector_21" opacity="0.78" d="M46.6537 30.7803C51.5461 25.896 51.5461 17.977 46.6537 13.0927C41.7612 8.20845 33.8291 8.20845 28.9366 13.0927C24.0442 17.977 24.0442 25.896 28.9366 30.7803C33.8291 35.6646 41.7612 35.6646 46.6537 30.7803Z" fill="#C0D9FF"/>
<path id="Vector_22" d="M36.5695 31.2347V29.874C35.1486 29.8175 33.7433 29.4826 32.7455 29.0461C32.3891 28.89 32.2072 28.4912 32.3096 28.1165L32.6559 26.8494C32.7832 26.3846 33.2892 26.1438 33.7345 26.3301C34.7249 26.7444 35.947 27.072 37.2655 27.072C38.5839 27.072 39.6545 26.6086 39.6545 25.6595C39.6545 24.8026 38.8656 24.2935 36.9636 23.7843C34.2499 23.0431 32.3015 21.862 32.3015 19.477C32.3015 17.3233 33.8787 15.6795 36.616 15.2396V13.8789C36.616 13.4411 36.9717 13.0859 37.4103 13.0859H38.2114C38.65 13.0859 39.0057 13.4411 39.0057 13.8789V15.1004C40.3201 15.1528 41.2775 15.3775 42.0368 15.6438C42.4262 15.7804 42.6384 16.1987 42.5306 16.5962L42.2119 17.7686C42.0893 18.2206 41.6056 18.4681 41.1663 18.3026C40.467 18.039 39.4786 17.7639 38.1932 17.7639C36.5695 17.7639 36.106 18.4351 36.106 19.0378C36.106 19.779 37.0802 20.2881 39.191 20.9365C42.2065 21.8398 43.459 23.0902 43.459 25.336C43.459 27.3968 41.9283 29.2492 38.9592 29.7126V31.2354C38.9592 31.6732 38.6035 32.0284 38.1649 32.0284H37.3638C36.9252 32.0284 36.5695 31.6732 36.5695 31.2354V31.2347Z" fill="#2D3AAF"/>
</g>
<g id="Group_8">
<path id="Vector_23" d="M59.1699 66.8792C65.3223 60.737 65.3223 50.7786 59.1699 44.6364C53.0174 38.4942 43.0424 38.4942 36.89 44.6364C30.7375 50.7786 30.7375 60.737 36.89 66.8792C43.0424 73.0214 53.0174 73.0214 59.1699 66.8792Z" fill="#E0E2F0"/>
<path id="Vector_24" d="M58.8016 66.5097C64.7496 60.5716 64.7496 50.944 58.8016 45.0059C52.8536 39.0678 43.21 39.0678 37.262 45.0059C31.314 50.944 31.314 60.5716 37.262 66.5097C43.21 72.4478 52.8536 72.4478 58.8016 66.5097Z" fill="#2D3AAF"/>
<path id="Vector_25" opacity="0.78" d="M57.4787 65.188C62.5129 60.1622 62.5129 52.0136 57.4787 46.9878C52.4444 41.9619 44.2823 41.9619 39.2481 46.9878C34.2139 52.0136 34.2139 60.1622 39.2481 65.188C44.2823 70.2139 52.4444 70.2139 57.4787 65.188Z" fill="#C0D9FF"/>
<path id="Vector_26" d="M47.1001 65.6562V64.2558C45.6381 64.1973 44.1923 63.8529 43.1649 63.4043C42.7984 63.2442 42.6111 62.8333 42.7168 62.4472L43.0732 61.143C43.2039 60.6648 43.7254 60.4173 44.1835 60.609C45.2022 61.0354 46.4607 61.3731 47.8169 61.3731C49.1731 61.3731 50.2753 60.8962 50.2753 59.9196C50.2753 59.0378 49.4641 58.5138 47.507 57.9899C44.7144 57.2272 42.7094 56.0124 42.7094 53.5581C42.7094 51.3419 44.3324 49.6503 47.1486 49.1977V47.7973C47.1486 47.3467 47.5144 46.9814 47.9658 46.9814H48.7898C49.2411 46.9814 49.607 47.3467 49.607 47.7973V49.0544C50.9598 49.1082 51.9448 49.3396 52.7263 49.6133C53.1265 49.7539 53.3454 50.1844 53.2343 50.5933L52.9069 51.7993C52.7802 52.2647 52.2823 52.519 51.8309 52.3488C51.1114 52.0771 50.0941 51.7946 48.7716 51.7946C47.1007 51.7946 46.6237 52.4853 46.6237 53.1048C46.6237 53.8675 47.6262 54.3915 49.7983 55.0587C52.9008 55.9882 54.1896 57.2749 54.1896 59.586C54.1896 61.7067 52.6145 63.6128 49.5591 64.0897V65.6569C49.5591 66.1075 49.1933 66.4727 48.7419 66.4727H47.918C47.4666 66.4727 47.1007 66.1075 47.1007 65.6569L47.1001 65.6562Z" fill="#2D3AAF"/>
</g>
<g id="Group_9">
<path id="Vector_27" d="M76.4001 42.4805C80.9079 37.9802 80.9079 30.6838 76.4001 26.1836C71.8924 21.6833 64.5839 21.6833 60.0761 26.1836C55.5683 30.6838 55.5683 37.9802 60.0761 42.4805C64.5839 46.9808 71.8924 46.9807 76.4001 42.4805Z" fill="#E0E2F0"/>
<path id="Vector_28" d="M76.1338 42.2099C80.4919 37.8591 80.4919 30.805 76.1338 26.4542C71.7758 22.1034 64.71 22.1034 60.3519 26.4542C55.9938 30.805 55.9938 37.8591 60.3519 42.2099C64.71 46.5607 71.7758 46.5607 76.1338 42.2099Z" fill="#2D3AAF"/>
<path id="Vector_29" opacity="0.78" d="M75.1606 41.2436C78.8491 37.5613 78.8491 31.5911 75.1606 27.9087C71.4722 24.2264 65.492 24.2264 61.8035 27.9087C58.1151 31.5911 58.1151 37.5613 61.8035 41.2436C65.492 44.9259 71.4722 44.9259 75.1606 41.2436Z" fill="#C0D9FF"/>
<path id="Vector_30" d="M67.5538 41.585V40.5593C66.4826 40.5163 65.4228 40.2641 64.6703 39.9352C64.4015 39.8174 64.2647 39.5168 64.3415 39.2343L64.6023 38.2785C64.6979 37.9281 65.0799 37.7465 65.4154 37.8871C66.1619 38.1992 67.0836 38.4467 68.0773 38.4467C69.071 38.4467 69.8782 38.0976 69.8782 37.382C69.8782 36.7363 69.2839 36.3522 67.8496 35.9682C65.8035 35.4092 64.3348 34.5194 64.3348 32.7209C64.3348 31.0972 65.5239 29.8576 67.5875 29.526V28.5003C67.5875 28.17 67.8557 27.9023 68.1865 27.9023H68.7901C69.1209 27.9023 69.389 28.17 69.389 28.5003V29.4211C70.3801 29.4608 71.1016 29.6296 71.6743 29.8307C71.9674 29.9336 72.1277 30.249 72.0469 30.549L71.807 31.4328C71.7147 31.7738 71.3496 31.9601 71.0188 31.835C70.4912 31.6359 69.7461 31.4288 68.7773 31.4288C67.5532 31.4288 67.2035 31.9353 67.2035 32.3893C67.2035 32.9482 67.9378 33.3322 69.5292 33.8206C71.8023 34.5012 72.7469 35.4442 72.7469 37.1378C72.7469 38.6915 71.5928 40.0885 69.3547 40.4376V41.5857C69.3547 41.916 69.0865 42.1837 68.7557 42.1837H68.1521C67.8213 42.1837 67.5532 41.916 67.5532 41.5857L67.5538 41.585Z" fill="#2D3AAF"/>
</g>
</g>
</g>
<defs>
<linearGradient id="paint0_linear_1327_23705" x1="73.9449" y1="101.209" x2="68.8826" y2="119.859" gradientUnits="userSpaceOnUse">
<stop stop-color="#4F52FF"/>
<stop offset="1" stop-color="#4042E2"/>
</linearGradient>
<linearGradient id="paint1_linear_1327_23705" x1="94.8205" y1="65.8865" x2="86.75" y2="79.8176" gradientUnits="userSpaceOnUse">
<stop stop-color="#4F52FF"/>
<stop offset="1" stop-color="#4042E2"/>
</linearGradient>
<linearGradient id="paint2_linear_1327_23705" x1="117.391" y1="71.5594" x2="107.132" y2="73.4945" gradientUnits="userSpaceOnUse">
<stop stop-color="#4F52FF"/>
<stop offset="1" stop-color="#4042E2"/>
</linearGradient>
</defs>
</svg>
