<svg width="163" height="174" viewBox="0 0 163 174" fill="none" xmlns="http://www.w3.org/2000/svg">
<path d="M133.618 128.281C119.52 161.137 82.3075 175.249 53.1502 172.843C45.1893 172.186 29.1714 170.864 16.6643 159.071C-7.35446 136.424 -3.65509 89.0839 19.3378 61.213C22.2984 57.6241 42.7939 33.5767 74.7321 33.8987C98.1156 34.1343 114.528 47.3049 116.524 48.9456C119.045 51.0181 124.606 55.9441 129.617 63.7578C141.392 82.1181 142.427 107.749 133.617 128.281L133.618 128.281Z" fill="#E1E9FE"/>
<path d="M85.5898 131.054H31.418V143.658H85.5898V131.054Z" fill="#738FE4"/>
<path d="M30.291 138.011H86.5448V142.527C86.5448 142.706 86.3994 142.851 86.2206 142.851H30.7758C30.508 142.851 30.291 142.634 30.291 142.367V138.011V138.011Z" fill="#91B3FA"/>
<path d="M30.291 132.515H86.5448V136.875C86.5448 137.139 86.3291 137.355 86.0639 137.355H30.8912C30.56 137.355 30.291 137.086 30.291 136.756V132.515Z" fill="#91B3FA"/>
<path d="M30.7864 130.7H86.0432C86.3203 130.7 86.5448 130.924 86.5448 131.201V132.515H30.291V131.195C30.291 130.922 30.513 130.7 30.7864 130.7Z" fill="#738FE4"/>
<path d="M162.65 130.463C162.232 132.608 161.279 134.522 159.829 136.224C159.046 137.144 157.79 137.557 156.54 137.305C144.592 134.91 119.552 119.46 95.2351 105.963C93.6234 105.068 92.51 104.054 93.2692 102.495L94.9459 99.0513C95.7005 97.5017 97.5065 98.3739 99.202 99.0693C124.924 109.62 152.206 118.816 161.572 127.325C162.471 128.142 162.871 129.332 162.65 130.463V130.463Z" fill="#91B3FA"/>
<path d="M98.785 95.6557L93.2118 107.098C93.0982 107.331 92.8169 107.428 92.5834 107.315L89.827 105.976C89.5935 105.863 89.4964 105.582 89.61 105.349L95.1832 93.9067C95.2968 93.6736 95.5781 93.5766 95.8115 93.69L98.568 95.0284C98.8014 95.1418 98.8986 95.4226 98.785 95.6557Z" fill="#738FE4"/>
<path d="M73.4784 83.9868L67.9052 95.429C67.7916 95.6621 67.5103 95.7591 67.2768 95.6457L64.5204 94.3073C64.2869 94.1939 64.1898 93.9131 64.3034 93.68L69.8765 82.2377C69.9901 82.0046 70.2714 81.9076 70.5049 82.0211L73.2613 83.3594C73.4948 83.4728 73.592 83.7537 73.4784 83.9868Z" fill="#738FE4"/>
<path d="M76.2818 71.9404L58.293 108.876L83.3577 121.043L101.347 84.1071L76.2818 71.9404Z" fill="#91B3FA"/>
<path d="M59.2369 106.926L56.9746 111.571L82.0394 123.738L84.3016 119.093L59.2369 106.926Z" fill="url(#paint0_linear_2480_72177)"/>
<path d="M83.0614 121.65L81.9371 123.958C81.5931 124.663 80.7877 125.018 80.0347 124.794C72.2215 122.478 64.6597 118.868 57.384 113.785C56.747 113.34 56.5284 112.498 56.8684 111.8L57.9975 109.481L83.0614 121.65Z" fill="#738FE4"/>
<path d="M101.494 83.8247L103.756 79.1797L78.6911 67.0129L76.4288 71.6579L101.494 83.8247Z" fill="url(#paint1_linear_2480_72177)"/>
<path d="M102.732 81.2709L103.856 78.9625C104.2 78.257 103.982 77.4059 103.341 76.9522C96.691 72.2472 89.1771 68.5387 80.6798 65.9637C79.9355 65.7384 79.1371 66.0865 78.797 66.785L77.668 69.1035L102.732 81.2716V81.2709Z" fill="#738FE4"/>
<path d="M101.585 85.3325L102.449 83.5584C102.553 83.3449 102.464 83.0875 102.25 82.9843L76.1586 70.3179C75.9447 70.2138 75.687 70.303 75.5835 70.5166L74.7193 72.2906C74.6151 72.5042 74.7044 72.7615 74.9183 72.8648L101.009 85.5312C101.223 85.6352 101.481 85.546 101.585 85.3325Z" fill="url(#paint2_linear_2480_72177)"/>
<g opacity="0.5">
<path d="M18.9475 39.1313C22.382 35.7025 22.382 30.1432 18.9475 26.7144C15.5129 23.2855 9.9444 23.2855 6.50984 26.7144C3.07528 30.1432 3.07528 35.7025 6.50984 39.1313C9.9444 42.5602 15.5129 42.5602 18.9475 39.1313Z" fill="#E0E2F0"/>
<path d="M18.7413 38.9249C22.0617 35.6101 22.0617 30.2356 18.7413 26.9208C15.4209 23.6059 10.0375 23.6059 6.71715 26.9208C3.39677 30.2356 3.39677 35.6101 6.71715 38.9249C10.0375 42.2398 15.4209 42.2398 18.7413 38.9249Z" fill="#2D3AAF"/>
<path opacity="0.78" d="M18.0008 38.1888C20.8113 35.383 20.8113 30.8338 18.0008 28.028C15.1904 25.2222 10.6337 25.2222 7.8232 28.028C5.01272 30.8338 5.01272 35.383 7.8232 38.1888C10.6337 40.9946 15.1904 40.9946 18.0008 38.1888Z" fill="#C0D9FF"/>
<path d="M12.2095 38.449V37.6675C11.3937 37.6352 10.5859 37.4428 10.0125 37.192C9.80773 37.1025 9.70331 36.8731 9.76259 36.6579L9.96134 35.9302C10.0341 35.6631 10.3251 35.5252 10.5812 35.6322C11.1498 35.8703 11.8525 36.0586 12.6097 36.0586C13.367 36.0586 13.9821 35.7923 13.9821 35.2475C13.9821 34.7551 13.5294 34.4625 12.4366 34.17C10.8776 33.7442 9.75855 33.0656 9.75855 31.6955C9.75855 30.4586 10.6647 29.5142 12.2372 29.2613V28.4798C12.2372 28.2282 12.4413 28.0244 12.6933 28.0244H13.1534C13.4054 28.0244 13.6095 28.2282 13.6095 28.4798V29.1813C14.3648 29.2116 14.9145 29.3407 15.3511 29.4934C15.5748 29.5721 15.6967 29.8122 15.6347 30.0402L15.4515 30.7135C15.3807 30.9731 15.1032 31.115 14.8512 31.0202C14.4497 30.8688 13.8817 30.7108 13.1433 30.7108C12.2109 30.7108 11.9441 31.0969 11.9441 31.4426C11.9441 31.8683 12.504 32.1609 13.716 32.5335C15.4481 33.0521 16.1677 33.7704 16.1677 35.0612C16.1677 36.2449 15.2884 37.309 13.5826 37.5753V38.4504C13.5826 38.7019 13.3784 38.9057 13.1265 38.9057H12.6663C12.4144 38.9057 12.2102 38.7019 12.2102 38.4504L12.2095 38.449Z" fill="#2D3AAF"/>
<path d="M48.5874 33.3197C54.5665 27.3506 54.5665 17.6728 48.5874 11.7037C42.6084 5.73461 32.9144 5.73461 26.9354 11.7037C20.9563 17.6728 20.9563 27.3506 26.9354 33.3197C32.9144 39.2888 42.6084 39.2888 48.5874 33.3197Z" fill="#E0E2F0"/>
<path d="M48.2291 32.9606C54.0095 27.1899 54.0095 17.8336 48.2291 12.0628C42.4487 6.292 33.0768 6.292 27.2964 12.0628C21.516 17.8336 21.516 27.1899 27.2964 32.9607C33.0768 38.7314 42.4487 38.7314 48.2291 32.9606Z" fill="#2D3AAF"/>
<path opacity="0.78" d="M46.9427 31.6758C51.8351 26.7915 51.8352 18.8725 46.9427 13.9882C42.0503 9.10396 34.1181 9.10396 29.2257 13.9882C24.3333 18.8725 24.3333 26.7915 29.2257 31.6758C34.1181 36.5601 42.0503 36.5601 46.9427 31.6758Z" fill="#C0D9FF"/>
<path d="M36.8547 32.1302V30.7695C35.4338 30.713 34.0284 30.3781 33.0306 29.9416C32.6742 29.7855 32.4923 29.3867 32.5947 29.012L32.941 27.7449C33.0684 27.2801 33.5743 27.0393 34.0197 27.2256C35.01 27.6399 36.2322 27.9675 37.5506 27.9675C38.8691 27.9675 39.9396 27.5041 39.9396 26.555C39.9396 25.6981 39.1507 25.189 37.2488 24.6798C34.5351 23.9386 32.5867 22.7575 32.5867 20.3725C32.5867 18.2188 34.1638 16.575 36.9012 16.1351V14.7744C36.9012 14.3366 37.2569 13.9814 37.6955 13.9814H38.4965C38.9351 13.9814 39.2909 14.3366 39.2909 14.7744V15.9959C40.6053 16.0483 41.5626 16.273 42.3219 16.5393C42.7113 16.6759 42.9235 17.0942 42.8158 17.4917L42.4971 18.6641C42.3745 19.1161 41.8907 19.3636 41.4515 19.1981C40.7521 18.9345 39.7638 18.6594 38.4783 18.6594C36.8547 18.6594 36.3912 19.3306 36.3912 19.9333C36.3912 20.6745 37.3654 21.1836 39.4761 21.832C42.4917 22.7353 43.7441 23.9857 43.7441 26.2315C43.7441 28.2924 42.2134 30.1447 39.2444 30.6081V32.1309C39.2444 32.5687 38.8886 32.9239 38.45 32.9239H37.649C37.2104 32.9239 36.8547 32.5687 36.8547 32.1309V32.1302Z" fill="#2D3AAF"/>
<path d="M59.4628 67.7748C65.6153 61.6326 65.6153 51.6741 59.4628 45.5319C53.3104 39.3897 43.3354 39.3897 37.1829 45.5319C31.0305 51.6741 31.0305 61.6326 37.1829 67.7747C43.3353 73.9169 53.3104 73.9169 59.4628 67.7748Z" fill="#E0E2F0"/>
<path d="M59.0945 67.4052C65.0425 61.4671 65.0425 51.8395 59.0945 45.9014C53.1466 39.9633 43.5029 39.9633 37.555 45.9014C31.607 51.8395 31.607 61.4671 37.555 67.4052C43.5029 73.3433 53.1466 73.3433 59.0945 67.4052Z" fill="#2D3AAF"/>
<path opacity="0.78" d="M57.7716 66.0835C62.8059 61.0577 62.8059 52.9091 57.7716 47.8833C52.7374 42.8574 44.5753 42.8574 39.5411 47.8833C34.5068 52.9091 34.5068 61.0577 39.5411 66.0835C44.5753 71.1094 52.7374 71.1094 57.7716 66.0835Z" fill="#C0D9FF"/>
<path d="M47.3911 66.5517V65.1513C45.9291 65.0928 44.4833 64.7485 43.4559 64.2998C43.0894 64.1397 42.9021 63.7288 43.0079 63.3427L43.3643 62.0385C43.495 61.5603 44.0164 61.3128 44.4745 61.5045C45.4932 61.9309 46.7517 62.2686 48.1079 62.2686C49.4641 62.2686 50.5663 61.7917 50.5663 60.8151C50.5663 59.9333 49.7552 59.4094 47.798 58.8854C45.0054 58.1227 43.0004 56.908 43.0004 54.4536C43.0004 52.2374 44.6234 50.5458 47.4396 50.0932V48.6928C47.4396 48.2422 47.8054 47.877 48.2568 47.877H49.0808C49.5322 47.877 49.898 48.2422 49.898 48.6928V49.9499C51.2508 50.0037 52.2358 50.2351 53.0173 50.5088C53.4175 50.6494 53.6365 51.0799 53.5253 51.4888L53.1979 52.6948C53.0712 53.1602 52.5733 53.4145 52.1219 53.2443C51.4024 52.9726 50.3851 52.6901 49.0626 52.6901C47.3918 52.6901 46.9148 53.3808 46.9148 54.0003C46.9148 54.763 47.9173 55.287 50.0893 55.9542C53.1918 56.8837 54.4806 58.1704 54.4806 60.4815C54.4806 62.6022 52.9055 64.5083 49.8502 64.9852V66.5524C49.8502 67.003 49.4843 67.3682 49.0329 67.3682H48.209C47.7576 67.3682 47.3917 67.003 47.3917 66.5524L47.3911 66.5517Z" fill="#2D3AAF"/>
<path d="M76.6931 43.376C81.2009 38.8757 81.2009 31.5794 76.6931 27.0791C72.1854 22.5788 64.8768 22.5788 60.3691 27.0791C55.8613 31.5793 55.8613 38.8757 60.3691 43.376C64.8768 47.8763 72.1854 47.8763 76.6931 43.376Z" fill="#E0E2F0"/>
<path d="M76.4229 43.1054C80.7809 38.7546 80.7809 31.7005 76.4229 27.3497C72.0648 22.9989 64.999 22.9989 60.641 27.3497C56.2829 31.7005 56.2829 38.7546 60.641 43.1054C64.999 47.4562 72.0648 47.4562 76.4229 43.1054Z" fill="#2D3AAF"/>
<path opacity="0.78" d="M75.4536 42.1391C79.1421 38.4568 79.1421 32.4866 75.4536 28.8042C71.7651 25.1219 65.785 25.1219 62.0965 28.8042C58.4081 32.4866 58.4081 38.4568 62.0965 42.1391C65.785 45.8214 71.7651 45.8214 75.4536 42.1391Z" fill="#C0D9FF"/>
<path d="M67.8468 42.4806V41.4548C66.7756 41.4118 65.7158 41.1596 64.9633 40.8307C64.6945 40.713 64.5577 40.4123 64.6345 40.1298L64.8952 39.174C64.9909 38.8236 65.3729 38.642 65.7084 38.7826C66.4549 39.0947 67.3765 39.3422 68.3703 39.3422C69.364 39.3422 70.1711 38.9931 70.1711 38.2775C70.1711 37.6318 69.5769 37.2477 68.1426 36.8637C66.0965 36.3047 64.6278 35.4149 64.6278 33.6164C64.6278 31.9927 65.8169 30.7531 67.8805 30.4215V29.3958C67.8805 29.0655 68.1486 28.7979 68.4794 28.7979H69.0831C69.4139 28.7979 69.682 29.0655 69.682 29.3958V30.3166C70.6731 30.3563 71.3946 30.5251 71.9673 30.7262C72.2603 30.8291 72.4207 31.1446 72.3398 31.4445L72.1 32.3283C72.0077 32.6693 71.6425 32.8556 71.3117 32.7305C70.7842 32.5315 70.0391 32.3243 69.0703 32.3243C67.8461 32.3243 67.4965 32.8308 67.4965 33.2848C67.4965 33.8437 68.2308 34.2278 69.8221 34.7161C72.0953 35.3967 73.0398 36.3397 73.0398 38.0333C73.0398 39.587 71.8858 40.984 69.6477 41.3331V42.4812C69.6477 42.8115 69.3795 43.0792 69.0487 43.0792H68.4451C68.1143 43.0792 67.8461 42.8115 67.8461 42.4812L67.8468 42.4806Z" fill="#2D3AAF"/>
</g>
<defs>
<linearGradient id="paint0_linear_2480_72177" x1="74.232" y1="102.105" x2="69.1697" y2="120.755" gradientUnits="userSpaceOnUse">
<stop stop-color="#4F52FF"/>
<stop offset="1" stop-color="#4042E2"/>
</linearGradient>
<linearGradient id="paint1_linear_2480_72177" x1="95.1076" y1="66.782" x2="87.0371" y2="80.7132" gradientUnits="userSpaceOnUse">
<stop stop-color="#4F52FF"/>
<stop offset="1" stop-color="#4042E2"/>
</linearGradient>
<linearGradient id="paint2_linear_2480_72177" x1="117.676" y1="72.4549" x2="107.417" y2="74.39" gradientUnits="userSpaceOnUse">
<stop stop-color="#4F52FF"/>
<stop offset="1" stop-color="#4042E2"/>
</linearGradient>
</defs>
</svg>
