<svg width="187" height="168" viewBox="0 0 187 168" fill="none" xmlns="http://www.w3.org/2000/svg">
<rect x="0.5" y="0.492188" width="186" height="167" rx="12" fill="#F9F9F9"/>
<path d="M105.212 86.1262C100.465 83.5344 101.758 71.0176 101.758 71.0176L94.6485 71.4766V71.0176L93.8872 71.2471L93.1259 71.0176V71.4766L86.0166 71.0176C86.0166 71.0176 87.3097 83.5344 82.5627 86.1262C77.8157 88.718 49.7592 90.0111 52.7764 118.93H134.992C138.015 90.0111 109.959 88.7124 105.206 86.1262H105.212Z" fill="#738FE4"/>
<path d="M85.0201 82.9021C90.702 82.0568 96.3782 81.1836 102.049 80.2823C101.248 75.9664 101.763 71.0234 101.763 71.0234L94.6541 71.4825V71.0234L93.8928 71.253L93.1315 71.0234V71.4825L86.0222 71.0234C86.0222 71.0234 86.7723 78.2951 85.0257 82.9021H85.0201Z" fill="#738FE4"/>
<path d="M109.774 87.582C105.911 91.0303 100.23 93.2135 93.8873 93.2135C87.5449 93.2135 81.8687 91.0303 78.0005 87.582C68.6577 90.0955 50.3023 95.2567 52.7766 118.936H134.992C137.467 95.2567 119.111 90.1011 109.768 87.582H109.774Z" fill="white"/>
<path d="M52.5692 114.016C52.5356 115.561 52.5972 117.19 52.7763 118.931H134.992C136.067 108.653 133.212 101.868 128.879 97.2725C103.219 101.756 77.8212 107.601 52.5636 114.016H52.5692Z" fill="white"/>
<path d="M76.7353 86.4961L81.5886 118.964H50.6156C50.6156 118.964 47.2569 91.3494 76.7409 86.4961H76.7353Z" fill="#2D3AAF"/>
<path d="M76.7354 86.4958L81.5888 118.963L68.5289 98.4361L73.7517 91.3436L67.0343 88.7294C67.0343 88.7294 71.5126 86.675 76.7354 86.4902V86.4958Z" fill="#123284"/>
<path d="M110.765 86.4961L105.911 118.964H136.884C136.884 118.964 140.243 91.3494 110.759 86.4961H110.765Z" fill="#2D3AAF"/>
<path d="M110.765 86.4958L105.911 118.963L118.971 98.4361L113.748 91.3436L120.466 88.7294C120.466 88.7294 115.988 86.675 110.765 86.4902V86.4958Z" fill="#123284"/>
<path d="M79.9821 52.695C78.5826 48.3567 75.2687 49.3587 74.9608 49.465C74.6361 49.5042 71.2103 50.0136 71.8036 54.5311C72.397 59.0822 75.0392 61.5452 77.5135 60.8231C80.0605 60.4201 81.3928 57.0613 79.9821 52.695Z" fill="#738FE4"/>
<path d="M107.921 52.695C109.321 48.3567 112.635 49.3587 112.942 49.465C113.267 49.5042 116.693 50.0136 116.1 54.5311C115.506 59.0822 112.864 61.5452 110.39 60.8231C107.843 60.4201 106.51 57.0613 107.921 52.695Z" fill="#738FE4"/>
<path d="M76.5897 46.1177C78.3251 27.0905 92.7899 28.1541 94.1502 28.2997C95.5161 28.1541 109.981 27.0905 111.711 46.1177C113.457 65.2568 104.932 77.7568 94.1502 77.0739C83.3687 77.7624 74.8432 65.2624 76.5897 46.1177Z" fill="#738FE4"/>
<path d="M83.0778 33.6909C83.0778 33.6909 90.355 43.0226 100.806 41.3432L98.3824 37.9845C98.3824 37.9845 104.725 40.9681 115.361 38.1692C115.361 38.1692 116.105 26.5984 98.0073 23.9898C98.0073 23.9898 106.589 24.7343 112.562 28.2834C112.562 28.2834 95.0236 9.99515 80.6539 28.2834C80.6539 28.2834 72.4418 28.4681 72.0724 37.615C71.6973 46.7563 73.9365 50.115 73.9365 50.115C73.9365 50.115 75.8006 48.6204 76.3604 51.7944C76.9201 54.9684 76.3604 59.8162 78.4148 64.2944L81.7735 61.8706C81.7735 61.8706 77.4799 51.7944 78.4148 43.3976C78.4148 43.3976 83.8279 42.278 83.0778 33.6965V33.6909Z" fill="#2D3AAF"/>
<path d="M112.746 36.4902C112.746 36.4902 115.17 57.0176 109.387 65.2241L107.148 62.4251C107.148 62.4251 113.491 51.2294 108.643 37.7945L112.746 36.4902Z" fill="#2D3AAF"/>
<path d="M74.3217 33.0512C74.3217 33.0512 73.6724 30.4675 72.5356 29.0703C71.815 28.1838 69.8981 26.6702 69.2633 25.2057C68.3174 23.0204 69.1691 18.918 75.6362 16.4915C82.1038 14.0663 90.3803 12.6781 101.757 14.0083C113.133 15.3384 121.007 19.1048 120.912 23.8012C120.815 28.498 112.166 31.8038 112.166 31.8038L74.3217 33.0512Z" fill="#203291"/>
<path d="M73.9907 31.8828C73.9907 31.8828 70.4487 34.5305 70.632 35.5214C70.8153 36.5122 72.7968 36.6526 94.143 36.6409C94.143 36.6409 114.855 35.8078 117.934 35.5214C121.013 35.235 114.295 31.0432 114.295 31.0432C114.295 31.0432 78.0128 30.7637 73.9907 31.8828Z" fill="#09005D"/>
<path d="M72.8914 32.7507L73.7311 31.911L72.8914 29.6719C72.8914 29.6719 85.3838 28.5963 94.7231 28.5526C103.954 28.5088 115.394 29.6996 115.435 29.9518C115.477 30.2041 114.596 31.6199 114.596 31.6199L72.8914 32.7507Z" fill="#09005D"/>
<path d="M97.9286 23.8594C97.7935 24.6064 97.5396 25.2715 97.1023 25.8389C97.2027 25.9243 97.2931 26.0011 97.3959 26.0866C96.862 26.9401 96.0953 27.142 95.274 27.2485C95.2207 25.5775 95.1675 23.9288 95.1142 22.2788C95.1464 22.2664 95.1638 22.2553 95.1836 22.2528C95.5701 22.202 95.9578 22.1475 96.3455 22.1042C96.4037 22.098 96.4743 22.1351 96.5263 22.176C96.6998 22.3123 96.9252 22.2813 97.0602 22.093C97.1965 21.9035 97.1853 21.6161 97.0354 21.4415C96.8893 21.2718 96.6329 21.2433 96.504 21.4266C96.3987 21.5765 96.2922 21.5567 96.1671 21.5393C96.1151 21.5319 96.0631 21.5245 96.011 21.517C95.7088 21.4761 95.4065 21.4353 95.0894 21.3919V20.671C95.1043 20.6635 95.1291 20.6512 95.1551 20.6388C95.6283 20.4133 95.8636 19.7878 95.6914 19.218C95.5205 18.6556 95.0052 18.3496 94.5295 18.5268C94.1592 18.6643 93.8966 19.0607 93.8668 19.5239C93.8383 19.9736 94.0526 20.4034 94.4007 20.6103C94.4391 20.6326 94.4949 20.6784 94.4949 20.7143C94.4949 20.9385 94.4837 21.1627 94.475 21.3919C94.0712 21.4452 93.681 21.4947 93.2908 21.5517C93.2115 21.5628 93.1632 21.548 93.1087 21.4699C92.9688 21.268 92.7235 21.2507 92.5575 21.4154C92.3878 21.5839 92.3643 21.8812 92.503 22.0843C92.6405 22.285 92.8746 22.3135 93.0555 22.1624C93.1025 22.1227 93.1719 22.0967 93.2277 22.1029C93.6079 22.145 93.9857 22.2008 94.366 22.2441C94.4639 22.2553 94.454 22.3197 94.4515 22.4015C94.4081 23.6897 94.3673 24.9767 94.3251 26.265C94.3152 26.5846 94.3053 26.9042 94.2954 27.2238C93.5658 27.2114 92.529 26.815 92.2032 26.0953C92.3023 26.0111 92.4014 25.9268 92.5092 25.8339C92.0682 25.2654 91.8192 24.5965 91.6681 23.8656C91.3423 24.7748 91.2544 25.6939 91.5244 26.6564C91.6124 26.5871 91.6842 26.5301 91.7561 26.4731C92.1277 27.2919 92.3804 27.5545 93.1125 27.8914C93.3788 28.0128 93.6476 28.1268 93.9114 28.2531C94.0898 28.3386 94.2706 28.4241 94.4354 28.5405C94.5692 28.6346 94.6794 28.7734 94.7996 28.8935C94.9445 28.6594 95.0709 28.5442 95.4226 28.3733C95.8166 28.1813 96.2154 28.0054 96.6106 27.8196C96.9995 27.6375 97.3377 27.3674 97.5817 26.9562C97.6746 26.7989 97.744 26.6205 97.827 26.4483C97.9063 26.514 97.988 26.5796 98.0698 26.6465C98.3485 26.0718 98.2642 24.3945 97.9248 23.8557L97.9286 23.8594ZM94.8082 20.1185C94.558 20.1185 94.3697 19.8906 94.3722 19.5896C94.3747 19.2985 94.5655 19.078 94.812 19.0792C95.0547 19.0805 95.243 19.3084 95.2418 19.6007C95.2418 19.8931 95.0535 20.116 94.8082 20.1173V20.1185Z" fill="#FFC800"/>
<path d="M71.0599 149.724C70.6999 150.111 70.3199 150.457 69.9199 150.764C69.5332 151.057 69.1132 151.317 68.6599 151.544C68.2066 151.757 67.7066 151.917 67.1599 152.024C66.6266 152.144 66.0332 152.204 65.3799 152.204C64.3532 152.204 63.4066 152.017 62.5399 151.644C61.6732 151.271 60.9199 150.764 60.2799 150.124C59.6532 149.471 59.1599 148.704 58.7999 147.824C58.4399 146.944 58.2599 145.997 58.2599 144.984C58.2599 143.984 58.4332 143.044 58.7799 142.164C59.1399 141.284 59.6399 140.517 60.2799 139.864C60.9199 139.197 61.6799 138.677 62.5599 138.304C63.4399 137.917 64.4132 137.724 65.4799 137.724C66.1199 137.724 66.6999 137.777 67.2199 137.884C67.7532 137.991 68.2399 138.144 68.6799 138.344C69.1199 138.531 69.5266 138.757 69.8999 139.024C70.2732 139.291 70.6266 139.584 70.9599 139.904L69.3799 141.724C68.8199 141.204 68.2266 140.784 67.5999 140.464C66.9732 140.144 66.2599 139.984 65.4599 139.984C64.7932 139.984 64.1732 140.117 63.5999 140.384C63.0399 140.637 62.5532 140.991 62.1399 141.444C61.7266 141.884 61.4066 142.404 61.1799 143.004C60.9532 143.604 60.8399 144.251 60.8399 144.944C60.8399 145.637 60.9532 146.291 61.1799 146.904C61.4066 147.504 61.7266 148.031 62.1399 148.484C62.5532 148.937 63.0399 149.297 63.5999 149.564C64.1732 149.817 64.7932 149.944 65.4599 149.944C66.3132 149.944 67.0466 149.784 67.6599 149.464C68.2732 149.131 68.8799 148.684 69.4799 148.124L71.0599 149.724ZM75.4405 146.004V151.964H73.0205V137.364H75.4405V143.044C75.6139 142.791 75.8005 142.557 76.0005 142.344C76.2139 142.117 76.4539 141.917 76.7205 141.744C77.0005 141.571 77.3005 141.437 77.6205 141.344C77.9539 141.237 78.3272 141.184 78.7405 141.184C79.9405 141.184 80.8672 141.551 81.5205 142.284C82.1739 143.017 82.5005 144.004 82.5005 145.244V151.964H80.0805V145.964C80.0805 145.137 79.8805 144.504 79.4805 144.064C79.0939 143.611 78.5405 143.384 77.8205 143.384C77.1139 143.384 76.5405 143.617 76.1005 144.084C75.6605 144.537 75.4405 145.177 75.4405 146.004ZM93.9379 151.964H91.5379V150.664C91.1779 151.091 90.7179 151.451 90.1579 151.744C89.5979 152.037 88.9179 152.184 88.1179 152.184C87.6112 152.184 87.1312 152.111 86.6779 151.964C86.2245 151.831 85.8245 151.631 85.4779 151.364C85.1445 151.084 84.8712 150.744 84.6579 150.344C84.4579 149.931 84.3579 149.457 84.3579 148.924V148.884C84.3579 148.311 84.4645 147.811 84.6779 147.384C84.8912 146.957 85.1845 146.604 85.5579 146.324C85.9445 146.044 86.3979 145.837 86.9179 145.704C87.4512 145.557 88.0245 145.484 88.6379 145.484C89.2779 145.484 89.8179 145.524 90.2579 145.604C90.7112 145.684 91.1445 145.791 91.5579 145.924V145.664C91.5579 144.931 91.3312 144.371 90.8779 143.984C90.4379 143.597 89.7979 143.404 88.9579 143.404C88.3579 143.404 87.8245 143.464 87.3579 143.584C86.8912 143.704 86.4179 143.864 85.9379 144.064L85.2779 142.124C85.8645 141.857 86.4645 141.644 87.0779 141.484C87.6912 141.324 88.4312 141.244 89.2979 141.244C90.8712 141.244 92.0379 141.637 92.7979 142.424C93.5579 143.197 93.9379 144.291 93.9379 145.704V151.964ZM91.5979 148.144V147.484C91.2912 147.364 90.9245 147.264 90.4979 147.184C90.0845 147.104 89.6445 147.064 89.1779 147.064C88.4179 147.064 87.8245 147.211 87.3979 147.504C86.9712 147.797 86.7579 148.217 86.7579 148.764V148.804C86.7579 149.311 86.9512 149.697 87.3379 149.964C87.7379 150.231 88.2245 150.364 88.7979 150.364C89.1979 150.364 89.5645 150.311 89.8979 150.204C90.2445 150.097 90.5445 149.951 90.7979 149.764C91.0512 149.564 91.2445 149.331 91.3779 149.064C91.5245 148.784 91.5979 148.477 91.5979 148.144ZM98.8912 147.944V151.964H96.4712V141.404H98.8912V143.784C99.2245 142.984 99.6978 142.344 100.311 141.864C100.925 141.384 101.698 141.164 102.631 141.204V143.764H102.491C101.958 143.764 101.471 143.851 101.031 144.024C100.591 144.197 100.211 144.457 99.8912 144.804C99.5712 145.151 99.3245 145.591 99.1512 146.124C98.9778 146.644 98.8912 147.251 98.8912 147.944ZM107.308 143.484V148.664C107.308 149.131 107.421 149.471 107.648 149.684C107.875 149.884 108.195 149.984 108.608 149.984C109.128 149.984 109.628 149.864 110.108 149.624V151.604C109.801 151.777 109.475 151.911 109.128 152.004C108.781 152.097 108.381 152.144 107.928 152.144C107.488 152.144 107.081 152.091 106.708 151.984C106.335 151.877 106.008 151.704 105.728 151.464C105.461 151.224 105.255 150.911 105.108 150.524C104.961 150.124 104.888 149.631 104.888 149.044V143.484H103.548V141.404H104.888V138.504H107.308V141.404H110.148V143.484H107.308ZM113.793 147.544C113.94 148.411 114.286 149.077 114.833 149.544C115.38 149.997 116.046 150.224 116.833 150.224C117.433 150.224 117.953 150.117 118.393 149.904C118.833 149.691 119.266 149.377 119.693 148.964L121.113 150.224C120.606 150.824 120 151.304 119.293 151.664C118.6 152.024 117.766 152.204 116.793 152.204C116.033 152.204 115.32 152.071 114.653 151.804C114 151.537 113.426 151.164 112.933 150.684C112.453 150.204 112.073 149.631 111.793 148.964C111.513 148.284 111.373 147.531 111.373 146.704C111.373 145.944 111.5 145.231 111.753 144.564C112.006 143.897 112.36 143.317 112.813 142.824C113.28 142.317 113.826 141.917 114.453 141.624C115.08 141.331 115.773 141.184 116.533 141.184C117.373 141.184 118.106 141.337 118.733 141.644C119.373 141.951 119.9 142.364 120.313 142.884C120.74 143.404 121.06 144.011 121.273 144.704C121.486 145.397 121.593 146.124 121.593 146.884C121.593 146.991 121.586 147.097 121.573 147.204C121.573 147.311 121.566 147.424 121.553 147.544H113.793ZM113.773 145.944H119.193C119.153 145.557 119.066 145.197 118.933 144.864C118.8 144.517 118.62 144.224 118.393 143.984C118.166 143.731 117.893 143.531 117.573 143.384C117.266 143.237 116.913 143.164 116.513 143.164C115.766 143.164 115.146 143.424 114.653 143.944C114.173 144.451 113.88 145.117 113.773 145.944ZM126.098 147.944V151.964H123.678V141.404H126.098V143.784C126.432 142.984 126.905 142.344 127.518 141.864C128.132 141.384 128.905 141.164 129.838 141.204V143.764H129.698C129.165 143.764 128.678 143.851 128.238 144.024C127.798 144.197 127.418 144.457 127.098 144.804C126.778 145.151 126.532 145.591 126.358 146.124C126.185 146.644 126.098 147.251 126.098 147.944Z" fill="#454545"/>
</svg>
