<svg width="187" height="168" viewBox="0 0 187 168" fill="none" xmlns="http://www.w3.org/2000/svg">
  <g clipPath="url(#clip0_1330_27840)">
    <rect x="0.5" y="0.492188" width="186" height="167" rx="12" fill="#F9F9F9" />
    <path
      d="M106.223 85.7633C101.414 83.1373 102.724 70.4551 102.724 70.4551L95.5208 70.9202V70.4551L94.7494 70.6876L93.978 70.4551V70.9202L86.7748 70.4551C86.7748 70.4551 88.085 83.1373 83.2753 85.7633C78.4656 88.3894 50.0385 89.6996 53.0956 119H136.403C139.466 89.6996 111.039 88.3837 106.223 85.7633Z"
      fill="#738FE4" />
    <path
      d="M85.7653 82.4907C91.5222 81.6342 97.2734 80.7494 103.019 79.8363C102.208 75.4633 102.73 70.4551 102.73 70.4551L95.5265 70.9202V70.4551L94.7551 70.6876L93.9837 70.4551V70.9202L86.7805 70.4551C86.7805 70.4551 87.5405 77.8228 85.7709 82.4907H85.7653Z"
      fill="#738FE4" />
    <path
      d="M112.282 86.96C109.701 93.6981 102.827 98.5191 94.7559 98.5191C86.6849 98.5191 79.8107 93.6981 77.23 86.96C67.3157 89.6768 49.8975 95.496 52.3477 118.989H137.153C139.609 95.5017 122.185 89.6768 112.276 86.96H112.282Z"
      fill="white" />
    <path d="M113.954 87.4473V119H137.152C139.472 96.7831 124.022 90.3739 113.954 87.4473Z"
      fill="#51DBC9" />
    <path d="M75.3858 87.4932C65.3184 90.4425 50.0385 96.9027 52.3469 119H75.3858V87.4932Z"
      fill="#51DBC9" />
    <path
      d="M75.6638 87.4929V119C75.6638 119 64.0365 99.1768 64.6037 92.3706C65.1709 85.5645 74.5294 85.1618 75.6638 87.4929Z"
      fill="#46ABC1" />
    <path
      d="M113.37 87.4929V119C113.37 119 124.997 99.1768 124.43 92.3706C123.863 85.5645 114.504 85.1618 113.37 87.4929Z"
      fill="#46ABC1" />
    <path
      d="M80.6661 51.8855C79.2482 47.4898 75.8905 48.5051 75.5785 48.6128C75.2496 48.6525 71.7784 49.1687 72.3796 53.7458C72.9808 58.357 75.6579 60.8526 78.1649 60.121C80.7455 59.7126 82.0954 56.3095 80.6661 51.8855Z"
      fill="#738FE4" />
    <path
      d="M108.969 51.8855C110.387 47.4898 113.744 48.5051 114.056 48.6128C114.385 48.6525 117.856 49.1687 117.255 53.7458C116.654 58.357 113.977 60.8526 111.47 60.121C108.889 59.7126 107.539 56.3095 108.969 51.8855Z"
      fill="#738FE4" />
    <path
      d="M77.2233 45.221C78.9816 25.9425 93.6376 27.0202 95.0158 27.1676C96.3998 27.0202 111.056 25.9425 112.808 45.221C114.578 64.613 105.94 77.2781 95.0158 76.5862C84.0919 77.2838 75.4537 64.6186 77.2233 45.221Z"
      fill="#738FE4" />
    <path
      d="M113.58 30.3611C112.593 26.4079 110.233 25.4096 109.099 25.1544C108.447 14.9622 81.222 13.0961 80.8704 15.0472C80.4904 17.1288 90.5125 20.5319 90.5125 20.5319C90.5125 20.5319 72.5498 15.8073 73.497 19.9647C74.2627 23.3451 81.517 22.9821 84.2168 22.7212C80.428 23.192 67.4679 25.2735 73.3098 31.1155C73.7863 31.5919 74.3081 32.0003 74.8526 32.3576C74.3081 39.6005 76.4577 56.6387 76.4577 56.6387H77.9721L77.4049 44.915C80.3372 44.3308 81.6758 37.3829 82.1295 34.2917C87.0924 34.3598 92.0779 32.6752 93.9212 31.9776C92.8096 32.4937 91.057 33.6792 92.974 35.4601C94.9308 37.2808 101.953 35.0631 105.48 33.7869C106.127 36.5491 108.214 44.2911 111.317 44.915L110.75 56.6387H112.264C112.264 56.6387 114.913 35.6529 113.585 30.3611H113.58Z"
      fill="#2D3AAF" />
    <path
      d="M61.2558 149.76C60.8958 150.147 60.5158 150.493 60.1158 150.8C59.7292 151.093 59.3092 151.353 58.8558 151.58C58.4025 151.793 57.9025 151.953 57.3558 152.06C56.8225 152.18 56.2292 152.24 55.5758 152.24C54.5492 152.24 53.6025 152.053 52.7358 151.68C51.8692 151.307 51.1158 150.8 50.4758 150.16C49.8492 149.507 49.3558 148.74 48.9958 147.86C48.6358 146.98 48.4558 146.033 48.4558 145.02C48.4558 144.02 48.6292 143.08 48.9758 142.2C49.3358 141.32 49.8358 140.553 50.4758 139.9C51.1158 139.233 51.8758 138.713 52.7558 138.34C53.6358 137.953 54.6092 137.76 55.6758 137.76C56.3158 137.76 56.8958 137.813 57.4158 137.92C57.9492 138.027 58.4358 138.18 58.8758 138.38C59.3158 138.567 59.7225 138.793 60.0958 139.06C60.4692 139.327 60.8225 139.62 61.1558 139.94L59.5758 141.76C59.0158 141.24 58.4225 140.82 57.7958 140.5C57.1692 140.18 56.4558 140.02 55.6558 140.02C54.9892 140.02 54.3692 140.153 53.7958 140.42C53.2358 140.673 52.7492 141.027 52.3358 141.48C51.9225 141.92 51.6025 142.44 51.3758 143.04C51.1492 143.64 51.0358 144.287 51.0358 144.98C51.0358 145.673 51.1492 146.327 51.3758 146.94C51.6025 147.54 51.9225 148.067 52.3358 148.52C52.7492 148.973 53.2358 149.333 53.7958 149.6C54.3692 149.853 54.9892 149.98 55.6558 149.98C56.5092 149.98 57.2425 149.82 57.8558 149.5C58.4692 149.167 59.0758 148.72 59.6758 148.16L61.2558 149.76ZM70.1565 147.4V141.44H72.5765V152H70.1565V150.36C69.8098 150.867 69.3765 151.307 68.8565 151.68C68.3365 152.04 67.6698 152.22 66.8565 152.22C65.6565 152.22 64.7298 151.853 64.0765 151.12C63.4231 150.387 63.0965 149.4 63.0965 148.16V141.44H65.5165V147.44C65.5165 148.267 65.7098 148.907 66.0965 149.36C66.4965 149.8 67.0565 150.02 67.7765 150.02C68.4831 150.02 69.0565 149.793 69.4965 149.34C69.9365 148.873 70.1565 148.227 70.1565 147.4ZM82.8138 148.88C82.8138 149.44 82.7138 149.927 82.5138 150.34C82.3138 150.753 82.0338 151.1 81.6738 151.38C81.3272 151.647 80.9138 151.853 80.4338 152C79.9538 152.133 79.4405 152.2 78.8938 152.2C78.1338 152.2 77.3605 152.067 76.5738 151.8C75.8005 151.533 75.0805 151.14 74.4138 150.62L75.4938 148.98C76.0672 149.407 76.6472 149.733 77.2338 149.96C77.8338 150.173 78.4072 150.28 78.9538 150.28C79.4738 150.28 79.8738 150.18 80.1538 149.98C80.4472 149.767 80.5938 149.487 80.5938 149.14V149.1C80.5938 148.9 80.5272 148.727 80.3938 148.58C80.2738 148.433 80.1005 148.307 79.8738 148.2C79.6605 148.08 79.4072 147.98 79.1138 147.9C78.8338 147.807 78.5405 147.713 78.2338 147.62C77.8472 147.5 77.4538 147.367 77.0538 147.22C76.6672 147.073 76.3138 146.887 75.9938 146.66C75.6871 146.42 75.4338 146.133 75.2338 145.8C75.0338 145.453 74.9338 145.027 74.9338 144.52V144.48C74.9338 143.987 75.0272 143.54 75.2138 143.14C75.4138 142.74 75.6805 142.4 76.0138 142.12C76.3605 141.84 76.7605 141.627 77.2138 141.48C77.6805 141.333 78.1738 141.26 78.6938 141.26C79.3605 141.26 80.0338 141.367 80.7138 141.58C81.3938 141.793 82.0138 142.087 82.5738 142.46L81.6138 144.18C81.1072 143.873 80.5938 143.633 80.0738 143.46C79.5538 143.273 79.0738 143.18 78.6338 143.18C78.1672 143.18 77.8005 143.28 77.5338 143.48C77.2805 143.68 77.1538 143.933 77.1538 144.24V144.28C77.1538 144.467 77.2205 144.633 77.3538 144.78C77.4872 144.913 77.6605 145.04 77.8738 145.16C78.1005 145.267 78.3538 145.373 78.6338 145.48C78.9272 145.573 79.2272 145.667 79.5338 145.76C79.9205 145.88 80.3072 146.02 80.6938 146.18C81.0805 146.34 81.4272 146.54 81.7338 146.78C82.0538 147.007 82.3138 147.287 82.5138 147.62C82.7138 147.953 82.8138 148.36 82.8138 148.84V148.88ZM87.6535 143.52V148.7C87.6535 149.167 87.7668 149.507 87.9935 149.72C88.2202 149.92 88.5402 150.02 88.9535 150.02C89.4735 150.02 89.9735 149.9 90.4535 149.66V151.64C90.1468 151.813 89.8202 151.947 89.4735 152.04C89.1268 152.133 88.7268 152.18 88.2735 152.18C87.8335 152.18 87.4268 152.127 87.0535 152.02C86.6802 151.913 86.3535 151.74 86.0735 151.5C85.8068 151.26 85.6002 150.947 85.4535 150.56C85.3068 150.16 85.2335 149.667 85.2335 149.08V143.52H83.8935V141.44H85.2335V138.54H87.6535V141.44H90.4935V143.52H87.6535ZM102.979 146.72C102.979 147.48 102.832 148.193 102.539 148.86C102.259 149.527 101.865 150.113 101.359 150.62C100.865 151.113 100.272 151.507 99.5787 151.8C98.8853 152.093 98.132 152.24 97.3187 152.24C96.5187 152.24 95.772 152.1 95.0787 151.82C94.3987 151.527 93.8053 151.133 93.2987 150.64C92.8053 150.133 92.4187 149.553 92.1387 148.9C91.8587 148.233 91.7187 147.52 91.7187 146.76C91.7187 146 91.8587 145.287 92.1387 144.62C92.432 143.94 92.8253 143.353 93.3187 142.86C93.8253 142.353 94.4187 141.953 95.0987 141.66C95.792 141.367 96.5453 141.22 97.3587 141.22C98.172 141.22 98.9187 141.367 99.5987 141.66C100.292 141.94 100.885 142.333 101.379 142.84C101.885 143.333 102.279 143.913 102.559 144.58C102.839 145.247 102.979 145.96 102.979 146.72ZM100.559 146.76C100.559 146.293 100.479 145.853 100.319 145.44C100.159 145.027 99.932 144.667 99.6387 144.36C99.3587 144.04 99.0187 143.793 98.6187 143.62C98.232 143.433 97.7987 143.34 97.3187 143.34C96.8387 143.34 96.3987 143.433 95.9987 143.62C95.612 143.793 95.2787 144.033 94.9987 144.34C94.7187 144.647 94.5053 145.007 94.3587 145.42C94.212 145.82 94.1387 146.253 94.1387 146.72C94.1387 147.187 94.2187 147.633 94.3787 148.06C94.5387 148.473 94.7587 148.833 95.0387 149.14C95.332 149.447 95.672 149.693 96.0587 149.88C96.4587 150.053 96.892 150.14 97.3587 150.14C97.852 150.14 98.292 150.053 98.6787 149.88C99.0787 149.693 99.4187 149.447 99.6987 149.14C99.9787 148.833 100.192 148.48 100.339 148.08C100.485 147.667 100.559 147.227 100.559 146.76ZM113.878 143.08C114.305 142.52 114.805 142.073 115.378 141.74C115.965 141.393 116.658 141.22 117.458 141.22C118.618 141.22 119.525 141.573 120.178 142.28C120.832 142.973 121.158 143.967 121.158 145.26V152H118.738V146C118.738 145.16 118.552 144.52 118.178 144.08C117.805 143.64 117.278 143.42 116.598 143.42C115.932 143.42 115.385 143.647 114.958 144.1C114.545 144.54 114.338 145.187 114.338 146.04V152H111.918V145.98C111.918 145.153 111.732 144.52 111.358 144.08C110.985 143.64 110.458 143.42 109.778 143.42C109.098 143.42 108.552 143.653 108.138 144.12C107.725 144.587 107.518 145.233 107.518 146.06V152H105.098V141.44H107.518V143.04C107.692 142.8 107.878 142.573 108.078 142.36C108.278 142.147 108.505 141.953 108.758 141.78C109.025 141.607 109.318 141.473 109.638 141.38C109.972 141.273 110.338 141.22 110.738 141.22C111.498 141.22 112.138 141.393 112.658 141.74C113.192 142.073 113.598 142.52 113.878 143.08ZM125.597 147.58C125.744 148.447 126.09 149.113 126.637 149.58C127.184 150.033 127.85 150.26 128.637 150.26C129.237 150.26 129.757 150.153 130.197 149.94C130.637 149.727 131.07 149.413 131.497 149L132.917 150.26C132.41 150.86 131.804 151.34 131.097 151.7C130.404 152.06 129.57 152.24 128.597 152.24C127.837 152.24 127.124 152.107 126.457 151.84C125.804 151.573 125.23 151.2 124.737 150.72C124.257 150.24 123.877 149.667 123.597 149C123.317 148.32 123.177 147.567 123.177 146.74C123.177 145.98 123.304 145.267 123.557 144.6C123.81 143.933 124.164 143.353 124.617 142.86C125.084 142.353 125.63 141.953 126.257 141.66C126.884 141.367 127.577 141.22 128.337 141.22C129.177 141.22 129.91 141.373 130.537 141.68C131.177 141.987 131.704 142.4 132.117 142.92C132.544 143.44 132.864 144.047 133.077 144.74C133.29 145.433 133.397 146.16 133.397 146.92C133.397 147.027 133.39 147.133 133.377 147.24C133.377 147.347 133.37 147.46 133.357 147.58H125.597ZM125.577 145.98H130.997C130.957 145.593 130.87 145.233 130.737 144.9C130.604 144.553 130.424 144.26 130.197 144.02C129.97 143.767 129.697 143.567 129.377 143.42C129.07 143.273 128.717 143.2 128.317 143.2C127.57 143.2 126.95 143.46 126.457 143.98C125.977 144.487 125.684 145.153 125.577 145.98ZM137.902 147.98V152H135.482V141.44H137.902V143.82C138.236 143.02 138.709 142.38 139.322 141.9C139.936 141.42 140.709 141.2 141.642 141.24V143.8H141.502C140.969 143.8 140.482 143.887 140.042 144.06C139.602 144.233 139.222 144.493 138.902 144.84C138.582 145.187 138.336 145.627 138.162 146.16C137.989 146.68 137.902 147.287 137.902 147.98Z"
      fill="#454545" />
  </g>
  <defs>
    <clipPath id="clip0_1330_27840">
      <rect x="0.5" y="0.492188" width="186" height="167" rx="12" fill="white" />
    </clipPath>
  </defs>
</svg>
