<svg width="150" height="110" viewBox="0 0 150 110" fill="none" xmlns="http://www.w3.org/2000/svg">
<g id="Frame 1171277001">
<path id="Ellipse 688" d="M135.131 55.1238C135.131 82.281 155.935 109.848 128.788 109.848C101.641 109.848 0.75 77.1259 0.75 49.9687C0.75 22.8115 69.1362 17.8477 96.2832 17.8477C123.43 17.8477 135.131 27.9667 135.131 55.1238Z" fill="#E1E9FE"/>
<g id="Group">
<path id="Vector" d="M78.6252 1.16016C66.4222 16.3567 58.5813 47.0963 56.7148 61.9941L118.463 50.4114C107.048 32.6506 95.7966 13.457 78.6252 1.16016Z" fill="#91B3FA"/>
<g id="Group_2" opacity="0.3">
<path id="Vector_2" opacity="0.6" d="M78.8185 1.13735C79.1784 3.53142 79.5024 5.93054 79.8441 8.3265L80.8104 15.5232C81.4565 20.3208 82.0541 25.1241 82.651 29.928C83.241 34.7325 83.8165 39.539 84.3549 44.3492L85.1497 51.5667C85.3931 53.9753 85.6553 56.3813 85.8778 58.7924L85.4863 58.8403C85.1207 56.4469 84.7948 54.0484 84.4494 51.6524L83.4793 44.4563C82.8408 39.6575 82.24 34.8548 81.6532 30.0497C81.0733 25.2439 80.4946 20.4381 79.9638 15.6266L79.1652 8.40908C78.9187 6.00114 78.654 3.59509 78.4258 1.18463L78.8172 1.13672L78.8185 1.13735Z" fill="#5254CF"/>
</g>
</g>
<path id="Vector_3" d="M149.249 41.6562L128.952 77.8813L55.6624 75.2766L49.0664 60.8189L55.8818 59.5154L66.4717 57.4907L71.3203 56.5628L72.2759 56.3787L90.246 52.9421L98.317 51.399L115.137 48.1816L120.109 47.2311L149.249 41.6562Z" fill="#91B3FA"/>
<g id="Group_3">
<path id="Vector_4" d="M125.318 14.2695L125.61 27.2308L129.455 27.0417C129.651 24.1358 129.006 20.418 127.973 16.3257L125.318 14.2695Z" fill="#51DBC9"/>
<g id="Group_4">
<g id="Group_5">
<path id="Vector_5" d="M128.117 42.4394L127.268 45.8357L132.646 44.848L130.244 43.5967L130.575 42.1797L128.117 42.4394Z" fill="#CBCBFF"/>
<path id="Vector_6" d="M130.205 43.5394L129.461 44.082L129.535 44.1839L130.279 43.6413L130.205 43.5394Z" fill="#1B1B43"/>
<path id="Vector_7" d="M130.867 43.8871L130.123 44.4297L130.197 44.5316L130.941 43.9889L130.867 43.8871Z" fill="#1B1B43"/>
<path id="Vector_8" d="M128.303 45.6456L128.178 45.6292C128.22 45.3115 128.178 45.0726 128.056 44.9181C127.956 44.7902 127.792 44.7139 127.572 44.6918L127.586 44.5664C127.841 44.5929 128.032 44.6849 128.155 44.84C128.3 45.0222 128.349 45.2932 128.303 45.6456H128.303Z" fill="#1B1B43"/>
</g>
<g id="Group_6">
<path id="Vector_9" d="M135.179 32.8502L131.552 42.6421L127.092 43.0991L130.358 32.2816L127.819 32.0024L123.561 31.5353L123.777 29.8365L124.278 25.9062L127.209 26.3406L132.327 27.1638C134.469 27.5073 137.015 29.2402 135.179 32.8502H135.179Z" fill="#5254CF"/>
<path id="Vector_10" d="M125.925 31.7831L123.561 31.5347L123.777 29.8359C124.538 29.887 125.81 30.6749 125.925 31.7831Z" fill="#1B1B43"/>
</g>
</g>
<g id="Group_7">
<path id="Vector_11" d="M125.294 25.622C125.019 30.4177 122.396 41.817 120.107 47.2279L115.135 48.1785C117.124 41.4287 118.645 34.5377 118.821 27.2407L121.668 25.8111L124.033 25.0547L125.294 25.622Z" fill="#5254CF"/>
</g>
<g id="Group_8">
<path id="Vector_12" d="M124.372 13.126L124.539 13.9228L124.806 15.193L122.957 16.0376L122.527 15.0814C122.674 14.3943 122.779 13.67 122.735 12.8203L123.303 12.9262L124.371 13.1254L124.372 13.126Z" fill="#D28572"/>
<path id="Vector_13" d="M124.373 13.125L124.54 13.9217C123.968 13.9564 123.421 13.6456 122.994 13.1149L123.304 12.9258L124.373 13.125Z" fill="#1B1B43"/>
<path id="Vector_14" d="M124.519 10.4141C124.519 10.4141 124.538 11.0652 125.054 12.1324C125.744 13.5595 123.411 13.8804 122.58 12.8296L122.055 11.8046L122.548 10.6126L124.519 10.4141Z" fill="#D28572"/>
<path id="Vector_15" d="M122.694 12.5378C122.506 11.9944 122.465 11.4927 122.732 11.0785C124.123 11.2046 125.034 10.868 125.089 9.7075C125.089 9.7075 124.607 9.99242 124.136 9.84555C122.51 9.33811 121.69 10.1759 121.864 11.0174C121.139 11.4971 121.649 12.4861 122.13 12.6676L122.695 12.5378H122.694Z" fill="#1B1B43"/>
<path id="Vector_16" d="M122.898 12.571C122.957 12.8169 122.792 13.0684 122.528 13.1321C122.264 13.1957 122.002 13.0482 121.942 12.8024C121.882 12.5565 122.048 12.305 122.312 12.2414C122.575 12.1777 122.838 12.3252 122.898 12.571Z" fill="#D28572"/>
</g>
<path id="Vector_17" d="M122.01 14.0568L123.142 13.9414L125.319 14.2698L124.676 15.2859L122.375 15.076L122.01 14.0568Z" fill="#D28572"/>
<g id="Group_9">
<path id="Vector_18" d="M115.127 25.5398C115.127 25.5398 115.626 26.6083 116.083 27.0167C116.54 27.4252 116.828 27.3111 116.893 27.226C116.957 27.1415 117.15 27.1825 117.252 27.0438C117.355 26.9052 117.698 26.8282 117.732 26.716C117.761 26.6228 118.185 26.6322 117.808 25.7358C117.645 25.3482 117.379 25.0109 117.044 24.7563L116.748 24.5312L115.127 25.5392V25.5398Z" fill="#D28572"/>
<g id="Group_10">
<path id="Vector_19" d="M116.871 27.239C116.759 27.1135 116.666 26.9761 116.577 26.8362C116.533 26.7656 116.491 26.6943 116.452 26.6206C116.413 26.5475 116.377 26.4725 116.348 26.393L116.389 26.3672C116.447 26.429 116.498 26.4951 116.546 26.5626C116.595 26.63 116.64 26.6994 116.684 26.77C116.769 26.9118 116.851 27.0568 116.913 27.2131L116.871 27.239Z" fill="#925D4F"/>
<path id="Vector_20" d="M117.27 27.0543C117.165 26.9212 117.08 26.7775 117 26.6313C116.96 26.5582 116.922 26.4832 116.888 26.4069C116.854 26.3306 116.822 26.2531 116.797 26.1718L116.84 26.1484C116.895 26.214 116.941 26.2833 116.985 26.3546C117.029 26.4252 117.071 26.4983 117.11 26.5714C117.188 26.7195 117.26 26.8696 117.313 27.0309L117.27 27.0543Z" fill="#925D4F"/>
</g>
</g>
<g id="Group_11">
<path id="Vector_21" d="M136.965 10.2744L137.417 9.51548C137.621 9.17446 137.917 8.89836 138.272 8.71997L138.632 8.53906L138.762 9.33583L136.965 10.275V10.2744Z" fill="#925D4F"/>
<path id="Vector_22" d="M137.443 10.9948L137.617 11.4115C137.957 11.2016 138.272 10.962 138.232 10.3008C138.198 10.3008 137.443 10.9942 137.443 10.9942V10.9948Z" fill="#925D4F"/>
<path id="Vector_23" d="M139.629 4.6913L139.396 4.64453L138.017 11.5002L138.249 11.5469L139.629 4.6913Z" fill="#1B1B43"/>
<path id="Vector_24" d="M139.062 9.57413C139.109 9.68634 139.043 9.80736 138.903 9.88553C138.763 9.96369 138.607 9.95108 138.554 9.85716C138.502 9.76324 138.574 9.62393 138.714 9.54577C138.854 9.4676 138.99 9.40016 139.062 9.57413Z" fill="#925D4F"/>
<path id="Vector_25" d="M138.752 10.2929C138.798 10.4051 138.732 10.5261 138.592 10.6043C138.452 10.6824 138.296 10.6698 138.244 10.5759C138.191 10.482 138.263 10.3427 138.403 10.2645C138.544 10.1864 138.68 10.1189 138.752 10.2929Z" fill="#925D4F"/>
<path id="Vector_26" d="M138.953 9.93483C138.999 10.0477 138.924 10.1737 138.771 10.2582C138.618 10.3427 138.452 10.3357 138.401 10.2424C138.348 10.1485 138.43 10.0035 138.583 9.91907C138.735 9.83397 138.883 9.75959 138.953 9.93483Z" fill="#925D4F"/>
<path id="Vector_27" d="M136.965 10.2773L136.197 11.2544L136.649 12.3449L137.616 11.4145L137.785 10.3719L136.965 10.2773Z" fill="#D28572"/>
<path id="Vector_28" d="M136.965 10.277L137.281 9.97442C137.75 9.52435 138.304 9.16883 138.914 8.94443C139.038 8.89841 139.134 8.87005 139.167 8.87572C139.298 8.89841 139.054 9.52561 138.461 9.73047C138.445 10.4295 137.97 10.7359 137.443 10.9975L136.965 10.277H136.965Z" fill="#D28572"/>
</g>
<path id="Vector_29" d="M125.318 14.271C124.297 15.0728 122.86 15.035 122.009 14.0586L120.441 15.8551L120.031 27.3905C122.128 26.5042 123.721 26.3353 126.492 26.2244C126.65 23.766 126.177 17.9353 125.319 14.2717L125.318 14.271Z" fill="white"/>
<path id="Vector_30" d="M122.009 14.0547L120.042 14.6359C119.014 14.9397 118.049 15.4257 117.193 16.0712L112.539 19.5841C111.652 20.3027 111.53 21.6101 112.268 22.4812L115.273 26.0629L116.901 24.3502L115.377 21.3983L118.655 19.0029L122.009 14.0547Z" fill="#51DBC9"/>
<path id="Vector_31" d="M125.318 14.2686L128.152 14.4653L132.103 14.6752L136.326 10.4727L137.881 12.2376L133.903 16.681C133.345 17.3038 132.552 17.6631 131.715 17.6713L128.699 17.7003L125.319 14.2674L125.318 14.2686Z" fill="#51DBC9"/>
<path id="Vector_32" d="M118.656 19.0029C118.53 21.8572 117.857 25.1173 116.639 29.0047L121.072 30.0971C123.089 24.487 123.719 19.3812 122.009 14.0547L118.655 19.0029H118.656Z" fill="#51DBC9"/>
<path id="Vector_33" d="M129.462 26.7032C129.496 22.57 129.37 19.5935 128.698 17.7024L125.318 14.2695C127.837 16.8199 128.727 20.7357 129.463 26.7032H129.462Z" fill="#51DBC9"/>
<path id="Vector_34" d="M140.192 0L148.009 0.756421L139.184 5.67316L140.192 0Z" fill="#2B9251"/>
<path id="Vector_35" d="M118.656 19.0041L119.307 18.5156C119.234 18.9739 118.959 19.4101 118.613 19.8394L118.656 19.0041Z" fill="#1B1B43"/>
</g>
<g id="Group_12">
<path id="Vector_36" d="M106.29 42.3489L105.927 42.5778L105.359 43.6071L106.095 44.5735C106.918 44.2192 108.026 43.1823 108.364 42.2412L107.797 42.0312L106.29 42.3489H106.29Z" fill="#FFBC96"/>
<path id="Vector_37" d="M107.124 44.5752L102.805 47.674C102.102 48.1455 101.302 48.1052 100.4 47.3261L99.8071 46.7563L97.669 44.6937L95.7779 42.8733L94.3281 38.418L95.7628 38.9752C97.0386 39.3206 98.027 40.0317 99.2852 41.4437L102.271 44.7013L105.927 42.5783L107.124 44.5752Z" fill="#2BADEE"/>
<path id="Vector_38" d="M99.8113 46.7581L97.6694 44.6956L97.416 41.8867C98.3786 42.9861 99.5384 45.4343 99.8113 46.7581Z" fill="#1B1B43"/>
<path id="Vector_39" d="M98.3208 51.3975L90.2498 52.9406L88.6562 43.0466L90.5599 39.3275L92.4283 37.9609L94.3697 38.319C94.6471 38.3719 95.1186 39.0199 95.3052 39.209C95.8952 39.8041 96.5079 40.4294 96.9693 41.1278C99.047 44.2821 98.762 47.8474 98.3208 51.3975Z" fill="#2BADEE"/>
<g id="Group_13">
<path id="Vector_40" d="M90.952 34.0445C91.5521 34.0445 92.0387 33.558 92.0387 32.9578C92.0387 32.3576 91.5521 31.8711 90.952 31.8711C90.3518 31.8711 89.8652 32.3576 89.8652 32.9578C89.8652 33.558 90.3518 34.0445 90.952 34.0445Z" fill="#BE443D"/>
<path id="Vector_41" d="M95.515 33.7082C95.6852 34.6405 94.6647 35.4467 93.559 35.6485C92.4528 35.8502 91.569 35.3137 91.3799 34.3859C91.1379 33.1995 91.8369 32.4746 92.9432 32.2729C94.0495 32.0712 95.3455 32.7766 95.5157 33.7082H95.515Z" fill="#FE5B52"/>
<path id="Vector_42" d="M92.9631 35.3092C93.0205 35.6231 92.8125 35.9238 92.4992 35.9805C92.1853 36.0379 91.8846 35.8299 91.8279 35.5166C91.7705 35.2027 91.9785 34.902 92.2918 34.8453C92.6051 34.7886 92.9064 34.9959 92.9631 35.3092Z" fill="#FFBC96"/>
<path id="Vector_43" d="M94.3718 36.2116C94.3712 36.2437 94.3964 36.6868 94.4216 37.1647C94.4544 37.7471 94.4897 38.3831 94.4897 38.3831L92.2324 37.957C92.4858 37.4363 92.767 36.4492 92.6491 35.73L92.767 35.457L93.4017 35.7552L94.3718 36.2116Z" fill="#FFBC96"/>
<path id="Vector_44" d="M94.3707 36.2103C94.3701 36.2424 94.3777 36.4517 94.4029 36.9301C93.6395 36.6685 93.3445 36.3609 92.9121 35.8163L93.4006 35.7539L94.3707 36.2103Z" fill="#1B1B43"/>
<path id="Vector_45" d="M92.508 35.5723C94.2326 37.1368 95.7241 36.3508 95.3452 35.0787C95.0767 34.1773 95.0439 33.3906 95.0439 33.3906L92.4941 33.5066L92.508 35.5716V35.5723Z" fill="#FFBC96"/>
<path id="Vector_46" d="M92.7836 35.2133C93.0496 34.9007 93.2589 34.2653 93.1921 33.6696C93.4575 33.5164 94.6658 33.1912 95.3012 34.259L95.1676 33.2983L94.0172 32.9062L91.9434 33.5643L92.4357 34.7488L92.6178 35.2436C92.6601 35.3589 92.7042 35.3066 92.7836 35.2133Z" fill="#FE5B52"/>
</g>
<path id="Vector_47" d="M106.289 42.3516L106.977 40.4788C107.271 39.7647 107.628 40.2267 107.733 40.1637L108.746 40.424C108.746 40.424 108.611 42.3592 108.019 42.895L106.289 42.351V42.3516Z" fill="#D28572"/>
<path id="Vector_48" d="M92.4335 36.8453L94.8137 37.6225C95.1339 37.7271 95.3249 38.0883 95.2505 38.4476L94.8931 40.1729L91.2012 39.4688L91.6393 37.3584C91.7206 36.9663 92.0849 36.7312 92.4341 36.8453H92.4335Z" fill="#2BADEE"/>
<g id="Group_14">
<path id="Vector_49" d="M112.406 38.5216L111.877 37.7188L81.5512 57.6846L82.0798 58.4875L112.406 38.5216Z" fill="#1B1B43"/>
<path id="Vector_50" d="M84.3523 57.4935L83.3613 55.9883L81.2996 57.3457L82.2906 58.8509L84.3523 57.4935Z" fill="#BE443D"/>
<path id="Vector_51" d="M83.2326 58.2555L82.2121 56.7048C81.7935 56.0688 81.0333 55.7467 80.2851 55.8885L78.8952 56.152C78.7628 56.1772 78.6374 56.2283 78.5245 56.3021L70.613 61.51C70.1428 61.8195 70.0129 62.4518 70.3224 62.9214L72.8218 66.718C73.1313 67.1882 73.7635 67.3181 74.2331 67.0092L82.1446 61.8012C82.2569 61.7275 82.3539 61.6317 82.4289 61.5201L83.22 60.3483C83.6461 59.7167 83.6512 58.8915 83.232 58.2549L83.2326 58.2555Z" fill="#FE5B52"/>
</g>
<path id="Vector_52" d="M89.7688 42.1797C89.7039 43.3326 89.4858 44.3279 88.9702 45.0163L88.6562 43.0458L89.7688 42.1797Z" fill="#1B1B43"/>
<path id="Vector_53" d="M86.4922 53.1282C86.4922 53.1282 86.4979 54.3202 86.917 54.8327C87.3362 55.3451 87.6634 55.2714 87.7466 55.192C87.8298 55.1125 88.029 55.1888 88.1614 55.0577C88.2937 54.9266 88.6726 54.902 88.7274 54.7885C88.7829 54.6751 89.4208 54.8144 88.7306 53.0078L88.0435 52.293L86.4922 53.1282Z" fill="#FFBC96"/>
<path id="Vector_54" d="M92.2898 37.8086L88.8802 38.8859C87.7701 39.2363 86.8252 39.9663 86.2163 40.9421L83.5449 45.2247C82.8584 46.3253 82.8156 47.6994 83.4314 48.8391L85.9314 53.6001L88.5486 52.446L86.2163 46.9619L89.7671 42.182L92.2891 37.8092L92.2898 37.8086Z" fill="#2BADEE"/>
<path id="Vector_55" d="M107.296 42.735C107.541 42.4406 107.698 42.1494 107.56 41.8689C107.56 41.8689 108.266 41.6407 108.231 41.4737C108.21 41.3741 107.913 41.3823 107.676 41.4056C107.499 41.4226 107.327 41.4699 107.168 41.5449C106.737 41.7485 106.435 42.1318 106.353 42.5774L106.305 42.8415L107.295 42.735H107.296Z" fill="#FFBC96"/>
<path id="Vector_56" d="M107.663 40.462C107.663 40.7293 107.639 40.9001 107.495 40.9001C107.352 40.9001 107.245 40.7129 107.143 40.462C107.06 40.2546 107.121 40.0075 107.261 39.9773C107.546 39.9155 107.663 40.0851 107.663 40.462Z" fill="#FFBC96"/>
<path id="Vector_57" d="M108.067 40.3059C108.067 40.5089 108.045 40.6381 107.908 40.6381C107.771 40.6381 107.67 40.4963 107.573 40.3059C107.494 40.1484 107.552 39.9618 107.685 39.9391C107.956 39.8924 108.067 40.0204 108.067 40.3059Z" fill="#FFBC96"/>
<path id="Vector_58" d="M108.526 40.1536C108.526 40.3566 108.504 40.4858 108.367 40.4858C108.23 40.4858 108.129 40.344 108.032 40.1536C107.953 39.996 108.011 39.8094 108.144 39.7867C108.415 39.7401 108.526 39.868 108.526 40.1536Z" fill="#FFBC96"/>
</g>
<g id="Group_15">
<path id="Vector_59" d="M118.678 77.142C119.445 77.6097 121.609 77.4345 122.361 77.5341C123.725 77.7156 125.076 77.9684 126.423 78.2496C128.983 78.7835 131.526 79.3634 134.135 79.6054C135.599 78.6479 137.107 76.7676 138.084 74.6049C138.429 73.8415 138.72 72.9918 138.697 72.3249C138.647 70.9495 137.334 71.1833 136.265 72.0828C135.194 72.9861 134.153 74.3615 133.088 74.9818C134.029 73.3322 135.079 71.1417 134.664 69.9737C134.199 68.6663 132.834 69.9888 132.32 70.5372C131.843 71.0465 129.835 73.4236 130.046 74.0962C129.636 72.7939 127.597 66.9814 125.53 69.0502C124.382 70.1987 123.929 72.7037 123.844 74.2689C123.95 72.2934 120.861 69.7953 118.988 70.7427C117.906 71.2898 117.573 72.7107 117.774 73.8207C117.916 74.5992 118.057 75.3777 118.199 76.1555C118.252 76.4499 118.311 76.7575 118.499 76.9914C118.544 77.0481 118.605 77.0985 118.677 77.1427L118.678 77.142Z" fill="white"/>
<path id="Vector_60" d="M141.989 73.3476C141.325 73.9093 140.271 75.9119 140.271 75.9119C140.271 75.9119 142.42 75.204 143.084 74.6417C143.748 74.0801 144.04 73.335 143.738 72.9776C143.436 72.6202 142.653 72.786 141.989 73.3476H141.989Z" fill="white"/>
</g>
<g id="Group_16">
<g id="Group_17">
<path id="Vector_61" d="M51.0352 37.5007L50.8555 36.3182C50.8228 36.1045 50.824 35.887 50.8549 35.6733C50.916 35.2485 50.981 34.5217 50.7225 34.4549C50.5561 34.412 50.205 35.7509 50.205 35.7509C50.205 35.7509 50.0581 33.0612 49.6074 33.2175C49.373 33.2988 49.5324 35.6248 49.5324 35.6248C49.5324 35.6248 48.2339 35.7061 48.1797 36.5357C48.1255 37.3652 49.2135 38.3441 49.2135 38.3441L51.0358 37.5007H51.0352Z" fill="#FFBC96"/>
<path id="Vector_62" d="M49.6885 37.0387C49.6696 37.0387 49.65 37.0343 49.6298 37.0255C49.401 36.9227 49.1344 36.1922 49.123 36.1607L49.1823 36.1392C49.2561 36.3441 49.4855 36.8912 49.6557 36.9675C49.6752 36.9763 49.6929 36.9776 49.7086 36.9713C49.8883 36.8994 49.7414 36.3006 49.6065 35.94L49.6658 35.918C49.7036 36.0195 50.0276 36.9114 49.732 37.0299C49.7181 37.0356 49.7036 37.0381 49.6885 37.0381V37.0387Z" fill="#D28572"/>
<path id="Vector_63" d="M49.3242 37.1015C49.149 37.1015 48.7979 36.5424 48.7285 36.4295L48.7821 36.3968C48.9472 36.6666 49.2259 37.0435 49.3248 37.0385C49.3292 37.0385 49.3381 37.0378 49.3463 37.0196C49.4269 36.85 49.2372 36.3961 49.1572 36.2354L49.2139 36.207C49.2259 36.2316 49.5133 36.8147 49.403 37.046C49.3822 37.0889 49.3507 37.0996 49.328 37.1009C49.3267 37.1009 49.3255 37.1009 49.3236 37.1009L49.3242 37.1015Z" fill="#D28572"/>
<path id="Vector_64" d="M48.9098 37.2338C48.7422 37.2338 48.4598 36.8304 48.4043 36.7485L48.4566 36.7132C48.5795 36.8941 48.8147 37.1784 48.913 37.1708C48.9224 37.1702 48.9351 37.1664 48.9458 37.1431C49.0422 36.9401 48.8367 36.5984 48.8342 36.5953L48.8878 36.5625C48.8972 36.5776 49.1134 36.9369 49.0025 37.1702C48.9792 37.2193 48.9432 37.2319 48.9174 37.2338C48.9149 37.2338 48.9124 37.2338 48.9098 37.2338Z" fill="#D28572"/>
</g>
<path id="Vector_65" d="M72.2776 56.3744L71.322 56.5585L69.8697 55.6457L68.8611 53.0814L68.4552 52.0502C67.9207 54.0295 67.1945 55.9432 66.4734 57.4863L55.8835 59.511L57.8804 50.5852C54.1261 48.79 50.6137 44.1431 48.7832 38.3539L51.3676 37.1562L53.3974 40.898C54.2168 42.4058 55.2935 43.7548 56.5819 44.8894L56.8391 45.1163C58.0241 46.1577 59.6454 46.546 61.1734 46.1551L63.9847 45.434H65.4572L67.3054 46.2081C68.5813 46.7401 69.6377 47.6856 70.3084 48.8934C71.549 51.1173 73.0391 54.0698 72.2776 56.3744Z" fill="#2D3AAF"/>
<g id="Group_18">
<path id="Vector_66" d="M65.687 44.1133V46.1531C65.687 46.7047 65.2401 47.1522 64.6866 47.1522C64.1332 47.1522 63.6875 46.7053 63.6875 46.1531V44.1133H65.687Z" fill="#FFBC96"/>
<path id="Vector_67" d="M65.6873 44.1133V45.9344C64.9813 45.6608 64.4921 45.2397 64.2715 44.644L64.4776 44.1133H65.6873Z" fill="#1B1B43"/>
<path id="Vector_68" d="M66.5294 41.8281C66.4998 42.7554 66.7028 43.5181 66.7816 44.1188C66.8824 44.8891 66.1897 45.5308 65.4339 45.353C64.6781 45.1753 64.3175 44.7845 63.8555 44.1207L63.8756 42.1036L66.5301 41.8288L66.5294 41.8281Z" fill="#FFBC96"/>
<path id="Vector_69" d="M67.1529 41.5453C66.67 42.6616 65.8209 42.6535 64.3875 42.4013C64.1562 42.7341 64.1543 43.1508 64.2362 43.5984L64.0704 44.1134H63.6878V44.7809C62.2576 44.4128 62.0407 42.5866 63.0203 42.1303C63.1905 41.1154 64.3957 40.5411 65.594 41.1444C66.7891 41.7489 67.1529 41.5466 67.1529 41.5466V41.5453Z" fill="#1B1B43"/>
<path id="Vector_70" d="M64.1369 44.35L63.6875 44.7792V44.2812L64.1369 44.35Z" fill="#D28572"/>
<path id="Vector_71" d="M63.909 44.5016C64.2902 44.5016 64.5992 44.1925 64.5992 43.8113C64.5992 43.4301 64.2902 43.1211 63.909 43.1211C63.5278 43.1211 63.2188 43.4301 63.2188 43.8113C63.2188 44.1925 63.5278 44.5016 63.909 44.5016Z" fill="#FFBC96"/>
</g>
<g id="Group_19">
<path id="Vector_72" d="M57.8812 50.5898C58.3962 50.8073 58.7164 50.8754 59.1053 50.8754L57.5137 52.2464L57.8812 50.5898Z" fill="#1B1B43"/>
<path id="Vector_73" d="M64.8239 48.0614C64.6701 48.0614 64.5144 48.0469 64.3581 48.0179C63.6748 47.8906 63.1453 47.5004 63.0098 47.0238L63.0703 47.0062C63.1976 47.4525 63.7202 47.8345 64.3701 47.9555C65.2916 48.1276 66.1911 47.7689 66.7761 46.9961L66.8265 47.0339C66.326 47.6958 65.6005 48.0614 64.8239 48.0614Z" fill="#1B1B43"/>
<path id="Vector_74" d="M68.861 53.0848L68.4551 52.0536L68.7551 51.0273C68.9947 51.8493 68.9846 52.4772 68.861 53.0848Z" fill="#1B1B43"/>
<path id="Vector_75" d="M49.4014 38.9694L49.3926 38.907C50.1522 38.798 50.8178 38.4551 51.4273 37.8594L51.4715 37.9041C50.8518 38.5093 50.1748 38.8578 49.4014 38.9694Z" fill="#1B1B43"/>
</g>
<g id="Group_20" opacity="0.5">
<path id="Vector_76" d="M72.28 53.4253C71.5583 53.3055 71.0326 52.7042 70.9481 51.9395C70.8958 51.4636 71.0099 51.0243 71.2223 50.6284C71.1775 50.537 71.1328 50.4456 71.0874 50.3555C70.7388 50.9285 70.5724 51.5922 70.7489 52.2799C70.9468 53.0534 71.5728 53.6112 72.3405 53.6919C72.3222 53.6037 72.3021 53.5148 72.2806 53.4259L72.28 53.4253Z" fill="#5254CF"/>
<path id="Vector_77" d="M65.9865 55.8572C65.7803 56.519 65.9354 57.2118 66.3792 57.6909C66.4189 57.6077 66.4586 57.5251 66.4983 57.44C66.1106 56.9578 66.047 56.2795 66.3351 55.6725C66.6137 55.0837 67.1167 54.7106 67.696 54.4874C67.7313 54.3872 67.7659 54.2851 67.8012 54.1836C66.9793 54.4528 66.2563 54.9917 65.9871 55.8565L65.9865 55.8572Z" fill="#5254CF"/>
<path id="Vector_78" d="M58.1005 55.9838C58.2581 55.0698 57.8364 54.2434 57.2023 53.625L57.1361 53.9194C57.5856 54.394 57.8944 54.9777 57.8736 55.661C57.8478 56.529 57.2452 57.2344 56.3816 57.293L56.3242 57.5489C57.2275 57.5294 57.9467 56.8719 58.0999 55.9838H58.1005Z" fill="#5254CF"/>
<path id="Vector_79" d="M58.9214 46.9882C59.6186 47.0752 60.2805 46.7922 60.6725 46.257C60.549 46.2747 60.4261 46.2892 60.3025 46.2974C59.8934 46.6951 59.2826 46.842 58.6787 46.6781C57.991 46.4915 57.5107 45.9948 57.1861 45.3941C57.0676 45.3077 56.9509 45.2176 56.8394 45.1199L56.7744 45.0625C56.77 45.0846 56.7694 45.1079 56.7807 45.1337C57.1646 46.0559 57.8832 46.8584 58.922 46.9882H58.9214Z" fill="#5254CF"/>
<path id="Vector_80" d="M53.2734 46.6466C53.0055 45.0272 52.4193 43.0782 50.5957 42.7422C50.6449 42.8361 50.694 42.93 50.7438 43.0233C52.2245 43.4053 52.7326 45.0638 52.9854 46.4562C53.0673 46.5596 53.1499 46.6623 53.2325 46.7626C53.2621 46.7348 53.281 46.6957 53.2728 46.6459L53.2734 46.6466Z" fill="#5254CF"/>
</g>
<g id="Group_21">
<path id="Vector_81" d="M78.1937 43.0911L77.3711 42.5938L58.5841 73.6636L59.4067 74.161L78.1937 43.0911Z" fill="#1B1B43"/>
<path id="Vector_82" d="M61.0344 72.2841L59.4922 71.3516L58.2149 73.4639L59.7571 74.3964L61.0344 72.2841Z" fill="#BE443D"/>
<path id="Vector_83" d="M60.3628 73.4514L58.7737 72.4908C58.1219 72.0968 57.2974 72.1334 56.6835 72.5834L55.5425 73.4193C55.4341 73.4987 55.3421 73.5989 55.2727 73.7143L50.3718 81.8194C50.0805 82.3009 50.235 82.9275 50.7166 83.2187L54.6058 85.5706C55.0874 85.8618 55.714 85.7074 56.0052 85.2258L60.9062 77.1207C60.9755 77.0054 61.0222 76.878 61.0417 76.745L61.2516 75.3463C61.3645 74.593 61.014 73.846 60.3622 73.4521L60.3628 73.4514Z" fill="#FE5B52"/>
</g>
<path id="Vector_84" d="M71.7693 56.0093C71.9496 55.7181 71.9338 55.3512 71.7233 55.0877C71.4762 54.7788 71.1207 54.4076 70.7607 54.284C70.1071 54.0596 69.8486 54.2992 69.8152 54.4132C69.7818 54.5273 69.5599 54.5671 69.5089 54.7524C69.4584 54.9377 69.1269 55.1621 69.137 55.2913C69.1464 55.4142 68.5514 55.6197 69.8757 56.6913C70.0037 56.7947 70.155 56.8716 70.3163 56.9132L70.4701 56.9529C70.8345 57.0469 71.2234 56.8912 71.4207 56.5722L71.7693 56.0087V56.0093Z" fill="#FFBC96"/>
</g>
<g id="Group_22">
<path id="Vector_85" d="M62.6512 87.5398C57.5025 86.4329 52.0714 85.1822 46.3251 85.7546C45.3619 84.8242 44.7518 83.3542 44.7618 81.8616C44.7644 81.3346 44.8551 80.7723 45.1627 80.3966C45.7981 79.6225 46.9302 80.0991 47.548 80.8933C48.1657 81.6901 48.554 82.7491 49.2878 83.382C49.1113 82.1919 49.0634 80.6639 49.9534 80.1041C50.6443 79.6705 51.5343 80.1798 51.9579 80.969C52.3815 81.7557 52.4572 82.734 52.5202 83.6694C53.8969 82.7365 55.377 82.0229 56.9074 81.5615C57.5201 81.3774 58.2312 81.2564 58.7279 81.7279C59.1742 82.1566 59.2776 82.9558 59.1263 83.619C58.9725 84.2821 58.6144 84.8444 58.264 85.389C59.0431 84.6099 59.8676 83.8056 60.8635 83.5837C61.8595 83.3643 63.0571 83.9669 63.279 85.1545C63.4379 85.9992 63.0849 86.8161 62.6512 87.5398Z" fill="white"/>
<path id="Vector_86" d="M46.0729 74.4373C46.5419 75.1692 46.9604 77.393 46.9604 77.393C46.9604 77.393 45.1148 76.0844 44.6458 75.3526C44.1768 74.6207 44.1157 73.8221 44.5103 73.5693C44.9042 73.3165 45.6046 73.7055 46.0735 74.4373H46.0729Z" fill="white"/>
<path id="Vector_87" d="M65.9057 80.1673C65.4216 80.8897 63.5488 82.1592 63.5488 82.1592C63.5488 82.1592 64.0134 79.9448 64.4975 79.223C64.9816 78.5007 65.6895 78.1269 66.0784 78.3878C66.4674 78.6488 66.3898 79.4456 65.9051 80.1673H65.9057Z" fill="white"/>
</g>
</g>
</svg>
