<svg width="150" height="105" viewBox="0 0 150 105" fill="none" xmlns="http://www.w3.org/2000/svg">
<path d="M150 77.4197C150 118.841 116.422 100.1 75.0004 100.1C33.5788 100.1 0 66.5211 0 25.0996C0 -16.322 33.5788 6.01316 75.0004 6.01316C116.422 6.01316 150 35.9982 150 77.4197Z" fill="#E1E9FE"/>
<path d="M49.9424 64.4179C49.9424 64.4179 61.2469 80.4607 62.8139 79.2295C64.3808 78.0356 67.6267 64.0448 67.6267 64.0448L71.1337 63.9702C71.1337 63.9702 82.1024 73.9689 84.229 72.5512C86.3929 71.1335 85.6841 67.0295 85.6841 67.0295C95.2724 64.8283 103.928 62.1794 110.606 54.8669L109.785 49.4198L110.42 44.0847C110.42 44.0847 96.9513 36.2499 88.0345 34.8322C88.0345 34.8322 89.303 28.9374 87.0272 28.7508C84.7887 28.6016 71.5441 37.9661 71.5441 37.9661L50.8005 59.1574L49.9797 64.3806L49.9424 64.4179Z" fill="#2D3AAF"/>
<path d="M48.2656 38.6704C48.2656 38.6704 61.4729 20.9488 62.2937 24.4558C64.1591 25.7243 64.868 29.8656 62.4429 32.5145L55.6154 39.3047L48.2656 38.6704Z" fill="#2D3AAF"/>
<path d="M20.048 55.4501C20.048 55.4501 53.4508 83.1469 112.249 52.2926C114.973 51.1734 117.995 51.1361 120.756 52.1434C122.36 50.6138 122.397 48.0768 120.868 46.4725C120.793 46.3979 120.718 46.3233 120.644 46.2486C117.547 46.9948 114.339 47.0321 111.242 46.4352C111.242 46.4352 91.916 35.653 57.219 36.3245C22.5219 36.9961 16.4189 48.7959 16.4189 48.7959L30.9351 48.192L17.8956 53.0302L20.048 55.4501Z" fill="#738FE4"/>
<path d="M49.5323 52.1797L48.9727 50.165C48.9727 50.165 61.9188 42.1064 66.5823 45.0164C68.8582 46.4342 79.8642 47.0311 80.9835 49.4188C82.1028 51.8066 49.5696 52.1424 49.5696 52.1424L49.5323 52.1797Z" fill="#2D3AAF"/>
<path d="M116.351 51.8021C116.351 51.8021 132.58 66.6509 134.52 65.4944C136.46 64.3378 126.909 53.6675 126.872 50.7948C126.834 47.922 136.982 40.1991 136.348 38.2591C135.714 36.319 116.313 47.2131 116.313 47.2131L115.231 49.7128L116.388 51.8394L116.351 51.8021Z" fill="#2D3AAF"/>
<path d="M29.2589 48.695C29.3049 49.3367 20.4842 51.1024 16.302 52.1158C23.282 60.095 37.5976 63.8246 37.5976 63.8246C40.9163 54.4437 39.3545 46.6997 37.8993 42.5012C37.1903 40.4521 35.0745 39.2558 32.9492 39.6704C22.6307 41.6904 17.9029 45.6993 16.3632 48.9952C20.2589 48.8974 29.2204 48.0526 29.2664 48.6943L29.2589 48.695Z" fill="#2D3AAF"/>
<path d="M28.9941 58.4297L34.1058 51.7258" stroke="white" stroke-width="0.863129" stroke-miterlimit="10" stroke-linecap="round"/>
<path d="M34.5451 58.0452L28.5533 52.1115" stroke="white" stroke-width="0.863129" stroke-miterlimit="10" stroke-linecap="round"/>
</svg>
