<svg width="210" height="176" viewBox="0 0 210 176" fill="none" xmlns="http://www.w3.org/2000/svg">
<path d="M170.445 107C170.445 141.242 196.687 176 162.445 176C128.204 176 0.945312 134.742 0.945312 100.5C0.945312 66.2588 87.2037 60 121.445 60C155.687 60 170.445 72.7587 170.445 107Z" fill="#E1E9FE"/>
<path d="M144.898 110.8C144.898 110.8 135.553 97.5379 134.258 98.5557C132.963 99.5427 130.279 111.108 130.279 111.108L127.38 111.17C127.38 111.17 118.313 102.904 116.555 104.076C114.766 105.248 115.352 108.641 115.352 108.641C107.426 110.461 100.271 112.65 94.7498 118.695L95.4284 123.198L94.9041 127.609C94.9041 127.609 106.038 134.085 113.409 135.257C113.409 135.257 112.36 140.13 114.242 140.285C116.092 140.408 127.041 132.667 127.041 132.667L144.189 115.149L144.868 110.831L144.898 110.8Z" fill="#2D3AAF"/>
<path d="M146.281 132.083C146.281 132.083 135.363 146.733 134.685 143.834C133.143 142.785 132.557 139.362 134.561 137.172L140.205 131.559L146.281 132.083Z" fill="#2D3AAF"/>
<path d="M171.389 119.312C171.389 119.312 141.997 95.3175 93.3901 120.824C91.1387 121.749 88.6405 121.78 86.3582 120.947C85.0321 122.211 85.0012 124.309 86.2657 125.635C86.3274 125.697 86.3891 125.758 86.4508 125.82C89.0106 125.203 91.663 125.172 94.2229 125.666C94.2229 125.666 110.199 134.579 138.882 134.024C167.564 133.469 173.609 120.854 173.609 120.854L169.538 122.983L171.42 119.312H171.389Z" fill="#738FE4"/>
<path d="M156.277 113.975C156.277 113.975 146.408 120.976 156.555 129.18C156.555 129.18 148.813 126.774 149.091 121.068C149.399 115.362 156.246 113.975 156.246 113.975H156.277Z" fill="#2D3AAF"/>
<path d="M159.578 119.4C159.886 120.479 160.75 121.189 161.614 120.85C162.477 120.51 162.786 119.462 162.477 118.351C162.169 117.272 161.305 116.563 160.472 116.902C159.64 117.241 159.27 118.259 159.578 119.4Z" fill="#2D3AAF"/>
<path d="M145.237 120.914L145.699 122.58C145.699 122.58 134.997 129.241 131.142 126.836C129.261 125.664 120.162 125.17 119.237 123.196C118.312 121.222 145.206 120.945 145.206 120.945L145.237 120.914Z" fill="#2D3AAF"/>
<path d="M89.9966 121.227C89.9966 121.227 76.5805 108.952 74.9767 109.909C73.373 110.865 81.2684 119.685 81.2993 122.06C81.3301 124.435 72.9412 130.819 73.4655 132.423C73.9898 134.027 90.0275 125.021 90.0275 125.021L90.9219 122.955L89.9658 121.197L89.9966 121.227Z" fill="#2D3AAF"/>
<g clipPath="url(#clip0_1509_25209)">
<path d="M49.9336 116.255C50.2722 116.258 50.6107 116.067 50.8145 115.738C50.9963 115.446 51.0402 115.117 51.081 114.854C51.1123 114.638 50.9618 114.44 50.7455 114.409C50.5355 114.377 50.3317 114.528 50.3004 114.744C50.2722 114.954 50.2408 115.174 50.1468 115.321C50.0872 115.418 49.9775 115.475 49.9304 115.465C49.8364 115.443 49.758 115.186 49.7925 114.876C49.9399 113.569 50.6985 112.355 51.3694 111.283C51.4854 111.098 51.4289 110.857 51.244 110.741C51.059 110.625 50.8145 110.681 50.7016 110.866C49.9869 112.011 49.1781 113.305 49.0119 114.788C48.943 115.403 49.1467 116.089 49.7518 116.233C49.8145 116.249 49.8772 116.255 49.9367 116.255H49.9336Z" fill="#2DD9C3"/>
<path d="M166.906 75.5161C166.968 75.5161 167.034 75.4973 167.088 75.4565C167.216 75.3562 167.241 75.1712 167.144 75.0427C167.069 74.9455 159.699 65.2743 157.263 61.1676C147.661 44.9852 141.09 38.8941 141.024 38.8345C140.786 38.6496 118.932 21.696 105.853 14.9434C97.9096 10.843 90.7087 6.95882 85.4515 4.12487C82.0407 2.28468 79.5798 0.958614 78.5045 0.43195C78.354 0.359847 78.1816 0.41941 78.1095 0.566751C78.0374 0.714091 78.097 0.889646 78.2443 0.961749C79.3071 1.48214 81.7679 2.80821 85.1693 4.64526C90.4297 7.48235 97.6337 11.3665 105.581 15.4701C118.609 22.1945 140.422 39.1167 140.641 39.286C140.688 39.3299 147.2 45.374 156.752 61.4686C159.206 65.6035 166.598 75.3029 166.671 75.4001C166.727 75.4753 166.815 75.5161 166.903 75.5161H166.906Z" fill="#A3A7CD"/>
<path d="M192.705 85.0999C192.805 85.0999 192.906 85.0654 192.984 84.9902C193.141 84.8397 193.147 84.5889 192.996 84.4321C154.321 43.9699 116.79 16.3608 78.2589 0.0311043C78.0614 -0.0535381 77.8263 0.040509 77.7416 0.241143C77.657 0.441777 77.7511 0.67376 77.9517 0.758402C116.382 17.0442 153.829 44.5938 192.426 84.9807C192.501 85.0591 192.605 85.0999 192.705 85.103V85.0999Z" fill="#2D3AAF"/>
<path d="M192.979 82.0459C192.23 82.3844 191.465 82.7356 190.891 83.3249C190.321 83.9143 189.979 84.8015 190.261 85.5726C190.387 85.9081 190.616 86.1965 190.841 86.4755C196.199 93.0901 201.556 99.7048 206.914 106.316C207.074 106.514 207.259 106.727 207.51 106.774C207.817 106.834 208.102 106.63 208.35 106.439C210.538 104.73 210.378 103.711 208.848 101.852C207.008 99.6107 205.252 97.2972 203.444 95.0307C202.503 93.8488 193.591 81.7637 192.973 82.0459H192.979Z" fill="#2DD9C3"/>
<path d="M51.7725 107C51.8371 107 51.9037 106.968 51.938 106.909C53.6713 104.061 52.3638 100.524 51.4315 98.6671C51.0179 97.8453 50.5437 97.0333 50.0837 96.2489C49.1373 94.6308 48.1587 92.9575 47.6946 91.1384C46.829 87.7406 47.8056 83.6688 50.3762 79.9655C52.2488 77.2674 54.7225 74.9654 57.1136 72.7403C57.6443 72.2456 58.175 71.7509 58.6996 71.2543C63.8147 66.3961 67.3599 62.0129 69.86 57.4641C72.9654 51.8116 74.3354 45.9286 73.8249 40.4495C73.4516 36.4605 72.0775 32.6114 70.7458 28.8904C69.6784 25.9025 68.5726 22.8122 67.9935 19.6687C67.7252 18.2102 67.485 16.3103 68.0218 14.5444C68.6755 12.3883 70.3846 10.6756 71.8919 9.16588L76.9242 4.12832C78.028 3.02266 79.1882 1.71401 78.9743 0.160958C78.9602 0.0584723 78.8674 -0.0105082 78.7604 0.00131704C78.6555 0.0151132 78.5829 0.107744 78.597 0.21023C78.7887 1.59772 77.693 2.82558 76.6518 3.86817L71.6195 8.90572C70.0799 10.4469 68.3365 12.1931 67.6566 14.438C67.0976 16.2807 67.3438 18.2358 67.6182 19.7337C68.2014 22.9068 69.3111 26.0109 70.3846 29.0126C71.7083 32.7119 73.0763 36.5393 73.4436 40.483C73.948 45.8872 72.5921 51.6993 69.523 57.2867C67.0431 61.802 63.5181 66.1537 58.4312 70.9843C57.9086 71.4809 57.378 71.9756 56.8473 72.4683C54.4401 74.7072 51.9521 77.025 50.0554 79.7547C47.4242 83.5446 46.4274 87.7268 47.3193 91.2251C47.7955 93.0935 48.7862 94.7885 49.7467 96.4302C50.2027 97.2107 50.6729 98.0168 51.0825 98.8288C51.9824 100.616 53.2455 104.02 51.6051 106.716C51.5506 106.805 51.5809 106.919 51.6717 106.97C51.7019 106.988 51.7342 106.996 51.7665 106.996L51.7725 107Z" fill="#A3A7CD"/>
<path d="M49.533 110.481C49.558 109.892 49.6333 109.299 49.8433 108.747C50.0534 108.196 50.4484 107.964 50.8026 107.493C51.5487 106.503 53.3262 107.124 53.7306 108.296C54.135 109.468 53.5801 110.757 52.8685 111.773C52.4265 112.403 51.7493 113.049 51.0032 112.867C50.4201 112.726 50.0972 112.139 49.9342 111.541C49.8433 111.49 49.7618 111.425 49.7022 111.34C49.5267 111.099 49.5204 110.779 49.533 110.484V110.481Z" fill="#2DD9C3"/>
<path d="M141.599 37.9257C141.341 38.3018 141.084 38.6749 140.827 39.0511C140.385 39.6969 139.605 40.4273 138.94 40.0104C139.116 39.2643 139.329 38.4617 139.924 37.9821C140.52 37.5024 141.624 37.6216 141.824 38.3614L141.599 37.9257Z" fill="#39363F"/>
<path d="M113.827 18.8967C113.983 18.9531 114.14 19.0095 114.297 19.0628C114.124 19.6365 113.939 20.2384 113.516 20.6616C113.093 21.088 112.356 21.2666 111.892 20.8873C112.015 20.2823 112.156 19.6428 112.591 19.207C113.027 18.7713 113.864 18.6835 114.209 19.1945L113.827 18.8935V18.8967Z" fill="#39363F"/>
<path d="M78.4246 0.209695C78.6566 0.0560843 78.992 0.197155 79.1425 0.432273C79.2929 0.667391 79.3118 0.958937 79.3243 1.23794C79.3431 1.64862 79.3588 2.08123 79.1707 2.45115C78.9857 2.81794 78.5249 3.0844 78.1518 2.90885C77.8791 2.78032 77.738 2.46683 77.7098 2.16588C77.6409 1.44485 78.1393 0.708144 78.8321 0.501241C79.0704 0.711279 79.3086 0.918183 79.5469 1.12822L78.4246 0.209695Z" fill="#39363F"/>
<path d="M169.704 67.9013C171.774 66.9546 175.532 67.917 177.153 69.3496C178.25 70.3183 178.918 71.7541 178.956 73.2181C179.025 76.0207 176.636 78.5882 173.858 78.9706C171.081 79.3531 168.215 77.701 166.908 75.2213C166.538 74.5191 166.275 73.7354 166.316 72.9422C166.394 71.4124 168.253 68.5659 169.701 67.9013H169.704ZM175.695 75.1304C176.112 75.1523 176.466 74.8326 176.488 74.4156C176.51 73.9987 176.191 73.6444 175.774 73.6225C175.357 73.6006 175.002 73.9203 174.981 74.3373C174.959 74.7542 175.278 75.1084 175.695 75.1304ZM175.159 72.0707C175.46 72.3591 175.94 72.3466 176.228 72.0456C176.517 71.7447 176.504 71.2651 176.203 70.9766C175.902 70.6882 175.423 70.7008 175.134 71.0017C174.846 71.3027 174.858 71.7823 175.159 72.0707ZM171.937 76.6916C172.087 77.0803 172.526 77.2747 172.915 77.1242C173.303 76.9737 173.498 76.5348 173.347 76.1461C173.197 75.7574 172.758 75.563 172.369 75.7135C171.98 75.864 171.786 76.3028 171.937 76.6916ZM171.871 69.8669C172.021 70.2556 172.46 70.45 172.849 70.2995C173.238 70.149 173.432 69.7101 173.281 69.3214C173.131 68.9327 172.692 68.7383 172.303 68.8888C171.915 69.0393 171.72 69.4782 171.871 69.8669ZM169.015 75.0363C169.316 75.3248 169.795 75.3122 170.084 75.0113C170.372 74.7103 170.36 74.2307 170.059 73.9423C169.758 73.6538 169.278 73.6664 168.99 73.9673C168.701 74.2683 168.714 74.7479 169.015 75.0363ZM169.444 72.3936C169.861 72.4156 170.215 72.0958 170.237 71.6789C170.259 71.2619 169.94 70.9077 169.523 70.8857C169.106 70.8638 168.751 71.1835 168.73 71.6005C168.708 72.0174 169.027 72.3717 169.444 72.3936Z" fill="#2DD9C3"/>
</g>
<defs>
<clipPath id="clip0_1509_25209">
<rect width="181" height="120" fill="white" transform="matrix(-1 0 0 1 210 0)"/>
</clipPath>
</defs>
</svg>
