<svg width="238" height="207" viewBox="0 0 238 207" fill="none" xmlns="http://www.w3.org/2000/svg">
<path d="M184.138 138C184.138 172.242 210.38 207 176.138 207C141.897 207 14.6382 165.742 14.6382 131.5C14.6382 97.2588 100.897 91 135.138 91C169.38 91 184.138 103.759 184.138 138Z" fill="#E1E9FE"/>
<g clip-path="url(#clip0_1256_23955)">
<path d="M106.895 18.9512H105.336L104.506 91.0901H107.448L106.895 18.9512Z" fill="#738FE4"/>
<path d="M119.374 31.5291V30.6452L106.111 30.1738V31.8419L119.374 31.5291Z" fill="#738FE4"/>
<path d="M116.015 40.6906V39.8067L106.111 39.3398V41.0079L116.015 40.6906Z" fill="#738FE4"/>
<path d="M151.688 43.0879H150.129L149.299 91.0899H152.241L151.688 43.0879Z" fill="#738FE4"/>
<path d="M158.324 59.3862V58.6972L150.904 58.3301V59.6264L158.324 59.3862Z" fill="#738FE4"/>
<path d="M156.443 54.9676V54.2786L150.904 53.916V55.2124L156.443 54.9676Z" fill="#738FE4"/>
<path d="M143.484 59.3862V58.6972L150.904 58.3301V59.6264L143.484 59.3862Z" fill="#738FE4"/>
<path d="M145.365 54.9676V54.2786L150.904 53.916V55.2124L145.365 54.9676Z" fill="#738FE4"/>
<path d="M101.352 49.244V48.3601L88.0889 47.8887V49.5567L101.352 49.244Z" fill="#738FE4"/>
<path d="M97.9884 56.035V55.1511L88.0889 54.6797V56.3477L97.9884 56.035Z" fill="#738FE4"/>
<path d="M88.2429 51.2793H39.0171V92.6589H88.2429V51.2793Z" fill="#DBDBDB"/>
<path d="M90.2057 47.8887H37.0591V51.2792H90.2057V47.8887Z" fill="#738FE4"/>
<path d="M73.1625 92.6552H72.7092V55.7404H60.1852V92.6552H59.7319V55.2871H73.1625V92.6552Z" fill="#A6A6A6"/>
<path d="M57.4021 55.5137H45.7847V81.0603H57.4021V55.5137Z" fill="#E3E6FF"/>
<path d="M88.2428 55.5137H75.4287V81.0603H88.2428V55.5137Z" fill="#E3E6FF"/>
<path d="M71.2723 57.1543H61.6221V81.0601H71.2723V57.1543Z" fill="#E3E6FF"/>
<path d="M43.6088 55.5137H39.0171V81.0603H43.6088V55.5137Z" fill="#E3E6FF"/>
<path d="M43.6086 56.9688V63.1514L39.0215 67.7431V61.5604L43.6086 56.9688Z" fill="#ECEEFF"/>
<path d="M51.2507 55.5137L45.7842 60.9802V55.5137H51.2507Z" fill="#ECEEFF"/>
<path d="M88.2428 73.6895V79.8676L87.0552 81.0597H80.8726L88.2428 73.6895Z" fill="#ECEEFF"/>
<path d="M48.4541 81.059L57.3972 72.1113V78.2895L54.6323 81.059H48.4541Z" fill="#ECEEFF"/>
<path d="M71.2723 58.2422V64.4203L61.6221 74.0706V67.8924L71.2723 58.2422Z" fill="#ECEEFF"/>
<path d="M80.179 55.5137L75.4287 60.264V55.5137H80.179Z" fill="#ECEEFF"/>
<path d="M39.0215 76.8222L43.6086 72.2305V75.213L39.0215 79.8002V76.8222Z" fill="#ECEEFF"/>
<path d="M57.3971 58.4414V61.424L45.7842 73.0369V70.0589L57.3971 58.4414Z" fill="#ECEEFF"/>
<path d="M61.6674 57.1543L61.6221 57.1996V57.1543H61.6674Z" fill="#ECEEFF"/>
<path d="M67.061 81.0605L71.272 76.8496V79.8276L70.0391 81.0605H67.061Z" fill="#ECEEFF"/>
<path d="M88.2428 59.873V62.8511L75.4287 75.6697V72.6917L88.2428 59.873Z" fill="#ECEEFF"/>
<path d="M43.4999 55.5137L39.0215 59.992V59.1444L42.6522 55.5137H43.4999Z" fill="#ECEEFF"/>
<path d="M61.6221 77.9784L71.2723 68.3281V69.1758L61.6221 78.826V77.9784Z" fill="#ECEEFF"/>
<path d="M84.9339 55.5137L75.4287 65.0189V64.1758L84.0908 55.5137H84.9339Z" fill="#ECEEFF"/>
<path d="M176.224 78.7192L173.377 85.3008L175.042 86.0206L177.888 79.439L176.224 78.7192Z" fill="#738FE4"/>
<path d="M166.867 78.7212L164.02 85.3027L165.684 86.0225L168.531 79.4409L166.867 78.7212Z" fill="#738FE4"/>
<path d="M157.514 78.7207L154.498 85.6934L156.162 86.4131L159.178 79.4405L157.514 78.7207Z" fill="#738FE4"/>
<path d="M148.147 78.7096L145.025 85.9277L146.689 86.6475L149.811 79.4294L148.147 78.7096Z" fill="#738FE4"/>
<path d="M138.823 78.6598L134.892 86.373L136.507 87.1965L140.439 79.4832L138.823 78.6598Z" fill="#738FE4"/>
<path d="M178.069 78.2129H138.72V80.026H178.069V78.2129Z" fill="#738FE4"/>
<path d="M174.95 86.1896L165.499 111.514H37.7343C37.7343 111.514 23.1116 99.2077 5.98682 78.1621C5.98682 78.1621 31.9097 78.1213 174.946 86.1896H174.95Z" fill="#2D3AAF"/>
<path d="M174.864 87.092C139.277 83.7422 7.28757 79.1143 5.95947 79.069L6.02293 77.2559C7.35103 77.3012 139.395 81.9337 175.036 85.2834L174.868 87.0874L174.864 87.092Z" fill="#738FE4"/>
<path d="M5.29644 71.4931L3.63232 72.2129L6.47906 78.7945L8.14317 78.0747L5.29644 71.4931Z" fill="#738FE4"/>
<path d="M14.6567 71.4909L12.9927 72.2109L15.8406 78.792L17.5045 78.0719L14.6567 71.4909Z" fill="#738FE4"/>
<path d="M24.0064 71.4951L22.3423 72.2148L25.3582 79.1875L27.0223 78.4677L24.0064 71.4951Z" fill="#738FE4"/>
<path d="M33.3604 71.4951L31.6963 72.2148L34.8183 79.4329L36.4825 78.7132L33.3604 71.4951Z" fill="#738FE4"/>
<path d="M42.6949 71.4442L41.0796 72.2676L45.0114 79.9809L46.6267 79.1574L42.6949 71.4442Z" fill="#738FE4"/>
<path d="M42.7928 70.9961H3.44385V72.8092H42.7928V70.9961Z" fill="#738FE4"/>
<path d="M9.74451 78.8292H5.76927L0.638184 66.3867H2.17479L9.74451 78.8292Z" fill="#738FE4"/>
<path d="M131.209 97.8392C127.859 97.8392 125.135 95.115 125.135 91.7653C125.135 88.4156 127.859 85.6914 131.209 85.6914C134.559 85.6914 137.283 88.4156 137.283 91.7653C137.283 95.115 134.559 97.8392 131.209 97.8392ZM131.209 88.8643C129.609 88.8643 128.308 90.1652 128.308 91.7653C128.308 93.3654 129.609 94.6663 131.209 94.6663C132.809 94.6663 134.11 93.3654 134.11 91.7653C134.11 90.1652 132.809 88.8643 131.209 88.8643Z" fill="#738FE4"/>
<path d="M132.116 83.4844H130.303V89.309H132.116V83.4844Z" fill="white"/>
<path d="M108.89 97.2806C105.54 97.2806 102.816 94.5564 102.816 91.2067C102.816 87.857 105.54 85.1328 108.89 85.1328C112.24 85.1328 114.964 87.857 114.964 91.2067C114.964 94.5564 112.24 97.2806 108.89 97.2806ZM108.89 88.3057C107.29 88.3057 105.989 89.6067 105.989 91.2067C105.989 92.8068 107.29 94.1077 108.89 94.1077C110.49 94.1077 111.791 92.8068 111.791 91.2067C111.791 89.6067 110.49 88.3057 108.89 88.3057Z" fill="#738FE4"/>
<path d="M109.797 82.9258H107.983V88.7549H109.797V82.9258Z" fill="white"/>
<path d="M105.832 19.9799L71.7949 48.5508L72.0863 48.898L106.124 20.327L105.832 19.9799Z" fill="#738FE4"/>
<path d="M106.099 19.9589L105.873 20.3516L150.661 46.1684L150.888 45.7757L106.099 19.9589Z" fill="#738FE4"/>
<path d="M150.754 59.8L106.002 20.4783L82.3188 48.867L81.9697 48.5769L105.953 19.8301L106.129 19.9842L151.054 59.46L150.754 59.8Z" fill="#738FE4"/>
<path d="M150.951 45.8369L150.602 46.125L177.9 79.2755L178.249 78.9874L150.951 45.8369Z" fill="#738FE4"/>
<path d="M151.045 59.452L150.781 59.8203L177.945 79.3113L178.21 78.943L151.045 59.452Z" fill="#738FE4"/>
<path d="M77.3397 44.054L77.1709 44.4746L83.6195 47.063L83.7884 46.6424L77.3397 44.054Z" fill="#738FE4"/>
<path d="M82.8008 39.4753L82.6333 39.8965L87.869 41.9779L88.0364 41.5567L82.8008 39.4753Z" fill="#738FE4"/>
<path d="M88.3334 34.8338L88.1494 35.248L92.0268 36.9703L92.2108 36.5561L88.3334 34.8338Z" fill="#738FE4"/>
<path d="M93.2717 30.6765L93.104 31.0977L95.9803 32.2428L96.148 31.8217L93.2717 30.6765Z" fill="#738FE4"/>
<path d="M97.9355 26.7726L97.7622 27.1914L99.5758 27.9419L99.7491 27.523L97.9355 26.7726Z" fill="#738FE4"/>
<path d="M101.666 23.6462L101.478 24.0586L102.435 24.495L102.623 24.0826L101.666 23.6462Z" fill="#738FE4"/>
<path d="M94.085 141.816C79.3777 114.895 86.8706 82.0407 86.9501 81.7136L87.3878 79.8613V81.7622C87.3878 82.0407 87.569 109.811 102.922 125.438L102.608 125.747C89.4787 112.384 87.3568 90.2586 87.012 83.6675C85.677 90.9791 81.8532 118.497 94.4784 141.604L94.0894 141.816H94.085Z" fill="#A6A6A6"/>
<path d="M154.148 201.228C147.283 201.228 139.312 197.267 133.442 193.634C125.423 188.669 116.714 181.419 110.141 174.249C103.112 166.584 94.1603 142.036 94.0719 141.789L93.7183 140.812L116.688 164.63L116.369 164.935L94.8544 142.629C96.6093 147.306 104.301 167.225 110.463 173.953C122.227 186.786 144.595 203.483 157.521 200.419C185.68 193.744 203.031 194.16 213.397 194.403C223.83 194.655 227.738 194.743 229.882 188.117C230.629 185.8 230.045 182.732 228.184 179.249C221.995 167.64 202.492 152.137 172.874 143.681C168.006 142.293 161.314 141.873 154.842 141.471C147.513 141.015 139.94 140.542 135.038 138.646C115.339 131.025 106.538 127.417 103.731 126.25L125.838 148.062L125.529 148.376L101.768 124.938L102.847 125.402C102.922 125.433 110.468 128.668 135.197 138.239C140.033 140.113 147.574 140.582 154.868 141.037C161.367 141.444 168.082 141.86 172.993 143.265C202.735 151.757 222.336 167.358 228.573 179.05C230.492 182.644 231.088 185.831 230.301 188.263C228.056 195.203 223.763 195.101 213.384 194.854C203.04 194.611 185.724 194.195 157.618 200.857C156.504 201.122 155.341 201.241 154.143 201.241L154.148 201.228Z" fill="#A6A6A6"/>
<path d="M116.378 174.443C114.548 174.443 112.174 173.899 109.394 172.807L109.557 172.396C114.685 174.403 118.456 174.527 119.645 172.728C120.737 171.075 119.481 168.086 116.378 164.934L116.113 164.669L116.475 164.567C116.688 164.51 137.601 158.578 138.76 149.573C139.913 140.59 127.5 135.63 127.377 135.577L127.54 135.166C127.668 135.215 140.395 140.307 139.202 149.626C138.079 158.37 119.844 164.041 116.953 164.89C120.025 168.104 121.197 171.181 120.016 172.971C119.371 173.952 118.12 174.443 116.387 174.443H116.378Z" fill="#A6A6A6"/>
<path d="M132.023 158.252L131.607 158.102C133.362 153.274 125.644 148.447 125.564 148.398L125.219 148.186L125.586 148.014C128.499 146.63 130.077 144.857 130.276 142.74C130.564 139.681 127.845 136.533 125.427 134.774L125.688 134.416C128.318 136.335 131.019 139.539 130.718 142.78C130.511 144.972 128.972 146.811 126.13 148.239C127.659 149.256 133.698 153.632 132.023 158.256V158.252Z" fill="#A6A6A6"/>
<path d="M136.949 139.029L135.401 140.576L135.479 140.654L137.027 139.108L136.949 139.029Z" fill="#A6A6A6"/>
<path d="M109.256 172.981L109.181 172.902L109.499 172.588L109.579 172.667L109.256 172.981Z" fill="#A6A6A6"/>
<path d="M116.983 165.262L116.904 165.183L117.713 164.369L117.792 164.449L116.983 165.262Z" fill="#A6A6A6"/>
<path d="M138.061 144.177L137.986 144.097L138.746 143.342L142.017 140.07L142.093 140.145L141.885 140.358L138.061 144.177Z" fill="#A6A6A6"/>
<path d="M114.251 173.97L112.149 176.07L112.228 176.148L114.329 174.049L114.251 173.97Z" fill="#A6A6A6"/>
<path d="M127.919 160.315L119.454 168.686L119.532 168.764L127.997 160.393L127.919 160.315Z" fill="#A6A6A6"/>
<path d="M139.042 149.327L139.007 149.287L138.945 149.291V149.265L138.962 149.247L147.516 140.693L147.596 140.773L139.042 149.327Z" fill="#A6A6A6"/>
<path d="M115.304 179.187L115.224 179.107L117.315 177.025L120.374 173.962L129.565 164.776L135.683 158.649L138.746 155.59L144.869 149.463L153.228 141.104L153.308 141.179L148.012 146.483L141.885 152.606L138.826 155.669L132.699 161.787L123.513 170.978L120.449 174.037L115.304 179.187Z" fill="#A6A6A6"/>
<path d="M158.974 141.458L118.427 182.033L118.505 182.111L159.052 141.536L158.974 141.458Z" fill="#A6A6A6"/>
<path d="M121.802 184.943L121.722 184.863L164.62 141.957L164.699 142.037L163.324 143.42L121.802 184.943Z" fill="#A6A6A6"/>
<path d="M125.206 187.658L125.126 187.583L169.965 142.74L170.04 142.815L169.443 143.421L163.316 149.544L157.198 155.67L151.071 161.789L148.012 164.852L144.948 167.911L132.699 180.165L129.635 183.224L125.206 187.658Z" fill="#A6A6A6"/>
<path d="M128.733 190.258L128.658 190.178L174.836 143.996L174.915 144.071L172.506 146.485L166.379 152.607L160.261 158.734L154.134 164.852L135.762 183.229L132.699 186.288L128.733 190.258Z" fill="#A6A6A6"/>
<path d="M179.472 145.475L132.307 192.641L132.385 192.719L179.551 145.553L179.472 145.475Z" fill="#A6A6A6"/>
<path d="M136.204 195.03L136.125 194.95L138.746 192.333L157.118 173.957L160.181 170.902L169.367 161.712L172.431 158.653L183.991 147.084L184.07 147.164L136.204 195.03Z" fill="#A6A6A6"/>
<path d="M140.214 197.148L140.134 197.068L141.805 195.393L160.182 177.025L163.241 173.962L172.431 164.776L178.549 158.649L184.676 152.526L188.372 148.826L188.451 148.906L140.214 197.148Z" fill="#A6A6A6"/>
<path d="M192.639 150.691L144.414 198.916L144.492 198.994L192.718 150.769L192.639 150.691Z" fill="#A6A6A6"/>
<path d="M149.179 200.433L149.099 200.354L196.926 152.527L197.005 152.607L196.842 152.762L193.942 155.67L187.815 161.788L178.629 170.979L175.565 174.038L157.198 192.414L154.134 195.473L149.179 200.433Z" fill="#A6A6A6"/>
<path d="M200.786 154.826L154.607 200.973L154.686 201.051L200.864 154.905L200.786 154.826Z" fill="#A6A6A6"/>
<path d="M162.246 199.615L162.167 199.536L204.657 157.045L204.737 157.124L203.128 158.725L162.246 199.615Z" fill="#A6A6A6"/>
<path d="M208.406 159.431L169.858 197.979L169.936 198.057L208.484 159.509L208.406 159.431Z" fill="#A6A6A6"/>
<path d="M177.311 196.795L177.236 196.715L212.23 161.713L212.309 161.788L212.084 162.022L177.311 196.795Z" fill="#A6A6A6"/>
<path d="M184.402 195.826L184.322 195.746L184.676 195.397L193.862 186.206L196.925 183.147L206.111 173.957L209.175 170.902L215.461 164.607L215.541 164.687L184.402 195.826Z" fill="#A6A6A6"/>
<path d="M191.214 195.142L191.135 195.063L218.746 167.447L218.825 167.522L218.436 167.916L191.214 195.142Z" fill="#A6A6A6"/>
<path d="M197.748 194.731L197.668 194.651L221.849 170.471L221.929 170.55L221.5 170.979L212.309 180.165L209.255 183.229L197.748 194.731Z" fill="#A6A6A6"/>
<path d="M204.043 194.558L203.963 194.483L224.718 173.729L224.798 173.808L224.559 174.038L215.373 183.228L212.309 186.287L204.043 194.558Z" fill="#A6A6A6"/>
<path d="M227.278 177.256L210.057 194.488L210.135 194.566L227.356 177.334L227.278 177.256Z" fill="#A6A6A6"/>
<path d="M216.133 194.713L216.054 194.638L221.425 189.271L224.479 186.208L229.373 181.318L229.453 181.398L216.133 194.713Z" fill="#A6A6A6"/>
<path d="M230.372 186.478L222.338 194.467L222.416 194.545L230.45 186.556L230.372 186.478Z" fill="#A6A6A6"/>
<path d="M212.311 161.713L212.232 161.791L226.196 175.754L226.274 175.676L212.311 161.713Z" fill="#A6A6A6"/>
<path d="M230.38 186.061L224.479 180.164L218.361 174.037L212.234 167.915L203.048 158.724L197.403 153.079L197.438 153.044L197.434 152.986H197.46L197.478 153.004L200.064 155.59L209.254 164.776L215.373 170.903L221.5 177.026L227.622 183.148L230.473 185.999V186.021L230.416 186.026L230.38 186.061Z" fill="#A6A6A6"/>
<path d="M186.301 147.949L186.223 148.027L228.953 190.758L229.031 190.679L186.301 147.949Z" fill="#A6A6A6"/>
<path d="M225.766 193.695L176.732 144.658L176.812 144.578L225.841 193.62L225.766 193.695Z" fill="#A6A6A6"/>
<path d="M168.576 142.471L168.498 142.549L220.627 194.678L220.705 194.6L168.576 142.471Z" fill="#A6A6A6"/>
<path d="M214.546 194.699H214.52L214.498 194.682L161.574 141.749L161.654 141.67L214.577 194.602L214.542 194.638L214.546 194.699Z" fill="#A6A6A6"/>
<path d="M155.071 141.213L154.993 141.291L208.257 194.555L208.335 194.477L155.071 141.213Z" fill="#A6A6A6"/>
<path d="M202.16 194.58L199.985 192.414L193.862 186.287L187.735 180.164L181.613 174.038L175.486 167.915L157.118 149.543L154.055 146.484L148.418 140.843L148.498 140.764L202.235 194.505L202.16 194.58Z" fill="#A6A6A6"/>
<path d="M141.596 139.992L141.518 140.07L196.245 194.797L196.323 194.719L141.596 139.992Z" fill="#A6A6A6"/>
<path d="M132.692 137.205L132.614 137.283L190.508 195.177L190.586 195.099L132.692 137.205Z" fill="#A6A6A6"/>
<path d="M138.994 149.639L138.916 149.717L184.95 195.751L185.028 195.673L138.994 149.639Z" fill="#A6A6A6"/>
<path d="M137.018 153.771L136.94 153.85L179.523 196.433L179.601 196.355L137.018 153.771Z" fill="#A6A6A6"/>
<path d="M174.226 197.278L172.431 195.474L166.304 189.351L160.182 183.224L154.055 177.102L150.996 174.038L147.932 170.979L133.786 156.829L133.866 156.754L174.305 197.198L174.226 197.278Z" fill="#A6A6A6"/>
<path d="M169.036 198.205L163.241 192.414L157.118 186.287L150.991 180.165L147.932 177.101L141.805 170.979L130.064 159.233L130.144 159.158L169.111 198.126L169.036 198.205Z" fill="#A6A6A6"/>
<path d="M163.935 199.23L163.245 198.536L126.001 161.292L126.081 161.213L164.014 199.155L163.935 199.23Z" fill="#A6A6A6"/>
<path d="M121.743 163.004L121.665 163.082L158.925 200.342L159.003 200.264L121.743 163.004Z" fill="#A6A6A6"/>
<path d="M153.489 201.033L147.932 195.472L141.805 189.349L138.746 186.286L132.619 180.163L126.501 174.036L120.374 167.914L117.099 164.638L117.178 164.559L153.569 200.958L153.489 201.033Z" fill="#A6A6A6"/>
<path d="M119.608 173.119L119.53 173.197L145.834 199.501L145.912 199.423L119.608 173.119Z" fill="#A6A6A6"/>
<path d="M133.959 193.753L114.247 174.033L114.335 173.967L114.353 173.989L117.39 177.026L123.513 183.148L129.64 189.271L134.038 193.674L133.959 193.753Z" fill="#A6A6A6"/>
<path d="M140.853 122.064C140.853 122.064 142.812 119.271 143.083 119.482C143.355 119.693 143.917 122.124 143.917 122.124H144.53C144.53 122.124 146.439 120.396 146.811 120.648C147.183 120.899 147.062 121.602 147.062 121.602C148.73 121.984 150.237 122.446 151.392 123.722L151.252 124.666L151.362 125.601C151.362 125.601 149.021 126.957 147.474 127.208C147.474 127.208 147.695 128.233 147.303 128.263C146.911 128.293 144.611 126.666 144.611 126.666L141.004 122.978L140.863 122.074L140.853 122.064Z" fill="#2D3AAF"/>
<path d="M140.562 126.546C140.562 126.546 142.852 129.63 143.003 129.018C143.334 128.797 143.455 128.073 143.033 127.621L141.848 126.436L140.572 126.546H140.562Z" fill="#2D3AAF"/>
<path d="M135.277 123.851C135.277 123.851 141.456 118.808 151.684 124.163C152.156 124.354 152.688 124.364 153.161 124.193C153.442 124.464 153.452 124.906 153.181 125.178C153.171 125.188 153.151 125.208 153.14 125.218C152.608 125.087 152.045 125.077 151.503 125.188C151.503 125.188 148.147 127.066 142.109 126.946C136.081 126.825 134.805 124.173 134.805 124.173L135.659 124.615L135.267 123.841L135.277 123.851Z" fill="#738FE4"/>
<path d="M138.462 122.737C138.462 122.737 140.541 124.203 138.401 125.932C138.401 125.932 140.029 125.429 139.969 124.224C139.908 123.018 138.462 122.727 138.462 122.727V122.737Z" fill="#2D3AAF"/>
<path d="M137.759 123.882C137.688 124.113 137.517 124.264 137.337 124.183C137.156 124.113 137.085 123.892 137.156 123.661C137.226 123.43 137.397 123.279 137.578 123.349C137.759 123.42 137.829 123.641 137.769 123.872L137.759 123.882Z" fill="#2D3AAF"/>
<path d="M140.783 124.195L140.682 124.547C140.682 124.547 142.933 125.943 143.746 125.441C144.138 125.19 146.057 125.089 146.248 124.678C146.439 124.256 140.783 124.205 140.783 124.205V124.195Z" fill="#2D3AAF"/>
<path d="M152.397 124.267C152.397 124.267 155.22 121.685 155.562 121.886C155.903 122.087 154.246 123.946 154.236 124.448C154.236 124.95 155.994 126.287 155.883 126.628C155.773 126.97 152.397 125.071 152.397 125.071L152.206 124.639L152.407 124.267H152.397Z" fill="#2D3AAF"/>
<path d="M181.661 129.512C181.661 129.512 184.434 125.576 184.819 125.878C185.203 126.171 186 129.604 186 129.604L186.86 129.622C186.86 129.622 189.552 127.169 190.073 127.516C190.604 127.864 190.43 128.871 190.43 128.871C192.783 129.411 194.907 130.061 196.545 131.856L196.344 133.192L196.5 134.501C196.5 134.501 193.195 136.424 191.007 136.771C191.007 136.771 191.318 138.218 190.76 138.264C190.211 138.3 186.961 136.002 186.961 136.002L181.871 130.803L181.67 129.521L181.661 129.512Z" fill="#2D3AAF"/>
<path d="M181.249 135.829C181.249 135.829 184.49 140.178 184.691 139.317C185.149 139.006 185.323 137.99 184.728 137.34L183.052 135.674L181.249 135.829Z" fill="#2D3AAF"/>
<path d="M173.797 132.038C173.797 132.038 182.521 124.916 196.948 132.487C197.617 132.762 198.358 132.771 199.036 132.524C199.429 132.899 199.438 133.521 199.063 133.915C199.045 133.933 199.026 133.952 199.008 133.97C198.248 133.787 197.461 133.778 196.701 133.924C196.701 133.924 191.959 136.57 183.446 136.405C174.932 136.24 173.138 132.496 173.138 132.496L174.347 133.128L173.788 132.038H173.797Z" fill="#738FE4"/>
<path d="M178.283 130.453C178.283 130.453 181.212 132.531 178.201 134.966C178.201 134.966 180.498 134.252 180.416 132.559C180.324 130.865 178.292 130.453 178.292 130.453H178.283Z" fill="#2D3AAF"/>
<path d="M177.303 132.066C177.212 132.386 176.955 132.597 176.699 132.496C176.443 132.395 176.351 132.084 176.443 131.754C176.534 131.434 176.791 131.223 177.038 131.324C177.285 131.425 177.395 131.727 177.303 132.066Z" fill="#2D3AAF"/>
<path d="M181.56 132.514L181.422 133.008C181.422 133.008 184.599 134.985 185.743 134.271C186.302 133.923 189.002 133.777 189.277 133.191C189.551 132.605 181.569 132.523 181.569 132.523L181.56 132.514Z" fill="#2D3AAF"/>
<path d="M197.955 132.606C197.955 132.606 201.937 128.962 202.413 129.246C202.889 129.53 200.545 132.148 200.536 132.853C200.527 133.558 203.017 135.453 202.861 135.929C202.706 136.405 197.946 133.732 197.946 133.732L197.68 133.118L197.964 132.597L197.955 132.606Z" fill="#2D3AAF"/>
<path d="M64.8252 127.177C64.8252 127.177 66.7844 124.384 67.0556 124.595C67.3269 124.806 67.8895 127.238 67.8895 127.238H68.5024C68.5024 127.238 70.4113 125.51 70.7831 125.761C71.1548 126.012 71.0343 126.715 71.0343 126.715C72.7021 127.097 74.2091 127.559 75.3645 128.835L75.2239 129.78L75.3344 130.714C75.3344 130.714 72.9934 132.07 71.4462 132.322C71.4462 132.322 71.6672 133.346 71.2754 133.376C70.8835 133.407 68.5828 131.779 68.5828 131.779L64.9759 128.092L64.8352 127.187L64.8252 127.177Z" fill="#2D3AAF"/>
<path d="M64.5337 131.659C64.5337 131.659 66.8244 134.744 66.9751 134.131C67.3067 133.91 67.4272 133.186 67.0053 132.734L65.8197 131.549L64.5437 131.659H64.5337Z" fill="#2D3AAF"/>
<path d="M59.2491 128.965C59.2491 128.965 65.428 123.921 75.6558 129.276C76.128 129.467 76.6605 129.477 77.1327 129.306C77.4141 129.577 77.4241 130.02 77.1528 130.291C77.1428 130.301 77.1227 130.321 77.1126 130.331C76.5802 130.2 76.0175 130.19 75.475 130.301C75.475 130.301 72.1193 132.18 66.081 132.059C60.0528 131.939 58.7769 129.286 58.7769 129.286L59.6309 129.728L59.239 128.955L59.2491 128.965Z" fill="#738FE4"/>
<path d="M62.4338 127.85C62.4338 127.85 64.5135 129.317 62.3735 131.045C62.3735 131.045 64.0012 130.542 63.9409 129.337C63.8806 128.131 62.4338 127.84 62.4338 127.84V127.85Z" fill="#2D3AAF"/>
<path d="M61.7308 128.995C61.6604 129.226 61.4896 129.377 61.3088 129.297C61.1279 129.226 61.0576 129.005 61.1279 128.774C61.1983 128.543 61.3691 128.392 61.5499 128.463C61.7308 128.533 61.8011 128.754 61.7408 128.985L61.7308 128.995Z" fill="#2D3AAF"/>
<path d="M64.7548 129.307L64.6543 129.658C64.6543 129.658 66.9048 131.055 67.7186 130.552C68.1105 130.301 70.0294 130.201 70.2203 129.789C70.4112 129.367 64.7548 129.317 64.7548 129.317V129.307Z" fill="#2D3AAF"/>
<path d="M76.3691 129.379C76.3691 129.379 79.1923 126.797 79.5339 126.997C79.8755 127.198 78.2178 129.057 78.2077 129.559C78.2077 130.062 79.966 131.398 79.8554 131.74C79.7449 132.081 76.3691 130.182 76.3691 130.182L76.1782 129.75L76.3792 129.379H76.3691Z" fill="#2D3AAF"/>
<path d="M56.7358 155.705C56.7358 155.705 59.5096 151.769 59.8941 152.071C60.2785 152.364 61.075 155.797 61.075 155.797L61.9355 155.815C61.9355 155.815 64.6268 153.362 65.1486 153.71C65.6796 154.058 65.5056 155.065 65.5056 155.065C67.8583 155.605 69.9821 156.255 71.6207 158.049L71.4193 159.385L71.5749 160.695C71.5749 160.695 68.2702 162.617 66.0824 162.965C66.0824 162.965 66.3936 164.411 65.8352 164.457C65.2859 164.494 62.0362 162.196 62.0362 162.196L56.9464 156.996L56.745 155.715L56.7358 155.705Z" fill="#2D3AAF"/>
<path d="M56.3242 162.023C56.3242 162.023 59.5648 166.371 59.7662 165.511C60.2239 165.199 60.3979 164.183 59.8028 163.533L58.1276 161.867L56.3242 162.023Z" fill="#2D3AAF"/>
<path d="M48.8725 158.232C48.8725 158.232 57.5965 151.11 72.0236 158.68C72.6919 158.955 73.4334 158.964 74.1108 158.717C74.5044 159.092 74.5136 159.715 74.1383 160.108C74.12 160.127 74.1017 160.145 74.0834 160.163C73.3235 159.98 72.5363 159.971 71.7765 160.118C71.7765 160.118 67.0346 162.763 58.5211 162.598C50.0076 162.434 48.2134 158.69 48.2134 158.69L49.4217 159.321L48.8633 158.232H48.8725Z" fill="#738FE4"/>
<path d="M53.3583 156.646C53.3583 156.646 56.2876 158.725 53.2759 161.16C53.2759 161.16 55.5736 160.446 55.4912 158.752C55.3997 157.058 53.3674 156.646 53.3674 156.646H53.3583Z" fill="#2D3AAF"/>
<path d="M52.3785 158.259C52.287 158.579 52.0307 158.79 51.7743 158.689C51.518 158.589 51.4265 158.277 51.518 157.948C51.6096 157.627 51.8659 157.417 52.113 157.518C52.3602 157.618 52.4701 157.92 52.3785 158.259Z" fill="#2D3AAF"/>
<path d="M56.6349 158.707L56.4976 159.201C56.4976 159.201 59.6741 161.179 60.8184 160.465C61.3768 160.117 64.0773 159.97 64.3519 159.384C64.6266 158.799 56.644 158.716 56.644 158.716L56.6349 158.707Z" fill="#2D3AAF"/>
<path d="M73.03 158.799C73.03 158.799 77.0121 155.156 77.4881 155.44C77.9641 155.723 75.6207 158.341 75.6115 159.046C75.6023 159.751 78.0923 161.646 77.9367 162.122C77.7811 162.598 73.0208 159.925 73.0208 159.925L72.7554 159.312L73.0392 158.79L73.03 158.799Z" fill="#2D3AAF"/>
</g>
<defs>
<clipPath id="clip0_1256_23955">
<rect width="236.389" height="207" fill="white" transform="translate(0.638184)"/>
</clipPath>
</defs>
</svg>
