<svg width="125" height="124" viewBox="0 0 125 124" fill="none" xmlns="http://www.w3.org/2000/svg">
<mask id="mask0_2407_57800" style="mask-type:luminance" maskUnits="userSpaceOnUse" x="0" y="0" width="125" height="124">
<path d="M62.5 124C96.7417 124 124.5 96.2417 124.5 62C124.5 27.7583 96.7417 0 62.5 0C28.2584 0 0.5 27.7583 0.5 62C0.5 96.2417 28.2584 124 62.5 124Z" fill="white"/>
</mask>
<g mask="url(#mask0_2407_57800)">
<path opacity="0.8" d="M136.193 -11.6953H-11.1934V135.691H136.193V-11.6953Z" fill="#E9EFFE"/>
<mask id="mask1_2407_57800" style="mask-type:luminance" maskUnits="userSpaceOnUse" x="-12" y="-12" width="149" height="148">
<path d="M136.193 -11.6953H-11.1934V135.691H136.193V-11.6953Z" fill="white"/>
</mask>
<g mask="url(#mask1_2407_57800)">
<path d="M-45.4512 63.8878C-38.9444 67.032 -30.0612 66.5785 -22.8031 67.0154C-13.215 67.588 -3.79902 65.3043 5.65009 64.0831C15.1124 62.8618 24.2769 63.5535 33.6135 65.4334C39.0546 66.5289 44.446 67.8362 49.8937 68.9019C64.3437 71.7251 78.5621 70.8017 92.6877 66.8334C99.6513 64.8774 107.217 62.8982 114.515 63.388C119.344 63.7124 124.149 65.4069 128.124 68.1639L122.776 157.614L-50.4355 147.258" fill="#B4E6FF"/>
<path d="M149.078 86.085C146.944 84.7016 144.607 83.573 141.565 82.8283C136.022 81.468 130.164 81.2298 124.458 81.2595C109.71 81.3357 95.4451 84.7115 81.005 87.0481C75.1767 87.9914 69.2954 88.7228 63.3744 88.8751C47.723 89.2822 33.1936 84.0926 17.7473 83.3148C2.76777 82.5602 -12.374 84.8406 -27.2344 82.2127C-31.6925 81.425 -36.2532 80.1111 -39.5 77V143.422H156.237V91.5427C153.626 89.5205 151.481 87.6439 149.082 86.0883L149.078 86.085Z" fill="#32A6E0"/>
<path d="M117.656 90.1944C109.756 93.279 101.359 95.3244 92.8335 94.6062C84.46 93.9013 76.4341 90.4923 67.9316 91.1013C60.7496 91.6143 53.8787 94.0998 46.8788 95.5892C42.7351 96.4696 38.5285 97.0885 34.2822 96.8833C21.0236 96.2445 8.59253 91.2204 -3.94118 87.3117C-8.94209 85.7529 -14.0588 84.5481 -19.2947 84.1774C-22.8427 83.9259 -28.4923 83.4957 -31.1367 86.471V155.408H152.014V83.7207C140.079 80.047 128.545 85.9448 117.656 90.1977V90.1944Z" fill="#008BD0"/>
</g>
</g>
</svg>
