<svg width="178" height="116" viewBox="0 0 178 116" fill="none" xmlns="http://www.w3.org/2000/svg">
<circle cx="89.25" cy="54.25" r="54.25" fill="#E1E9FE"/>
<path d="M7.41406 72.5067C7.41406 72.5067 12.9937 66.7544 19.9194 66.1965C26.8508 65.6385 56.4229 63.9704 56.4229 63.9704L63.3774 52L118.115 52.4602L138.565 70.4646L7.41406 72.5067Z" fill="#91B3FA"/>
<path d="M124.546 63.5738L116.263 54.5658L83.3833 54.2725L79.8457 63.7809L124.546 63.5738Z" fill="#EBEBEB"/>
<path opacity="0.3" d="M82.9629 55.3941H115.693L123.016 63.5795L124.661 63.7061L116.262 54.5658L83.3828 54.2725L82.9629 55.3941Z" fill="#2D3AAF"/>
<path opacity="0.4" d="M117.242 57.1201L102.32 63.6374H108.665L118.91 58.9896L117.242 57.1201Z" fill="white"/>
<path opacity="0.4" d="M109.527 55.3936L87.479 63.7803H82.5781L104.649 55.3936H109.527Z" fill="white"/>
<path d="M2.80078 69.1931V57.8555H9.78973V69.1931" stroke="#263238" stroke-width="0.431416" stroke-miterlimit="10"/>
<path d="M39.4902 57.6436V69.4242C39.4902 69.7003 39.9217 69.7003 39.9217 69.4242V57.6436C39.9217 57.3675 39.4902 57.3675 39.4902 57.6436Z" fill="#263238"/>
<path d="M68.9355 57.6436V69.4242C68.9355 69.7003 69.367 69.7003 69.367 69.4242V57.6436C69.367 57.3675 68.9355 57.3675 68.9355 57.6436Z" fill="#263238"/>
<path d="M98.375 57.6436V69.4242C98.375 69.7003 98.8064 69.7003 98.8064 69.4242V57.6436C98.8064 57.3675 98.375 57.3675 98.375 57.6436Z" fill="#263238"/>
<path d="M128.643 56.3604V68.1409C128.643 68.417 129.074 68.417 129.074 68.1409V56.3604C129.074 56.0843 128.643 56.0843 128.643 56.3604Z" fill="#263238"/>
<path d="M158.135 54.3702V66.1507C158.135 66.4268 158.566 66.4268 158.566 66.1507V54.3702C158.566 54.0941 158.135 54.0941 158.135 54.3702Z" fill="#263238"/>
<path d="M174.58 53.2598V65.0404C174.58 65.3165 175.011 65.3165 175.011 65.0404V53.2598C175.011 52.9837 174.58 52.9837 174.58 53.2598Z" fill="#263238"/>
<path d="M9.78906 57.8558C9.78906 57.8558 20.0855 62.3943 39.7063 58.782C39.7063 58.782 55.9333 63.5966 69.1519 59.0178C69.1519 59.0178 86.2073 62.912 98.5975 58.989C98.5975 58.989 117.194 62.101 128.866 57.8558C128.866 57.8558 153.134 60.6629 158.357 56.3603C158.357 56.3603 167.429 58.1205 174.803 54.3643" stroke="#BDBDBD" stroke-width="0.431416" stroke-miterlimit="10"/>
<path d="M9.78906 62.3256C9.78906 62.3256 20.0855 66.8641 39.7063 63.2517C39.7063 63.2517 55.9333 68.0663 69.1519 63.4875C69.1519 63.4875 86.2073 67.3818 98.5975 63.4588C98.5975 63.4588 117.194 66.5707 128.866 62.3256C128.866 62.3256 153.134 65.1327 158.357 60.83C158.357 60.83 167.429 62.5902 174.803 58.834" stroke="#BDBDBD" stroke-width="0.431416" stroke-miterlimit="10"/>
<path d="M161.258 55.7334L165.238 66.1449" stroke="#263238" stroke-width="0.287611" stroke-miterlimit="10"/>
<path d="M0 69.0786C0 69.0786 6.6093 84.8741 11.3894 90.5688C16.1637 96.2635 31.5912 97.9144 36.7337 98.0985C41.8761 98.2826 136.46 98.4666 140.32 98.0985C144.179 97.7304 154.827 95.7113 161.442 84.6901C168.051 73.6688 177.421 64.4883 177.421 64.4883C177.243 64.4883 68.7965 72.0582 0.00575345 69.0786H0Z" fill="#91B3FA"/>
<path d="M2.80263 75.3659L4.24068 78.3858C4.24068 78.3858 144.629 76.0332 169.956 72.7717L172.159 70.1602C172.159 70.1602 85.7899 75.3659 2.79688 75.3659H2.80263Z" fill="white"/>
<path opacity="0.4" d="M0 68.596C0 68.596 1.13319 71.3053 2.80133 74.8832C2.80133 74.8832 135.419 75.0903 172.164 69.6774C175.201 66.1801 177.416 64 177.416 64C177.237 64 68.7908 71.5699 0 68.5903V68.596Z" fill="white"/>
<path opacity="0.3" d="M61.4621 86.8476C62.2427 83.5555 60.2068 80.2539 56.9147 79.4733C53.6226 78.6926 50.3211 80.7286 49.5404 84.0206C48.7598 87.3127 50.7957 90.6143 54.0878 91.3949C57.3798 92.1756 60.6814 90.1396 61.4621 86.8476Z" fill="#2D3AAF"/>
<path opacity="0.3" d="M93.1536 89.7586C95.4787 87.3008 95.3711 83.4234 92.9132 81.0983C90.4554 78.7732 86.578 78.8809 84.2529 81.3387C81.9278 83.7966 82.0355 87.6739 84.4933 89.999C86.9512 92.3241 90.8285 92.2165 93.1536 89.7586Z" fill="#2D3AAF"/>
<path opacity="0.3" d="M122.976 89.7478C125.368 87.3554 125.368 83.4766 122.976 81.0842C120.584 78.6918 116.705 78.6918 114.312 81.0842C111.92 83.4766 111.92 87.3554 114.312 89.7478C116.705 92.1402 120.584 92.1402 122.976 89.7478Z" fill="#2D3AAF"/>
<path d="M25.6289 64.6602V69.4345C25.6289 69.7106 26.0603 69.7106 26.0603 69.4345V64.6602C26.0603 64.3841 25.6289 64.3841 25.6289 64.6602Z" fill="#263238"/>
<path d="M26.7336 69.3477H25.1172V70.4003H26.7336V69.3477Z" fill="#263238"/>
<path d="M25.9213 78.8679C28.3134 78.8679 30.2527 76.9287 30.2527 74.5365C30.2527 72.1443 28.3134 70.2051 25.9213 70.2051C23.5291 70.2051 21.5898 72.1443 21.5898 74.5365C21.5898 76.9287 23.5291 78.8679 25.9213 78.8679Z" fill="#2D3AAF"/>
<path opacity="0.2" d="M22.8891 72.1777C22.8891 72.1777 21.267 74.8928 22.774 76.883C24.4077 79.0344 26.8754 78.2463 26.8754 78.2463C26.8754 78.2463 24.3617 77.7286 23.7404 76.1698C22.8891 74.0184 24.2236 72.6609 24.2236 72.6609L22.8833 72.1835L22.8891 72.1777Z" fill="white"/>
<path d="M22.8906 71.4362C22.8906 71.4362 25.922 73.0928 28.9535 71.4362C28.9535 71.4362 27.826 70.1017 25.922 70.1995C24.0181 70.2972 23.092 71.2234 22.8906 71.4362Z" fill="#263238"/>
<path d="M82.0332 64.6612V69.4355C82.0332 69.7116 82.4646 69.7116 82.4646 69.4355V64.6612C82.4646 64.3851 82.0332 64.3851 82.0332 64.6612Z" fill="#263238"/>
<path d="M83.1379 69.3486H81.5215V70.4013H83.1379V69.3486Z" fill="#263238"/>
<path d="M82.3314 78.8689C84.7236 78.8689 86.6628 76.9296 86.6628 74.5375C86.6628 72.1453 84.7236 70.2061 82.3314 70.2061C79.9392 70.2061 78 72.1453 78 74.5375C78 76.9296 79.9392 78.8689 82.3314 78.8689Z" fill="#2D3AAF"/>
<path opacity="0.2" d="M79.2993 72.1787C79.2993 72.1787 77.6771 74.8938 79.1842 76.884C80.8178 79.0353 83.2855 78.2473 83.2855 78.2473C83.2855 78.2473 80.7718 77.7296 80.1506 76.1707C79.2993 74.0194 80.6338 72.6619 80.6338 72.6619L79.2935 72.1845L79.2993 72.1787Z" fill="white"/>
<path d="M79.3008 71.4372C79.3008 71.4372 82.3322 73.0938 85.3636 71.4372C85.3636 71.4372 84.2362 70.1026 82.3322 70.2004C80.4282 70.2982 79.5021 71.2243 79.3008 71.4372Z" fill="#263238"/>
<path d="M143.525 63.2227V69.4351C143.525 69.7112 143.957 69.7112 143.957 69.4351V63.2227C143.957 62.9466 143.525 62.9466 143.525 63.2227Z" fill="#263238"/>
<path d="M144.63 69.3486H143.014V70.4013H144.63V69.3486Z" fill="#263238"/>
<path d="M143.824 78.8689C146.216 78.8689 148.155 76.9296 148.155 74.5375C148.155 72.1453 146.216 70.2061 143.824 70.2061C141.431 70.2061 139.492 72.1453 139.492 74.5375C139.492 76.9296 141.431 78.8689 143.824 78.8689Z" fill="#2D3AAF"/>
<path opacity="0.2" d="M140.791 72.1787C140.791 72.1787 139.169 74.8938 140.676 76.884C142.31 79.0353 144.778 78.2473 144.778 78.2473C144.778 78.2473 142.264 77.7296 141.643 76.1707C140.791 74.0194 142.126 72.6619 142.126 72.6619L140.786 72.1845L140.791 72.1787Z" fill="white"/>
<path d="M140.793 71.4372C140.793 71.4372 143.824 73.0938 146.856 71.4372C146.856 71.4372 145.728 70.1026 143.824 70.2004C141.92 70.2982 140.994 71.2243 140.793 71.4372Z" fill="#263238"/>
<path opacity="0.3" d="M21.5878 95.8212L152.876 93.6699C152.876 93.6699 147.199 97.9726 140.314 98.0991C133.434 98.2257 34.6108 98.312 34.6108 98.312C34.6108 98.312 22.8935 96.2009 21.582 95.8212H21.5878Z" fill="#2D3AAF"/>
</svg>
