<svg width="159" height="124" viewBox="0 0 159 124" fill="none" xmlns="http://www.w3.org/2000/svg">
<circle cx="68.5605" cy="62" r="62" fill="#E1E9FE"/>
<path d="M21.3125 79.9251C21.3125 79.9251 27.9131 70.515 28.8271 71.2258C29.741 71.9367 31.6366 80.1282 31.6366 80.1282H33.7014C33.7014 80.1282 40.1328 74.3061 41.3852 75.1524C42.6376 75.9986 42.2314 78.3681 42.2314 78.3681C47.8505 79.6543 52.9279 81.2114 56.8206 85.5103L56.3467 88.6921L56.719 91.8401C56.719 91.8401 48.8321 96.4098 43.6193 97.256C43.6193 97.256 44.364 100.709 43.0438 100.81C41.7237 100.912 33.9722 95.4282 33.9722 95.4282L21.8202 83.0054L21.3464 79.959L21.3125 79.9251Z" fill="#2D3AAF"/>
<path d="M20.3301 95.0227C20.3301 95.0227 28.0477 105.415 28.5555 103.35C29.6725 102.605 30.0787 100.168 28.657 98.6446L24.6628 94.6504L20.3639 95.0227H20.3301Z" fill="#2D3AAF"/>
<path d="M2.52547 85.9498C2.52547 85.9498 23.3429 68.9574 57.8016 86.9992C59.3925 87.6423 61.1865 87.6762 62.7775 87.1007C63.7252 88.0146 63.7591 89.504 62.8452 90.418C62.8113 90.4518 62.7436 90.5195 62.7098 90.5534C60.9157 90.1133 59.0202 90.0795 57.1923 90.4518C57.1923 90.4518 45.8866 96.7817 25.5431 96.3755C5.23344 95.9693 0.93457 87.033 0.93457 87.033L3.81177 88.5224L2.49164 85.916L2.52547 85.9498Z" fill="#738FE4"/>
<path d="M13.2558 82.196C13.2558 82.196 20.2627 87.138 13.0527 92.9601C13.0527 92.9601 18.5364 91.2676 18.3333 87.2057C18.1302 83.1437 13.2558 82.1621 13.2558 82.1621V82.196Z" fill="#2D3AAF"/>
<path d="M10.8871 86.0518C10.6501 86.8304 10.0747 87.3381 9.46542 87.0673C8.85613 86.8304 8.61919 86.0857 8.85613 85.3072C9.09308 84.5286 9.66851 84.0209 10.2778 84.2578C10.8871 84.4948 11.124 85.2395 10.921 86.018L10.8871 86.0518Z" fill="#2D3AAF"/>
<path d="M21.0748 87.1035L20.7363 88.2882C20.7363 88.2882 28.3186 92.9933 31.0604 91.3008C32.3805 90.4546 38.8458 90.1161 39.4889 88.7283C40.1321 87.3066 21.0748 87.1374 21.0748 87.1374V87.1035Z" fill="#2D3AAF"/>
<path d="M60.2047 87.3431C60.2047 87.3431 69.7163 78.6438 70.8672 79.3208C72.0181 79.9977 66.433 86.2599 66.3991 87.9524C66.3991 89.6448 72.3228 94.1468 71.9504 95.2977C71.5781 96.4486 60.2047 90.051 60.2047 90.051L59.5615 88.5955L60.2385 87.3431H60.2047Z" fill="#2D3AAF"/>
<path d="M86.6123 39.7296C86.6123 39.7296 95.9573 26.4676 97.2527 27.4854C98.548 28.4723 101.231 40.038 101.231 40.038L104.13 40.0997C104.13 40.0997 113.198 31.8341 114.956 33.0061C116.745 34.1781 116.159 37.5706 116.159 37.5706C124.085 39.3903 131.24 41.5801 136.761 47.625L136.082 52.1279L136.607 56.5383C136.607 56.5383 125.473 63.015 118.102 64.187C118.102 64.187 119.15 69.06 117.269 69.2142C115.418 69.3376 104.47 61.5963 104.47 61.5963L87.3217 44.0782L86.6432 39.7604L86.6123 39.7296Z" fill="#2D3AAF"/>
<path d="M85.2275 61.0126C85.2275 61.0126 96.1455 75.6624 96.824 72.7633C98.3661 71.7147 98.9521 68.2912 96.9474 66.1015L91.3034 60.4883L85.2275 61.0126Z" fill="#2D3AAF"/>
<path d="M60.121 48.242C60.121 48.242 89.5131 24.2472 138.12 49.7533C140.371 50.6785 142.869 50.7094 145.152 49.8766C146.478 51.1411 146.509 53.2384 145.244 54.5646C145.182 54.6263 145.121 54.6879 145.059 54.7496C142.499 54.1328 139.847 54.102 137.287 54.5954C137.287 54.5954 121.311 63.5087 92.6281 62.9535C63.9454 62.3984 57.9004 49.7841 57.9004 49.7841L61.9715 51.9122L60.0902 48.242H60.121Z" fill="#738FE4"/>
<path d="M75.2346 42.9043C75.2346 42.9043 85.1039 49.9054 74.957 58.1092C74.957 58.1092 82.6983 55.7036 82.4207 49.9979C82.1123 44.2922 75.2654 42.9043 75.2654 42.9043H75.2346Z" fill="#2D3AAF"/>
<path d="M71.9337 48.3297C71.6253 49.4092 70.7618 50.1185 69.8982 49.7793C69.0346 49.44 68.7262 48.3914 69.0346 47.2811C69.343 46.2016 70.2066 45.4923 71.0393 45.8315C71.872 46.1708 72.2421 47.1886 71.9337 48.3297Z" fill="#2D3AAF"/>
<path d="M86.2742 49.8457L85.8115 51.5112C85.8115 51.5112 96.5136 58.173 100.369 55.7673C102.25 54.5953 111.348 54.1019 112.274 52.128C113.199 50.1541 86.305 49.8765 86.305 49.8765L86.2742 49.8457Z" fill="#2D3AAF"/>
<path d="M141.511 50.1571C141.511 50.1571 154.927 37.8822 156.531 38.8382C158.135 39.7943 150.239 48.6151 150.209 50.9899C150.178 53.3647 158.567 59.7489 158.042 61.3527C157.518 62.9564 141.48 53.9507 141.48 53.9507L140.586 51.8843L141.542 50.1263L141.511 50.1571Z" fill="#2D3AAF"/>
</svg>
