<svg
      width="214"
      height="182"
      viewBox="0 0 214 182"
      fill="none"
      xmlns="http://www.w3.org/2000/svg"
    >
      <path
        d="M170.25 113C170.25 147.242 196.492 182 162.25 182C128.008 182 0.75 140.742 0.75 106.5C0.75 72.2588 87.0083 66 121.25 66C155.492 66 170.25 78.7587 170.25 113Z"
        fill="#E1E9FE"
      />
      <path
        d="M144.703 116.8C144.703 116.8 135.358 103.538 134.063 104.556C132.767 105.543 130.084 117.108 130.084 117.108L127.185 117.17C127.185 117.17 118.118 108.904 116.36 110.076C114.571 111.248 115.157 114.641 115.157 114.641C107.23 116.461 100.075 118.65 94.5545 124.695L95.2331 129.198L94.7088 133.609C94.7088 133.609 105.843 140.085 113.214 141.257C113.214 141.257 112.165 146.13 114.047 146.285C115.897 146.408 126.846 138.667 126.846 138.667L143.994 121.149L144.672 116.831L144.703 116.8Z"
        fill="#2D3AAF"
      />
      <path
        d="M146.09 138.083C146.09 138.083 135.172 152.733 134.493 149.834C132.951 148.785 132.365 145.362 134.37 143.172L140.014 137.559L146.09 138.083Z"
        fill="#2D3AAF"
      />
      <path
        d="M171.195 125.312C171.195 125.312 141.803 101.318 93.1968 126.824C90.9453 127.749 88.4472 127.78 86.1649 126.947C84.8387 128.211 84.8078 130.309 86.0723 131.635C86.134 131.697 86.1957 131.758 86.2574 131.82C88.8173 131.203 91.4696 131.172 94.0295 131.666C94.0295 131.666 110.006 140.579 138.688 140.024C167.371 139.469 173.416 126.854 173.416 126.854L169.345 128.983L171.226 125.312H171.195Z"
        fill="#738FE4"
      />
      <path
        d="M156.082 119.973C156.082 119.973 146.212 126.974 156.359 135.178C156.359 135.178 148.618 132.772 148.896 127.066C149.204 121.361 156.051 119.973 156.051 119.973H156.082Z"
        fill="#2D3AAF"
      />
      <path
        d="M159.383 125.4C159.691 126.479 160.555 127.189 161.418 126.85C162.282 126.51 162.59 125.462 162.282 124.351C161.973 123.272 161.11 122.563 160.277 122.902C159.444 123.241 159.074 124.259 159.383 125.4Z"
        fill="#2D3AAF"
      />
      <path
        d="M145.041 126.914L145.504 128.58C145.504 128.58 134.802 135.241 130.947 132.836C129.065 131.664 119.967 131.17 119.042 129.196C118.116 127.222 145.01 126.945 145.01 126.945L145.041 126.914Z"
        fill="#2D3AAF"
      />
      <path
        d="M89.8052 127.227C89.8052 127.227 76.3891 114.952 74.7853 115.909C73.1816 116.865 81.077 125.685 81.1079 128.06C81.1387 130.435 72.7498 136.819 73.2741 138.423C73.7984 140.027 89.8361 131.021 89.8361 131.021L90.7305 128.955L89.7744 127.197L89.8052 127.227Z"
        fill="#2D3AAF"
      />
      <g clip-path="url(#clip0_2425_62567)">
        <path
          d="M53.1836 116.254C53.5222 116.257 53.8607 116.066 54.0645 115.737C54.2463 115.445 54.2902 115.116 54.331 114.853C54.3623 114.637 54.2118 114.439 53.9955 114.408C53.7855 114.376 53.5817 114.527 53.5504 114.743C53.5222 114.953 53.4908 115.173 53.3968 115.32C53.3372 115.417 53.2275 115.474 53.1804 115.464C53.0864 115.442 53.008 115.185 53.0425 114.875C53.1899 113.568 53.9485 112.354 54.6194 111.282C54.7354 111.097 54.6789 110.856 54.494 110.74C54.309 110.624 54.0645 110.68 53.9516 110.865C53.2369 112.01 52.4281 113.304 52.2619 114.787C52.193 115.402 52.3967 116.088 53.0018 116.232C53.0645 116.248 53.1272 116.254 53.1867 116.254H53.1836Z"
          fill="#2DD9C3"
        />
        <path
          d="M170.158 75.517C170.22 75.517 170.286 75.4982 170.339 75.4575C170.468 75.3572 170.493 75.1722 170.396 75.0437C170.321 74.9465 162.951 65.2753 160.515 61.1686C150.912 44.9862 144.342 38.8951 144.276 38.8355C144.038 38.6506 122.184 21.697 109.105 14.9444C101.162 10.8439 93.9606 6.9598 88.7034 4.12584C85.2926 2.28566 82.8317 0.95959 81.7565 0.432926C81.606 0.360824 81.4336 0.420387 81.3615 0.567727C81.2894 0.715068 81.3489 0.890622 81.4963 0.962725C82.559 1.48312 85.0199 2.80918 88.4213 4.64624C93.6816 7.48333 100.886 11.3675 108.833 15.4711C121.861 22.1954 143.674 39.1177 143.893 39.2869C143.94 39.3308 150.452 45.3749 160.004 61.4695C162.458 65.6045 169.85 75.3039 169.923 75.401C169.979 75.4763 170.067 75.517 170.155 75.517H170.158Z"
          fill="#A3A7CD"
        />
        <path
          d="M195.955 85.0999C196.055 85.0999 196.156 85.0654 196.234 84.9902C196.391 84.8397 196.397 84.5889 196.246 84.4321C157.571 43.9699 120.04 16.3608 81.5089 0.0311043C81.3114 -0.0535381 81.0763 0.040509 80.9916 0.241143C80.907 0.441777 81.0011 0.67376 81.2017 0.758402C119.632 17.0442 157.079 44.5938 195.676 84.9807C195.751 85.0591 195.855 85.0999 195.955 85.103V85.0999Z"
          fill="#2D3AAF"
        />
        <path
          d="M196.231 82.0439C195.482 82.3825 194.717 82.7336 194.143 83.323C193.573 83.9123 193.231 84.7995 193.513 85.5707C193.639 85.9061 193.868 86.1945 194.093 86.4735C199.451 93.0882 204.808 99.7028 210.166 106.314C210.326 106.512 210.511 106.725 210.762 106.772C211.069 106.832 211.354 106.628 211.602 106.437C213.79 104.728 213.63 103.709 212.1 101.85C210.26 99.6088 208.504 97.2952 206.696 95.0287C205.755 93.8468 196.843 81.7618 196.225 82.0439H196.231Z"
          fill="#2DD9C3"
        />
        <path
          d="M55.0225 107C55.0871 107 55.1537 106.968 55.188 106.909C56.9213 104.061 55.6138 100.524 54.6815 98.6671C54.2679 97.8453 53.7937 97.0333 53.3337 96.2489C52.3873 94.6308 51.4087 92.9575 50.9446 91.1384C50.079 87.7406 51.0556 83.6688 53.6262 79.9655C55.4988 77.2674 57.9725 74.9654 60.3636 72.7403C60.8943 72.2456 61.425 71.7509 61.9496 71.2543C67.0647 66.3961 70.6099 62.0129 73.11 57.4641C76.2154 51.8116 77.5854 45.9286 77.0749 40.4495C76.7016 36.4605 75.3275 32.6114 73.9958 28.8904C72.9284 25.9025 71.8226 22.8122 71.2435 19.6687C70.9752 18.2102 70.735 16.3103 71.2718 14.5444C71.9255 12.3883 73.6346 10.6756 75.1419 9.16588L80.1742 4.12832C81.278 3.02266 82.4382 1.71401 82.2243 0.160958C82.2102 0.0584723 82.1174 -0.0105082 82.0104 0.00131704C81.9055 0.0151132 81.8329 0.107744 81.847 0.21023C82.0387 1.59772 80.943 2.82558 79.9018 3.86817L74.8695 8.90572C73.3299 10.4469 71.5865 12.1931 70.9066 14.438C70.3476 16.2807 70.5938 18.2358 70.8682 19.7337C71.4514 22.9068 72.5611 26.0109 73.6346 29.0126C74.9583 32.7119 76.3263 36.5393 76.6936 40.483C77.198 45.8872 75.8421 51.6993 72.773 57.2867C70.2931 61.802 66.7681 66.1537 61.6812 70.9843C61.1586 71.4809 60.628 71.9756 60.0973 72.4683C57.6901 74.7072 55.2021 77.025 53.3054 79.7547C50.6742 83.5446 49.6774 87.7268 50.5693 91.2251C51.0455 93.0935 52.0362 94.7885 52.9967 96.4302C53.4527 97.2107 53.9229 98.0168 54.3325 98.8288C55.2324 100.616 56.4955 104.02 54.8551 106.716C54.8006 106.805 54.8309 106.919 54.9217 106.97C54.9519 106.988 54.9842 106.996 55.0165 106.996L55.0225 107Z"
          fill="#A3A7CD"
        />
        <path
          d="M52.783 110.481C52.808 109.892 52.8833 109.299 53.0933 108.747C53.3034 108.196 53.6984 107.964 54.0526 107.493C54.7987 106.503 56.5762 107.124 56.9806 108.296C57.385 109.468 56.8301 110.757 56.1185 111.773C55.6765 112.403 54.9993 113.049 54.2532 112.867C53.6701 112.726 53.3472 112.139 53.1842 111.541C53.0933 111.49 53.0118 111.425 52.9522 111.34C52.7767 111.099 52.7704 110.779 52.783 110.484V110.481Z"
          fill="#2DD9C3"
        />
        <path
          d="M144.85 37.9257C144.593 38.3018 144.336 38.6749 144.079 39.0511C143.637 39.6969 142.857 40.4273 142.192 40.0104C142.368 39.2643 142.581 38.4617 143.176 37.9821C143.772 37.5024 144.876 37.6216 145.076 38.3614L144.85 37.9257Z"
          fill="#39363F"
        />
        <path
          d="M117.077 18.8957C117.233 18.9521 117.39 19.0085 117.547 19.0618C117.374 19.6355 117.189 20.2374 116.766 20.6606C116.343 21.087 115.606 21.2657 115.142 20.8863C115.265 20.2813 115.406 19.6418 115.841 19.206C116.277 18.7703 117.114 18.6825 117.459 19.1935L117.077 18.8925V18.8957Z"
          fill="#39363F"
        />
        <path
          d="M81.6746 0.208718C81.9066 0.0551077 82.242 0.196178 82.3925 0.431296C82.5429 0.666414 82.5618 0.95796 82.5743 1.23697C82.5931 1.64764 82.6088 2.08026 82.4207 2.45018C82.2357 2.81696 81.7749 3.08343 81.4018 2.90787C81.1291 2.77934 80.988 2.46585 80.9598 2.1649C80.8909 1.44387 81.3893 0.707168 82.0821 0.500264C82.3204 0.710303 82.5586 0.917207 82.7969 1.12725L81.6746 0.208718Z"
          fill="#39363F"
        />
        <path
          d="M172.954 67.9013C175.024 66.9546 178.782 67.917 180.403 69.3496C181.5 70.3183 182.168 71.7541 182.206 73.2181C182.275 76.0207 179.886 78.5882 177.108 78.9706C174.331 79.3531 171.465 77.701 170.158 75.2213C169.788 74.5191 169.525 73.7354 169.566 72.9422C169.644 71.4124 171.503 68.5659 172.951 67.9013H172.954ZM178.945 75.1304C179.362 75.1523 179.716 74.8326 179.738 74.4156C179.76 73.9987 179.441 73.6444 179.024 73.6225C178.607 73.6006 178.252 73.9203 178.231 74.3373C178.209 74.7542 178.528 75.1084 178.945 75.1304ZM178.409 72.0707C178.71 72.3591 179.19 72.3466 179.478 72.0456C179.767 71.7447 179.754 71.2651 179.453 70.9766C179.152 70.6882 178.673 70.7008 178.384 71.0017C178.096 71.3027 178.108 71.7823 178.409 72.0707ZM175.187 76.6916C175.337 77.0803 175.776 77.2747 176.165 77.1242C176.553 76.9737 176.748 76.5348 176.597 76.1461C176.447 75.7574 176.008 75.563 175.619 75.7135C175.23 75.864 175.036 76.3028 175.187 76.6916ZM175.121 69.8669C175.271 70.2556 175.71 70.45 176.099 70.2995C176.488 70.149 176.682 69.7101 176.531 69.3214C176.381 68.9327 175.942 68.7383 175.553 68.8888C175.165 69.0393 174.97 69.4782 175.121 69.8669ZM172.265 75.0363C172.566 75.3248 173.045 75.3122 173.334 75.0113C173.622 74.7103 173.61 74.2307 173.309 73.9423C173.008 73.6538 172.528 73.6664 172.24 73.9673C171.951 74.2683 171.964 74.7479 172.265 75.0363ZM172.694 72.3936C173.111 72.4156 173.465 72.0958 173.487 71.6789C173.509 71.2619 173.19 70.9077 172.773 70.8857C172.356 70.8638 172.001 71.1835 171.98 71.6005C171.958 72.0174 172.277 72.3717 172.694 72.3936Z"
          fill="#2DD9C3"
        />
      </g>
      <defs>
        <clipPath id="clip0_2425_62567">
          <rect
            width="181"
            height="120"
            fill="white"
            transform="matrix(-1 0 0 1 213.25 0)"
          />
        </clipPath>
      </defs>
    </svg>