<svg width="26" height="26" viewBox="0 0 26 26" fill="none" xmlns="http://www.w3.org/2000/svg">
<g id="Facebook logo 2019" clip-path="url(#clip0_2320_29153)">
<path id="Vector" d="M26 12.75C26 5.70837 20.2916 0 13.25 0C6.20837 0 0.5 5.70837 0.5 12.75C0.5 19.1139 5.16249 24.3886 11.2578 25.3451V16.4355H8.02051V12.75H11.2578V9.94102C11.2578 6.74554 13.1613 4.98047 16.0737 4.98047C17.4686 4.98047 18.9277 5.22949 18.9277 5.22949V8.36719H17.32C15.7361 8.36719 15.2422 9.35 15.2422 10.3583V12.75H18.7783L18.213 16.4355H15.2422V25.3451C21.3375 24.3886 26 19.1139 26 12.75Z" fill="#1877F2"/>
<path id="Vector_2" d="M18.213 16.4355L18.7783 12.75H15.2422V10.3583C15.2422 9.35 15.7361 8.36719 17.32 8.36719H18.9277V5.22949C18.9277 5.22949 17.4686 4.98047 16.0737 4.98047C13.1613 4.98047 11.2578 6.74554 11.2578 9.94102V12.75H8.02051V16.4355H11.2578V25.3451C12.5779 25.5516 13.9221 25.5516 15.2422 25.3451V16.4355H18.213Z" fill="white"/>
</g>
<defs>
<clipPath id="clip0_2320_29153">
<rect width="25.5" height="25.5" fill="white" transform="translate(0.5)"/>
</clipPath>
</defs>
</svg>
