<svg width="150" height="110" viewBox="0 0 150 110" fill="none" xmlns="http://www.w3.org/2000/svg">
<path d="M135.131 55.1229C135.131 82.28 155.935 109.847 128.788 109.847C101.641 109.847 0.75 77.1249 0.75 49.9677C0.75 22.8105 69.1362 17.8467 96.2832 17.8467C123.43 17.8467 135.131 27.9657 135.131 55.1229Z" fill="#E1E9FE"/>
<path d="M78.6291 1.16113C66.4262 16.3576 58.5852 47.0973 56.7188 61.995L118.467 50.4123C107.052 32.6516 95.8005 13.458 78.6291 1.16113Z" fill="#91B3FA"/>
<g opacity="0.3">
<path opacity="0.6" d="M78.8224 1.13735C79.1823 3.53142 79.5063 5.93054 79.848 8.3265L80.8143 15.5232C81.4604 20.3208 82.058 25.1241 82.6549 29.928C83.2449 34.7325 83.8205 39.539 84.3588 44.3492L85.1536 51.5667C85.397 53.9753 85.6592 56.3813 85.8817 58.7924L85.4902 58.8403C85.1246 56.4469 84.7988 54.0484 84.4533 51.6524L83.4832 44.4563C82.8447 39.6575 82.2439 34.8548 81.6571 30.0497C81.0772 25.2439 80.4985 20.4381 79.9677 15.6266L79.1691 8.40908C78.9226 6.00114 78.6579 3.59509 78.4297 1.18463L78.8211 1.13672L78.8224 1.13735Z" fill="#5254CF"/>
</g>
<path d="M149.245 41.6543L128.948 77.8793L55.6585 75.2747L49.0625 60.817L55.8779 59.5134L66.4678 57.4887L71.3164 56.5608L72.272 56.3768L90.2421 52.9401L98.3131 51.397L115.133 48.1797L120.106 47.2291L149.245 41.6543Z" fill="#91B3FA"/>
<path d="M125.312 14.2695L125.604 27.2308L129.449 27.0417C129.645 24.1358 129 20.418 127.968 16.3257L125.312 14.2695Z" fill="#51DBC9"/>
<path d="M128.115 42.4404L127.266 45.8367L132.644 44.8489L130.242 43.5977L130.573 42.1807L128.115 42.4404Z" fill="#CBCBFF"/>
<path d="M130.205 43.5414L129.461 44.084L129.535 44.1858L130.279 43.6432L130.205 43.5414Z" fill="#1B1B43"/>
<path d="M130.869 43.8871L130.125 44.4297L130.199 44.5316L130.943 43.9889L130.869 43.8871Z" fill="#1B1B43"/>
<path d="M128.301 45.6456L128.176 45.6292C128.218 45.3115 128.176 45.0726 128.054 44.9181C127.954 44.7902 127.79 44.7139 127.57 44.6918L127.584 44.5664C127.839 44.5929 128.03 44.6849 128.153 44.84C128.298 45.0222 128.348 45.2932 128.302 45.6456H128.301Z" fill="#1B1B43"/>
<path d="M135.173 32.8522L131.546 42.644L127.086 43.101L130.352 32.2836L127.813 32.0043L123.555 31.5372L123.771 29.8384L124.272 25.9082L127.203 26.3425L132.322 27.1658C134.464 27.5093 137.01 29.2421 135.173 32.8522H135.173Z" fill="#5254CF"/>
<path d="M125.919 31.785L123.555 31.5367L123.771 29.8379C124.532 29.8889 125.804 30.6769 125.919 31.785Z" fill="#1B1B43"/>
<path d="M125.292 25.624C125.017 30.4197 122.394 41.8189 120.105 47.2299L115.133 48.1804C117.122 41.4306 118.643 34.5396 118.819 27.2427L121.666 25.8131L124.031 25.0566L125.292 25.624Z" fill="#5254CF"/>
<path d="M124.368 13.1241L124.535 13.9208L124.802 15.191L122.953 16.0357L122.523 15.0794C122.67 14.3923 122.775 13.6681 122.731 12.8184L123.299 12.9243L124.367 13.1234L124.368 13.1241Z" fill="#D28572"/>
<path d="M124.371 13.123L124.538 13.9198C123.966 13.9545 123.419 13.6437 122.992 13.1129L123.302 12.9238L124.371 13.123Z" fill="#1B1B43"/>
<path d="M124.519 10.4141C124.519 10.4141 124.538 11.0652 125.054 12.1324C125.744 13.5595 123.411 13.8804 122.58 12.8296L122.055 11.8046L122.548 10.6126L124.519 10.4141Z" fill="#D28572"/>
<path d="M122.692 12.5368C122.505 11.9934 122.463 11.4917 122.73 11.0775C124.121 11.2036 125.032 10.867 125.087 9.70652C125.087 9.70652 124.605 9.99144 124.134 9.84457C122.508 9.33714 121.688 10.1749 121.862 11.0164C121.137 11.4961 121.647 12.4851 122.128 12.6667L122.693 12.5368H122.692Z" fill="#1B1B43"/>
<path d="M122.898 12.572C122.957 12.8179 122.792 13.0694 122.528 13.133C122.264 13.1967 122.002 13.0492 121.942 12.8034C121.882 12.5575 122.048 12.306 122.312 12.2423C122.575 12.1787 122.838 12.3262 122.898 12.572Z" fill="#D28572"/>
<path d="M122.008 14.0568L123.14 13.9414L125.317 14.2698L124.674 15.2859L122.373 15.076L122.008 14.0568Z" fill="#D28572"/>
<path d="M115.125 25.5398C115.125 25.5398 115.624 26.6083 116.081 27.0167C116.538 27.4252 116.826 27.3111 116.891 27.226C116.956 27.1415 117.148 27.1825 117.251 27.0438C117.353 26.9052 117.696 26.8282 117.73 26.716C117.759 26.6228 118.183 26.6322 117.807 25.7358C117.643 25.3482 117.377 25.0109 117.043 24.7563L116.746 24.5312L115.125 25.5392V25.5398Z" fill="#D28572"/>
<path d="M116.868 27.239C116.755 27.1135 116.662 26.9761 116.573 26.8362C116.529 26.7656 116.487 26.6943 116.448 26.6206C116.409 26.5475 116.373 26.4725 116.344 26.393L116.385 26.3672C116.443 26.429 116.494 26.4951 116.542 26.5626C116.591 26.63 116.636 26.6994 116.68 26.77C116.765 26.9118 116.847 27.0568 116.909 27.2131L116.868 27.239Z" fill="#925D4F"/>
<path d="M117.27 27.0533C117.165 26.9203 117.08 26.7766 117 26.6303C116.96 26.5572 116.922 26.4822 116.888 26.4059C116.854 26.3296 116.822 26.2521 116.797 26.1708L116.84 26.1475C116.895 26.213 116.941 26.2824 116.985 26.3536C117.029 26.4242 117.071 26.4973 117.11 26.5704C117.188 26.7186 117.26 26.8686 117.313 27.03L117.27 27.0533Z" fill="#925D4F"/>
<path d="M136.961 10.2764L137.414 9.51743C137.617 9.17641 137.913 8.90032 138.268 8.72193L138.628 8.54102L138.758 9.33778L136.961 10.277V10.2764Z" fill="#925D4F"/>
<path d="M137.438 10.9968L137.611 11.4134C137.951 11.2035 138.266 10.964 138.226 10.3027C138.192 10.3027 137.438 10.9961 137.438 10.9961V10.9968Z" fill="#925D4F"/>
<path d="M139.623 4.69227L139.391 4.64551L138.011 11.5011L138.243 11.5479L139.623 4.69227Z" fill="#1B1B43"/>
<path d="M139.056 9.57609C139.103 9.68829 139.037 9.80932 138.897 9.88748C138.757 9.96564 138.601 9.95304 138.548 9.85911C138.496 9.76519 138.568 9.62588 138.708 9.54772C138.848 9.46956 138.985 9.40211 139.056 9.57609Z" fill="#925D4F"/>
<path d="M138.752 10.2948C138.798 10.407 138.732 10.5281 138.592 10.6062C138.452 10.6844 138.296 10.6718 138.244 10.5779C138.191 10.4839 138.263 10.3446 138.403 10.2665C138.544 10.1883 138.68 10.1209 138.752 10.2948Z" fill="#925D4F"/>
<path d="M138.951 9.93385C138.997 10.0467 138.922 10.1728 138.769 10.2572C138.616 10.3417 138.45 10.3348 138.399 10.2415C138.346 10.1475 138.428 10.0026 138.581 9.91809C138.733 9.833 138.882 9.75861 138.951 9.93385Z" fill="#925D4F"/>
<path d="M136.963 10.2773L136.195 11.2544L136.647 12.3449L137.614 11.4145L137.783 10.3719L136.963 10.2773Z" fill="#D28572"/>
<path d="M136.961 10.277L137.277 9.97442C137.746 9.52435 138.3 9.16883 138.91 8.94443C139.034 8.89841 139.13 8.87005 139.163 8.87572C139.294 8.89841 139.051 9.52561 138.457 9.73047C138.441 10.4295 137.966 10.7359 137.439 10.9975L136.962 10.277H136.961Z" fill="#D28572"/>
<path d="M125.318 14.27C124.297 15.0719 122.86 15.034 122.009 14.0576L120.441 15.8541L120.031 27.3895C122.128 26.5033 123.721 26.3343 126.492 26.2234C126.65 23.765 126.177 17.9343 125.319 14.2707L125.318 14.27Z" fill="white"/>
<path d="M122.005 14.0566L120.038 14.6378C119.01 14.9417 118.045 15.4277 117.189 16.0731L112.535 19.5861C111.649 20.3047 111.526 21.612 112.264 22.4832L115.269 26.0648L116.897 24.3522L115.373 21.4002L118.651 19.0049L122.005 14.0566Z" fill="#51DBC9"/>
<path d="M125.312 14.2706L128.147 14.4673L132.097 14.6772L136.32 10.4746L137.875 12.2396L133.897 16.6829C133.339 17.3057 132.546 17.665 131.709 17.6732L128.693 17.7022L125.313 14.2693L125.312 14.2706Z" fill="#51DBC9"/>
<path d="M118.65 19.0049C118.524 21.8591 117.851 25.1193 116.633 29.0067L121.066 30.0991C123.083 24.4889 123.714 19.3831 122.003 14.0566L118.649 19.0049H118.65Z" fill="#51DBC9"/>
<path d="M129.456 26.7032C129.49 22.57 129.364 19.5935 128.692 17.7024L125.312 14.2695C127.831 16.8199 128.721 20.7357 129.457 26.7032H129.456Z" fill="#51DBC9"/>
<path d="M140.188 0L148.005 0.756421L139.18 5.67316L140.188 0Z" fill="#2B9251"/>
<path d="M118.652 19.0051L119.303 18.5166C119.23 18.9749 118.955 19.4111 118.609 19.8403L118.652 19.0051Z" fill="#1B1B43"/>
<path d="M106.29 42.3519L105.927 42.5807L105.359 43.6101L106.095 44.5764C106.918 44.2221 108.026 43.1852 108.364 42.2441L107.797 42.0342L106.29 42.3519H106.29Z" fill="#FFBC96"/>
<path d="M107.124 44.5772L102.805 47.676C102.102 48.1475 101.302 48.1072 100.4 47.328L99.8071 46.7582L97.669 44.6957L95.7779 42.8752L94.3281 38.4199L95.7628 38.9772C97.0386 39.3226 98.027 40.0336 99.2852 41.4456L102.271 44.7033L105.927 42.5802L107.124 44.5772Z" fill="#2BADEE"/>
<path d="M99.8172 46.7581L97.6753 44.6956L97.4219 41.8867C98.3844 42.9861 99.5443 45.4343 99.8172 46.7581Z" fill="#1B1B43"/>
<path d="M98.3208 51.3975L90.2498 52.9406L88.6562 43.0466L90.5599 39.3275L92.4283 37.9609L94.3697 38.319C94.6471 38.3719 95.1186 39.0199 95.3052 39.209C95.8952 39.8041 96.5079 40.4294 96.9693 41.1278C99.047 44.2821 98.762 47.8474 98.3208 51.3975Z" fill="#2BADEE"/>
<path d="M90.9539 34.0455C91.5541 34.0455 92.0406 33.559 92.0406 32.9588C92.0406 32.3586 91.5541 31.8721 90.9539 31.8721C90.3537 31.8721 89.8672 32.3586 89.8672 32.9588C89.8672 33.559 90.3537 34.0455 90.9539 34.0455Z" fill="#BE443D"/>
<path d="M95.5189 33.7102C95.6891 34.6425 94.6686 35.4487 93.563 35.6504C92.4567 35.8521 91.5729 35.3157 91.3838 34.3878C91.1418 33.2015 91.8408 32.4766 92.9471 32.2749C94.0534 32.0732 95.3494 32.7785 95.5196 33.7102H95.5189Z" fill="#FE5B52"/>
<path d="M92.9651 35.3092C93.0224 35.6231 92.8144 35.9238 92.5011 35.9805C92.1872 36.0379 91.8866 35.8299 91.8298 35.5166C91.7725 35.2027 91.9805 34.902 92.2938 34.8453C92.607 34.7886 92.9084 34.9959 92.9651 35.3092Z" fill="#FFBC96"/>
<path d="M94.3738 36.2116C94.3732 36.2437 94.3984 36.6868 94.4236 37.1647C94.4564 37.7471 94.4917 38.3831 94.4917 38.3831L92.2344 37.957C92.4878 37.4363 92.7689 36.4492 92.651 35.73L92.7689 35.457L93.4037 35.7552L94.3738 36.2116Z" fill="#FFBC96"/>
<path d="M94.3727 36.2122C94.3721 36.2444 94.3796 36.4537 94.4048 36.9321C93.6415 36.6705 93.3465 36.3629 92.9141 35.8183L93.4026 35.7559L94.3727 36.2122Z" fill="#1B1B43"/>
<path d="M92.5139 35.5742C94.2385 37.1388 95.7299 36.3527 95.3511 35.0807C95.0825 34.1793 95.0498 33.3926 95.0498 33.3926L92.5 33.5086L92.5139 35.5736V35.5742Z" fill="#FFBC96"/>
<path d="M92.7856 35.2153C93.0516 34.9026 93.2609 34.2672 93.194 33.6716C93.4594 33.5184 94.6678 33.1931 95.3032 34.2609L95.1696 33.3003L94.0192 32.9082L91.9453 33.5663L92.4376 34.7507L92.6198 35.2455C92.662 35.3609 92.7062 35.3086 92.7856 35.2153Z" fill="#FE5B52"/>
<path d="M106.289 42.3516L106.977 40.4788C107.271 39.7647 107.628 40.2267 107.733 40.1637L108.746 40.424C108.746 40.424 108.611 42.3592 108.019 42.895L106.289 42.351V42.3516Z" fill="#D28572"/>
<path d="M92.4355 36.8462L94.8157 37.6235C95.1359 37.7281 95.3269 38.0893 95.2525 38.4486L94.8951 40.1739L91.2031 39.4698L91.6412 37.3593C91.7225 36.9673 92.0869 36.7321 92.4361 36.8462H92.4355Z" fill="#2BADEE"/>
<path d="M112.404 38.5226L111.875 37.7197L81.5492 57.6855L82.0778 58.4884L112.404 38.5226Z" fill="#1B1B43"/>
<path d="M84.3504 57.4945L83.3594 55.9893L81.2976 57.3467L82.2887 58.8519L84.3504 57.4945Z" fill="#BE443D"/>
<path d="M83.2346 58.2575L82.2141 56.7068C81.7955 56.0708 81.0353 55.7487 80.2871 55.8905L78.8971 56.154C78.7648 56.1792 78.6393 56.2303 78.5265 56.304L70.615 61.512C70.1447 61.8215 70.0149 62.4537 70.3244 62.9233L72.8237 66.7199C73.1332 67.1902 73.7655 67.32 74.2351 67.0112L82.1466 61.8032C82.2588 61.7294 82.3559 61.6336 82.4309 61.5221L83.222 60.3502C83.6481 59.7186 83.6531 58.8935 83.234 58.2568L83.2346 58.2575Z" fill="#FE5B52"/>
<path d="M89.7688 42.1816C89.7039 43.3346 89.4858 44.3299 88.9702 45.0182L88.6562 43.0477L89.7688 42.1816Z" fill="#1B1B43"/>
<path d="M86.4922 53.1282C86.4922 53.1282 86.4979 54.3202 86.917 54.8327C87.3362 55.3451 87.6634 55.2714 87.7466 55.192C87.8298 55.1125 88.029 55.1888 88.1614 55.0577C88.2937 54.9266 88.6726 54.902 88.7274 54.7885C88.7829 54.6751 89.4208 54.8144 88.7306 53.0078L88.0435 52.293L86.4922 53.1282Z" fill="#FFBC96"/>
<path d="M92.2917 37.8086L88.8821 38.8859C87.7721 39.2363 86.8272 39.9663 86.2183 40.9421L83.5469 45.2247C82.8604 46.3253 82.8175 47.6994 83.4334 48.8391L85.9334 53.6001L88.5506 52.446L86.2183 46.9619L89.769 42.182L92.2911 37.8092L92.2917 37.8086Z" fill="#2BADEE"/>
<path d="M107.296 42.735C107.541 42.4406 107.698 42.1494 107.56 41.8689C107.56 41.8689 108.266 41.6407 108.231 41.4737C108.21 41.3741 107.913 41.3823 107.676 41.4056C107.499 41.4226 107.327 41.4699 107.168 41.5449C106.737 41.7485 106.435 42.1318 106.353 42.5774L106.305 42.8415L107.295 42.735H107.296Z" fill="#FFBC96"/>
<path d="M107.667 40.463C107.667 40.7303 107.643 40.9011 107.499 40.9011C107.355 40.9011 107.249 40.7139 107.147 40.463C107.064 40.2556 107.125 40.0085 107.265 39.9782C107.55 39.9165 107.667 40.086 107.667 40.463Z" fill="#FFBC96"/>
<path d="M108.069 40.3069C108.069 40.5099 108.047 40.6391 107.91 40.6391C107.773 40.6391 107.672 40.4973 107.575 40.3069C107.496 40.1493 107.554 39.9627 107.687 39.9401C107.958 39.8934 108.069 40.0214 108.069 40.3069Z" fill="#FFBC96"/>
<path d="M108.53 40.1536C108.53 40.3566 108.508 40.4858 108.371 40.4858C108.234 40.4858 108.133 40.344 108.036 40.1536C107.957 39.996 108.015 39.8094 108.148 39.7867C108.419 39.7401 108.53 39.868 108.53 40.1536Z" fill="#FFBC96"/>
<path d="M118.678 77.1401C119.445 77.6078 121.609 77.4326 122.361 77.5321C123.725 77.7137 125.076 77.9665 126.423 78.2476C128.983 78.7815 131.526 79.3614 134.135 79.6035C135.599 78.646 137.107 76.7656 138.084 74.6029C138.429 73.8396 138.72 72.9898 138.697 72.3229C138.647 70.9475 137.334 71.1814 136.265 72.0809C135.194 72.9842 134.153 74.3596 133.088 74.9799C134.029 73.3302 135.079 71.1398 134.664 69.9717C134.199 68.6644 132.834 69.9868 132.32 70.5353C131.843 71.0446 129.835 73.4216 130.046 74.0942C129.636 72.7919 127.597 66.9794 125.53 69.0483C124.382 70.1968 123.929 72.7018 123.844 74.2669C123.95 72.2914 120.861 69.7933 118.988 70.7407C117.906 71.2879 117.573 72.7087 117.774 73.8188C117.916 74.5972 118.057 75.3757 118.199 76.1536C118.252 76.4479 118.311 76.7556 118.499 76.9894C118.544 77.0461 118.605 77.0966 118.677 77.1407L118.678 77.1401Z" fill="white"/>
<path d="M141.991 73.3476C141.327 73.9093 140.273 75.9119 140.273 75.9119C140.273 75.9119 142.422 75.204 143.086 74.6417C143.75 74.0801 144.042 73.335 143.74 72.9776C143.438 72.6202 142.655 72.786 141.991 73.3476H141.991Z" fill="white"/>
<path d="M51.0371 37.5017L50.8575 36.3192C50.8247 36.1055 50.826 35.888 50.8569 35.6743C50.918 35.2495 50.9829 34.5227 50.7245 34.4559C50.5581 34.413 50.207 35.7519 50.207 35.7519C50.207 35.7519 50.0601 33.0621 49.6094 33.2185C49.3749 33.2998 49.5344 35.6258 49.5344 35.6258C49.5344 35.6258 48.2359 35.7071 48.1816 36.5366C48.1274 37.3662 49.2154 38.3451 49.2154 38.3451L51.0378 37.5017H51.0371Z" fill="#FFBC96"/>
<path d="M49.6904 37.0397C49.6715 37.0397 49.652 37.0353 49.6318 37.0265C49.403 36.9237 49.1363 36.1932 49.125 36.1616L49.1843 36.1402C49.258 36.3451 49.4874 36.8922 49.6576 36.9685C49.6772 36.9773 49.6948 36.9786 49.7106 36.9723C49.8902 36.9004 49.7434 36.3016 49.6085 35.941L49.6677 35.9189C49.7056 36.0204 50.0296 36.9124 49.7339 37.0309C49.72 37.0366 49.7056 37.0391 49.6904 37.0391V37.0397Z" fill="#D28572"/>
<path d="M49.3301 37.1015C49.1548 37.1015 48.8037 36.5424 48.7344 36.4295L48.788 36.3968C48.9531 36.6666 49.2317 37.0435 49.3307 37.0385C49.3351 37.0385 49.3439 37.0378 49.3521 37.0196C49.4328 36.85 49.2431 36.3961 49.163 36.2354L49.2197 36.207C49.2317 36.2316 49.5192 36.8147 49.4089 37.046C49.388 37.0889 49.3565 37.0996 49.3338 37.1009C49.3326 37.1009 49.3313 37.1009 49.3294 37.1009L49.3301 37.1015Z" fill="#D28572"/>
<path d="M48.9118 37.2368C48.7441 37.2368 48.4617 36.8333 48.4062 36.7514L48.4586 36.7161C48.5815 36.897 48.8166 37.1813 48.9149 37.1737C48.9244 37.1731 48.937 37.1693 48.9477 37.146C49.0442 36.943 48.8387 36.6014 48.8361 36.5982L48.8897 36.5654C48.8992 36.5806 49.1154 36.9399 49.0045 37.1731C48.9811 37.2223 48.9452 37.2349 48.9194 37.2368C48.9168 37.2368 48.9143 37.2368 48.9118 37.2368Z" fill="#D28572"/>
<path d="M72.2757 56.3773L71.3201 56.5614L69.8678 55.6486L68.8592 53.0844L68.4532 52.0531C67.9187 54.0324 67.1925 55.9462 66.4714 57.4893L55.8815 59.5139L57.8785 50.5882C54.1241 48.7929 50.6118 44.146 48.7812 38.3568L51.3657 37.1592L53.3954 40.9009C54.2149 42.4087 55.2915 43.7577 56.58 44.8923L56.8371 45.1193C58.0222 46.1606 59.6435 46.5489 61.1714 46.1581L63.9828 45.4369H65.4553L67.3035 46.211C68.5793 46.743 69.6358 47.6886 70.3065 48.8963C71.547 51.1202 73.0372 54.0728 72.2757 56.3773Z" fill="#2D3AAF"/>
<path d="M65.687 44.1152V46.155C65.687 46.7066 65.2401 47.1542 64.6866 47.1542C64.1332 47.1542 63.6875 46.7072 63.6875 46.155V44.1152H65.687Z" fill="#FFBC96"/>
<path d="M65.6892 44.1152V45.9363C64.9832 45.6627 64.4941 45.2417 64.2734 44.646L64.4796 44.1152H65.6892Z" fill="#1B1B43"/>
<path d="M66.5333 41.8311C66.5037 42.7583 66.7067 43.521 66.7855 44.1217C66.8863 44.892 66.1936 45.5337 65.4378 45.356C64.682 45.1782 64.3214 44.7874 63.8594 44.1236L63.8795 42.1065L66.534 41.8317L66.5333 41.8311Z" fill="#FFBC96"/>
<path d="M67.1548 41.5482C66.672 42.6646 65.8229 42.6564 64.3895 42.4042C64.1581 42.7371 64.1562 43.1537 64.2382 43.6013L64.0724 44.1163H63.6898V44.7838C62.2595 44.4157 62.0427 42.5896 63.0222 42.1332C63.1924 41.1183 64.3977 40.5441 65.596 41.1473C66.7911 41.7518 67.1548 41.5495 67.1548 41.5495V41.5482Z" fill="#1B1B43"/>
<path d="M64.1369 44.3519L63.6875 44.7812V44.2832L64.1369 44.3519Z" fill="#D28572"/>
<path d="M63.909 44.5045C64.2902 44.5045 64.5992 44.1955 64.5992 43.8143C64.5992 43.4331 64.2902 43.124 63.909 43.124C63.5278 43.124 63.2188 43.4331 63.2188 43.8143C63.2188 44.1955 63.5278 44.5045 63.909 44.5045Z" fill="#FFBC96"/>
<path d="M57.8831 50.5898C58.3981 50.8073 58.7183 50.8754 59.1073 50.8754L57.5156 52.2464L57.8831 50.5898Z" fill="#1B1B43"/>
<path d="M64.822 48.0604C64.6682 48.0604 64.5125 48.0459 64.3561 48.0169C63.6728 47.8896 63.1433 47.4994 63.0078 47.0229L63.0683 47.0052C63.1957 47.4515 63.7182 47.8335 64.3681 47.9545C65.2897 48.1266 66.1892 47.7679 66.7742 46.9951L66.8246 47.0329C66.3241 47.6948 65.5986 48.0604 64.822 48.0604Z" fill="#1B1B43"/>
<path d="M68.8591 53.0848L68.4531 52.0536L68.7532 51.0273C68.9927 51.8493 68.9826 52.4772 68.8591 53.0848Z" fill="#1B1B43"/>
<path d="M49.3995 38.9684L49.3906 38.906C50.1502 38.797 50.8158 38.4541 51.4254 37.8584L51.4695 37.9032C50.8499 38.5083 50.1729 38.8569 49.3995 38.9684Z" fill="#1B1B43"/>
<g opacity="0.5">
<path d="M72.2742 53.4253C71.5524 53.3055 71.0267 52.7042 70.9422 51.9395C70.8899 51.4636 71.004 51.0243 71.2164 50.6284C71.1717 50.537 71.1269 50.4456 71.0815 50.3555C70.7329 50.9285 70.5665 51.5922 70.743 52.2799C70.941 53.0534 71.5669 53.6112 72.3347 53.6919C72.3164 53.6037 72.2962 53.5148 72.2748 53.4259L72.2742 53.4253Z" fill="#5254CF"/>
<path d="M65.9806 55.8572C65.7745 56.519 65.9296 57.2118 66.3733 57.6909C66.413 57.6077 66.4527 57.5251 66.4925 57.44C66.1048 56.9578 66.0411 56.2795 66.3292 55.6725C66.6078 55.0837 67.1108 54.7106 67.6901 54.4874C67.7254 54.3872 67.7601 54.2851 67.7954 54.1836C66.9734 54.4528 66.2504 54.9917 65.9812 55.8565L65.9806 55.8572Z" fill="#5254CF"/>
<path d="M58.0966 55.9838C58.2542 55.0698 57.8325 54.2434 57.1984 53.625L57.1322 53.9194C57.5816 54.394 57.8905 54.9777 57.8697 55.661C57.8439 56.529 57.2413 57.2344 56.3777 57.293L56.3203 57.5489C57.2236 57.5294 57.9428 56.8719 58.096 55.9838H58.0966Z" fill="#5254CF"/>
<path d="M58.9156 46.9892C59.6127 47.0762 60.2746 46.7932 60.6667 46.258C60.5431 46.2756 60.4202 46.2901 60.2967 46.2983C59.8876 46.6961 59.2767 46.843 58.6729 46.6791C57.9852 46.4925 57.5048 45.9958 57.1802 45.395C57.0617 45.3087 56.9451 45.2185 56.8335 45.1208L56.7686 45.0635C56.7642 45.0855 56.7635 45.1089 56.7749 45.1347C57.1588 46.0569 57.8774 46.8593 58.9162 46.9892H58.9156Z" fill="#5254CF"/>
<path d="M53.2715 46.6456C53.0036 45.0262 52.4174 43.0772 50.5938 42.7412C50.6429 42.8351 50.6921 42.9291 50.7419 43.0223C52.2226 43.4043 52.7306 45.0628 52.9834 46.4552C53.0654 46.5586 53.1479 46.6614 53.2305 46.7616C53.2601 46.7339 53.279 46.6948 53.2708 46.645L53.2715 46.6456Z" fill="#5254CF"/>
</g>
<path d="M78.1976 43.0941L77.375 42.5967L58.5881 73.6666L59.4106 74.1639L78.1976 43.0941Z" fill="#1B1B43"/>
<path d="M61.0344 72.288L59.4922 71.3555L58.2149 73.4678L59.7571 74.4003L61.0344 72.288Z" fill="#BE443D"/>
<path d="M60.3648 73.4544L58.7757 72.4937C58.1239 72.0997 57.2994 72.1363 56.6854 72.5864L55.5445 73.4222C55.4361 73.5016 55.344 73.6019 55.2747 73.7172L50.3737 81.8223C50.0825 82.3039 50.2369 82.9304 50.7185 83.2217L54.6078 85.5735C55.0894 85.8647 55.7159 85.7103 56.0072 85.2287L60.9081 77.1236C60.9775 77.0083 61.0241 76.881 61.0437 76.748L61.2536 75.3492C61.3664 74.5959 61.0159 73.849 60.3642 73.455L60.3648 73.4544Z" fill="#FE5B52"/>
<path d="M71.7732 56.0113C71.9535 55.72 71.9377 55.3532 71.7272 55.0897C71.4801 54.7808 71.1246 54.4095 70.7646 54.286C70.111 54.0616 69.8525 54.3011 69.8191 54.4152C69.7857 54.5293 69.5638 54.569 69.5128 54.7543C69.4623 54.9397 69.1308 55.1641 69.1409 55.2933C69.1503 55.4162 68.5553 55.6217 69.8796 56.6933C70.0076 56.7967 70.1589 56.8736 70.3202 56.9152L70.474 56.9549C70.8384 57.0488 71.2273 56.8931 71.4246 56.5742L71.7732 56.0106V56.0113Z" fill="#FFBC96"/>
<path d="M62.6551 87.5388C57.5064 86.4319 52.0753 85.1813 46.329 85.7536C45.3658 84.8232 44.7557 83.3532 44.7657 81.8606C44.7683 81.3336 44.859 80.7713 45.1667 80.3956C45.802 79.6216 46.9342 80.0981 47.5519 80.8924C48.1696 81.6891 48.5579 82.7481 49.2917 83.381C49.1152 82.1909 49.0673 80.6629 49.9573 80.1032C50.6482 79.6695 51.5382 80.1788 51.9618 80.968C52.3854 81.7547 52.4611 82.733 52.5241 83.6684C53.9008 82.7355 55.3809 82.0219 56.9113 81.5605C57.5241 81.3765 58.2351 81.2554 58.7318 81.7269C59.1781 82.1556 59.2815 82.9549 59.1302 83.618C58.9764 84.2811 58.6183 84.8434 58.2679 85.388C59.047 84.6089 59.8715 83.8046 60.8674 83.5827C61.8634 83.3633 63.0611 83.9659 63.2829 85.1535C63.4418 85.9982 63.0888 86.8151 62.6551 87.5388Z" fill="white"/>
<path d="M46.0729 74.4354C46.5419 75.1672 46.9604 77.3911 46.9604 77.3911C46.9604 77.3911 45.1148 76.0825 44.6458 75.3506C44.1768 74.6188 44.1157 73.8201 44.5103 73.5674C44.9042 73.3146 45.6046 73.7035 46.0735 74.4354H46.0729Z" fill="white"/>
<path d="M65.9038 80.1634C65.4196 80.8858 63.5469 82.1553 63.5469 82.1553C63.5469 82.1553 64.0114 79.9409 64.4956 79.2191C64.9797 78.4968 65.6875 78.123 66.0765 78.3839C66.4654 78.6449 66.3879 79.4417 65.9031 80.1634H65.9038Z" fill="white"/>
</svg>
