<svg width="210" height="176" viewBox="0 0 210 176" fill="none" xmlns="http://www.w3.org/2000/svg">
<path d="M170.445 107C170.445 141.242 196.687 176 162.445 176C128.204 176 0.945312 134.742 0.945312 100.5C0.945312 66.2588 87.2037 60 121.445 60C155.687 60 170.445 72.7587 170.445 107Z" fill="#E1E9FE"/>
<path d="M144.898 110.8C144.898 110.8 135.553 97.5379 134.258 98.5557C132.963 99.5427 130.279 111.108 130.279 111.108L127.38 111.17C127.38 111.17 118.313 102.904 116.555 104.076C114.766 105.248 115.352 108.641 115.352 108.641C107.426 110.461 100.271 112.65 94.7498 118.695L95.4284 123.198L94.9041 127.609C94.9041 127.609 106.038 134.085 113.409 135.257C113.409 135.257 112.36 140.13 114.242 140.285C116.092 140.408 127.041 132.667 127.041 132.667L144.189 115.149L144.868 110.831L144.898 110.8Z" fill="#2D3AAF"/>
<path d="M146.285 132.083C146.285 132.083 135.367 146.733 134.689 143.834C133.147 142.785 132.561 139.362 134.565 137.172L140.209 131.559L146.285 132.083Z" fill="#2D3AAF"/>
<path d="M171.391 119.312C171.391 119.312 141.999 95.3175 93.3921 120.824C91.1407 121.749 88.6425 121.78 86.3602 120.947C85.034 122.211 85.0031 124.309 86.2677 125.635C86.3293 125.697 86.391 125.758 86.4527 125.82C89.0126 125.203 91.665 125.172 94.2248 125.666C94.2248 125.666 110.201 134.579 138.884 134.024C167.566 133.469 173.611 120.854 173.611 120.854L169.54 122.983L171.422 119.312H171.391Z" fill="#738FE4"/>
<path d="M156.277 113.977C156.277 113.977 146.408 120.978 156.555 129.182C156.555 129.182 148.813 126.776 149.091 121.07C149.399 115.364 156.246 113.977 156.246 113.977H156.277Z" fill="#2D3AAF"/>
<path d="M159.578 119.4C159.886 120.479 160.75 121.189 161.614 120.85C162.477 120.51 162.786 119.462 162.477 118.351C162.169 117.272 161.305 116.563 160.472 116.902C159.64 117.241 159.27 118.259 159.578 119.4Z" fill="#2D3AAF"/>
<path d="M145.237 120.914L145.699 122.58C145.699 122.58 134.997 129.241 131.142 126.836C129.261 125.664 120.162 125.17 119.237 123.196C118.312 121.222 145.206 120.945 145.206 120.945L145.237 120.914Z" fill="#2D3AAF"/>
<path d="M90.0005 121.227C90.0005 121.227 76.5844 108.952 74.9806 109.909C73.3769 110.865 81.2723 119.685 81.3032 122.06C81.334 124.435 72.9451 130.819 73.4694 132.423C73.9937 134.027 90.0314 125.021 90.0314 125.021L90.9258 122.955L89.9697 121.197L90.0005 121.227Z" fill="#2D3AAF"/>
<g clip-path="url(#clip0_5543_22138)">
<path d="M49.9336 116.254C50.2722 116.257 50.6107 116.066 50.8145 115.737C50.9963 115.445 51.0402 115.116 51.081 114.853C51.1123 114.637 50.9618 114.439 50.7455 114.408C50.5355 114.376 50.3317 114.527 50.3004 114.743C50.2722 114.953 50.2408 115.173 50.1468 115.32C50.0872 115.417 49.9775 115.474 49.9304 115.464C49.8364 115.442 49.758 115.185 49.7925 114.875C49.9399 113.568 50.6985 112.354 51.3694 111.282C51.4854 111.097 51.4289 110.856 51.244 110.74C51.059 110.624 50.8145 110.68 50.7016 110.865C49.9869 112.01 49.1781 113.304 49.0119 114.787C48.943 115.402 49.1467 116.088 49.7518 116.232C49.8145 116.248 49.8772 116.254 49.9367 116.254H49.9336Z" fill="#2DD9C3"/>
<path d="M166.908 75.517C166.97 75.517 167.036 75.4982 167.089 75.4575C167.218 75.3572 167.243 75.1722 167.146 75.0437C167.071 74.9465 159.701 65.2753 157.265 61.1686C147.662 44.9862 141.092 38.8951 141.026 38.8355C140.788 38.6506 118.934 21.697 105.855 14.9444C97.9115 10.8439 90.7106 6.9598 85.4534 4.12584C82.0426 2.28566 79.5817 0.95959 78.5065 0.432926C78.356 0.360824 78.1836 0.420387 78.1115 0.567727C78.0394 0.715068 78.0989 0.890622 78.2463 0.962725C79.309 1.48312 81.7699 2.80918 85.1713 4.64624C90.4316 7.48333 97.6357 11.3675 105.583 15.4711C118.611 22.1954 140.424 39.1177 140.643 39.2869C140.69 39.3308 147.202 45.3749 156.754 61.4695C159.208 65.6045 166.6 75.3039 166.673 75.401C166.729 75.4763 166.817 75.517 166.905 75.517H166.908Z" fill="#A3A7CD"/>
<path d="M192.705 85.0999C192.805 85.0999 192.906 85.0654 192.984 84.9902C193.141 84.8397 193.147 84.5889 192.996 84.4321C154.321 43.9699 116.79 16.3608 78.2589 0.0311043C78.0614 -0.0535381 77.8263 0.040509 77.7416 0.241143C77.657 0.441777 77.7511 0.67376 77.9517 0.758402C116.382 17.0442 153.829 44.5938 192.426 84.9807C192.501 85.0591 192.605 85.0999 192.705 85.103V85.0999Z" fill="#2D3AAF"/>
<path d="M192.981 82.0439C192.232 82.3825 191.467 82.7336 190.893 83.323C190.323 83.9123 189.981 84.7995 190.263 85.5707C190.389 85.9061 190.618 86.1945 190.843 86.4735C196.201 93.0882 201.558 99.7028 206.916 106.314C207.076 106.512 207.261 106.725 207.512 106.772C207.819 106.832 208.104 106.628 208.352 106.437C210.54 104.728 210.38 103.709 208.85 101.85C207.01 99.6088 205.254 97.2952 203.446 95.0287C202.505 93.8468 193.593 81.7618 192.975 82.0439H192.981Z" fill="#2DD9C3"/>
<path d="M51.7725 107C51.8371 107 51.9037 106.968 51.938 106.909C53.6713 104.061 52.3638 100.524 51.4315 98.6671C51.0179 97.8453 50.5437 97.0333 50.0837 96.2489C49.1373 94.6308 48.1587 92.9575 47.6946 91.1384C46.829 87.7406 47.8056 83.6688 50.3762 79.9655C52.2488 77.2674 54.7225 74.9654 57.1136 72.7403C57.6443 72.2456 58.175 71.7509 58.6996 71.2543C63.8147 66.3961 67.3599 62.0129 69.86 57.4641C72.9654 51.8116 74.3354 45.9286 73.8249 40.4495C73.4516 36.4605 72.0775 32.6114 70.7458 28.8904C69.6784 25.9025 68.5726 22.8122 67.9935 19.6687C67.7252 18.2102 67.485 16.3103 68.0218 14.5444C68.6755 12.3883 70.3846 10.6756 71.8919 9.16588L76.9242 4.12832C78.028 3.02266 79.1882 1.71401 78.9743 0.160958C78.9602 0.0584723 78.8674 -0.0105082 78.7604 0.00131704C78.6555 0.0151132 78.5829 0.107744 78.597 0.21023C78.7887 1.59772 77.693 2.82558 76.6518 3.86817L71.6195 8.90572C70.0799 10.4469 68.3365 12.1931 67.6566 14.438C67.0976 16.2807 67.3438 18.2358 67.6182 19.7337C68.2014 22.9068 69.3111 26.0109 70.3846 29.0126C71.7083 32.7119 73.0763 36.5393 73.4436 40.483C73.948 45.8872 72.5921 51.6993 69.523 57.2867C67.0431 61.802 63.5181 66.1537 58.4312 70.9843C57.9086 71.4809 57.378 71.9756 56.8473 72.4683C54.4401 74.7072 51.9521 77.025 50.0554 79.7547C47.4242 83.5446 46.4274 87.7268 47.3193 91.2251C47.7955 93.0935 48.7862 94.7885 49.7467 96.4302C50.2027 97.2107 50.6729 98.0168 51.0825 98.8288C51.9824 100.616 53.2455 104.02 51.6051 106.716C51.5506 106.805 51.5809 106.919 51.6717 106.97C51.7019 106.988 51.7342 106.996 51.7665 106.996L51.7725 107Z" fill="#A3A7CD"/>
<path d="M49.533 110.481C49.558 109.892 49.6333 109.299 49.8433 108.747C50.0534 108.196 50.4484 107.964 50.8026 107.493C51.5487 106.503 53.3262 107.124 53.7306 108.296C54.135 109.468 53.5801 110.757 52.8685 111.773C52.4265 112.403 51.7493 113.049 51.0032 112.867C50.4201 112.726 50.0972 112.139 49.9342 111.541C49.8433 111.49 49.7618 111.425 49.7022 111.34C49.5267 111.099 49.5204 110.779 49.533 110.484V110.481Z" fill="#2DD9C3"/>
<path d="M141.6 37.9257C141.343 38.3018 141.086 38.6749 140.829 39.0511C140.387 39.6969 139.607 40.4273 138.942 40.0104C139.118 39.2643 139.331 38.4617 139.926 37.9821C140.522 37.5024 141.626 37.6216 141.826 38.3614L141.6 37.9257Z" fill="#39363F"/>
<path d="M113.827 18.8957C113.983 18.9521 114.14 19.0085 114.297 19.0618C114.124 19.6355 113.939 20.2374 113.516 20.6606C113.093 21.087 112.356 21.2657 111.892 20.8863C112.015 20.2813 112.156 19.6418 112.591 19.206C113.027 18.7703 113.864 18.6825 114.209 19.1935L113.827 18.8925V18.8957Z" fill="#39363F"/>
<path d="M78.4246 0.208718C78.6566 0.0551077 78.992 0.196178 79.1425 0.431296C79.2929 0.666414 79.3118 0.95796 79.3243 1.23697C79.3431 1.64764 79.3588 2.08026 79.1707 2.45018C78.9857 2.81696 78.5249 3.08343 78.1518 2.90787C77.8791 2.77934 77.738 2.46585 77.7098 2.1649C77.6409 1.44387 78.1393 0.707168 78.8321 0.500264C79.0704 0.710303 79.3086 0.917207 79.5469 1.12725L78.4246 0.208718Z" fill="#39363F"/>
<path d="M169.704 67.9013C171.774 66.9546 175.532 67.917 177.153 69.3496C178.25 70.3183 178.918 71.7541 178.956 73.2181C179.025 76.0207 176.636 78.5882 173.858 78.9706C171.081 79.3531 168.215 77.701 166.908 75.2213C166.538 74.5191 166.275 73.7354 166.316 72.9422C166.394 71.4124 168.253 68.5659 169.701 67.9013H169.704ZM175.695 75.1304C176.112 75.1523 176.466 74.8326 176.488 74.4156C176.51 73.9987 176.191 73.6444 175.774 73.6225C175.357 73.6006 175.002 73.9203 174.981 74.3373C174.959 74.7542 175.278 75.1084 175.695 75.1304ZM175.159 72.0707C175.46 72.3591 175.94 72.3466 176.228 72.0456C176.517 71.7447 176.504 71.2651 176.203 70.9766C175.902 70.6882 175.423 70.7008 175.134 71.0017C174.846 71.3027 174.858 71.7823 175.159 72.0707ZM171.937 76.6916C172.087 77.0803 172.526 77.2747 172.915 77.1242C173.303 76.9737 173.498 76.5348 173.347 76.1461C173.197 75.7574 172.758 75.563 172.369 75.7135C171.98 75.864 171.786 76.3028 171.937 76.6916ZM171.871 69.8669C172.021 70.2556 172.46 70.45 172.849 70.2995C173.238 70.149 173.432 69.7101 173.281 69.3214C173.131 68.9327 172.692 68.7383 172.303 68.8888C171.915 69.0393 171.72 69.4782 171.871 69.8669ZM169.015 75.0363C169.316 75.3248 169.795 75.3122 170.084 75.0113C170.372 74.7103 170.36 74.2307 170.059 73.9423C169.758 73.6538 169.278 73.6664 168.99 73.9673C168.701 74.2683 168.714 74.7479 169.015 75.0363ZM169.444 72.3936C169.861 72.4156 170.215 72.0958 170.237 71.6789C170.259 71.2619 169.94 70.9077 169.523 70.8857C169.106 70.8638 168.751 71.1835 168.73 71.6005C168.708 72.0174 169.027 72.3717 169.444 72.3936Z" fill="#2DD9C3"/>
</g>
<defs>
<clipPath id="clip0_5543_22138">
<rect width="181" height="120" fill="white" transform="matrix(-1 0 0 1 210 0)"/>
</clipPath>
</defs>
</svg>