<svg width="159" height="124" viewBox="0 0 159 124" fill="none" xmlns="http://www.w3.org/2000/svg">
<circle cx="68.5605" cy="62" r="62" fill="#E1E9FE"/>
<path d="M21.312 79.9251C21.312 79.9251 27.9127 70.515 28.8266 71.2258C29.7405 71.9367 31.6361 80.1282 31.6361 80.1282H33.7009C33.7009 80.1282 40.1323 74.3061 41.3847 75.1524C42.6372 75.9986 42.231 78.3681 42.231 78.3681C47.85 79.6543 52.9274 81.2114 56.8201 85.5103L56.3462 88.6921L56.7185 91.8401C56.7185 91.8401 48.8316 96.4098 43.6188 97.2561C43.6188 97.2561 44.3635 100.709 43.0433 100.81C41.7232 100.912 33.9717 95.4282 33.9717 95.4282L21.8198 83.0054L21.3459 79.959L21.312 79.9251Z" fill="#2D3AAF"/>
<path d="M20.3301 95.0208C20.3301 95.0208 28.0477 105.413 28.5555 103.348C29.6725 102.603 30.0787 100.166 28.657 98.6427L24.6628 94.6484L20.3639 95.0208H20.3301Z" fill="#2D3AAF"/>
<path d="M2.52523 85.9498C2.52523 85.9498 23.3426 68.9574 57.8013 86.9992C59.3923 87.6423 61.1863 87.6762 62.7772 87.1007C63.725 88.0146 63.7589 89.504 62.8449 90.418C62.8111 90.4518 62.7434 90.5195 62.7095 90.5534C60.9155 90.1133 59.02 90.0795 57.1921 90.4518C57.1921 90.4518 45.8864 96.7817 25.5428 96.3755C5.23319 95.9693 0.934326 87.033 0.934326 87.033L3.81152 88.5224L2.4914 85.916L2.52523 85.9498Z" fill="#738FE4"/>
<path d="M13.2558 82.194C13.2558 82.194 20.2627 87.136 13.0527 92.9581C13.0527 92.9581 18.5364 91.2657 18.3333 87.2037C18.1302 83.1418 13.2558 82.1602 13.2558 82.1602V82.194Z" fill="#2D3AAF"/>
<path d="M10.8869 86.0518C10.6499 86.8304 10.0745 87.3381 9.46518 87.0673C8.85589 86.8304 8.61894 86.0857 8.85589 85.3072C9.09284 84.5286 9.66827 84.0209 10.2776 84.2578C10.8868 84.4948 11.1238 85.2395 10.9207 86.018L10.8869 86.0518Z" fill="#2D3AAF"/>
<path d="M21.0748 87.1016L20.7363 88.2863C20.7363 88.2863 28.3186 92.9914 31.0604 91.2989C32.3805 90.4527 38.8458 90.1142 39.4889 88.7263C40.1321 87.3047 21.0748 87.1354 21.0748 87.1354V87.1016Z" fill="#2D3AAF"/>
<path d="M60.2044 87.3411C60.2044 87.3411 69.7161 78.6418 70.867 79.3188C72.0179 79.9958 66.4327 86.2579 66.3989 87.9504C66.3989 89.6429 72.3225 94.1449 71.9502 95.2957C71.5778 96.4466 60.2044 90.0491 60.2044 90.0491L59.5613 88.5936L60.2383 87.3411H60.2044Z" fill="#2D3AAF"/>
<path d="M86.6128 39.7296C86.6128 39.7296 95.9578 26.4676 97.2532 27.4854C98.5485 28.4723 101.232 40.038 101.232 40.038L104.131 40.0997C104.131 40.0997 113.198 31.8341 114.956 33.0061C116.745 34.1781 116.159 37.5706 116.159 37.5706C124.085 39.3903 131.241 41.5801 136.761 47.625L136.083 52.1279L136.607 56.5383C136.607 56.5383 125.473 63.015 118.102 64.187C118.102 64.187 119.151 69.06 117.269 69.2142C115.419 69.3376 104.47 61.5963 104.47 61.5963L87.3221 44.0782L86.6436 39.7604L86.6128 39.7296Z" fill="#2D3AAF"/>
<path d="M85.2271 61.0126C85.2271 61.0126 96.145 75.6624 96.8235 72.7633C98.3656 71.7147 98.9516 68.2912 96.9469 66.1015L91.3029 60.4883L85.2271 61.0126Z" fill="#2D3AAF"/>
<path d="M60.121 48.242C60.121 48.242 89.5131 24.2472 138.12 49.7533C140.371 50.6785 142.869 50.7094 145.152 49.8766C146.478 51.1411 146.509 53.2384 145.244 54.5646C145.182 54.6263 145.121 54.6879 145.059 54.7496C142.499 54.1328 139.847 54.102 137.287 54.5954C137.287 54.5954 121.311 63.5087 92.6281 62.9535C63.9454 62.3984 57.9004 49.7841 57.9004 49.7841L61.9715 51.9122L60.0902 48.242H60.121Z" fill="#738FE4"/>
<path d="M75.2346 42.9023C75.2346 42.9023 85.1039 49.9034 74.957 58.1073C74.957 58.1073 82.6983 55.7016 82.4207 49.9959C82.1123 44.2902 75.2654 42.9023 75.2654 42.9023H75.2346Z" fill="#2D3AAF"/>
<path d="M71.9335 48.3297C71.6251 49.4092 70.7615 50.1185 69.8979 49.7793C69.0344 49.44 68.7259 48.3914 69.0344 47.2811C69.3428 46.2016 70.2063 45.4923 71.0391 45.8315C71.8718 46.1708 72.2419 47.1886 71.9335 48.3297Z" fill="#2D3AAF"/>
<path d="M86.2742 49.8438L85.8115 51.5092C85.8115 51.5092 96.5136 58.171 100.369 55.7654C102.25 54.5934 111.348 54.0999 112.274 52.126C113.199 50.1522 86.305 49.8746 86.305 49.8746L86.2742 49.8438Z" fill="#2D3AAF"/>
<path d="M141.511 50.1571C141.511 50.1571 154.927 37.8822 156.531 38.8382C158.135 39.7943 150.239 48.6151 150.208 50.9899C150.177 53.3647 158.566 59.7489 158.042 61.3527C157.518 62.9564 141.48 53.9507 141.48 53.9507L140.586 51.8843L141.542 50.1263L141.511 50.1571Z" fill="#2D3AAF"/>
</svg>
