<svg width="143" height="46" viewBox="0 0 143 46" fill="none" xmlns="http://www.w3.org/2000/svg">
<rect x="0.5" y="0.5" width="142" height="36" rx="12" fill="white"/>
<path d="M18.3942 24.5V15.892H20.8902V24.5H18.3942ZM19.6422 14.692C19.1835 14.692 18.8102 14.5587 18.5222 14.292C18.2342 14.0253 18.0902 13.6947 18.0902 13.3C18.0902 12.9053 18.2342 12.5747 18.5222 12.308C18.8102 12.0413 19.1835 11.908 19.6422 11.908C20.1009 11.908 20.4742 12.036 20.7622 12.292C21.0502 12.5373 21.1942 12.8573 21.1942 13.252C21.1942 13.668 21.0502 14.0147 20.7622 14.292C20.4849 14.5587 20.1115 14.692 19.6422 14.692ZM28.7427 24.692C27.8787 24.692 27.0734 24.5533 26.3267 24.276C25.5907 23.988 24.9507 23.5827 24.4067 23.06C23.8627 22.5373 23.436 21.924 23.1267 21.22C22.828 20.516 22.6787 19.7427 22.6787 18.9C22.6787 18.0573 22.828 17.284 23.1267 16.58C23.436 15.876 23.8627 15.2627 24.4067 14.74C24.9614 14.2173 25.6067 13.8173 26.3427 13.54C27.0787 13.252 27.884 13.108 28.7587 13.108C29.7294 13.108 30.604 13.2787 31.3827 13.62C32.172 13.9507 32.8334 14.4413 33.3667 15.092L31.7027 16.628C31.3187 16.1907 30.892 15.8653 30.4227 15.652C29.9534 15.428 29.4414 15.316 28.8867 15.316C28.364 15.316 27.884 15.4013 27.4467 15.572C27.0094 15.7427 26.6307 15.988 26.3107 16.308C25.9907 16.628 25.74 17.0067 25.5587 17.444C25.388 17.8813 25.3027 18.3667 25.3027 18.9C25.3027 19.4333 25.388 19.9187 25.5587 20.356C25.74 20.7933 25.9907 21.172 26.3107 21.492C26.6307 21.812 27.0094 22.0573 27.4467 22.228C27.884 22.3987 28.364 22.484 28.8867 22.484C29.4414 22.484 29.9534 22.3773 30.4227 22.164C30.892 21.94 31.3187 21.604 31.7027 21.156L33.3667 22.692C32.8334 23.3427 32.172 23.8387 31.3827 24.18C30.604 24.5213 29.724 24.692 28.7427 24.692ZM40.1731 15.764C40.8557 15.764 41.4637 15.9027 41.9971 16.18C42.5411 16.4467 42.9677 16.8627 43.2771 17.428C43.5864 17.9827 43.7411 18.6973 43.7411 19.572V24.5H41.2451V19.956C41.2451 19.2627 41.0904 18.7507 40.7811 18.42C40.4824 18.0893 40.0557 17.924 39.5011 17.924C39.1064 17.924 38.7491 18.0093 38.4291 18.18C38.1197 18.34 37.8744 18.5907 37.6931 18.932C37.5224 19.2733 37.4371 19.7107 37.4371 20.244V24.5H34.9411V12.628H37.4371V18.276L36.8771 17.556C37.1864 16.98 37.6291 16.5373 38.2051 16.228C38.7811 15.9187 39.4371 15.764 40.1731 15.764ZM51.2836 24.5V22.82L51.1236 22.452V19.444C51.1236 18.9107 50.9582 18.4947 50.6276 18.196C50.3076 17.8973 49.8116 17.748 49.1396 17.748C48.6809 17.748 48.2276 17.8227 47.7796 17.972C47.3422 18.1107 46.9689 18.3027 46.6596 18.548L45.7636 16.804C46.2329 16.4733 46.7982 16.2173 47.4596 16.036C48.1209 15.8547 48.7929 15.764 49.4756 15.764C50.7876 15.764 51.8062 16.0733 52.5316 16.692C53.2569 17.3107 53.6196 18.276 53.6196 19.588V24.5H51.2836ZM48.6596 24.628C47.9876 24.628 47.4116 24.516 46.9316 24.292C46.4516 24.0573 46.0836 23.7427 45.8276 23.348C45.5716 22.9533 45.4436 22.5107 45.4436 22.02C45.4436 21.508 45.5662 21.06 45.8116 20.676C46.0676 20.292 46.4676 19.9933 47.0116 19.78C47.5556 19.556 48.2649 19.444 49.1396 19.444H51.4276V20.9H49.4116C48.8249 20.9 48.4196 20.996 48.1956 21.188C47.9822 21.38 47.8756 21.62 47.8756 21.908C47.8756 22.228 47.9982 22.484 48.2436 22.676C48.4996 22.8573 48.8462 22.948 49.2836 22.948C49.6996 22.948 50.0729 22.852 50.4036 22.66C50.7342 22.4573 50.9742 22.164 51.1236 21.78L51.5076 22.932C51.3262 23.4867 50.9956 23.908 50.5156 24.196C50.0356 24.484 49.4169 24.628 48.6596 24.628ZM55.8786 24.5V15.892H58.2626V18.324L57.9266 17.62C58.1826 17.012 58.5932 16.5533 59.1586 16.244C59.7239 15.924 60.4119 15.764 61.2226 15.764V18.068C61.1159 18.0573 61.0199 18.052 60.9346 18.052C60.8492 18.0413 60.7586 18.036 60.6626 18.036C59.9799 18.036 59.4252 18.2333 58.9986 18.628C58.5826 19.012 58.3746 19.6147 58.3746 20.436V24.5H55.8786ZM66.5236 24.628C65.5102 24.628 64.7209 24.372 64.1556 23.86C63.5902 23.3373 63.3076 22.564 63.3076 21.54V13.988H65.8036V21.508C65.8036 21.8707 65.8996 22.1533 66.0916 22.356C66.2836 22.548 66.5449 22.644 66.8756 22.644C67.2702 22.644 67.6062 22.5373 67.8836 22.324L68.5556 24.084C68.2996 24.2653 67.9902 24.404 67.6276 24.5C67.2756 24.5853 66.9076 24.628 66.5236 24.628ZM61.9796 18.004V16.084H67.9476V18.004H61.9796ZM73.9631 24.628C72.9817 24.628 72.1177 24.436 71.3711 24.052C70.6351 23.668 70.0644 23.1453 69.6591 22.484C69.2537 21.812 69.0511 21.0493 69.0511 20.196C69.0511 19.332 69.2484 18.5693 69.6431 17.908C70.0484 17.236 70.5977 16.7133 71.2911 16.34C71.9844 15.956 72.7684 15.764 73.6431 15.764C74.4857 15.764 75.2431 15.9453 75.9151 16.308C76.5977 16.66 77.1364 17.172 77.5311 17.844C77.9257 18.5053 78.1231 19.3 78.1231 20.228C78.1231 20.324 78.1177 20.436 78.1071 20.564C78.0964 20.6813 78.0857 20.7933 78.0751 20.9H71.0831V19.444H76.7631L75.8031 19.876C75.8031 19.428 75.7124 19.0387 75.5311 18.708C75.3497 18.3773 75.0991 18.1213 74.7791 17.94C74.4591 17.748 74.0857 17.652 73.6591 17.652C73.2324 17.652 72.8537 17.748 72.5231 17.94C72.2031 18.1213 71.9524 18.3827 71.7711 18.724C71.5897 19.0547 71.4991 19.4493 71.4991 19.908V20.292C71.4991 20.7613 71.6004 21.1773 71.8031 21.54C72.0164 21.892 72.3097 22.164 72.6831 22.356C73.0671 22.5373 73.5151 22.628 74.0271 22.628C74.4857 22.628 74.8857 22.5587 75.2271 22.42C75.5791 22.2813 75.8991 22.0733 76.1871 21.796L77.5151 23.236C77.1204 23.684 76.6244 24.0307 76.0271 24.276C75.4297 24.5107 74.7417 24.628 73.9631 24.628ZM79.7848 24.5V15.892H82.1688V18.324L81.8328 17.62C82.0888 17.012 82.4995 16.5533 83.0648 16.244C83.6301 15.924 84.3181 15.764 85.1288 15.764V18.068C85.0221 18.0573 84.9261 18.052 84.8408 18.052C84.7555 18.0413 84.6648 18.036 84.5688 18.036C83.8861 18.036 83.3315 18.2333 82.9048 18.628C82.4888 19.012 82.2808 19.6147 82.2808 20.436V24.5H79.7848ZM86.7577 24.5V13.3H92.2297C93.6377 13.3 94.6937 13.5667 95.3977 14.1C96.1124 14.6333 96.4697 15.3373 96.4697 16.212C96.4697 16.7987 96.3257 17.3107 96.0377 17.748C95.7497 18.1747 95.355 18.5053 94.8537 18.74C94.3524 18.9747 93.7764 19.092 93.1257 19.092L93.4297 18.436C94.1337 18.436 94.7577 18.5533 95.3017 18.788C95.8457 19.012 96.267 19.348 96.5657 19.796C96.875 20.244 97.0297 20.7933 97.0297 21.444C97.0297 22.404 96.651 23.156 95.8937 23.7C95.1364 24.2333 94.0217 24.5 92.5497 24.5H86.7577ZM89.3337 22.548H92.3577C93.0297 22.548 93.5364 22.4413 93.8777 22.228C94.2297 22.004 94.4057 21.652 94.4057 21.172C94.4057 20.7027 94.2297 20.356 93.8777 20.132C93.5364 19.8973 93.0297 19.78 92.3577 19.78H89.1417V17.892H91.9097C92.539 17.892 93.019 17.7853 93.3497 17.572C93.691 17.348 93.8617 17.012 93.8617 16.564C93.8617 16.1267 93.691 15.8013 93.3497 15.588C93.019 15.364 92.539 15.252 91.9097 15.252H89.3337V22.548ZM98.8161 24.5V15.892H101.312V24.5H98.8161ZM100.064 14.692C99.6054 14.692 99.2321 14.5587 98.9441 14.292C98.6561 14.0253 98.5121 13.6947 98.5121 13.3C98.5121 12.9053 98.6561 12.5747 98.9441 12.308C99.2321 12.0413 99.6054 11.908 100.064 11.908C100.523 11.908 100.896 12.036 101.184 12.292C101.472 12.5373 101.616 12.8573 101.616 13.252C101.616 13.668 101.472 14.0147 101.184 14.292C100.907 14.5587 100.533 14.692 100.064 14.692ZM107.325 24.628C106.514 24.628 105.783 24.4467 105.133 24.084C104.482 23.7107 103.965 23.1933 103.581 22.532C103.207 21.8707 103.021 21.092 103.021 20.196C103.021 19.2893 103.207 18.5053 103.581 17.844C103.965 17.1827 104.482 16.6707 105.133 16.308C105.783 15.9453 106.514 15.764 107.325 15.764C108.05 15.764 108.685 15.924 109.229 16.244C109.773 16.564 110.194 17.0493 110.493 17.7C110.791 18.3507 110.941 19.1827 110.941 20.196C110.941 21.1987 110.797 22.0307 110.509 22.692C110.221 23.3427 109.805 23.828 109.261 24.148C108.727 24.468 108.082 24.628 107.325 24.628ZM107.757 22.58C108.162 22.58 108.53 22.484 108.861 22.292C109.191 22.1 109.453 21.828 109.645 21.476C109.847 21.1133 109.949 20.6867 109.949 20.196C109.949 19.6947 109.847 19.268 109.645 18.916C109.453 18.564 109.191 18.292 108.861 18.1C108.53 17.908 108.162 17.812 107.757 17.812C107.341 17.812 106.967 17.908 106.637 18.1C106.306 18.292 106.039 18.564 105.837 18.916C105.645 19.268 105.549 19.6947 105.549 20.196C105.549 20.6867 105.645 21.1133 105.837 21.476C106.039 21.828 106.306 22.1 106.637 22.292C106.967 22.484 107.341 22.58 107.757 22.58ZM110.013 24.5V22.74L110.061 20.18L109.901 17.636V12.628H112.397V24.5H110.013ZM120.771 19.94V13.3H122.243L125.283 17.892H124.515L127.491 13.3H128.947L128.979 19.94H127.299L127.283 15.716H127.571L125.267 19.252H124.467L122.083 15.716H122.451V19.94H120.771ZM115.875 19.94V14.676H113.619V13.3H119.939V14.676H117.667V19.94H115.875Z" fill="url(#paint0_linear_7923_28158)"/>
<path d="M72.6561 44.815C71.8628 45.9866 70.1371 45.9866 69.3439 44.815L61.5552 33.3116C60.6559 31.9834 61.6074 30.1902 63.2113 30.1902L78.7887 30.1902C80.3926 30.1902 81.344 31.9834 80.4448 33.3115L72.6561 44.815Z" fill="white"/>
<defs>
<linearGradient id="paint0_linear_7923_28158" x1="24.3246" y1="18.5" x2="130.5" y2="28.5" gradientUnits="userSpaceOnUse">
<stop stop-color="#2DD9C3"/>
<stop offset="1" stop-color="#4658FF"/>
</linearGradient>
</defs>
</svg>
