<svg width="29" height="34" viewBox="0 0 29 34" fill="none" xmlns="http://www.w3.org/2000/svg">
<path d="M20.2276 15.5039C20.2276 16.2335 20.0827 16.9559 19.8012 17.6299C19.5197 18.304 19.1072 18.9164 18.5871 19.4323C18.0669 19.9482 17.4495 20.3574 16.7699 20.6366C16.0904 20.9158 15.362 21.0595 14.6265 21.0595C13.8909 21.0595 13.1626 20.9158 12.483 20.6366C11.8035 20.3574 11.186 19.9482 10.6659 19.4323C10.1458 18.9164 9.73323 18.304 9.45175 17.6299C9.17027 16.9559 9.02539 16.2335 9.02539 15.5039" stroke="#2D3AAF" stroke-width="1.88334"/>
<path d="M8.85736 13.5223C8.94607 13.408 9.11868 13.408 9.20738 13.5223L10.6257 15.349C10.7387 15.4946 10.635 15.7064 10.4507 15.7064H7.61405C7.42975 15.7064 7.32601 15.4946 7.43904 15.349L8.85736 13.5223Z" fill="#2D3AAF"/>
<path d="M20.0468 13.5223C20.1355 13.408 20.3081 13.408 20.3968 13.5223L21.8152 15.349C21.9282 15.4946 21.8244 15.7064 21.6402 15.7064H18.8035C18.6192 15.7064 18.5155 15.4946 18.6285 15.349L20.0468 13.5223Z" fill="#2D3AAF"/>
<line x1="14.5716" y1="10.75" x2="14.5716" y2="21.0414" stroke="#2D3AAF" stroke-width="1.88334"/>
<path d="M17.1084 14.4062H12.1904" stroke="#2D3AAF" stroke-width="1.88334" stroke-linecap="round"/>
<circle cx="14.5969" cy="8.94751" r="1.52108" stroke="#2D3AAF" stroke-width="1.32942"/>
<path d="M28.2487 14.5007C28.2487 7.05383 22.1361 1 14.6265 1C7.11697 1 1 7.05813 1 14.5007C1 17.9576 2.31884 21.2339 4.70923 23.7492C4.74393 23.8008 4.78298 23.8524 4.82636 23.8954L13.9975 32.9847C14.1667 33.1524 14.3879 33.2384 14.6135 33.2384C14.8391 33.2384 15.0604 33.1524 15.2296 32.9847C15.5679 32.6493 15.5679 32.1033 15.2296 31.7636L6.15387 22.7732C6.13218 22.7431 6.11049 22.7087 6.08012 22.6829C3.92834 20.4729 2.73965 17.5707 2.73965 14.505C2.73965 8.00834 8.07139 2.72414 14.6222 2.72414C21.173 2.72414 26.5091 8.00834 26.5091 14.505C26.5091 17.648 25.2727 20.6019 23.0254 22.8291C23.0254 22.8291 23.0254 22.8334 23.0168 22.8377C23.0168 22.8377 23.0081 22.842 23.0081 22.8463L21.2858 24.5532C20.9474 24.8886 20.9474 25.4346 21.2858 25.77C21.455 25.9377 21.6762 26.0237 21.9018 26.0237C22.1274 26.0237 22.3487 25.9377 22.5179 25.77L24.2402 24.063C24.2402 24.063 24.2445 24.0587 24.2488 24.0544C24.2488 24.0544 24.2575 24.0501 24.2575 24.0458C26.8344 21.4919 28.2531 18.1038 28.2531 14.5007H28.2487Z" fill="#2D3AAF" stroke="#2D3AAF" stroke-width="1.10785" stroke-miterlimit="10"/>
</svg>
