<svg width="347" height="306" viewBox="0 0 347 306" fill="none" xmlns="http://www.w3.org/2000/svg">
<g filter="url(#filter0_d_1383_23219)">
<rect y="0.118164" width="347" height="305.182" rx="10.6769" fill="#F9F9F9"/>
<rect x="45.6063" y="96.6553" width="257.351" height="49.259" rx="10.2321" fill="white"/>
<path d="M114.102 116.066H115.634V124.785H114.102V116.066ZM119.301 121.073V124.785H117.794V118.208H119.301V119.23C119.409 119.072 119.526 118.926 119.65 118.794C119.783 118.652 119.933 118.528 120.099 118.42C120.273 118.312 120.46 118.229 120.659 118.171C120.867 118.104 121.099 118.071 121.357 118.071C122.104 118.071 122.681 118.3 123.088 118.756C123.495 119.213 123.699 119.828 123.699 120.6V124.785H122.191V121.048C122.191 120.533 122.067 120.139 121.818 119.865C121.577 119.583 121.232 119.441 120.784 119.441C120.344 119.441 119.987 119.587 119.712 119.877C119.438 120.16 119.301 120.558 119.301 121.073ZM127.026 121.073V124.785H125.519V118.208H127.026V119.23C127.134 119.072 127.25 118.926 127.375 118.794C127.507 118.652 127.657 118.528 127.823 118.42C127.997 118.312 128.184 118.229 128.384 118.171C128.591 118.104 128.824 118.071 129.081 118.071C129.829 118.071 130.406 118.3 130.813 118.756C131.22 119.213 131.423 119.828 131.423 120.6V124.785H129.916V121.048C129.916 120.533 129.791 120.139 129.542 119.865C129.301 119.583 128.957 119.441 128.508 119.441C128.068 119.441 127.711 119.587 127.437 119.877C127.163 120.16 127.026 120.558 127.026 121.073ZM139.895 121.497C139.895 121.97 139.803 122.414 139.621 122.829C139.446 123.245 139.201 123.61 138.886 123.926C138.579 124.233 138.209 124.478 137.777 124.661C137.345 124.843 136.876 124.935 136.37 124.935C135.871 124.935 135.406 124.847 134.974 124.673C134.551 124.49 134.181 124.245 133.866 123.938C133.559 123.623 133.318 123.261 133.143 122.854C132.969 122.439 132.882 121.995 132.882 121.522C132.882 121.048 132.969 120.604 133.143 120.189C133.326 119.765 133.571 119.4 133.878 119.093C134.194 118.777 134.563 118.528 134.987 118.345C135.419 118.162 135.888 118.071 136.395 118.071C136.901 118.071 137.366 118.162 137.79 118.345C138.221 118.52 138.591 118.765 138.898 119.08C139.214 119.387 139.459 119.749 139.633 120.164C139.808 120.579 139.895 121.023 139.895 121.497ZM138.388 121.522C138.388 121.231 138.338 120.957 138.238 120.699C138.138 120.442 137.997 120.218 137.815 120.027C137.64 119.828 137.428 119.674 137.179 119.566C136.938 119.45 136.669 119.392 136.37 119.392C136.071 119.392 135.797 119.45 135.547 119.566C135.307 119.674 135.099 119.823 134.925 120.014C134.75 120.205 134.617 120.43 134.526 120.687C134.435 120.936 134.389 121.206 134.389 121.497C134.389 121.787 134.439 122.066 134.539 122.331C134.638 122.589 134.775 122.813 134.95 123.004C135.132 123.195 135.344 123.349 135.585 123.465C135.834 123.573 136.104 123.627 136.395 123.627C136.702 123.627 136.976 123.573 137.217 123.465C137.466 123.349 137.678 123.195 137.852 123.004C138.026 122.813 138.159 122.593 138.251 122.344C138.342 122.086 138.388 121.812 138.388 121.522ZM143.818 123.041L145.599 118.208H147.181L144.491 124.835H143.133L140.43 118.208H142.049L143.818 123.041ZM153.663 124.785H152.168V123.975C151.944 124.241 151.657 124.465 151.308 124.648C150.96 124.831 150.536 124.922 150.038 124.922C149.722 124.922 149.423 124.877 149.141 124.785C148.859 124.702 148.61 124.578 148.394 124.411C148.186 124.237 148.016 124.025 147.883 123.776C147.758 123.519 147.696 123.224 147.696 122.892V122.867C147.696 122.51 147.763 122.198 147.895 121.933C148.028 121.667 148.211 121.447 148.443 121.272C148.684 121.098 148.967 120.969 149.291 120.886C149.623 120.795 149.98 120.749 150.362 120.749C150.76 120.749 151.097 120.774 151.371 120.824C151.653 120.874 151.923 120.94 152.18 121.023V120.861C152.18 120.405 152.039 120.056 151.757 119.815C151.483 119.574 151.084 119.454 150.561 119.454C150.187 119.454 149.855 119.491 149.565 119.566C149.274 119.641 148.979 119.74 148.68 119.865L148.269 118.657C148.634 118.491 149.008 118.358 149.39 118.258C149.772 118.158 150.233 118.109 150.773 118.109C151.753 118.109 152.479 118.353 152.953 118.843C153.426 119.325 153.663 120.006 153.663 120.886V124.785ZM152.205 122.406V121.995C152.014 121.92 151.786 121.858 151.52 121.808C151.263 121.758 150.989 121.733 150.698 121.733C150.225 121.733 149.855 121.825 149.589 122.007C149.324 122.19 149.191 122.452 149.191 122.792V122.817C149.191 123.133 149.311 123.373 149.552 123.54C149.801 123.706 150.104 123.789 150.461 123.789C150.711 123.789 150.939 123.755 151.147 123.689C151.362 123.623 151.549 123.531 151.707 123.415C151.865 123.29 151.985 123.145 152.068 122.979C152.16 122.805 152.205 122.614 152.205 122.406ZM157.213 119.504V122.73C157.213 123.02 157.284 123.232 157.425 123.365C157.566 123.49 157.765 123.552 158.023 123.552C158.347 123.552 158.658 123.477 158.957 123.328V124.561C158.766 124.669 158.563 124.752 158.347 124.81C158.131 124.868 157.882 124.897 157.599 124.897C157.325 124.897 157.072 124.864 156.839 124.798C156.607 124.731 156.404 124.623 156.229 124.474C156.063 124.324 155.934 124.129 155.843 123.888C155.752 123.639 155.706 123.332 155.706 122.967V119.504H154.871V118.208H155.706V116.402H157.213V118.208H158.982V119.504H157.213ZM162.148 117.199H160.529V115.767H162.148V117.199ZM162.098 124.785H160.591V118.208H162.098V124.785ZM166.833 123.041L168.614 118.208H170.196L167.506 124.835H166.148L163.445 118.208H165.064L166.833 123.041ZM172.245 122.032C172.336 122.572 172.552 122.987 172.893 123.278C173.233 123.56 173.648 123.701 174.138 123.701C174.512 123.701 174.836 123.635 175.11 123.502C175.384 123.369 175.654 123.174 175.919 122.917L176.804 123.701C176.488 124.075 176.11 124.374 175.67 124.598C175.239 124.823 174.72 124.935 174.113 124.935C173.64 124.935 173.196 124.852 172.78 124.686C172.374 124.519 172.016 124.287 171.709 123.988C171.41 123.689 171.174 123.332 170.999 122.917C170.825 122.493 170.738 122.024 170.738 121.509C170.738 121.036 170.817 120.591 170.974 120.176C171.132 119.761 171.352 119.4 171.634 119.093C171.925 118.777 172.266 118.528 172.656 118.345C173.046 118.162 173.478 118.071 173.951 118.071C174.475 118.071 174.931 118.167 175.322 118.358C175.72 118.549 176.048 118.806 176.306 119.13C176.571 119.454 176.771 119.832 176.904 120.263C177.036 120.695 177.103 121.148 177.103 121.621C177.103 121.688 177.099 121.754 177.09 121.821C177.09 121.887 177.086 121.958 177.078 122.032H172.245ZM172.232 121.036H175.608C175.583 120.795 175.529 120.571 175.446 120.363C175.363 120.147 175.251 119.965 175.11 119.815C174.969 119.657 174.798 119.533 174.599 119.441C174.408 119.35 174.188 119.304 173.939 119.304C173.474 119.304 173.088 119.466 172.78 119.79C172.482 120.106 172.299 120.521 172.232 121.036ZM189.015 116.066V117.461H184.058V119.84H188.455V121.235H184.058V124.785H182.525V116.066H189.015ZM191.489 122.032C191.58 122.572 191.796 122.987 192.137 123.278C192.477 123.56 192.892 123.701 193.382 123.701C193.756 123.701 194.08 123.635 194.354 123.502C194.628 123.369 194.898 123.174 195.164 122.917L196.048 123.701C195.733 124.075 195.355 124.374 194.915 124.598C194.483 124.823 193.964 124.935 193.358 124.935C192.884 124.935 192.44 124.852 192.025 124.686C191.618 124.519 191.261 124.287 190.953 123.988C190.654 123.689 190.418 123.332 190.243 122.917C190.069 122.493 189.982 122.024 189.982 121.509C189.982 121.036 190.061 120.591 190.218 120.176C190.376 119.761 190.596 119.4 190.879 119.093C191.169 118.777 191.51 118.528 191.9 118.345C192.29 118.162 192.722 118.071 193.196 118.071C193.719 118.071 194.175 118.167 194.566 118.358C194.964 118.549 195.292 118.806 195.55 119.13C195.816 119.454 196.015 119.832 196.148 120.263C196.281 120.695 196.347 121.148 196.347 121.621C196.347 121.688 196.343 121.754 196.335 121.821C196.335 121.887 196.33 121.958 196.322 122.032H191.489ZM191.477 121.036H194.852C194.827 120.795 194.773 120.571 194.69 120.363C194.607 120.147 194.495 119.965 194.354 119.815C194.213 119.657 194.043 119.533 193.843 119.441C193.652 119.35 193.432 119.304 193.183 119.304C192.718 119.304 192.332 119.466 192.025 119.79C191.726 120.106 191.543 120.521 191.477 121.036ZM203.379 124.785H201.884V123.975C201.66 124.241 201.373 124.465 201.025 124.648C200.676 124.831 200.252 124.922 199.754 124.922C199.439 124.922 199.14 124.877 198.857 124.785C198.575 124.702 198.326 124.578 198.11 124.411C197.902 124.237 197.732 124.025 197.599 123.776C197.475 123.519 197.412 123.224 197.412 122.892V122.867C197.412 122.51 197.479 122.198 197.612 121.933C197.744 121.667 197.927 121.447 198.16 121.272C198.4 121.098 198.683 120.969 199.007 120.886C199.339 120.795 199.696 120.749 200.078 120.749C200.477 120.749 200.813 120.774 201.087 120.824C201.369 120.874 201.639 120.94 201.897 121.023V120.861C201.897 120.405 201.755 120.056 201.473 119.815C201.199 119.574 200.8 119.454 200.277 119.454C199.904 119.454 199.571 119.491 199.281 119.566C198.99 119.641 198.695 119.74 198.396 119.865L197.985 118.657C198.351 118.491 198.724 118.358 199.106 118.258C199.488 118.158 199.949 118.109 200.489 118.109C201.469 118.109 202.196 118.353 202.669 118.843C203.142 119.325 203.379 120.006 203.379 120.886V124.785ZM201.921 122.406V121.995C201.73 121.92 201.502 121.858 201.236 121.808C200.979 121.758 200.705 121.733 200.414 121.733C199.941 121.733 199.571 121.825 199.306 122.007C199.04 122.19 198.907 122.452 198.907 122.792V122.817C198.907 123.133 199.027 123.373 199.268 123.54C199.517 123.706 199.82 123.789 200.178 123.789C200.427 123.789 200.655 123.755 200.863 123.689C201.079 123.623 201.265 123.531 201.423 123.415C201.581 123.29 201.701 123.145 201.784 122.979C201.876 122.805 201.921 122.614 201.921 122.406ZM206.929 119.504V122.73C206.929 123.02 207 123.232 207.141 123.365C207.282 123.49 207.482 123.552 207.739 123.552C208.063 123.552 208.374 123.477 208.673 123.328V124.561C208.482 124.669 208.279 124.752 208.063 124.81C207.847 124.868 207.598 124.897 207.315 124.897C207.041 124.897 206.788 124.864 206.556 124.798C206.323 124.731 206.12 124.623 205.945 124.474C205.779 124.324 205.65 124.129 205.559 123.888C205.468 123.639 205.422 123.332 205.422 122.967V119.504H204.588V118.208H205.422V116.402H206.929V118.208H208.698V119.504H206.929ZM214.542 121.92V118.208H216.049V124.785H214.542V123.764C214.326 124.079 214.056 124.353 213.732 124.586C213.409 124.81 212.993 124.922 212.487 124.922C211.739 124.922 211.162 124.694 210.755 124.237C210.348 123.78 210.145 123.166 210.145 122.394V118.208H211.652V121.945C211.652 122.46 211.773 122.859 212.013 123.141C212.263 123.415 212.611 123.552 213.06 123.552C213.5 123.552 213.857 123.411 214.131 123.128C214.405 122.838 214.542 122.435 214.542 121.92ZM219.451 122.281V124.785H217.944V118.208H219.451V119.69C219.659 119.192 219.954 118.794 220.336 118.495C220.718 118.196 221.199 118.059 221.781 118.084V119.678H221.694C221.361 119.678 221.058 119.732 220.784 119.84C220.51 119.948 220.274 120.11 220.074 120.326C219.875 120.542 219.721 120.816 219.613 121.148C219.505 121.472 219.451 121.85 219.451 122.281ZM224.017 122.032C224.108 122.572 224.324 122.987 224.665 123.278C225.005 123.56 225.42 123.701 225.91 123.701C226.284 123.701 226.608 123.635 226.882 123.502C227.156 123.369 227.426 123.174 227.691 122.917L228.576 123.701C228.26 124.075 227.882 124.374 227.442 124.598C227.011 124.823 226.491 124.935 225.885 124.935C225.412 124.935 224.968 124.852 224.552 124.686C224.146 124.519 223.788 124.287 223.481 123.988C223.182 123.689 222.946 123.332 222.771 122.917C222.597 122.493 222.51 122.024 222.51 121.509C222.51 121.036 222.588 120.591 222.746 120.176C222.904 119.761 223.124 119.4 223.406 119.093C223.697 118.777 224.038 118.528 224.428 118.345C224.818 118.162 225.25 118.071 225.723 118.071C226.247 118.071 226.703 118.167 227.094 118.358C227.492 118.549 227.82 118.806 228.078 119.13C228.343 119.454 228.543 119.832 228.676 120.263C228.808 120.695 228.875 121.148 228.875 121.621C228.875 121.688 228.871 121.754 228.862 121.821C228.862 121.887 228.858 121.958 228.85 122.032H224.017ZM224.004 121.036H227.38C227.355 120.795 227.301 120.571 227.218 120.363C227.135 120.147 227.023 119.965 226.882 119.815C226.741 119.657 226.57 119.533 226.371 119.441C226.18 119.35 225.96 119.304 225.711 119.304C225.246 119.304 224.86 119.466 224.552 119.79C224.253 120.106 224.071 120.521 224.004 121.036ZM235.085 122.842C235.085 123.191 235.022 123.494 234.898 123.751C234.773 124.009 234.599 124.225 234.375 124.399C234.159 124.565 233.901 124.694 233.602 124.785C233.303 124.868 232.984 124.91 232.643 124.91C232.17 124.91 231.688 124.827 231.198 124.661C230.716 124.495 230.268 124.25 229.853 123.926L230.525 122.904C230.883 123.17 231.244 123.373 231.609 123.515C231.983 123.647 232.34 123.714 232.68 123.714C233.004 123.714 233.253 123.652 233.428 123.527C233.611 123.394 233.702 123.22 233.702 123.004V122.979C233.702 122.854 233.66 122.746 233.577 122.655C233.503 122.564 233.395 122.485 233.253 122.418C233.121 122.344 232.963 122.281 232.78 122.232C232.606 122.173 232.423 122.115 232.232 122.057C231.991 121.982 231.746 121.899 231.497 121.808C231.256 121.717 231.036 121.6 230.837 121.459C230.646 121.31 230.488 121.131 230.364 120.924C230.239 120.708 230.177 120.442 230.177 120.126V120.102C230.177 119.794 230.235 119.516 230.351 119.267C230.476 119.018 230.642 118.806 230.849 118.632C231.065 118.457 231.314 118.324 231.597 118.233C231.887 118.142 232.195 118.096 232.519 118.096C232.934 118.096 233.353 118.162 233.777 118.295C234.2 118.428 234.586 118.611 234.935 118.843L234.337 119.915C234.022 119.724 233.702 119.574 233.378 119.466C233.054 119.35 232.755 119.292 232.481 119.292C232.19 119.292 231.962 119.354 231.796 119.479C231.638 119.603 231.559 119.761 231.559 119.952V119.977C231.559 120.093 231.601 120.197 231.684 120.288C231.767 120.371 231.875 120.45 232.008 120.525C232.149 120.591 232.307 120.658 232.481 120.724C232.664 120.782 232.851 120.841 233.042 120.899C233.282 120.973 233.523 121.061 233.764 121.16C234.005 121.26 234.221 121.385 234.412 121.534C234.611 121.675 234.773 121.85 234.898 122.057C235.022 122.265 235.085 122.518 235.085 122.817V122.842Z" fill="#454545"/>
<rect x="45.6063" y="96.6553" width="257.351" height="49.259" rx="10.2321" stroke="#EFEFEF" stroke-width="0.889744"/>
<rect x="45.6063" y="221.22" width="255.356" height="49.259" rx="10.2321" fill="white"/>
<path d="M99.2287 240.63V242H94.2959V244.267H98.6681V245.637H94.2959V247.979H99.291V249.349H92.7638V240.63H99.2287ZM102.441 245.637V249.349H100.934V242.772H102.441V243.794C102.549 243.636 102.666 243.49 102.79 243.358C102.923 243.216 103.073 243.092 103.239 242.984C103.413 242.876 103.6 242.793 103.799 242.735C104.007 242.668 104.239 242.635 104.497 242.635C105.244 242.635 105.821 242.863 106.228 243.32C106.635 243.777 106.839 244.391 106.839 245.164V249.349H105.331V245.612C105.331 245.097 105.207 244.703 104.958 244.429C104.717 244.146 104.372 244.005 103.924 244.005C103.484 244.005 103.127 244.151 102.853 244.441C102.578 244.724 102.441 245.122 102.441 245.637ZM110.166 245.637V249.349H108.659V240.256H110.166V243.794C110.274 243.636 110.39 243.49 110.515 243.358C110.648 243.216 110.797 243.092 110.963 242.984C111.137 242.876 111.324 242.793 111.524 242.735C111.731 242.668 111.964 242.635 112.221 242.635C112.969 242.635 113.546 242.863 113.953 243.32C114.36 243.777 114.563 244.391 114.563 245.164V249.349H113.056V245.612C113.056 245.097 112.931 244.703 112.682 244.429C112.441 244.146 112.097 244.005 111.648 244.005C111.208 244.005 110.851 244.151 110.577 244.441C110.303 244.724 110.166 245.122 110.166 245.637ZM121.901 249.349H120.407V248.539C120.182 248.805 119.896 249.029 119.547 249.212C119.198 249.395 118.775 249.486 118.276 249.486C117.961 249.486 117.662 249.44 117.38 249.349C117.097 249.266 116.848 249.142 116.632 248.975C116.425 248.801 116.254 248.589 116.122 248.34C115.997 248.083 115.935 247.788 115.935 247.456V247.431C115.935 247.074 116.001 246.762 116.134 246.497C116.267 246.231 116.45 246.011 116.682 245.836C116.923 245.662 117.205 245.533 117.529 245.45C117.861 245.359 118.218 245.313 118.6 245.313C118.999 245.313 119.335 245.338 119.609 245.388C119.892 245.438 120.162 245.504 120.419 245.587V245.425C120.419 244.969 120.278 244.62 119.995 244.379C119.721 244.138 119.323 244.018 118.8 244.018C118.426 244.018 118.094 244.055 117.803 244.13C117.512 244.205 117.218 244.304 116.919 244.429L116.508 243.221C116.873 243.054 117.247 242.922 117.629 242.822C118.011 242.722 118.472 242.672 119.011 242.672C119.991 242.672 120.718 242.917 121.191 243.407C121.665 243.889 121.901 244.57 121.901 245.45V249.349ZM120.444 246.97V246.559C120.253 246.484 120.025 246.422 119.759 246.372C119.501 246.322 119.227 246.297 118.937 246.297C118.463 246.297 118.094 246.389 117.828 246.571C117.562 246.754 117.429 247.016 117.429 247.356V247.381C117.429 247.697 117.55 247.937 117.791 248.103C118.04 248.27 118.343 248.353 118.7 248.353C118.949 248.353 119.177 248.319 119.385 248.253C119.601 248.187 119.788 248.095 119.946 247.979C120.103 247.854 120.224 247.709 120.307 247.543C120.398 247.369 120.444 247.178 120.444 246.97ZM125.201 245.637V249.349H123.694V242.772H125.201V243.794C125.309 243.636 125.425 243.49 125.55 243.358C125.683 243.216 125.832 243.092 125.998 242.984C126.173 242.876 126.36 242.793 126.559 242.735C126.767 242.668 126.999 242.635 127.256 242.635C128.004 242.635 128.581 242.863 128.988 243.32C129.395 243.777 129.598 244.391 129.598 245.164V249.349H128.091V245.612C128.091 245.097 127.966 244.703 127.717 244.429C127.477 244.146 127.132 244.005 126.683 244.005C126.243 244.005 125.886 244.151 125.612 244.441C125.338 244.724 125.201 245.122 125.201 245.637ZM137.148 248.265C136.824 248.631 136.455 248.93 136.04 249.162C135.624 249.386 135.097 249.499 134.458 249.499C133.968 249.499 133.515 249.411 133.1 249.237C132.685 249.054 132.324 248.809 132.016 248.502C131.717 248.187 131.481 247.825 131.306 247.418C131.14 247.003 131.057 246.559 131.057 246.086C131.057 245.612 131.14 245.168 131.306 244.753C131.481 244.337 131.717 243.972 132.016 243.657C132.324 243.341 132.685 243.092 133.1 242.909C133.524 242.726 133.98 242.635 134.47 242.635C135.093 242.635 135.608 242.739 136.015 242.947C136.43 243.154 136.791 243.428 137.099 243.769L136.164 244.778C135.932 244.537 135.683 244.342 135.417 244.192C135.159 244.034 134.84 243.955 134.458 243.955C134.184 243.955 133.93 244.014 133.698 244.13C133.465 244.238 133.266 244.387 133.1 244.578C132.934 244.769 132.801 244.994 132.701 245.251C132.61 245.5 132.564 245.77 132.564 246.061C132.564 246.36 132.61 246.638 132.701 246.895C132.801 247.153 132.938 247.377 133.112 247.568C133.287 247.759 133.494 247.912 133.735 248.029C133.976 248.137 134.242 248.191 134.532 248.191C134.89 248.191 135.201 248.116 135.467 247.966C135.741 247.809 135.998 247.609 136.239 247.369L137.148 248.265ZM139.498 246.596C139.589 247.136 139.805 247.551 140.146 247.842C140.486 248.124 140.902 248.265 141.391 248.265C141.765 248.265 142.089 248.199 142.363 248.066C142.637 247.933 142.907 247.738 143.173 247.481L144.057 248.265C143.742 248.639 143.364 248.938 142.924 249.162C142.492 249.386 141.973 249.499 141.367 249.499C140.893 249.499 140.449 249.416 140.034 249.249C139.627 249.083 139.27 248.851 138.962 248.552C138.664 248.253 138.427 247.896 138.252 247.481C138.078 247.057 137.991 246.588 137.991 246.073C137.991 245.6 138.07 245.155 138.228 244.74C138.385 244.325 138.605 243.964 138.888 243.657C139.178 243.341 139.519 243.092 139.909 242.909C140.299 242.726 140.731 242.635 141.205 242.635C141.728 242.635 142.185 242.731 142.575 242.922C142.973 243.113 143.301 243.37 143.559 243.694C143.825 244.018 144.024 244.396 144.157 244.827C144.29 245.259 144.356 245.712 144.356 246.185C144.356 246.252 144.352 246.318 144.344 246.384C144.344 246.451 144.34 246.522 144.331 246.596H139.498ZM139.486 245.6H142.861C142.836 245.359 142.782 245.135 142.699 244.927C142.616 244.711 142.504 244.528 142.363 244.379C142.222 244.221 142.052 244.097 141.852 244.005C141.661 243.914 141.441 243.868 141.192 243.868C140.727 243.868 140.341 244.03 140.034 244.354C139.735 244.67 139.552 245.085 139.486 245.6ZM152.335 249.349H150.827V248.253C150.587 248.593 150.283 248.884 149.918 249.125C149.561 249.366 149.117 249.486 148.585 249.486C148.195 249.486 147.817 249.411 147.452 249.262C147.086 249.112 146.762 248.892 146.48 248.602C146.198 248.303 145.969 247.942 145.795 247.518C145.621 247.095 145.533 246.609 145.533 246.061C145.533 245.513 145.616 245.027 145.783 244.603C145.957 244.18 146.185 243.823 146.468 243.532C146.75 243.233 147.074 243.009 147.439 242.859C147.813 242.71 148.195 242.635 148.585 242.635C149.125 242.635 149.573 242.751 149.931 242.984C150.288 243.216 150.587 243.486 150.827 243.794V240.256H152.335V249.349ZM150.852 246.061C150.852 245.737 150.798 245.446 150.69 245.189C150.591 244.931 150.454 244.711 150.279 244.528C150.105 244.337 149.901 244.192 149.669 244.093C149.436 243.993 149.196 243.943 148.946 243.943C148.689 243.943 148.444 243.993 148.212 244.093C147.987 244.184 147.788 244.321 147.614 244.504C147.439 244.686 147.302 244.91 147.203 245.176C147.103 245.434 147.053 245.728 147.053 246.061C147.053 246.384 147.103 246.679 147.203 246.945C147.302 247.202 147.439 247.423 147.614 247.605C147.788 247.788 147.987 247.929 148.212 248.029C148.444 248.128 148.689 248.178 148.946 248.178C149.196 248.178 149.436 248.128 149.669 248.029C149.901 247.929 150.105 247.788 150.279 247.605C150.454 247.414 150.591 247.19 150.69 246.933C150.798 246.675 150.852 246.384 150.852 246.061ZM165.709 247.954C165.485 248.195 165.249 248.411 164.999 248.602C164.759 248.784 164.497 248.946 164.215 249.088C163.932 249.22 163.621 249.32 163.28 249.386C162.948 249.461 162.579 249.499 162.172 249.499C161.532 249.499 160.943 249.382 160.403 249.15C159.863 248.917 159.394 248.602 158.995 248.203C158.605 247.796 158.298 247.319 158.074 246.771C157.849 246.223 157.737 245.633 157.737 245.002C157.737 244.379 157.845 243.794 158.061 243.245C158.285 242.697 158.597 242.22 158.995 241.813C159.394 241.398 159.867 241.074 160.415 240.841C160.964 240.601 161.57 240.48 162.234 240.48C162.633 240.48 162.994 240.513 163.318 240.58C163.65 240.646 163.953 240.742 164.227 240.866C164.501 240.983 164.754 241.124 164.987 241.29C165.219 241.456 165.44 241.639 165.647 241.838L164.663 242.971C164.314 242.648 163.945 242.386 163.554 242.187C163.164 241.987 162.72 241.888 162.222 241.888C161.806 241.888 161.42 241.971 161.063 242.137C160.714 242.295 160.411 242.515 160.154 242.797C159.896 243.071 159.697 243.395 159.556 243.769C159.415 244.142 159.344 244.545 159.344 244.977C159.344 245.409 159.415 245.816 159.556 246.198C159.697 246.571 159.896 246.899 160.154 247.182C160.411 247.464 160.714 247.688 161.063 247.854C161.42 248.012 161.806 248.091 162.222 248.091C162.753 248.091 163.21 247.991 163.592 247.792C163.974 247.584 164.352 247.306 164.725 246.957L165.709 247.954ZM168.653 245.637V249.349H167.145V240.256H168.653V243.794C168.761 243.636 168.877 243.49 169.001 243.358C169.134 243.216 169.284 243.092 169.45 242.984C169.624 242.876 169.811 242.793 170.01 242.735C170.218 242.668 170.451 242.635 170.708 242.635C171.455 242.635 172.032 242.863 172.439 243.32C172.846 243.777 173.05 244.391 173.05 245.164V249.349H171.543V245.612C171.543 245.097 171.418 244.703 171.169 244.429C170.928 244.146 170.583 244.005 170.135 244.005C169.695 244.005 169.338 244.151 169.064 244.441C168.79 244.724 168.653 245.122 168.653 245.637ZM180.388 249.349H178.893V248.539C178.669 248.805 178.383 249.029 178.034 249.212C177.685 249.395 177.261 249.486 176.763 249.486C176.448 249.486 176.149 249.44 175.866 249.349C175.584 249.266 175.335 249.142 175.119 248.975C174.911 248.801 174.741 248.589 174.608 248.34C174.484 248.083 174.421 247.788 174.421 247.456V247.431C174.421 247.074 174.488 246.762 174.621 246.497C174.754 246.231 174.936 246.011 175.169 245.836C175.41 245.662 175.692 245.533 176.016 245.45C176.348 245.359 176.705 245.313 177.087 245.313C177.486 245.313 177.822 245.338 178.096 245.388C178.378 245.438 178.648 245.504 178.906 245.587V245.425C178.906 244.969 178.765 244.62 178.482 244.379C178.208 244.138 177.81 244.018 177.286 244.018C176.913 244.018 176.581 244.055 176.29 244.13C175.999 244.205 175.704 244.304 175.405 244.429L174.994 243.221C175.36 243.054 175.733 242.922 176.115 242.822C176.497 242.722 176.958 242.672 177.498 242.672C178.478 242.672 179.205 242.917 179.678 243.407C180.151 243.889 180.388 244.57 180.388 245.45V249.349ZM178.931 246.97V246.559C178.74 246.484 178.511 246.422 178.246 246.372C177.988 246.322 177.714 246.297 177.423 246.297C176.95 246.297 176.581 246.389 176.315 246.571C176.049 246.754 175.916 247.016 175.916 247.356V247.381C175.916 247.697 176.037 247.937 176.277 248.103C176.527 248.27 176.83 248.353 177.187 248.353C177.436 248.353 177.664 248.319 177.872 248.253C178.088 248.187 178.275 248.095 178.432 247.979C178.59 247.854 178.711 247.709 178.794 247.543C178.885 247.369 178.931 247.178 178.931 246.97ZM183.688 246.845V249.349H182.181V242.772H183.688V244.254C183.896 243.756 184.19 243.358 184.572 243.059C184.954 242.76 185.436 242.623 186.017 242.648V244.242H185.93C185.598 244.242 185.295 244.296 185.021 244.404C184.747 244.512 184.51 244.674 184.311 244.89C184.111 245.106 183.958 245.38 183.85 245.712C183.742 246.036 183.688 246.414 183.688 246.845ZM189.145 244.068V247.294C189.145 247.584 189.215 247.796 189.357 247.929C189.498 248.054 189.697 248.116 189.955 248.116C190.278 248.116 190.59 248.041 190.889 247.892V249.125C190.698 249.233 190.494 249.316 190.278 249.374C190.063 249.432 189.813 249.461 189.531 249.461C189.257 249.461 189.004 249.428 188.771 249.362C188.539 249.295 188.335 249.187 188.161 249.038C187.995 248.888 187.866 248.693 187.775 248.452C187.683 248.203 187.638 247.896 187.638 247.53V244.068H186.803V242.772H187.638V240.966H189.145V242.772H190.914V244.068H189.145ZM193.399 246.596C193.49 247.136 193.706 247.551 194.047 247.842C194.387 248.124 194.802 248.265 195.292 248.265C195.666 248.265 195.99 248.199 196.264 248.066C196.538 247.933 196.808 247.738 197.073 247.481L197.958 248.265C197.642 248.639 197.264 248.938 196.824 249.162C196.393 249.386 195.874 249.499 195.267 249.499C194.794 249.499 194.35 249.416 193.934 249.249C193.528 249.083 193.17 248.851 192.863 248.552C192.564 248.253 192.328 247.896 192.153 247.481C191.979 247.057 191.892 246.588 191.892 246.073C191.892 245.6 191.971 245.155 192.128 244.74C192.286 244.325 192.506 243.964 192.788 243.657C193.079 243.341 193.42 243.092 193.81 242.909C194.2 242.726 194.632 242.635 195.105 242.635C195.629 242.635 196.085 242.731 196.476 242.922C196.874 243.113 197.202 243.37 197.46 243.694C197.725 244.018 197.925 244.396 198.058 244.827C198.19 245.259 198.257 245.712 198.257 246.185C198.257 246.252 198.253 246.318 198.244 246.384C198.244 246.451 198.24 246.522 198.232 246.596H193.399ZM193.386 245.6H196.762C196.737 245.359 196.683 245.135 196.6 244.927C196.517 244.711 196.405 244.528 196.264 244.379C196.123 244.221 195.952 244.097 195.753 244.005C195.562 243.914 195.342 243.868 195.093 243.868C194.628 243.868 194.242 244.03 193.934 244.354C193.636 244.67 193.453 245.085 193.386 245.6ZM201.278 246.845V249.349H199.77V242.772H201.278V244.254C201.485 243.756 201.78 243.358 202.162 243.059C202.544 242.76 203.026 242.623 203.607 242.648V244.242H203.52C203.188 244.242 202.885 244.296 202.611 244.404C202.337 244.512 202.1 244.674 201.901 244.89C201.701 245.106 201.548 245.38 201.44 245.712C201.332 246.036 201.278 246.414 201.278 246.845ZM216.224 249.349H214.418L212.275 246.31H210.357V249.349H208.825V240.63H212.711C213.21 240.63 213.658 240.696 214.057 240.829C214.464 240.954 214.804 241.136 215.078 241.377C215.36 241.61 215.576 241.9 215.726 242.249C215.875 242.589 215.95 242.971 215.95 243.395C215.95 243.76 215.896 244.088 215.788 244.379C215.688 244.661 215.547 244.915 215.365 245.139C215.182 245.355 214.962 245.542 214.704 245.699C214.455 245.849 214.177 245.965 213.87 246.048L216.224 249.349ZM214.393 243.482C214.393 243.001 214.235 242.639 213.92 242.398C213.604 242.149 213.16 242.025 212.587 242.025H210.357V244.952H212.599C213.147 244.952 213.583 244.819 213.907 244.553C214.231 244.288 214.393 243.931 214.393 243.482ZM223.17 249.349H221.676V248.539C221.451 248.805 221.165 249.029 220.816 249.212C220.467 249.395 220.044 249.486 219.546 249.486C219.23 249.486 218.931 249.44 218.649 249.349C218.366 249.266 218.117 249.142 217.901 248.975C217.694 248.801 217.524 248.589 217.391 248.34C217.266 248.083 217.204 247.788 217.204 247.456V247.431C217.204 247.074 217.27 246.762 217.403 246.497C217.536 246.231 217.719 246.011 217.951 245.836C218.192 245.662 218.474 245.533 218.798 245.45C219.13 245.359 219.488 245.313 219.87 245.313C220.268 245.313 220.604 245.338 220.878 245.388C221.161 245.438 221.431 245.504 221.688 245.587V245.425C221.688 244.969 221.547 244.62 221.265 244.379C220.991 244.138 220.592 244.018 220.069 244.018C219.695 244.018 219.363 244.055 219.072 244.13C218.782 244.205 218.487 244.304 218.188 244.429L217.777 243.221C218.142 243.054 218.516 242.922 218.898 242.822C219.28 242.722 219.741 242.672 220.281 242.672C221.26 242.672 221.987 242.917 222.46 243.407C222.934 243.889 223.17 244.57 223.17 245.45V249.349ZM221.713 246.97V246.559C221.522 246.484 221.294 246.422 221.028 246.372C220.771 246.322 220.496 246.297 220.206 246.297C219.732 246.297 219.363 246.389 219.097 246.571C218.831 246.754 218.699 247.016 218.699 247.356V247.381C218.699 247.697 218.819 247.937 219.06 248.103C219.309 248.27 219.612 248.353 219.969 248.353C220.218 248.353 220.447 248.319 220.654 248.253C220.87 248.187 221.057 248.095 221.215 247.979C221.373 247.854 221.493 247.709 221.576 247.543C221.667 247.369 221.713 247.178 221.713 246.97ZM226.721 244.068V247.294C226.721 247.584 226.792 247.796 226.933 247.929C227.074 248.054 227.273 248.116 227.531 248.116C227.854 248.116 228.166 248.041 228.465 247.892V249.125C228.274 249.233 228.07 249.316 227.854 249.374C227.639 249.432 227.389 249.461 227.107 249.461C226.833 249.461 226.58 249.428 226.347 249.362C226.115 249.295 225.911 249.187 225.737 249.038C225.571 248.888 225.442 248.693 225.351 248.452C225.259 248.203 225.214 247.896 225.214 247.53V244.068H224.379V242.772H225.214V240.966H226.721V242.772H228.49V244.068H226.721ZM231.656 241.763H230.036V240.331H231.656V241.763ZM231.606 249.349H230.099V242.772H231.606V249.349ZM235.083 245.637V249.349H233.576V242.772H235.083V243.794C235.191 243.636 235.307 243.49 235.432 243.358C235.564 243.216 235.714 243.092 235.88 242.984C236.054 242.876 236.241 242.793 236.441 242.735C236.648 242.668 236.881 242.635 237.138 242.635C237.885 242.635 238.463 242.863 238.87 243.32C239.276 243.777 239.48 244.391 239.48 245.164V249.349H237.973V245.612C237.973 245.097 237.848 244.703 237.599 244.429C237.358 244.146 237.014 244.005 236.565 244.005C236.125 244.005 235.768 244.151 235.494 244.441C235.22 244.724 235.083 245.122 235.083 245.637ZM247.765 248.004C247.765 249.166 247.458 250.018 246.843 250.557C246.229 251.097 245.357 251.367 244.227 251.367C243.131 251.367 242.151 251.105 241.288 250.582L241.848 249.449C242.197 249.665 242.562 249.835 242.944 249.959C243.326 250.084 243.741 250.146 244.19 250.146C244.863 250.146 245.377 249.976 245.734 249.636C246.092 249.295 246.27 248.793 246.27 248.128V247.618C245.996 247.975 245.676 248.265 245.311 248.49C244.946 248.714 244.493 248.826 243.953 248.826C243.563 248.826 243.189 248.76 242.832 248.627C242.475 248.485 242.155 248.282 241.873 248.016C241.599 247.751 241.379 247.427 241.213 247.045C241.047 246.663 240.964 246.227 240.964 245.737C240.964 245.247 241.047 244.811 241.213 244.429C241.379 244.047 241.599 243.723 241.873 243.457C242.155 243.192 242.475 242.988 242.832 242.847C243.198 242.706 243.571 242.635 243.953 242.635C244.51 242.635 244.966 242.747 245.323 242.971C245.689 243.187 246 243.449 246.258 243.756V242.772H247.765V248.004ZM246.283 245.737C246.283 245.463 246.229 245.214 246.121 244.989C246.021 244.757 245.884 244.562 245.71 244.404C245.535 244.246 245.328 244.126 245.087 244.043C244.854 243.951 244.609 243.906 244.352 243.906C244.086 243.906 243.841 243.951 243.617 244.043C243.393 244.126 243.193 244.246 243.019 244.404C242.853 244.562 242.72 244.753 242.62 244.977C242.529 245.201 242.483 245.45 242.483 245.724C242.483 245.998 242.533 246.247 242.633 246.472C242.732 246.696 242.865 246.891 243.031 247.057C243.198 247.215 243.393 247.339 243.617 247.431C243.849 247.514 244.094 247.555 244.352 247.555C244.609 247.555 244.854 247.514 245.087 247.431C245.328 247.339 245.535 247.215 245.71 247.057C245.884 246.891 246.021 246.7 246.121 246.484C246.229 246.26 246.283 246.011 246.283 245.737ZM254.341 247.406C254.341 247.755 254.279 248.058 254.154 248.315C254.029 248.573 253.855 248.789 253.631 248.963C253.415 249.129 253.158 249.258 252.859 249.349C252.56 249.432 252.24 249.474 251.899 249.474C251.426 249.474 250.944 249.391 250.454 249.225C249.973 249.058 249.524 248.813 249.109 248.49L249.782 247.468C250.139 247.734 250.5 247.937 250.866 248.079C251.239 248.211 251.596 248.278 251.937 248.278C252.261 248.278 252.51 248.216 252.684 248.091C252.867 247.958 252.958 247.784 252.958 247.568V247.543C252.958 247.418 252.917 247.31 252.834 247.219C252.759 247.128 252.651 247.049 252.51 246.982C252.377 246.908 252.219 246.845 252.036 246.796C251.862 246.737 251.679 246.679 251.488 246.621C251.248 246.546 251.003 246.463 250.753 246.372C250.513 246.281 250.293 246.164 250.093 246.023C249.902 245.874 249.744 245.695 249.62 245.488C249.495 245.272 249.433 245.006 249.433 244.69V244.666C249.433 244.358 249.491 244.08 249.607 243.831C249.732 243.582 249.898 243.37 250.106 243.196C250.322 243.021 250.571 242.888 250.853 242.797C251.144 242.706 251.451 242.66 251.775 242.66C252.19 242.66 252.609 242.726 253.033 242.859C253.456 242.992 253.843 243.175 254.191 243.407L253.593 244.479C253.278 244.288 252.958 244.138 252.634 244.03C252.31 243.914 252.012 243.856 251.737 243.856C251.447 243.856 251.218 243.918 251.052 244.043C250.895 244.167 250.816 244.325 250.816 244.516V244.541C250.816 244.657 250.857 244.761 250.94 244.852C251.023 244.935 251.131 245.014 251.264 245.089C251.405 245.155 251.563 245.222 251.737 245.288C251.92 245.346 252.107 245.405 252.298 245.463C252.539 245.537 252.78 245.625 253.02 245.724C253.261 245.824 253.477 245.949 253.668 246.098C253.868 246.239 254.029 246.414 254.154 246.621C254.279 246.829 254.341 247.082 254.341 247.381V247.406Z" fill="#454545"/>
<rect x="45.6063" y="221.22" width="255.356" height="49.259" rx="10.2321" stroke="#EFEFEF" stroke-width="0.889744"/>
<path fill-rule="evenodd" clip-rule="evenodd" d="M117.801 47.5586C117.801 48.4992 117.988 49.4308 118.351 50.3004C118.714 51.1701 119.247 51.961 119.919 52.6278C120.591 53.2947 121.39 53.8242 122.27 54.1858C123.15 54.5473 124.094 54.7335 125.047 54.7335C126 54.7335 126.944 54.5473 127.823 54.1858C128.703 53.8242 129.502 53.2947 130.175 52.6278C130.847 51.961 131.379 51.1701 131.743 50.3004C132.106 49.4308 132.293 48.4992 132.293 47.5586H135.221C135.221 48.8871 134.957 50.2023 134.445 51.429L133.094 50.8647L134.445 51.429C133.933 52.6557 133.182 53.7695 132.237 54.7072C131.292 55.6448 130.17 56.388 128.936 56.8948C127.703 57.4016 126.381 57.6623 125.047 57.6623C123.712 57.6623 122.391 57.4016 121.157 56.8948C119.923 56.388 118.802 55.6448 117.857 54.7072C116.911 53.7695 116.161 52.6557 115.648 51.429C115.136 50.2023 114.872 48.8871 114.872 47.5586H117.801Z" fill="#2D3AAF"/>
<path d="M116.075 44.478C116.213 44.3003 116.481 44.3003 116.619 44.478L118.825 47.3187C119 47.545 118.839 47.8745 118.552 47.8745H114.141C113.855 47.8745 113.693 47.545 113.869 47.3187L116.075 44.478Z" fill="#2D3AAF"/>
<path d="M133.475 44.478C133.613 44.3003 133.881 44.3003 134.019 44.478L136.225 47.3187C136.4 47.545 136.239 47.8745 135.953 47.8745H131.541C131.255 47.8745 131.093 47.545 131.269 47.3187L133.475 44.478Z" fill="#2D3AAF"/>
<path fill-rule="evenodd" clip-rule="evenodd" d="M123.496 56.1681V40.1641H126.425V56.1681H123.496Z" fill="#2D3AAF"/>
<path fill-rule="evenodd" clip-rule="evenodd" d="M130.369 45.8501C130.369 46.6588 129.713 47.3145 128.905 47.3145H121.257C120.448 47.3145 119.792 46.6588 119.792 45.8501C119.792 45.0413 120.448 44.3857 121.257 44.3857H128.905C129.713 44.3857 130.369 45.0413 130.369 45.8501Z" fill="#2D3AAF"/>
<path fill-rule="evenodd" clip-rule="evenodd" d="M125 38.6932C125.736 38.6932 126.332 38.097 126.332 37.3615C126.332 36.626 125.736 36.0298 125 36.0298C124.265 36.0298 123.669 36.626 123.669 37.3615C123.669 38.097 124.265 38.6932 125 38.6932ZM125 40.7606C126.878 40.7606 128.399 39.2387 128.399 37.3615C128.399 35.4842 126.878 33.9624 125 33.9624C123.123 33.9624 121.601 35.4842 121.601 37.3615C121.601 39.2387 123.123 40.7606 125 40.7606Z" fill="#2D3AAF"/>
<path d="M146.23 45.9976C146.23 34.4171 136.724 25.0029 125.047 25.0029C113.369 25.0029 103.856 34.4238 103.856 45.9976C103.856 51.3734 105.907 56.4683 109.624 60.3797C109.678 60.4599 109.739 60.5402 109.806 60.607L124.068 74.7417C124.331 75.0024 124.675 75.1362 125.026 75.1362C125.377 75.1362 125.721 75.0024 125.984 74.7417C126.51 74.2201 126.51 73.371 125.984 72.8428L111.871 58.8619C111.837 58.8151 111.803 58.7616 111.756 58.7215C108.41 55.2848 106.561 50.7716 106.561 46.0043C106.561 35.9015 114.853 27.6841 125.04 27.6841C135.227 27.6841 143.525 35.9015 143.525 46.0043C143.525 50.892 141.602 55.4854 138.107 58.9488C138.107 58.9488 138.107 58.9555 138.094 58.9622C138.094 58.9622 138.08 58.9689 138.08 58.9756L135.402 61.63C134.876 62.1515 134.876 63.0007 135.402 63.5222C135.665 63.783 136.009 63.9167 136.36 63.9167C136.711 63.9167 137.055 63.783 137.318 63.5222L139.996 60.8678C139.996 60.8678 140.003 60.8611 140.01 60.8544C140.01 60.8544 140.023 60.8477 140.023 60.841C144.031 56.8694 146.237 51.6007 146.237 45.9976H146.23Z" fill="#2D3AAF"/>
<path fill-rule="evenodd" clip-rule="evenodd" d="M102.995 45.9977C102.995 33.9405 112.9 24.1416 125.047 24.1416C136.902 24.1416 146.617 33.4713 147.075 45.1363H147.098V45.9977C147.098 51.8143 144.813 57.2867 140.669 61.4143C140.637 61.4501 140.607 61.4789 140.581 61.501L137.925 64.1341C137.496 64.5591 136.932 64.7782 136.36 64.7782C135.789 64.7782 135.225 64.5591 134.796 64.1341C133.93 63.2756 133.93 61.8768 134.796 61.0183L137.436 58.4018C137.436 58.4018 137.436 58.4017 137.436 58.4018C137.467 58.3665 137.497 58.3379 137.522 58.316C140.842 55.0155 142.663 50.6505 142.663 46.0044C142.663 36.3847 134.759 28.5456 125.04 28.5456C115.321 28.5456 107.423 36.3843 107.423 46.0044C107.423 50.5357 109.175 54.826 112.354 58.1012C112.422 58.164 112.471 58.2243 112.503 58.2657C112.513 58.2788 112.522 58.2912 112.53 58.3023L126.592 72.2329L126.595 72.2349C127.453 73.0971 127.459 74.4929 126.591 75.3536C126.162 75.7786 125.598 75.9976 125.026 75.9976C124.455 75.9976 123.891 75.7786 123.462 75.3536L109.2 61.2189C109.1 61.1199 109.018 61.0151 108.953 60.9241C105.115 56.8607 102.995 51.574 102.995 45.9977ZM145.369 46.523V45.9977C145.369 34.9004 136.256 25.8644 125.047 25.8644C113.837 25.8644 104.718 34.9072 104.718 45.9977C104.718 51.1504 106.682 56.0334 110.249 59.7864L110.299 59.8389L110.339 59.899C110.378 59.9562 110.402 59.9847 110.413 59.9953L124.675 74.1299C124.772 74.2264 124.896 74.2748 125.026 74.2748C125.156 74.2748 125.281 74.2264 125.378 74.1299C125.561 73.948 125.567 73.6466 125.376 73.4523C125.375 73.4518 125.375 73.4513 125.374 73.4508L111.214 59.4236L111.172 59.3656C111.166 59.3573 111.16 59.3494 111.156 59.3431L111.148 59.3317L111.139 59.3225C107.638 55.7267 105.7 50.9986 105.7 46.0044C105.7 35.4187 114.384 26.8228 125.04 26.8228C135.695 26.8228 144.386 35.4183 144.386 46.0044C144.386 51.0162 142.454 55.7346 138.942 59.331V59.3347L138.752 59.5228C138.724 59.555 138.694 59.5837 138.665 59.6093L136.009 62.2419C135.822 62.4264 135.822 62.7259 136.009 62.9105C136.106 63.0069 136.23 63.0554 136.36 63.0554C136.49 63.0554 136.614 63.0069 136.712 62.9105L139.39 60.256L139.39 60.2557L139.391 60.2549L139.417 60.2293C139.419 60.2273 139.421 60.2254 139.423 60.2235C143.139 56.5375 145.236 51.6949 145.369 46.523ZM137.712 58.1905C137.711 58.1905 137.711 58.1905 137.711 58.1906C137.709 58.1915 137.707 58.1925 137.705 58.1935L137.707 58.1929L137.709 58.1917L137.71 58.191L137.711 58.1907L137.711 58.1906C137.711 58.1905 137.712 58.1905 138.067 58.9083L137.712 58.1905ZM138.477 59.734L138.477 59.7338L138.477 59.7337C138.477 59.7338 138.477 59.7339 138.477 59.734Z" fill="#2D3AAF"/>
<path d="M160.186 39.1324H157.746V36.9744H160.186V39.1324ZM160.111 50.5602H157.84V40.6523H160.111V50.5602Z" fill="#2D3AAF"/>
<path d="M174.378 48.4586C174.04 48.8214 173.684 49.1466 173.308 49.4343C172.945 49.7096 172.551 49.9535 172.126 50.1662C171.701 50.3663 171.232 50.5165 170.719 50.6165C170.218 50.7291 169.662 50.7854 169.049 50.7854C168.085 50.7854 167.197 50.6103 166.384 50.26C165.571 49.9097 164.864 49.4343 164.264 48.8339C163.676 48.2209 163.213 47.5015 162.875 46.6759C162.537 45.8502 162.368 44.962 162.368 44.0113C162.368 43.073 162.531 42.1911 162.856 41.3654C163.194 40.5397 163.663 39.8204 164.264 39.2074C164.864 38.5819 165.577 38.094 166.403 37.7438C167.228 37.381 168.142 37.1996 169.142 37.1996C169.743 37.1996 170.287 37.2496 170.775 37.3497C171.275 37.4498 171.732 37.5936 172.145 37.7813C172.558 37.9564 172.939 38.1691 173.289 38.4193C173.64 38.6695 173.971 38.9447 174.284 39.245L172.802 40.9526C172.276 40.4647 171.719 40.0706 171.132 39.7704C170.544 39.4701 169.874 39.32 169.124 39.32C168.498 39.32 167.916 39.4451 167.379 39.6953C166.853 39.933 166.397 40.2645 166.009 40.6899C165.621 41.1027 165.321 41.5906 165.108 42.1535C164.895 42.7165 164.789 43.3232 164.789 43.9737C164.789 44.6243 164.895 45.2372 165.108 45.8127C165.321 46.3757 165.621 46.8698 166.009 47.2951C166.397 47.7205 166.853 48.0582 167.379 48.3084C167.916 48.5461 168.498 48.665 169.124 48.665C169.924 48.665 170.612 48.5149 171.188 48.2146C171.763 47.9019 172.332 47.4828 172.895 46.9574L174.378 48.4586Z" fill="#2D3AAF"/>
<path d="M178.421 44.9683V50.5602H176.15V36.8618H178.421V42.1911C178.583 41.9534 178.759 41.7345 178.946 41.5343C179.146 41.3216 179.371 41.134 179.622 40.9713C179.884 40.8087 180.166 40.6836 180.466 40.596C180.779 40.496 181.129 40.4459 181.517 40.4459C182.643 40.4459 183.512 40.7899 184.125 41.478C184.738 42.166 185.045 43.0918 185.045 44.2552V50.5602H182.774V44.9307C182.774 44.1551 182.587 43.5609 182.211 43.1481C181.848 42.7227 181.329 42.5101 180.654 42.5101C179.991 42.5101 179.453 42.729 179.04 43.1668C178.627 43.5922 178.421 44.1927 178.421 44.9683Z" fill="#2D3AAF"/>
<path d="M195.709 50.5602H193.457V49.3405C193.119 49.7408 192.687 50.0786 192.162 50.3538C191.637 50.629 190.999 50.7667 190.248 50.7667C189.773 50.7667 189.322 50.6978 188.897 50.5602C188.472 50.4351 188.096 50.2475 187.771 49.9973C187.458 49.7346 187.202 49.4156 187.002 49.0403C186.814 48.6525 186.72 48.2084 186.72 47.708V47.6704C186.72 47.1325 186.82 46.6634 187.02 46.2631C187.221 45.8627 187.496 45.5312 187.846 45.2685C188.209 45.0058 188.634 44.8119 189.122 44.6868C189.622 44.5492 190.16 44.4804 190.736 44.4804C191.336 44.4804 191.843 44.5179 192.256 44.593C192.681 44.668 193.088 44.7681 193.476 44.8932V44.6493C193.476 43.9612 193.263 43.4358 192.838 43.073C192.425 42.7102 191.824 42.5288 191.036 42.5288C190.473 42.5288 189.973 42.5851 189.535 42.6977C189.097 42.8103 188.653 42.9604 188.203 43.1481L187.583 41.3279C188.134 41.0777 188.697 40.8775 189.272 40.7274C189.848 40.5773 190.542 40.5022 191.355 40.5022C192.831 40.5022 193.926 40.8713 194.639 41.6094C195.352 42.3349 195.709 43.3607 195.709 44.6868V50.5602ZM193.513 46.9761V46.3569C193.225 46.2443 192.881 46.1505 192.481 46.0754C192.093 46.0004 191.68 45.9628 191.243 45.9628C190.529 45.9628 189.973 46.1004 189.572 46.3757C189.172 46.6509 188.972 47.0449 188.972 47.5578V47.5954C188.972 48.0708 189.153 48.4335 189.516 48.6837C189.891 48.9339 190.348 49.059 190.886 49.059C191.261 49.059 191.605 49.009 191.918 48.9089C192.243 48.8088 192.525 48.6712 192.762 48.4961C193 48.3084 193.182 48.0895 193.307 47.8393C193.444 47.5766 193.513 47.2889 193.513 46.9761Z" fill="#2D3AAF"/>
<path d="M200.289 46.7885V50.5602H198.018V40.6523H200.289V42.8854C200.602 42.1348 201.046 41.5343 201.621 41.0839C202.197 40.6336 202.922 40.4272 203.798 40.4647V42.8666H203.666C203.166 42.8666 202.709 42.9479 202.297 43.1105C201.884 43.2732 201.527 43.5171 201.227 43.8424C200.927 44.1676 200.695 44.5805 200.533 45.0809C200.37 45.5688 200.289 46.138 200.289 46.7885Z" fill="#2D3AAF"/>
<path d="M208.118 42.6039V47.464C208.118 47.9019 208.225 48.2209 208.437 48.421C208.65 48.6087 208.95 48.7025 209.338 48.7025C209.826 48.7025 210.295 48.5899 210.746 48.3647V50.2225C210.458 50.3851 210.151 50.5102 209.826 50.5978C209.501 50.6853 209.126 50.7291 208.7 50.7291C208.287 50.7291 207.906 50.6791 207.556 50.579C207.205 50.4789 206.899 50.3163 206.636 50.0911C206.386 49.8659 206.192 49.5719 206.054 49.2092C205.917 48.8339 205.848 48.371 205.848 47.8206V42.6039H204.591V40.6523H205.848V37.9314H208.118V40.6523H210.783V42.6039H208.118Z" fill="#2D3AAF"/>
<path d="M214.136 46.4132C214.274 47.2263 214.599 47.8518 215.112 48.2897C215.625 48.715 216.25 48.9277 216.988 48.9277C217.551 48.9277 218.039 48.8276 218.452 48.6274C218.865 48.4273 219.271 48.1333 219.672 47.7455L221.004 48.9277C220.529 49.4906 219.959 49.941 219.296 50.2788C218.646 50.6165 217.864 50.7854 216.951 50.7854C216.238 50.7854 215.568 50.6603 214.943 50.4101C214.33 50.1599 213.792 49.8096 213.329 49.3593C212.879 48.9089 212.522 48.371 212.259 47.7455C211.997 47.1075 211.865 46.4007 211.865 45.6251C211.865 44.912 211.984 44.2427 212.222 43.6172C212.46 42.9917 212.791 42.4475 213.216 41.9847C213.654 41.5093 214.167 41.134 214.755 40.8588C215.343 40.5835 215.994 40.4459 216.707 40.4459C217.495 40.4459 218.183 40.5898 218.771 40.8775C219.371 41.1652 219.866 41.5531 220.253 42.0409C220.654 42.5288 220.954 43.098 221.154 43.7486C221.354 44.3991 221.454 45.0809 221.454 45.7939C221.454 45.894 221.448 45.9941 221.436 46.0942C221.436 46.1943 221.429 46.3006 221.417 46.4132H214.136ZM214.117 44.912H219.202C219.165 44.5492 219.084 44.2114 218.959 43.8987C218.833 43.5734 218.665 43.2982 218.452 43.073C218.239 42.8353 217.983 42.6477 217.683 42.5101C217.395 42.3725 217.063 42.3037 216.688 42.3037C215.987 42.3037 215.406 42.5476 214.943 43.0355C214.492 43.5109 214.217 44.1364 214.117 44.912Z" fill="#2D3AAF"/>
<path d="M225.614 46.7885V50.5602H223.344V40.6523H225.614V42.8854C225.927 42.1348 226.371 41.5343 226.946 41.0839C227.522 40.6336 228.247 40.4272 229.123 40.4647V42.8666H228.992C228.491 42.8666 228.035 42.9479 227.622 43.1105C227.209 43.2732 226.853 43.5171 226.552 43.8424C226.252 44.1676 226.021 44.5805 225.858 45.0809C225.695 45.5688 225.614 46.138 225.614 46.7885Z" fill="#2D3AAF"/>
<path d="M164.014 58.6727C164.014 59.1172 163.933 59.5346 163.771 59.9251C163.608 60.3095 163.377 60.6429 163.077 60.9252C162.782 61.2075 162.428 61.4298 162.014 61.592C161.605 61.7541 161.155 61.8352 160.662 61.8352H158.31V55.5281H160.662C161.155 55.5281 161.605 55.6092 162.014 55.7714C162.428 55.9276 162.782 56.1468 163.077 56.4291C163.377 56.7115 163.608 57.0448 163.771 57.4293C163.933 57.8137 164.014 58.2282 164.014 58.6727ZM162.852 58.6907C162.852 58.3783 162.797 58.093 162.689 57.8347C162.587 57.5704 162.44 57.3422 162.248 57.1499C162.062 56.9577 161.833 56.8076 161.563 56.6994C161.293 56.5913 160.992 56.5373 160.662 56.5373H159.419V60.8261H160.662C160.992 60.8261 161.293 60.775 161.563 60.6729C161.833 60.5648 162.062 60.4176 162.248 60.2314C162.44 60.0392 162.587 59.814 162.689 59.5557C162.797 59.2914 162.852 59.003 162.852 58.6907Z" fill="#2D3AAF"/>
<path d="M166.135 60.0242V61.8352H165.045V57.0779H166.135V58.1501C166.285 57.7897 166.498 57.5013 166.774 57.2851C167.051 57.0689 167.399 56.9697 167.82 56.9878V58.1411H167.757C167.516 58.1411 167.297 58.1801 167.099 58.2582C166.901 58.3363 166.729 58.4534 166.585 58.6096C166.441 58.7658 166.33 58.964 166.252 59.2043C166.174 59.4385 166.135 59.7118 166.135 60.0242Z" fill="#2D3AAF"/>
<path d="M173.232 59.4566C173.232 59.7989 173.166 60.1203 173.034 60.4206C172.907 60.721 172.73 60.9853 172.502 61.2135C172.28 61.4358 172.012 61.613 171.7 61.7451C171.388 61.8773 171.048 61.9434 170.682 61.9434C170.322 61.9434 169.985 61.8803 169.673 61.7541C169.366 61.622 169.099 61.4448 168.871 61.2225C168.649 60.9943 168.474 60.733 168.348 60.4387C168.222 60.1383 168.159 59.817 168.159 59.4746C168.159 59.1322 168.222 58.8108 168.348 58.5105C168.48 58.2041 168.658 57.9398 168.88 57.7176C169.108 57.4893 169.376 57.3091 169.682 57.177C169.994 57.0448 170.334 56.9788 170.7 56.9788C171.066 56.9788 171.403 57.0448 171.709 57.177C172.021 57.3031 172.289 57.4803 172.511 57.7086C172.739 57.9308 172.917 58.1921 173.043 58.4925C173.169 58.7928 173.232 59.1142 173.232 59.4566ZM172.142 59.4746C172.142 59.2643 172.106 59.0661 172.034 58.8799C171.961 58.6937 171.859 58.5315 171.727 58.3934C171.601 58.2492 171.448 58.1381 171.268 58.06C171.093 57.9759 170.898 57.9338 170.682 57.9338C170.466 57.9338 170.268 57.9759 170.087 58.06C169.913 58.1381 169.763 58.2462 169.637 58.3843C169.511 58.5225 169.415 58.6847 169.348 58.8709C169.282 59.0511 169.249 59.2463 169.249 59.4566C169.249 59.6668 169.285 59.868 169.357 60.0602C169.43 60.2464 169.529 60.4086 169.655 60.5468C169.787 60.6849 169.94 60.7961 170.114 60.8802C170.295 60.9583 170.49 60.9973 170.7 60.9973C170.922 60.9973 171.12 60.9583 171.295 60.8802C171.475 60.7961 171.628 60.6849 171.754 60.5468C171.88 60.4086 171.976 60.2495 172.043 60.0692C172.109 59.883 172.142 59.6848 172.142 59.4746Z" fill="#2D3AAF"/>
<path d="M179.074 59.4566C179.074 59.853 179.011 60.2044 178.885 60.5107C178.765 60.8171 178.599 61.0784 178.389 61.2946C178.185 61.5049 177.948 61.664 177.677 61.7722C177.413 61.8803 177.14 61.9344 176.857 61.9344C176.467 61.9344 176.143 61.8503 175.884 61.6821C175.626 61.5139 175.413 61.3187 175.245 61.0964V63.2769H174.154V57.0779H175.245V57.8708C175.419 57.6185 175.635 57.4082 175.893 57.2401C176.152 57.0659 176.473 56.9788 176.857 56.9788C177.14 56.9788 177.413 57.0328 177.677 57.1409C177.942 57.2491 178.176 57.4112 178.38 57.6275C178.59 57.8377 178.759 58.096 178.885 58.4024C179.011 58.7087 179.074 59.0601 179.074 59.4566ZM177.966 59.4566C177.966 59.2223 177.93 59.0121 177.858 58.8258C177.786 58.6336 177.686 58.4714 177.56 58.3393C177.44 58.2071 177.296 58.105 177.128 58.0329C176.966 57.9609 176.791 57.9248 176.605 57.9248C176.419 57.9248 176.242 57.9609 176.074 58.0329C175.905 58.105 175.758 58.2101 175.632 58.3483C175.506 58.4805 175.404 58.6396 175.326 58.8258C175.254 59.0121 175.218 59.2223 175.218 59.4566C175.218 59.6908 175.254 59.9011 175.326 60.0873C175.404 60.2735 175.506 60.4357 175.632 60.5738C175.758 60.706 175.905 60.8081 176.074 60.8802C176.242 60.9522 176.419 60.9883 176.605 60.9883C176.791 60.9883 176.966 60.9522 177.128 60.8802C177.296 60.8081 177.44 60.706 177.56 60.5738C177.686 60.4417 177.786 60.2825 177.858 60.0963C177.93 59.9041 177.966 59.6908 177.966 59.4566Z" fill="#2D3AAF"/>
<path d="M185.904 55.4831L188.679 61.8352H187.508L186.868 60.3125H183.886L183.237 61.8352H182.102L184.877 55.4831H185.904ZM186.463 59.3304L185.373 56.8076L184.291 59.3304H186.463Z" fill="#2D3AAF"/>
<path d="M190.537 59.1502V61.8352H189.447V57.0779H190.537V57.8167C190.615 57.7026 190.7 57.5975 190.79 57.5013C190.886 57.3992 190.994 57.3091 191.114 57.231C191.24 57.153 191.375 57.0929 191.519 57.0508C191.67 57.0028 191.838 56.9788 192.024 56.9788C192.565 56.9788 192.982 57.1439 193.276 57.4743C193.571 57.8047 193.718 58.2492 193.718 58.8078V61.8352H192.628V59.1322C192.628 58.7598 192.538 58.4744 192.357 58.2762C192.183 58.072 191.934 57.9699 191.61 57.9699C191.291 57.9699 191.033 58.075 190.835 58.2852C190.636 58.4895 190.537 58.7778 190.537 59.1502Z" fill="#2D3AAF"/>
<path d="M200.748 55.4831L203.523 61.8352H202.352L201.712 60.3125H198.73L198.081 61.8352H196.946L199.721 55.4831H200.748ZM201.307 59.3304L200.217 56.8076L199.135 59.3304H201.307Z" fill="#2D3AAF"/>
<path d="M205.381 59.1502V61.8352H204.291V57.0779H205.381V57.8167C205.459 57.7026 205.543 57.5975 205.634 57.5013C205.73 57.3992 205.838 57.3091 205.958 57.231C206.084 57.153 206.219 57.0929 206.363 57.0508C206.514 57.0028 206.682 56.9788 206.868 56.9788C207.409 56.9788 207.826 57.1439 208.12 57.4743C208.415 57.8047 208.562 58.2492 208.562 58.8078V61.8352H207.472V59.1322C207.472 58.7598 207.382 58.4744 207.201 58.2762C207.027 58.072 206.778 57.9699 206.453 57.9699C206.135 57.9699 205.877 58.075 205.679 58.2852C205.48 58.4895 205.381 58.7778 205.381 59.1502Z" fill="#2D3AAF"/>
<path d="M213.835 61.0514C213.601 61.3157 213.334 61.5319 213.033 61.7001C212.733 61.8623 212.352 61.9434 211.889 61.9434C211.535 61.9434 211.207 61.8803 210.907 61.7541C210.607 61.622 210.345 61.4448 210.123 61.2225C209.907 60.9943 209.736 60.733 209.61 60.4387C209.489 60.1383 209.429 59.817 209.429 59.4746C209.429 59.1322 209.489 58.8108 209.61 58.5105C209.736 58.2101 209.907 57.9458 210.123 57.7176C210.345 57.4893 210.607 57.3091 210.907 57.177C211.213 57.0448 211.544 56.9788 211.898 56.9788C212.349 56.9788 212.721 57.0538 213.015 57.204C213.316 57.3542 213.577 57.5524 213.799 57.7987L213.124 58.5285C212.955 58.3543 212.775 58.2132 212.583 58.105C212.397 57.9909 212.165 57.9338 211.889 57.9338C211.691 57.9338 211.508 57.9759 211.34 58.06C211.171 58.1381 211.027 58.2462 210.907 58.3843C210.787 58.5225 210.691 58.6847 210.619 58.8709C210.553 59.0511 210.52 59.2463 210.52 59.4566C210.52 59.6728 210.553 59.874 210.619 60.0602C210.691 60.2464 210.79 60.4086 210.916 60.5468C211.042 60.6849 211.192 60.7961 211.367 60.8802C211.541 60.9583 211.733 60.9973 211.943 60.9973C212.202 60.9973 212.427 60.9432 212.619 60.8351C212.817 60.721 213.003 60.5768 213.178 60.4026L213.835 61.0514Z" fill="#2D3AAF"/>
<path d="M215.741 59.1502V61.8352H214.65V55.2578H215.741V57.8167C215.819 57.7026 215.903 57.5975 215.993 57.5013C216.089 57.3992 216.197 57.3091 216.317 57.231C216.443 57.153 216.579 57.0929 216.723 57.0508C216.873 57.0028 217.041 56.9788 217.227 56.9788C217.768 56.9788 218.185 57.1439 218.48 57.4743C218.774 57.8047 218.921 58.2492 218.921 58.8078V61.8352H217.831V59.1322C217.831 58.7598 217.741 58.4744 217.561 58.2762C217.386 58.072 217.137 57.9699 216.813 57.9699C216.494 57.9699 216.236 58.075 216.038 58.2852C215.84 58.4895 215.741 58.7778 215.741 59.1502Z" fill="#2D3AAF"/>
<path d="M224.861 59.4566C224.861 59.7989 224.795 60.1203 224.663 60.4206C224.537 60.721 224.36 60.9853 224.132 61.2135C223.909 61.4358 223.642 61.613 223.33 61.7451C223.017 61.8773 222.678 61.9434 222.312 61.9434C221.951 61.9434 221.615 61.8803 221.302 61.7541C220.996 61.622 220.729 61.4448 220.501 61.2225C220.278 60.9943 220.104 60.733 219.978 60.4387C219.852 60.1383 219.789 59.817 219.789 59.4746C219.789 59.1322 219.852 58.8108 219.978 58.5105C220.11 58.2041 220.287 57.9398 220.51 57.7176C220.738 57.4893 221.005 57.3091 221.311 57.177C221.624 57.0448 221.963 56.9788 222.33 56.9788C222.696 56.9788 223.032 57.0448 223.339 57.177C223.651 57.3031 223.918 57.4803 224.141 57.7086C224.369 57.9308 224.546 58.1921 224.672 58.4925C224.798 58.7928 224.861 59.1142 224.861 59.4566ZM223.771 59.4746C223.771 59.2643 223.735 59.0661 223.663 58.8799C223.591 58.6937 223.489 58.5315 223.357 58.3934C223.231 58.2492 223.077 58.1381 222.897 58.06C222.723 57.9759 222.528 57.9338 222.312 57.9338C222.095 57.9338 221.897 57.9759 221.717 58.06C221.543 58.1381 221.393 58.2462 221.266 58.3843C221.14 58.5225 221.044 58.6847 220.978 58.8709C220.912 59.0511 220.879 59.2463 220.879 59.4566C220.879 59.6668 220.915 59.868 220.987 60.0602C221.059 60.2464 221.158 60.4086 221.284 60.5468C221.417 60.6849 221.57 60.7961 221.744 60.8802C221.924 60.9583 222.119 60.9973 222.33 60.9973C222.552 60.9973 222.75 60.9583 222.924 60.8802C223.104 60.7961 223.258 60.6849 223.384 60.5468C223.51 60.4086 223.606 60.2495 223.672 60.0692C223.738 59.883 223.771 59.6848 223.771 59.4746Z" fill="#2D3AAF"/>
<path d="M226.874 60.0242V61.8352H225.784V57.0779H226.874V58.1501C227.024 57.7897 227.238 57.5013 227.514 57.2851C227.79 57.0689 228.139 56.9697 228.559 56.9878V58.1411H228.496C228.256 58.1411 228.037 58.1801 227.838 58.2582C227.64 58.3363 227.469 58.4534 227.325 58.6096C227.181 58.7658 227.07 58.964 226.991 59.2043C226.913 59.4385 226.874 59.7118 226.874 60.0242Z" fill="#2D3AAF"/>
<rect x="45.606" y="158.938" width="254.351" height="49.259" rx="10.2321" fill="white"/>
<path d="M114.414 178.347H115.947V187.067H114.414V178.347ZM119.614 183.355V187.067H118.106V180.49H119.614V181.511C119.722 181.354 119.838 181.208 119.962 181.075C120.095 180.934 120.245 180.81 120.411 180.702C120.585 180.594 120.772 180.511 120.971 180.453C121.179 180.386 121.411 180.353 121.669 180.353C122.416 180.353 122.993 180.581 123.4 181.038C123.807 181.495 124.011 182.109 124.011 182.882V187.067H122.503V183.33C122.503 182.815 122.379 182.421 122.13 182.147C121.889 181.864 121.544 181.723 121.096 181.723C120.656 181.723 120.299 181.868 120.025 182.159C119.751 182.441 119.614 182.84 119.614 183.355ZM127.649 181.785V185.012C127.649 185.302 127.72 185.514 127.861 185.647C128.002 185.771 128.202 185.834 128.459 185.834C128.783 185.834 129.094 185.759 129.393 185.609V186.843C129.202 186.951 128.999 187.034 128.783 187.092C128.567 187.15 128.318 187.179 128.036 187.179C127.762 187.179 127.508 187.146 127.276 187.079C127.043 187.013 126.84 186.905 126.665 186.755C126.499 186.606 126.371 186.411 126.279 186.17C126.188 185.921 126.142 185.614 126.142 185.248V181.785H125.308V180.49H126.142V178.684H127.649V180.49H129.418V181.785H127.649ZM131.903 184.314C131.995 184.854 132.211 185.269 132.551 185.56C132.892 185.842 133.307 185.983 133.797 185.983C134.17 185.983 134.494 185.917 134.768 185.784C135.042 185.651 135.312 185.456 135.578 185.198L136.462 185.983C136.147 186.357 135.769 186.656 135.329 186.88C134.897 187.104 134.378 187.216 133.772 187.216C133.298 187.216 132.854 187.133 132.439 186.967C132.032 186.801 131.675 186.569 131.368 186.27C131.069 185.971 130.832 185.614 130.658 185.198C130.483 184.775 130.396 184.306 130.396 183.791C130.396 183.318 130.475 182.873 130.633 182.458C130.791 182.043 131.011 181.682 131.293 181.374C131.584 181.059 131.924 180.81 132.314 180.627C132.705 180.444 133.137 180.353 133.61 180.353C134.133 180.353 134.59 180.448 134.98 180.639C135.379 180.83 135.707 181.088 135.964 181.412C136.23 181.736 136.429 182.113 136.562 182.545C136.695 182.977 136.761 183.43 136.761 183.903C136.761 183.969 136.757 184.036 136.749 184.102C136.749 184.169 136.745 184.239 136.736 184.314H131.903ZM131.891 183.318H135.267C135.242 183.077 135.188 182.852 135.105 182.645C135.022 182.429 134.91 182.246 134.768 182.097C134.627 181.939 134.457 181.814 134.258 181.723C134.067 181.632 133.847 181.586 133.597 181.586C133.132 181.586 132.746 181.748 132.439 182.072C132.14 182.387 131.957 182.803 131.891 183.318ZM139.869 187.067H138.362V177.974H139.869V187.067ZM143.434 187.067H141.926V177.974H143.434V187.067ZM147.048 179.481H145.428V178.048H147.048V179.481ZM146.998 187.067H145.491V180.49H146.998V187.067ZM155.432 185.722C155.432 186.884 155.125 187.735 154.511 188.275C153.896 188.815 153.024 189.085 151.895 189.085C150.799 189.085 149.819 188.823 148.955 188.3L149.516 187.167C149.864 187.382 150.23 187.553 150.612 187.677C150.994 187.802 151.409 187.864 151.857 187.864C152.53 187.864 153.045 187.694 153.402 187.353C153.759 187.013 153.938 186.511 153.938 185.846V185.335C153.664 185.693 153.344 185.983 152.979 186.207C152.613 186.432 152.161 186.544 151.621 186.544C151.23 186.544 150.857 186.477 150.5 186.344C150.143 186.203 149.823 186 149.541 185.734C149.267 185.468 149.046 185.144 148.88 184.762C148.714 184.38 148.631 183.944 148.631 183.455C148.631 182.965 148.714 182.529 148.88 182.147C149.046 181.765 149.267 181.441 149.541 181.175C149.823 180.909 150.143 180.706 150.5 180.565C150.865 180.423 151.239 180.353 151.621 180.353C152.177 180.353 152.634 180.465 152.991 180.689C153.356 180.905 153.668 181.167 153.925 181.474V180.49H155.432V185.722ZM153.95 183.455C153.95 183.18 153.896 182.931 153.788 182.707C153.689 182.475 153.552 182.279 153.377 182.122C153.203 181.964 152.995 181.844 152.754 181.76C152.522 181.669 152.277 181.623 152.019 181.623C151.754 181.623 151.509 181.669 151.284 181.76C151.06 181.844 150.861 181.964 150.687 182.122C150.52 182.279 150.388 182.47 150.288 182.695C150.197 182.919 150.151 183.168 150.151 183.442C150.151 183.716 150.201 183.965 150.3 184.189C150.4 184.414 150.533 184.609 150.699 184.775C150.865 184.933 151.06 185.057 151.284 185.149C151.517 185.232 151.762 185.273 152.019 185.273C152.277 185.273 152.522 185.232 152.754 185.149C152.995 185.057 153.203 184.933 153.377 184.775C153.552 184.609 153.689 184.418 153.788 184.202C153.896 183.978 153.95 183.729 153.95 183.455ZM158.458 184.314C158.55 184.854 158.766 185.269 159.106 185.56C159.447 185.842 159.862 185.983 160.352 185.983C160.725 185.983 161.049 185.917 161.323 185.784C161.597 185.651 161.867 185.456 162.133 185.198L163.017 185.983C162.702 186.357 162.324 186.656 161.884 186.88C161.452 187.104 160.933 187.216 160.327 187.216C159.853 187.216 159.409 187.133 158.994 186.967C158.587 186.801 158.23 186.569 157.923 186.27C157.624 185.971 157.387 185.614 157.213 185.198C157.038 184.775 156.951 184.306 156.951 183.791C156.951 183.318 157.03 182.873 157.188 182.458C157.346 182.043 157.566 181.682 157.848 181.374C158.139 181.059 158.479 180.81 158.869 180.627C159.26 180.444 159.692 180.353 160.165 180.353C160.688 180.353 161.145 180.448 161.535 180.639C161.934 180.83 162.262 181.088 162.519 181.412C162.785 181.736 162.984 182.113 163.117 182.545C163.25 182.977 163.316 183.43 163.316 183.903C163.316 183.969 163.312 184.036 163.304 184.102C163.304 184.169 163.3 184.239 163.291 184.314H158.458ZM158.446 183.318H161.822C161.797 183.077 161.743 182.852 161.66 182.645C161.577 182.429 161.465 182.246 161.323 182.097C161.182 181.939 161.012 181.814 160.813 181.723C160.622 181.632 160.402 181.586 160.152 181.586C159.687 181.586 159.301 181.748 158.994 182.072C158.695 182.387 158.512 182.803 158.446 183.318ZM166.337 183.355V187.067H164.83V180.49H166.337V181.511C166.445 181.354 166.561 181.208 166.686 181.075C166.819 180.934 166.968 180.81 167.134 180.702C167.309 180.594 167.496 180.511 167.695 180.453C167.903 180.386 168.135 180.353 168.393 180.353C169.14 180.353 169.717 180.581 170.124 181.038C170.531 181.495 170.734 182.109 170.734 182.882V187.067H169.227V183.33C169.227 182.815 169.103 182.421 168.853 182.147C168.613 181.864 168.268 181.723 167.82 181.723C167.379 181.723 167.022 181.868 166.748 182.159C166.474 182.441 166.337 182.84 166.337 183.355ZM178.284 185.983C177.961 186.349 177.591 186.648 177.176 186.88C176.761 187.104 176.233 187.216 175.594 187.216C175.104 187.216 174.651 187.129 174.236 186.955C173.821 186.772 173.46 186.527 173.152 186.22C172.853 185.904 172.617 185.543 172.442 185.136C172.276 184.721 172.193 184.277 172.193 183.803C172.193 183.33 172.276 182.886 172.442 182.47C172.617 182.055 172.853 181.69 173.152 181.374C173.46 181.059 173.821 180.81 174.236 180.627C174.66 180.444 175.116 180.353 175.606 180.353C176.229 180.353 176.744 180.457 177.151 180.664C177.566 180.872 177.927 181.146 178.235 181.486L177.3 182.495C177.068 182.255 176.819 182.059 176.553 181.91C176.296 181.752 175.976 181.673 175.594 181.673C175.32 181.673 175.067 181.731 174.834 181.848C174.601 181.956 174.402 182.105 174.236 182.296C174.07 182.487 173.937 182.711 173.837 182.969C173.746 183.218 173.7 183.488 173.7 183.778C173.7 184.077 173.746 184.356 173.837 184.613C173.937 184.87 174.074 185.095 174.249 185.286C174.423 185.477 174.631 185.63 174.871 185.747C175.112 185.854 175.378 185.908 175.669 185.908C176.026 185.908 176.337 185.834 176.603 185.684C176.877 185.526 177.134 185.327 177.375 185.086L178.284 185.983ZM180.634 184.314C180.726 184.854 180.941 185.269 181.282 185.56C181.622 185.842 182.038 185.983 182.528 185.983C182.901 185.983 183.225 185.917 183.499 185.784C183.773 185.651 184.043 185.456 184.309 185.198L185.193 185.983C184.878 186.357 184.5 186.656 184.06 186.88C183.628 187.104 183.109 187.216 182.503 187.216C182.029 187.216 181.585 187.133 181.17 186.967C180.763 186.801 180.406 186.569 180.099 186.27C179.8 185.971 179.563 185.614 179.389 185.198C179.214 184.775 179.127 184.306 179.127 183.791C179.127 183.318 179.206 182.873 179.364 182.458C179.521 182.043 179.741 181.682 180.024 181.374C180.314 181.059 180.655 180.81 181.045 180.627C181.436 180.444 181.867 180.353 182.341 180.353C182.864 180.353 183.321 180.448 183.711 180.639C184.11 180.83 184.438 181.088 184.695 181.412C184.961 181.736 185.16 182.113 185.293 182.545C185.426 182.977 185.492 183.43 185.492 183.903C185.492 183.969 185.488 184.036 185.48 184.102C185.48 184.169 185.476 184.239 185.467 184.314H180.634ZM180.622 183.318H183.997C183.973 183.077 183.919 182.852 183.835 182.645C183.752 182.429 183.64 182.246 183.499 182.097C183.358 181.939 183.188 181.814 182.988 181.723C182.797 181.632 182.577 181.586 182.328 181.586C181.863 181.586 181.477 181.748 181.17 182.072C180.871 182.387 180.688 182.803 180.622 183.318ZM192.21 180.627C192.21 180.801 192.239 180.951 192.297 181.075C192.356 181.2 192.459 181.316 192.609 181.424C192.767 181.532 192.978 181.632 193.244 181.723C193.518 181.814 193.863 181.91 194.278 182.01C194.735 182.126 195.137 182.255 195.486 182.396C195.843 182.537 196.138 182.711 196.371 182.919C196.603 183.118 196.778 183.355 196.894 183.629C197.018 183.895 197.081 184.21 197.081 184.576C197.081 184.991 197.002 185.36 196.844 185.684C196.695 186.008 196.483 186.282 196.209 186.506C195.935 186.731 195.607 186.901 195.225 187.017C194.843 187.133 194.423 187.191 193.967 187.191C193.294 187.191 192.65 187.079 192.036 186.855C191.421 186.623 190.852 186.27 190.329 185.796L191.251 184.7C191.675 185.066 192.102 185.348 192.534 185.547C192.966 185.738 193.456 185.834 194.004 185.834C194.477 185.834 194.851 185.734 195.125 185.535C195.407 185.335 195.549 185.066 195.549 184.725C195.549 184.567 195.519 184.426 195.461 184.302C195.411 184.177 195.312 184.065 195.162 183.965C195.021 183.857 194.822 183.758 194.564 183.666C194.315 183.575 193.987 183.479 193.58 183.38C193.115 183.272 192.7 183.151 192.335 183.019C191.978 182.886 191.675 182.72 191.425 182.52C191.185 182.321 190.998 182.08 190.865 181.798C190.74 181.515 190.678 181.171 190.678 180.764C190.678 180.382 190.753 180.037 190.902 179.73C191.052 179.415 191.255 179.145 191.513 178.92C191.778 178.696 192.094 178.526 192.459 178.41C192.825 178.285 193.223 178.223 193.655 178.223C194.295 178.223 194.868 178.318 195.374 178.509C195.889 178.692 196.371 178.962 196.819 179.319L195.997 180.477C195.598 180.187 195.204 179.967 194.814 179.817C194.423 179.659 194.029 179.581 193.63 179.581C193.182 179.581 192.833 179.684 192.584 179.892C192.335 180.091 192.21 180.336 192.21 180.627ZM199.854 184.314C199.945 184.854 200.161 185.269 200.502 185.56C200.842 185.842 201.257 185.983 201.747 185.983C202.121 185.983 202.445 185.917 202.719 185.784C202.993 185.651 203.263 185.456 203.529 185.198L204.413 185.983C204.098 186.357 203.72 186.656 203.28 186.88C202.848 187.104 202.329 187.216 201.723 187.216C201.249 187.216 200.805 187.133 200.39 186.967C199.983 186.801 199.626 186.569 199.318 186.27C199.019 185.971 198.783 185.614 198.608 185.198C198.434 184.775 198.347 184.306 198.347 183.791C198.347 183.318 198.426 182.873 198.583 182.458C198.741 182.043 198.961 181.682 199.244 181.374C199.534 181.059 199.875 180.81 200.265 180.627C200.655 180.444 201.087 180.353 201.561 180.353C202.084 180.353 202.54 180.448 202.931 180.639C203.329 180.83 203.657 181.088 203.915 181.412C204.181 181.736 204.38 182.113 204.513 182.545C204.646 182.977 204.712 183.43 204.712 183.903C204.712 183.969 204.708 184.036 204.7 184.102C204.7 184.169 204.695 184.239 204.687 184.314H199.854ZM199.842 183.318H203.217C203.192 183.077 203.138 182.852 203.055 182.645C202.972 182.429 202.86 182.246 202.719 182.097C202.578 181.939 202.408 181.814 202.208 181.723C202.017 181.632 201.797 181.586 201.548 181.586C201.083 181.586 200.697 181.748 200.39 182.072C200.091 182.387 199.908 182.803 199.842 183.318ZM211.744 187.067H210.249V186.257C210.025 186.523 209.738 186.747 209.39 186.93C209.041 187.113 208.617 187.204 208.119 187.204C207.804 187.204 207.505 187.158 207.222 187.067C206.94 186.984 206.691 186.859 206.475 186.693C206.267 186.519 206.097 186.307 205.964 186.058C205.84 185.8 205.777 185.506 205.777 185.174V185.149C205.777 184.792 205.844 184.48 205.977 184.214C206.109 183.949 206.292 183.729 206.525 183.554C206.765 183.38 207.048 183.251 207.372 183.168C207.704 183.077 208.061 183.031 208.443 183.031C208.842 183.031 209.178 183.056 209.452 183.106C209.734 183.156 210.004 183.222 210.262 183.305V183.143C210.262 182.686 210.12 182.338 209.838 182.097C209.564 181.856 209.165 181.736 208.642 181.736C208.269 181.736 207.936 181.773 207.646 181.848C207.355 181.922 207.06 182.022 206.761 182.147L206.35 180.938C206.716 180.772 207.089 180.639 207.471 180.54C207.853 180.44 208.314 180.39 208.854 180.39C209.834 180.39 210.561 180.635 211.034 181.125C211.507 181.607 211.744 182.288 211.744 183.168V187.067ZM210.286 184.688V184.277C210.095 184.202 209.867 184.14 209.601 184.09C209.344 184.04 209.07 184.015 208.779 184.015C208.306 184.015 207.936 184.106 207.671 184.289C207.405 184.472 207.272 184.733 207.272 185.074V185.099C207.272 185.414 207.392 185.655 207.633 185.821C207.882 185.987 208.186 186.07 208.543 186.07C208.792 186.07 209.02 186.037 209.228 185.971C209.444 185.904 209.63 185.813 209.788 185.697C209.946 185.572 210.066 185.427 210.149 185.261C210.241 185.086 210.286 184.895 210.286 184.688ZM215.044 184.563V187.067H213.537V180.49H215.044V181.972C215.251 181.474 215.546 181.075 215.928 180.776C216.31 180.477 216.792 180.34 217.373 180.365V181.96H217.286C216.954 181.96 216.651 182.014 216.377 182.122C216.103 182.23 215.866 182.392 215.667 182.607C215.467 182.823 215.314 183.097 215.206 183.43C215.098 183.753 215.044 184.131 215.044 184.563ZM224.193 185.983C223.869 186.349 223.5 186.648 223.084 186.88C222.669 187.104 222.142 187.216 221.503 187.216C221.013 187.216 220.56 187.129 220.145 186.955C219.73 186.772 219.368 186.527 219.061 186.22C218.762 185.904 218.525 185.543 218.351 185.136C218.185 184.721 218.102 184.277 218.102 183.803C218.102 183.33 218.185 182.886 218.351 182.47C218.525 182.055 218.762 181.69 219.061 181.374C219.368 181.059 219.73 180.81 220.145 180.627C220.568 180.444 221.025 180.353 221.515 180.353C222.138 180.353 222.653 180.457 223.06 180.664C223.475 180.872 223.836 181.146 224.143 181.486L223.209 182.495C222.977 182.255 222.727 182.059 222.462 181.91C222.204 181.752 221.885 181.673 221.503 181.673C221.228 181.673 220.975 181.731 220.743 181.848C220.51 181.956 220.311 182.105 220.145 182.296C219.979 182.487 219.846 182.711 219.746 182.969C219.655 183.218 219.609 183.488 219.609 183.778C219.609 184.077 219.655 184.356 219.746 184.613C219.846 184.87 219.983 185.095 220.157 185.286C220.332 185.477 220.539 185.63 220.78 185.747C221.021 185.854 221.287 185.908 221.577 185.908C221.934 185.908 222.246 185.834 222.511 185.684C222.786 185.526 223.043 185.327 223.284 185.086L224.193 185.983ZM227.087 183.355V187.067H225.579V177.974H227.087V181.511C227.195 181.354 227.311 181.208 227.435 181.075C227.568 180.934 227.718 180.81 227.884 180.702C228.058 180.594 228.245 180.511 228.444 180.453C228.652 180.386 228.884 180.353 229.142 180.353C229.889 180.353 230.466 180.581 230.873 181.038C231.28 181.495 231.484 182.109 231.484 182.882V187.067H229.976V183.33C229.976 182.815 229.852 182.421 229.603 182.147C229.362 181.864 229.017 181.723 228.569 181.723C228.129 181.723 227.772 181.868 227.498 182.159C227.224 182.441 227.087 182.84 227.087 183.355Z" fill="#454545"/>
<rect x="45.606" y="158.938" width="254.351" height="49.259" rx="10.2321" stroke="#EFEFEF" stroke-width="0.889744"/>
<rect x="0.444872" y="0.563036" width="346.11" height="304.292" rx="10.2321" stroke="#2D3AAF" stroke-width="0.889744"/>
</g>
<defs>
<filter id="filter0_d_1383_23219" x="-16.0154" y="-12.3382" width="379.031" height="337.213" filterUnits="userSpaceOnUse" color-interpolation-filters="sRGB">
<feFlood flood-opacity="0" result="BackgroundImageFix"/>
<feColorMatrix in="SourceAlpha" type="matrix" values="0 0 0 0 0 0 0 0 0 0 0 0 0 0 0 0 0 0 127 0" result="hardAlpha"/>
<feOffset dy="3.55897"/>
<feGaussianBlur stdDeviation="8.00769"/>
<feComposite in2="hardAlpha" operator="out"/>
<feColorMatrix type="matrix" values="0 0 0 0 0 0 0 0 0 0 0 0 0 0 0 0 0 0 0.08 0"/>
<feBlend mode="normal" in2="BackgroundImageFix" result="effect1_dropShadow_1383_23219"/>
<feBlend mode="normal" in="SourceGraphic" in2="effect1_dropShadow_1383_23219" result="shape"/>
</filter>
</defs>
</svg>
