<svg width="26" height="26" viewBox="0 0 26 26" fill="none" xmlns="http://www.w3.org/2000/svg">
<g id="Instagram" clip-path="url(#clip0_2320_29148)">
<path id="Vector" d="M17.5312 0H7.96875C5.85531 0 3.82842 0.839562 2.33399 2.33399C0.839562 3.82842 0 5.85531 0 7.96875L0 17.5312C0 19.6447 0.839562 21.6716 2.33399 23.166C3.82842 24.6604 5.85531 25.5 7.96875 25.5H17.5312C19.6447 25.5 21.6716 24.6604 23.166 23.166C24.6604 21.6716 25.5 19.6447 25.5 17.5312V7.96875C25.5 5.85531 24.6604 3.82842 23.166 2.33399C21.6716 0.839562 19.6447 0 17.5312 0ZM23.1094 17.5312C23.1094 20.6072 20.6072 23.1094 17.5312 23.1094H7.96875C4.89281 23.1094 2.39062 20.6072 2.39062 17.5312V7.96875C2.39062 4.89281 4.89281 2.39062 7.96875 2.39062H17.5312C20.6072 2.39062 23.1094 4.89281 23.1094 7.96875V17.5312Z" fill="url(#paint0_linear_2320_29148)"/>
<path id="Vector_2" d="M12.75 6.375C11.0592 6.375 9.43774 7.04665 8.24219 8.24219C7.04665 9.43774 6.375 11.0592 6.375 12.75C6.375 14.4408 7.04665 16.0623 8.24219 17.2578C9.43774 18.4534 11.0592 19.125 12.75 19.125C14.4408 19.125 16.0623 18.4534 17.2578 17.2578C18.4534 16.0623 19.125 14.4408 19.125 12.75C19.125 11.0592 18.4534 9.43774 17.2578 8.24219C16.0623 7.04665 14.4408 6.375 12.75 6.375ZM12.75 16.7344C11.6937 16.7331 10.681 16.3129 9.93402 15.566C9.18708 14.819 8.76689 13.8063 8.76562 12.75C8.76562 10.5522 10.5538 8.76562 12.75 8.76562C14.9462 8.76562 16.7344 10.5522 16.7344 12.75C16.7344 14.9462 14.9462 16.7344 12.75 16.7344Z" fill="url(#paint1_linear_2320_29148)"/>
<path id="Vector_3" d="M19.6009 6.74581C20.0701 6.74581 20.4504 6.36549 20.4504 5.89634C20.4504 5.4272 20.0701 5.04688 19.6009 5.04688C19.1318 5.04688 18.7515 5.4272 18.7515 5.89634C18.7515 6.36549 19.1318 6.74581 19.6009 6.74581Z" fill="url(#paint2_linear_2320_29148)"/>
</g>
<defs>
<linearGradient id="paint0_linear_2320_29148" x1="2.33325" y1="23.1668" x2="23.1668" y2="2.33325" gradientUnits="userSpaceOnUse">
<stop stop-color="#FFC107"/>
<stop offset="0.507" stop-color="#F44336"/>
<stop offset="0.99" stop-color="#9C27B0"/>
</linearGradient>
<linearGradient id="paint1_linear_2320_29148" x1="8.24288" y1="17.2571" x2="17.2571" y2="8.24288" gradientUnits="userSpaceOnUse">
<stop stop-color="#FFC107"/>
<stop offset="0.507" stop-color="#F44336"/>
<stop offset="0.99" stop-color="#9C27B0"/>
</linearGradient>
<linearGradient id="paint2_linear_2320_29148" x1="19.0001" y1="6.49719" x2="20.2018" y2="5.2955" gradientUnits="userSpaceOnUse">
<stop stop-color="#FFC107"/>
<stop offset="0.507" stop-color="#F44336"/>
<stop offset="0.99" stop-color="#9C27B0"/>
</linearGradient>
<clipPath id="clip0_2320_29148">
<rect width="25.5" height="25.5" fill="white"/>
</clipPath>
</defs>
</svg>
