<svg width="52" height="52" viewBox="0 0 53 53" fill="none" xmlns="http://www.w3.org/2000/svg">
<g filter="url(#filter0_d_1531_41472)">
<circle cx="26.5" cy="22.5" r="18" fill="white" stroke="#EFEFEF"/>
<path d="M29.784 21.6406C29.784 22.1257 29.6877 22.606 29.5006 23.0542C29.3134 23.5023 29.0391 23.9095 28.6933 24.2525C28.3475 24.5955 27.9369 24.8676 27.4851 25.0532C27.0333 25.2389 26.549 25.3344 26.06 25.3344C25.5709 25.3344 25.0867 25.2389 24.6349 25.0532C24.183 24.8676 23.7725 24.5955 23.4267 24.2525C23.0809 23.9095 22.8066 23.5023 22.6194 23.0542C22.4323 22.606 22.3359 22.1257 22.3359 21.6406" stroke="#2D3AAF" stroke-width="1.2522"/>
<path d="M22.2243 20.3217C22.2833 20.2458 22.398 20.2458 22.457 20.3217L23.4 21.5363C23.4752 21.6331 23.4062 21.7739 23.2837 21.7739H21.3976C21.2751 21.7739 21.2061 21.6331 21.2813 21.5363L22.2243 20.3217Z" fill="#2D3AAF"/>
<path d="M29.6637 20.3217C29.7227 20.2458 29.8375 20.2458 29.8965 20.3217L30.8395 21.5363C30.9146 21.6331 30.8456 21.7739 30.7231 21.7739H28.8371C28.7145 21.7739 28.6456 21.6331 28.7207 21.5363L29.6637 20.3217Z" fill="#2D3AAF"/>
<line x1="26.0245" y1="18.4805" x2="26.0245" y2="25.323" stroke="#2D3AAF" stroke-width="1.2522"/>
<path d="M27.709 20.9102H24.4391" stroke="#2D3AAF" stroke-width="1.2522" stroke-linecap="round"/>
<circle cx="26.0412" cy="17.2814" r="1.01134" stroke="#2D3AAF" stroke-width="0.883902"/>
<path d="M35.1171 20.9764C35.1171 16.0251 31.0529 12 26.06 12C21.067 12 17 16.0279 17 20.9764C17 23.2748 17.8769 25.4531 19.4662 27.1255C19.4893 27.1598 19.5152 27.1941 19.5441 27.2227L25.6418 33.266C25.7542 33.3775 25.9014 33.4346 26.0513 33.4346C26.2013 33.4346 26.3484 33.3775 26.4609 33.266C26.6859 33.043 26.6859 32.6799 26.4609 32.4541L20.4267 26.4765C20.4123 26.4565 20.3979 26.4336 20.3777 26.4165C18.947 24.9471 18.1567 23.0175 18.1567 20.9792C18.1567 16.6597 21.7016 13.1463 26.0571 13.1463C30.4126 13.1463 33.9605 16.6597 33.9605 20.9792C33.9605 23.0689 33.1384 25.0329 31.6443 26.5137C31.6443 26.5137 31.6443 26.5165 31.6385 26.5194C31.6385 26.5194 31.6327 26.5223 31.6327 26.5251L30.4876 27.66C30.2626 27.883 30.2626 28.2461 30.4876 28.469C30.6001 28.5805 30.7472 28.6377 30.8972 28.6377C31.0472 28.6377 31.1943 28.5805 31.3068 28.469L32.4519 27.3341C32.4519 27.3341 32.4548 27.3313 32.4577 27.3284C32.4577 27.3284 32.4634 27.3256 32.4634 27.3227C34.1768 25.6246 35.12 23.372 35.12 20.9764H35.1171Z" fill="#2D3AAF" stroke="#2D3AAF" stroke-width="0.736585" stroke-miterlimit="10"/>
</g>
<defs>
<filter id="filter0_d_1531_41472" x="0" y="0" width="53" height="53" filterUnits="userSpaceOnUse" color-interpolation-filters="sRGB">
<feFlood flood-opacity="0" result="BackgroundImageFix"/>
<feColorMatrix in="SourceAlpha" type="matrix" values="0 0 0 0 0 0 0 0 0 0 0 0 0 0 0 0 0 0 127 0" result="hardAlpha"/>
<feOffset dy="4"/>
<feGaussianBlur stdDeviation="4"/>
<feComposite in2="hardAlpha" operator="out"/>
<feColorMatrix type="matrix" values="0 0 0 0 0.270588 0 0 0 0 0.270588 0 0 0 0 0.270588 0 0 0 0.06 0"/>
<feBlend mode="normal" in2="BackgroundImageFix" result="effect1_dropShadow_1531_41472"/>
<feBlend mode="normal" in="SourceGraphic" in2="effect1_dropShadow_1531_41472" result="shape"/>
</filter>
</defs>
</svg>
