<svg width="34" height="40" viewBox="0 0 34 40" fill="none" xmlns="http://www.w3.org/2000/svg">
<g id="Group 12762">
<g id="Group 12744">
<path id="Ellipse 53 (Stroke)" fill-rule="evenodd" clip-rule="evenodd" d="M11.5019 17.9824C11.5019 18.6906 11.6425 19.392 11.916 20.0467C12.1894 20.7015 12.5904 21.297 13.0966 21.799C13.6027 22.3011 14.2041 22.6998 14.8666 22.972C15.5292 23.2442 16.2396 23.3844 16.9572 23.3844C17.6749 23.3844 18.3853 23.2442 19.0478 22.972C19.7103 22.6998 20.3117 22.3011 20.8179 21.799C21.3241 21.297 21.7251 20.7015 21.9985 20.0467C22.2719 19.392 22.4125 18.6906 22.4125 17.9824H24.6176C24.6176 18.9826 24.4189 19.9729 24.0332 20.8965C23.6476 21.82 23.0825 22.6586 22.3707 23.3646C21.659 24.0705 20.8145 24.63 19.8858 25.0116C18.9571 25.3932 17.962 25.5895 16.9572 25.5895C15.9525 25.5895 14.9574 25.3932 14.0287 25.0116L14.4477 23.9918L14.0287 25.0116C13.0999 24.63 12.2555 24.0705 11.5437 23.3646C10.832 22.6586 10.2669 21.82 9.88121 20.8965C9.49551 19.9729 9.29688 18.9826 9.29688 17.9824H11.5019Z" fill="#2D3AAF"/>
<path id="Polygon 2" d="M10.2 15.6628C10.3038 15.5291 10.5059 15.5291 10.6098 15.6628L12.2704 17.8016C12.4027 17.972 12.2812 18.2201 12.0655 18.2201H8.74427C8.5285 18.2201 8.40704 17.972 8.53937 17.8016L10.2 15.6628Z" fill="#2D3AAF"/>
<path id="Polygon 3" d="M23.3015 15.6628C23.4054 15.5291 23.6075 15.5291 23.7113 15.6628L25.3719 17.8016C25.5043 17.972 25.3828 18.2201 25.167 18.2201H21.8458C21.6301 18.2201 21.5086 17.972 21.6409 17.8016L23.3015 15.6628Z" fill="#2D3AAF"/>
<path id="Line 1 (Stroke)" fill-rule="evenodd" clip-rule="evenodd" d="M15.7871 24.4634V12.4141H17.9922V24.4634H15.7871Z" fill="#2D3AAF"/>
<path id="Line 2 (Stroke)" fill-rule="evenodd" clip-rule="evenodd" d="M20.9609 16.6963C20.9609 17.3052 20.4673 17.7988 19.8584 17.7988H14.1003C13.4914 17.7988 12.9978 17.3052 12.9978 16.6963C12.9978 16.0874 13.4914 15.5938 14.1003 15.5938H19.8584C20.4673 15.5938 20.9609 16.0874 20.9609 16.6963Z" fill="#2D3AAF"/>
<path id="Ellipse 54 (Stroke)" fill-rule="evenodd" clip-rule="evenodd" d="M16.9185 11.3079C17.4723 11.3079 17.9212 10.859 17.9212 10.3052C17.9212 9.7515 17.4723 9.30259 16.9185 9.30259C16.3648 9.30259 15.9159 9.7515 15.9159 10.3052C15.9159 10.859 16.3648 11.3079 16.9185 11.3079ZM16.9185 12.8644C18.3319 12.8644 19.4777 11.7186 19.4777 10.3052C19.4777 8.89187 18.3319 7.74609 16.9185 7.74609C15.5051 7.74609 14.3594 8.89187 14.3594 10.3052C14.3594 11.7186 15.5051 12.8644 16.9185 12.8644Z" fill="#2D3AAF"/>
</g>
<path id="Vector" d="M32.9032 16.8068C32.9032 8.08791 25.7464 1 16.9541 1C8.16183 1 1 8.09294 1 16.8068C1 20.8542 2.54411 24.6901 5.34281 27.635C5.38345 27.6954 5.42916 27.7558 5.47995 27.8062L16.2176 38.4481C16.4157 38.6444 16.6748 38.7451 16.9389 38.7451C17.203 38.7451 17.4621 38.6444 17.6601 38.4481C18.0563 38.0555 18.0563 37.4161 17.6601 37.0185L7.03422 26.4923C7.00883 26.4571 6.98343 26.4168 6.94787 26.3866C4.42854 23.7991 3.0368 20.4011 3.0368 16.8119C3.0368 9.20546 9.27928 3.01864 16.949 3.01864C24.6188 3.01864 30.8664 9.20546 30.8664 16.8119C30.8664 20.4917 29.4188 23.9501 26.7877 26.5577C26.7877 26.5577 26.7877 26.5628 26.7775 26.5678C26.7775 26.5678 26.7674 26.5729 26.7674 26.5779L24.7509 28.5764C24.3547 28.969 24.3547 29.6084 24.7509 30.001C24.949 30.1973 25.208 30.298 25.4721 30.298C25.7362 30.298 25.9953 30.1973 26.1934 30.001L28.2099 28.0025C28.2099 28.0025 28.215 27.9975 28.22 27.9924C28.22 27.9924 28.2302 27.9874 28.2302 27.9824C31.2473 24.9922 32.9082 21.0254 32.9082 16.8068H32.9032Z" fill="#2D3AAF"/>
<path id="Vector (Stroke)" fill-rule="evenodd" clip-rule="evenodd" d="M0.351562 16.8069C0.351562 7.72914 7.80951 0.351562 16.9542 0.351562C25.8804 0.351562 33.1944 7.37586 33.5391 16.1584H33.5569V16.8069C33.5569 21.1862 31.8366 25.3064 28.7161 28.414C28.6925 28.441 28.6696 28.4627 28.6503 28.4793L26.65 30.4618C26.3271 30.7818 25.9026 30.9467 25.4722 30.9467C25.0419 30.9467 24.6173 30.7818 24.2944 30.4618C23.6422 29.8154 23.6422 28.7622 24.2944 28.1159L26.2821 26.1459C26.3055 26.1193 26.3281 26.0978 26.3472 26.0813C28.8463 23.5964 30.2179 20.31 30.2179 16.812C30.2179 9.56936 24.2664 3.66729 16.9491 3.66729C9.63223 3.66729 3.68545 9.56906 3.68545 16.812C3.68545 20.2236 5.00465 23.4537 7.39838 25.9196C7.4491 25.9669 7.48607 26.0123 7.50995 26.0435C7.51749 26.0533 7.52442 26.0627 7.53046 26.071L18.1197 36.5608C18.7664 37.21 18.7706 38.2609 18.1168 38.9089C17.7939 39.2289 17.3693 39.3938 16.939 39.3938C16.5086 39.3938 16.0841 39.2289 15.7612 38.9089L5.02353 28.2669C4.94828 28.1924 4.88639 28.1135 4.83784 28.045C1.94782 24.9856 0.351562 21.0054 0.351562 16.8069ZM32.2547 17.2024V16.8069C32.2547 8.45179 25.394 1.64865 16.9542 1.64865C8.51436 1.64865 1.64865 8.45696 1.64865 16.8069C1.64865 20.6864 3.12773 24.3628 5.81303 27.1884L5.8506 27.2279L5.88104 27.2732C5.91002 27.3162 5.92855 27.3377 5.93659 27.3457L16.6743 37.9876C16.7475 38.0602 16.8411 38.0967 16.939 38.0967C17.0369 38.0967 17.1304 38.0602 17.2037 37.9876C17.3419 37.8506 17.3465 37.6237 17.2019 37.4774C17.2015 37.477 17.2012 37.4766 17.2008 37.4763L6.53966 26.9153L6.50819 26.8716L6.49467 26.8526L6.49007 26.8461L6.48331 26.8391C3.84739 24.1319 2.38837 20.5721 2.38837 16.812C2.38837 8.84208 8.92654 2.37021 16.9491 2.37021C24.9714 2.37021 31.515 8.84177 31.515 16.812C31.515 20.5853 30.0603 24.1378 27.416 26.8455V26.8483L27.2731 26.99C27.2518 27.0142 27.2297 27.0358 27.2074 27.055L25.2075 29.0371C25.0673 29.1761 25.0673 29.4016 25.2075 29.5405C25.2808 29.6131 25.3743 29.6496 25.4722 29.6496C25.5701 29.6496 25.6637 29.6131 25.737 29.5405L27.7535 27.542L27.7543 27.5411L27.7738 27.5218C27.7737 27.5219 27.7738 27.5218 27.7738 27.5218C30.5744 24.7462 32.1545 21.0983 32.2547 17.2024ZM27.0674 27.1481C27.0674 27.1481 27.0674 27.1481 27.0674 27.1481V27.1481ZM26.4894 25.9869C26.4894 25.987 26.4895 25.9869 26.4894 25.9869C26.4881 25.9876 26.4867 25.9883 26.4853 25.989L26.4878 25.9877L26.4894 25.9869ZM26.4894 25.9869L26.7575 26.5273L26.4894 25.9869ZM26.7575 26.5273C26.4897 25.9868 26.4895 25.9869 26.4894 25.9869L26.7575 26.5273Z" fill="#2D3AAF"/>
</g>
</svg>
