<svg width="378" height="224" viewBox="0 0 378 224" fill="none" xmlns="http://www.w3.org/2000/svg">
<path d="M327.908 140.329C325.018 146.327 319.436 151.918 316.271 157.734C316.115 158.019 315.966 158.304 315.823 158.589C315.651 158.935 315.488 159.282 315.334 159.629C314.958 160.475 314.649 161.34 314.409 162.216C314.324 162.527 314.251 162.839 314.189 163.152C314.145 163.366 314.107 163.579 314.075 163.797C313.936 164.691 313.896 165.592 313.955 166.492C314.048 167.874 314.382 169.24 314.945 170.551C315.443 171.717 315.817 173.241 316.01 175.034C316.229 177.081 316.213 179.48 315.869 182.093C315.419 185.464 314.508 188.787 313.151 192.002C313.107 192.108 313.062 192.216 313.014 192.324C311.179 196.617 308.525 200.66 305.146 204.313C303.272 206.326 301.174 208.201 298.876 209.915C297.938 210.618 296.951 211.301 295.916 211.964C289.559 216.043 281.388 219.356 270.982 221.253C270.462 221.349 269.937 221.44 269.408 221.528C265.87 222.105 262.291 222.508 258.69 222.732C249.154 223.347 238.133 222.933 225.418 221.173C223.296 220.879 221.125 220.547 218.906 220.176C216.493 219.773 214.076 219.397 211.657 219.047C211.362 219.004 211.065 218.961 210.771 218.92H210.745L210.285 218.855L210.055 218.822C192.124 216.293 173.918 215.202 155.712 215.567C154.682 215.588 153.653 215.615 152.624 215.648H152.616C152.319 215.656 152.021 215.665 151.724 215.675H151.696L151.227 215.69C147.763 215.808 144.3 215.978 140.838 216.202C138.844 216.332 136.851 216.479 134.859 216.644L126.039 217.376L122.04 217.708L113.932 218.381L113.043 218.455L101.827 219.385L100.507 219.495C98.0847 219.696 95.6475 219.763 93.2133 219.695C92.5318 219.676 91.8529 219.646 91.1767 219.606C86.284 219.309 81.4677 218.469 76.8685 217.111C75.7232 216.775 74.5919 216.408 73.4744 216.011C72.8233 215.779 72.1772 215.537 71.5362 215.285C71.3393 215.207 71.143 215.129 70.9474 215.049C70.7504 214.969 70.5555 214.888 70.3606 214.807C70.1656 214.727 69.9778 214.646 69.7879 214.565L69.7758 214.561C69.6559 214.51 69.5372 214.458 69.4184 214.406C69.2641 214.339 69.1138 214.271 68.9544 214.202C68.795 214.132 68.6661 214.073 68.5229 214.007C68.4924 213.994 68.463 213.981 68.4336 213.967C68.2671 213.891 68.1016 213.815 67.9351 213.736L67.797 213.672C67.665 213.611 67.533 213.548 67.402 213.485C67.2711 213.422 67.131 213.355 66.9959 213.289L66.87 213.227C66.7563 213.172 66.6426 213.115 66.5299 213.059C66.4284 213.012 66.338 212.964 66.2426 212.915L65.9522 212.767C65.8507 212.717 65.7553 212.667 65.6568 212.615C65.5766 212.575 65.4964 212.535 65.4162 212.489C65.3146 212.439 65.2131 212.385 65.1116 212.328C65.0101 212.271 64.9156 212.225 64.8172 212.172L64.539 212.022L64.274 211.877C64.1643 211.816 64.0547 211.756 63.9461 211.694C63.8658 211.65 63.7856 211.606 63.7054 211.56C63.6252 211.514 63.5521 211.473 63.474 211.427C63.345 211.355 63.215 211.281 63.0871 211.206C63.0445 211.181 63.0029 211.157 62.9592 211.131C62.8238 211.052 62.6885 210.971 62.5531 210.889L62.3957 210.794L62.0475 210.585C61.946 210.524 61.8444 210.463 61.7429 210.4C61.6749 210.359 61.6058 210.319 61.5398 210.273C61.4282 210.204 61.3175 210.135 61.2068 210.064C61.1297 210.017 61.0515 209.968 60.9743 209.918C60.8972 209.868 60.82 209.821 60.7439 209.771L60.419 209.561L60.2708 209.465L59.8921 209.215L59.7408 209.114L59.3651 208.861L59.3032 208.818C59.1489 208.711 58.9956 208.605 58.8433 208.501C58.6741 208.384 58.5049 208.265 58.3356 208.145C57.9972 207.906 57.6639 207.664 57.3356 207.419C57.0073 207.174 56.6791 206.925 56.3508 206.672C56.1873 206.546 56.0259 206.419 55.8645 206.292C55.5423 206.037 55.2232 205.779 54.9071 205.517C54.7487 205.386 54.5913 205.255 54.435 205.122L54.1822 204.909C54.061 204.805 53.9405 204.702 53.8207 204.598C53.709 204.501 53.5984 204.405 53.4887 204.309C53.3276 204.166 53.1665 204.022 53.0055 203.879C51.0097 202.079 49.1682 200.176 47.4935 198.18C46.9175 197.499 46.3588 196.803 45.8173 196.094L45.7066 195.947C41.1491 189.929 37.8474 183.011 36.1844 175.485C36.0707 174.971 35.9631 174.454 35.8666 173.933C35.5742 172.391 35.3522 170.825 35.2006 169.236C35.2006 169.236 35.2006 169.236 35.2006 169.231C35.1945 169.171 35.1894 169.112 35.1833 169.052C35.1583 168.77 35.1349 168.488 35.1133 168.208C35.0625 167.519 35.0287 166.836 35.0118 166.16C34.8696 161.414 36.027 156.828 37.9357 152.476C44.2152 138.134 58.5925 126.315 61.1855 119.604C64.5207 110.975 58.162 82.2805 59.2017 73.1787C61.4982 53.0918 77.8248 41.2424 101.291 37.2358C121.983 33.7018 144.299 38.0737 163.765 46.1973C178.066 52.1652 191.902 60.3066 207.609 61.4937C218.378 62.3082 228.808 59.7194 239.328 58.2605C250.394 56.7226 262.159 56.6024 273.471 58.2412C274.16 58.3401 274.846 58.4463 275.529 58.5597C276.197 58.6705 276.862 58.7869 277.526 58.9089C278.215 59.0353 278.901 59.1697 279.584 59.3122C291.657 61.7985 302.957 66.4341 312.03 73.6585C324.185 83.3362 331.203 96.8849 332.663 110.405C333.732 120.307 332.289 131.239 327.908 140.329Z" fill="#E9EFFE"/>
<path d="M252.539 76.196C251.376 75.6193 250.054 75.7348 248.844 75.3269C248.132 75.0846 247.695 74.6218 247.201 74.0879C246.774 73.6259 246.279 73.2721 245.671 73.0888C245.13 72.9264 244.556 72.9086 244.005 73.0371C243.409 73.1792 242.892 73.5217 242.322 73.7357C240.91 74.2688 239.538 73.7624 238.526 72.7172C237.694 71.8562 236.877 71.0437 235.746 70.5801C234.799 70.1908 233.749 70.11 232.801 70.5389C231.723 71.0235 230.984 72.0097 229.974 72.6009C228.773 73.3028 227.337 73.1364 226.012 73.348C224.686 73.5597 223.669 74.6767 222.505 75.3196C222.107 75.5393 221.697 75.7235 221.237 75.7122C220.976 75.7057 220.722 75.6354 220.464 75.6031C220.065 75.5539 219.684 75.5652 219.414 75.8987C219.349 75.9795 219.362 76.326 219.477 76.326C221.224 76.326 250.619 76.519 252.466 76.4609C252.601 76.4569 252.672 76.2614 252.539 76.196Z" fill="white"/>
<path d="M171.623 90.4705C170.459 89.8938 169.138 90.0093 167.928 89.6014C167.216 89.3591 166.778 88.8955 166.285 88.3616C165.857 87.9004 165.362 87.5466 164.755 87.3633C164.214 87.2007 163.64 87.1826 163.089 87.3108C162.493 87.4537 161.975 87.7954 161.406 88.0102C159.994 88.5433 158.622 88.0369 157.61 86.9917C156.779 86.1307 155.961 85.3174 154.831 84.8538C153.884 84.4653 152.833 84.3845 151.886 84.8134C150.808 85.298 150.068 86.2842 149.059 86.8746C147.859 87.5765 146.423 87.4109 145.101 87.6225C143.78 87.8342 142.759 88.9512 141.594 89.5941C141.197 89.8138 140.787 89.998 140.326 89.9867C140.066 89.9794 139.811 89.9099 139.554 89.8776C139.15 89.8284 138.774 89.8397 138.504 90.1732C138.439 90.254 138.452 90.5997 138.567 90.5997C140.314 90.5997 169.709 90.7935 171.556 90.7346C171.684 90.7305 171.755 90.5359 171.623 90.4705Z" fill="white"/>
<path d="M157.472 50.5833C155.966 49.8354 154.316 49.8152 152.675 49.6642C151.718 49.5769 150.737 49.4372 149.872 48.9841C149.008 48.531 148.456 47.7338 147.837 47.0012C145.924 44.7292 142.879 43.5451 139.931 44.0055C136.639 44.5216 134.044 47.0295 130.747 47.4899C128.766 47.7677 126.892 47.0012 124.957 46.7306C123.362 46.5101 122.034 46.8195 120.609 47.5262C119.564 48.0431 118.599 48.4801 117.419 48.5609C116.512 48.6255 115.602 48.5213 114.694 48.5116C113.24 48.4987 111.804 49.1287 110.685 50.1149C110.537 50.2449 110.071 51.1107 111.582 51.1107C111.616 51.2085 157.913 51.1107 157.329 51.1107C157.062 51.1107 157.733 50.7117 157.472 50.5833Z" fill="white"/>
<path d="M149.82 192.201H156.468L157.416 191.141V162.988H149.82V192.201Z" fill="#BDBEC0"/>
<path d="M156.467 162.988H148.871V192.201H156.467V162.988Z" fill="#E6E7E8"/>
<path d="M177.367 192.201H184.014L184.962 191.141V162.988H177.367V192.201Z" fill="#BDBEC0"/>
<path d="M184.014 162.988H176.418V192.201H184.014V162.988Z" fill="#E6E7E8"/>
<path d="M204.91 192.201L211.557 192.4H212.506V162.988H204.91V192.201Z" fill="#BDBEC0"/>
<path d="M211.556 162.988H203.961V192.594H211.556V162.988Z" fill="#E6E7E8"/>
<path d="M183.793 162.34H163.196L154.668 216.105C157.422 215.881 160.177 215.71 162.933 215.593L163.306 215.577H163.328C163.565 215.568 163.801 215.558 164.038 215.55H164.044C164.863 215.519 165.682 215.492 166.501 215.469C170.67 215.361 174.839 215.376 179.007 215.513C179.492 215.529 179.976 215.546 180.461 215.566C182.143 215.633 183.825 215.719 185.506 215.825C193.629 216.34 201.716 217.31 209.731 218.729L209.913 218.762L210.279 218.827H210.3C210.534 218.869 210.77 218.908 211.005 218.954C212.93 219.306 214.853 219.683 216.772 220.085C218.537 220.457 220.264 220.789 221.953 221.083L218.016 172.562L183.793 162.34Z" fill="#2D3AAF"/>
<path d="M167.582 165.767C167.164 172.281 163.714 175.659 161.191 177.274L160.234 184.415C170.955 180.61 172.522 169.236 172.522 169.236C172.522 169.236 172.4 169.878 167.582 165.767Z" fill="#0E1A88"/>
<path d="M154.189 102.782C153.442 105.242 152.483 108.84 151.518 112.619C151.009 114.61 150.498 116.651 150.017 118.603C148.507 124.723 147.281 129.952 147.281 129.952L160.07 135.028L166.252 137.482L169.262 103.905L171.455 79.4434C171.455 79.4434 160.346 82.9213 154.189 102.782Z" fill="#2D3AAF"/>
<path d="M159.615 127.252C159.598 127.462 159.517 135.174 159.512 135.375L165.762 130.323L168.772 96.7459C167.677 95.3179 166.951 94.5078 166.951 94.5078C166.951 94.5078 160.701 113.804 159.615 127.252Z" fill="#0E1A88"/>
<path d="M171.452 79.4442C169.975 80.7284 166.387 91.6654 164.647 105.821C162.773 121.061 162.725 140.351 160.512 164.702C172.062 174.233 186.154 176.866 197.794 176.995C210.757 177.138 220.684 174.174 220.684 174.174V84.2467L192.796 74.2402L171.452 79.4442Z" fill="#2D3AAF"/>
<path d="M212.473 122.985C215.13 131.956 214.398 169.398 211.416 171.903C209.807 173.255 203.376 175.35 197.793 176.991C210.756 177.134 220.683 174.171 220.683 174.171V99.7373C218.968 99.3173 217.223 99.0361 215.463 98.8965C215.463 98.8965 209.815 114.014 212.473 122.985Z" fill="#0E1A88"/>
<path d="M177.792 76.8716C177.434 76.9871 177.065 77.114 176.693 77.24C176.213 77.4015 175.729 77.5776 175.254 77.7496C174.854 77.8958 174.462 78.0428 174.089 78.1841C173.57 78.378 173.085 78.5654 172.661 78.731C171.675 79.1162 171.018 79.3852 171.018 79.3852L169.91 84.1934C169.91 84.1934 170.633 84.0003 171.674 83.7088C172.093 83.5908 172.563 83.4551 173.059 83.3098C173.403 83.2104 173.758 83.1038 174.117 82.9956C174.585 82.8526 175.058 82.7072 175.518 82.5578C175.807 82.4649 176.093 82.372 176.366 82.28C176.911 82.095 177.416 81.9149 177.837 81.7445C178.527 81.4682 179.002 81.2259 179.086 81.0539C179.484 80.2526 180.667 76.127 180.667 76.127C180.183 76.2019 179.704 76.3076 179.233 76.4436C178.788 76.5615 178.3 76.7085 177.792 76.8716Z" fill="#182A52"/>
<path d="M176.367 82.2783C176.912 82.0933 177.417 81.9132 177.838 81.7428C178.303 79.9755 178.769 78.2078 179.234 76.4395C178.789 76.5622 178.302 76.7092 177.793 76.8724C177.319 78.6735 176.844 80.4755 176.367 82.2783Z" fill="#E3A040"/>
<path d="M174.117 82.9934C174.585 82.8505 175.058 82.7051 175.518 82.5557C175.886 80.7787 176.278 79.0069 176.693 77.2402C176.213 77.4018 175.729 77.5778 175.254 77.7499C174.851 79.4934 174.472 81.2413 174.117 82.9934Z" fill="#E3A040"/>
<path d="M171.676 83.7068C172.094 83.5888 172.564 83.4532 173.06 83.3078C173.202 82.5808 173.344 81.8539 173.5 81.0737C173.693 80.1104 173.89 79.1473 174.091 78.1846C173.571 78.3784 173.087 78.5658 172.663 78.7314C172.322 80.3888 171.993 82.0472 171.676 83.7068Z" fill="#E3A040"/>
<path d="M177.016 78.0881C178.738 80.5596 181.001 82.6058 183.633 84.0712C186.264 85.5367 189.196 86.3827 192.204 86.545C195.212 86.7073 198.217 86.1815 200.991 85.0078C203.765 83.834 206.235 82.0431 208.214 79.7713L192.798 74.2402L177.016 78.0881Z" fill="#F0EFE4"/>
<path d="M181.258 77.0542C182.502 78.8972 184.156 80.4273 186.09 81.5249C188.024 82.6224 190.185 83.2576 192.406 83.3808C194.626 83.504 196.845 83.1119 198.888 82.235C200.932 81.3581 202.744 80.0204 204.185 78.3264L192.797 74.2402L181.258 77.0542Z" fill="#FBC5A9"/>
<path d="M220.685 84.2461C212.679 85.4471 214.489 103.741 214.623 109.608C214.691 112.615 218.917 121.561 223.023 129.578C224.073 131.628 225.116 133.616 226.078 135.43C228.703 140.368 230.739 144 230.739 144C230.739 144 240.932 151.932 249.938 139.029C248.179 126.364 238.11 106.459 233.138 97.7168C226.694 86.384 220.685 84.2461 220.685 84.2461Z" fill="#2D3AAF"/>
<path d="M203.707 178.656L196.641 179.73C201.648 198.542 218.946 201.58 218.946 201.58L218.721 194.589C206.02 187.988 203.707 178.656 203.707 178.656Z" fill="#0E1A88"/>
<path d="M176.96 84.8456L171.289 87.309L185.551 135.626L188.914 70.1973L176.663 78.216L176.96 84.8456Z" fill="#123284"/>
<path d="M209.741 79.6041L197.047 66.0615L185.387 135.852L212.158 87.6487L206.882 84.4252L209.741 79.6041Z" fill="#123284"/>
<path d="M185.551 135.626L202.459 73.5327L186.796 72.4141C180.846 107.171 185.551 135.626 185.551 135.626Z" fill="white"/>
<path d="M185.992 87.3185L187.749 92.4796L192.151 92.667L194.49 87.7902L191.195 80.2988L185.992 87.3185Z" fill="#91B3FA"/>
<path d="M183.59 114.314C184.053 127.359 185.556 135.626 185.556 135.626L190.488 117.513L192.151 92.6669L187.749 92.4795L183.59 114.314Z" fill="#91B3FA"/>
<path d="M205.353 43.6037C205.93 42.2896 204.847 41.889 203.548 43.4325C201.96 41.0902 194.744 39.4893 194.744 39.4893C194.744 39.4893 195.61 36.9176 192.725 34.2894C189.84 31.6612 185.507 33.8322 187.456 38.4603C182.476 32.1175 177.423 34.518 177.351 40.2324C174.969 38.8036 173.093 39.8285 175.835 44.0609C178.578 48.2932 182.692 48.1179 182.692 48.1179L195.323 47.6034L195.395 58.861L198.209 67.3749C198.209 67.3749 200.446 65.375 203.55 61.4892C206.654 57.6034 207.375 49.2608 206.148 45.5462C208.889 45.4888 207.806 44.3468 205.353 43.6037Z" fill="#3E0E09"/>
<path d="M197.486 46.8608C197.486 46.8608 190.412 44.2899 185.936 44.9224C181.46 45.5548 181.101 49.1506 181.101 51.7797C181.101 54.4087 181.173 60.3509 180.812 62.694C180.451 65.0371 178.863 70.065 183.194 71.7798C187.525 73.4945 194.453 71.094 196.691 68.1799C198.928 65.2657 202.754 58.0078 200.733 54.0081C198.712 50.0084 196.548 48.5756 197.486 46.8608Z" fill="#FBC5A9"/>
<path d="M203.484 62.1313C205.458 62.1313 207.058 60.1012 207.058 57.5969C207.058 55.0926 205.458 53.0625 203.484 53.0625C201.51 53.0625 199.91 55.0926 199.91 57.5969C199.91 60.1012 201.51 62.1313 203.484 62.1313Z" fill="#FBC5A9"/>
<path d="M186.881 68.5411L186.602 75.3459C186.602 75.3459 188.238 77.6777 193.509 77.9863C199.545 78.3409 202.46 73.5327 202.46 73.5327L201.721 56.0332L186.881 68.5411Z" fill="#FBC5A9"/>
<path d="M188.079 68.0962L186.881 68.5412L186.602 75.3461C197.58 75.6756 199.605 62.9561 199.605 62.9561L194.12 66.2999L188.079 68.0962Z" fill="#F7A18A"/>
<path d="M200.485 53.5383C199.39 59.2568 196.455 63.1256 193.441 64.346C190.842 60.0604 186.151 61.3745 183.444 61.4892C181.38 61.5765 180.887 62.4972 180.769 62.9302C180.35 65.3581 179 70.1186 183.192 71.7752C187.522 73.4891 194.451 71.0895 196.688 68.1753C198.926 65.2612 203.322 55.9436 201.301 51.9407C201.22 51.7824 200.583 50.7744 200.485 53.5383Z" fill="#3E0E09"/>
<path d="M188.995 62.9748C187.883 63.3157 185.74 63.8455 183.768 63.6056C183.768 63.6056 183.627 64.8511 184.005 64.9626C184.346 65.0627 188.197 65.2388 189.454 63.3819C189.613 63.1477 189.308 62.8795 188.995 62.9748Z" fill="#F0EFE4"/>
<path d="M203.023 109.38C203.023 109.458 203.039 109.536 203.069 109.608C203.099 109.68 203.143 109.746 203.198 109.801C203.253 109.856 203.319 109.9 203.391 109.93C203.463 109.959 203.541 109.975 203.619 109.975H211.506C211.584 109.975 211.661 109.959 211.733 109.93C211.806 109.9 211.871 109.856 211.926 109.801C211.982 109.746 212.025 109.68 212.055 109.608C212.085 109.536 212.1 109.458 212.1 109.38V107.564H203.023V109.38Z" fill="#FBB258"/>
<path d="M207.64 107.988C207.243 107.988 206.855 108.106 206.525 108.327C206.195 108.547 205.938 108.861 205.786 109.227C205.634 109.594 205.594 109.998 205.671 110.387C205.749 110.776 205.94 111.134 206.221 111.415C206.501 111.695 206.859 111.887 207.248 111.964C207.638 112.041 208.041 112.002 208.408 111.85C208.775 111.698 209.088 111.441 209.309 111.11C209.529 110.78 209.647 110.392 209.647 109.995C209.647 109.463 209.436 108.953 209.059 108.576C208.683 108.2 208.172 107.988 207.64 107.988Z" fill="#FBC17B"/>
<path d="M174.805 106.302H166.414V108.13H174.805V106.302Z" fill="#91B3FA"/>
<path d="M174.805 108.776H166.414V110.605H174.805V108.776Z" fill="#91B3FA"/>
<path d="M118.656 132.819L125.413 151.387L131.037 148.443L124.541 130.839L118.656 132.819Z" fill="white"/>
<path d="M155.561 117.115C152.141 116.722 141.478 122.388 129.887 127.761L128.493 128.407C127.763 128.741 127.031 129.073 126.296 129.402C125.815 129.618 125.335 129.831 124.854 130.043C124.173 130.343 117.593 133.289 116.914 133.579L125.673 151.591C125.673 151.591 131.327 149.146 132.845 148.187C133.253 147.929 133.712 147.649 134.225 147.347C134.871 146.966 135.598 146.555 136.405 146.124C136.843 145.89 137.303 145.652 137.787 145.408C140.327 144.134 142.938 143.01 145.609 142.041C155.389 138.48 165.026 133.379 162.675 122.818C162.265 120.45 159.668 117.589 155.561 117.115Z" fill="#2D3AAF"/>
<path d="M126.801 148.437C126.687 148.496 126.593 148.586 126.531 148.698C126.469 148.81 126.441 148.937 126.451 149.065C126.462 149.192 126.51 149.314 126.589 149.414C126.668 149.514 126.776 149.588 126.898 149.628C127.019 149.667 127.15 149.669 127.273 149.634C127.396 149.599 127.506 149.528 127.588 149.43C127.671 149.333 127.723 149.213 127.737 149.086C127.752 148.959 127.728 148.83 127.67 148.717C127.592 148.565 127.456 148.45 127.293 148.397C127.13 148.345 126.953 148.359 126.801 148.437Z" fill="#4C479C"/>
<path d="M119.793 131.972L127.784 150.12C128.192 149.863 128.652 149.581 129.163 149.28L121.236 131.331C120.755 131.546 120.274 131.76 119.793 131.972Z" fill="#FBB258"/>
<path d="M123.719 130.495L131.634 148.215C132.071 147.982 132.531 147.743 133.016 147.499L125.112 129.853C124.648 130.067 124.184 130.281 123.719 130.495Z" fill="#FBB258"/>
<path d="M151.516 112.618C151.007 114.61 150.497 116.651 150.016 118.602L158.254 124.385C158.254 124.385 156.047 116.615 151.516 112.618Z" fill="#0E1A88"/>
<path d="M239.265 132.357C233.971 133.414 220.631 136.628 211.513 138.855L209.927 139.246C209.141 139.438 208.397 139.62 207.705 139.791L206.12 140.181C203.761 140.761 202.301 141.123 202.301 141.123L204.14 158.438C204.14 158.438 205.48 158.66 207.879 158.795C208.375 158.822 208.918 158.846 209.505 158.864C210.211 158.885 210.979 158.897 211.807 158.895C212.323 158.895 212.862 158.888 213.422 158.873C221.199 158.681 233.13 157.191 246.365 151.264C247.748 150.642 248.91 149.616 249.698 148.321C250.487 147.026 250.864 145.523 250.782 144.009C249.63 122.78 239.265 132.357 239.265 132.357Z" fill="#2D3AAF"/>
<path d="M206.125 140.178L207.881 158.792C208.378 158.82 208.92 158.844 209.507 158.862L207.707 139.789L206.125 140.178Z" fill="#FBC17B"/>
<path d="M209.926 139.246L211.805 158.895C212.322 158.895 212.861 158.887 213.421 158.873L211.51 138.857L209.926 139.246Z" fill="#FBC17B"/>
<path d="M201.945 59.8695C201.892 59.8693 201.84 59.8541 201.796 59.8257C201.752 59.7973 201.716 59.7569 201.694 59.7091C201.672 59.6614 201.664 59.6083 201.67 59.556C201.677 59.5038 201.699 59.4545 201.732 59.414L203.921 56.8035C203.944 56.7735 203.972 56.7484 204.005 56.7298C204.038 56.7112 204.074 56.6994 204.111 56.6951C204.149 56.6909 204.187 56.6943 204.223 56.7051C204.259 56.7159 204.292 56.734 204.321 56.7581C204.35 56.7823 204.373 56.812 204.39 56.8456C204.407 56.8792 204.417 56.9158 204.42 56.9534C204.422 56.991 204.417 57.0286 204.404 57.0641C204.392 57.0995 204.372 57.1321 204.347 57.1597L202.806 58.9956L204.31 58.469C204.379 58.4477 204.453 58.4539 204.518 58.4863C204.582 58.5187 204.631 58.5747 204.655 58.6427C204.679 58.7106 204.675 58.7851 204.645 58.8505C204.615 58.9158 204.561 58.967 204.494 58.9932L202.037 59.8542C202.007 59.8644 201.976 59.8696 201.945 59.8695Z" fill="#F7A18A"/>
<path d="M185.91 60.7093C184.924 60.7093 184.277 60.4718 183.949 59.9937C183.288 59.0309 184.126 57.3945 184.964 55.9366C185.898 54.3099 185.141 52.7632 185.109 52.6986C185.079 52.6334 185.076 52.5592 185.1 52.4916C185.124 52.424 185.172 52.3681 185.236 52.3357C185.3 52.3033 185.374 52.2968 185.443 52.3176C185.511 52.3384 185.569 52.3849 185.604 52.4474C185.642 52.5233 186.532 54.3204 185.443 56.2129C184.673 57.5536 183.947 59.0139 184.404 59.6795C184.727 60.1512 185.71 60.2739 187.244 60.0357C187.281 60.0281 187.319 60.0281 187.356 60.0357C187.392 60.0432 187.427 60.0582 187.458 60.0796C187.489 60.101 187.515 60.1285 187.535 60.1604C187.555 60.1922 187.568 60.2278 187.574 60.265C187.58 60.3021 187.578 60.3401 187.569 60.3765C187.56 60.4129 187.543 60.4471 187.52 60.4769C187.497 60.5068 187.469 60.5316 187.436 60.5501C187.403 60.5685 187.367 60.5801 187.33 60.5841C186.86 60.6618 186.386 60.7036 185.91 60.7093Z" fill="#F7A18A"/>
<path d="M184.018 53.8426C183.695 53.8143 183.404 54.1293 183.367 54.5477C183.33 54.9661 183.561 55.3271 183.883 55.3554C184.206 55.3837 184.497 55.0687 184.534 54.6511C184.571 54.2335 184.34 53.8725 184.018 53.8426Z" fill="#5B1E13"/>
<path d="M188.866 53.8524C188.543 53.8234 188.252 54.1392 188.215 54.5567C188.178 54.9743 188.409 55.3362 188.731 55.3644C189.053 55.3927 189.345 55.0777 189.382 54.6601C189.419 54.2426 189.188 53.8807 188.866 53.8524Z" fill="#5B1E13"/>
<path d="M190.986 52.8302C190.909 52.8302 190.833 52.8133 190.763 52.7806C190.694 52.7479 190.632 52.7003 190.583 52.6412C189.395 51.2261 187.907 52.201 187.844 52.243C187.787 52.2816 187.723 52.3085 187.655 52.3222C187.587 52.3359 187.517 52.3361 187.449 52.3228C187.381 52.3095 187.317 52.2829 187.259 52.2446C187.201 52.2063 187.152 52.1571 187.113 52.0996C187.074 52.0422 187.048 51.9777 187.034 51.9099C187.02 51.842 187.02 51.7722 187.033 51.7043C187.047 51.6363 187.073 51.5717 187.111 51.5141C187.15 51.4564 187.199 51.4069 187.256 51.3683C188.064 50.8279 189.959 50.2569 191.39 51.9635C191.454 52.0405 191.495 52.1342 191.508 52.2337C191.521 52.3331 191.506 52.4342 191.463 52.5251C191.421 52.616 191.354 52.6929 191.269 52.747C191.185 52.801 191.087 52.8299 190.986 52.8302Z" fill="#5B1E13"/>
<path d="M184.031 52.0613C183.931 51.9608 183.81 51.8845 183.677 51.8383C183.354 51.7164 182.969 51.7293 182.529 51.8747C182.463 51.899 182.392 51.9097 182.322 51.9062C182.251 51.9027 182.182 51.8851 182.118 51.8544C182.055 51.8237 181.998 51.7805 181.951 51.7274C181.905 51.6744 181.869 51.6125 181.847 51.5455C181.825 51.4784 181.816 51.4076 181.822 51.3372C181.828 51.2668 181.847 51.1983 181.88 51.1357C181.913 51.073 181.958 51.0176 182.012 50.9726C182.066 50.9277 182.129 50.8941 182.197 50.874C183.947 50.2932 184.812 51.3505 184.849 51.3957L184.023 52.0524L184.031 52.0613Z" fill="#5B1E13"/>
<g opacity="0.5">
<path d="M192.766 56.002C191.349 55.9971 190.198 56.527 190.195 57.1861C190.193 57.8451 191.34 58.3839 192.757 58.3887C194.175 58.3936 195.326 57.8645 195.328 57.2054C195.331 56.5464 194.184 56.0076 192.766 56.002Z" fill="#F3888A"/>
</g>
<path d="M216.922 82.5544C216.57 82.4284 216.204 82.3024 215.835 82.178C215.358 82.0165 214.874 81.8549 214.4 81.7063C213.996 81.5787 213.605 81.4567 213.23 81.342C212.708 81.1805 212.22 81.0335 211.791 80.9075C210.795 80.6127 210.126 80.4277 210.126 80.4277L207.398 83.6415C207.398 83.6415 208.095 83.9299 209.107 84.3313C209.511 84.4928 209.971 84.6722 210.453 84.8595C210.788 84.9904 211.136 85.1229 211.487 85.2561C211.945 85.4282 212.409 85.6002 212.86 85.7625C213.145 85.8651 213.425 85.9653 213.698 86.0582C214.238 86.2439 214.741 86.4071 215.169 86.529C215.87 86.7294 216.369 86.8247 216.507 86.7374C217.145 86.3336 219.688 83.715 219.688 83.715C219.247 83.4815 218.793 83.2731 218.329 83.0907C217.9 82.9162 217.424 82.7353 216.922 82.5544Z" fill="#182A52"/>
<path d="M213.703 86.0585C214.243 86.2442 214.747 86.4074 215.175 86.5293C216.227 85.383 217.28 84.2368 218.334 83.091C217.903 82.9165 217.427 82.7356 216.925 82.5547C215.852 83.7226 214.778 84.8905 213.703 86.0585Z" fill="#E3A040"/>
<path d="M211.488 85.2559C211.946 85.4279 212.411 85.5999 212.861 85.7623C213.831 84.5507 214.821 83.3559 215.834 82.1777C215.357 82.0162 214.873 81.8547 214.398 81.7061C213.41 82.8724 212.44 84.0556 211.488 85.2559Z" fill="#E3A040"/>
<path d="M209.113 84.331C209.517 84.4926 209.978 84.6719 210.46 84.8593C210.851 84.3545 211.242 83.8529 211.662 83.319C212.184 82.6575 212.707 81.9968 213.237 81.3418C212.715 81.1802 212.226 81.0332 211.797 80.9072C210.89 82.0407 209.996 83.182 209.113 84.331Z" fill="#E3A040"/>
<path d="M179.271 206.257L179.006 215.516C179.49 215.531 179.975 215.549 180.459 215.569C182.142 215.635 183.823 215.722 185.504 215.828L185.966 204.386L176.566 197.605L179.271 206.257Z" fill="#0E1A88"/>
<path d="M223.023 129.582C224.073 131.632 225.116 133.62 226.079 135.434L237.366 138.578C237.366 138.578 233.933 130.697 223.023 129.582Z" fill="#0E1A88"/>
<path d="M192.905 134.518C192.596 134.518 192.293 134.609 192.036 134.781C191.778 134.953 191.577 135.198 191.459 135.484C191.341 135.77 191.31 136.085 191.37 136.388C191.43 136.692 191.579 136.971 191.798 137.19C192.017 137.409 192.296 137.558 192.6 137.618C192.903 137.679 193.218 137.648 193.504 137.529C193.79 137.411 194.035 137.21 194.207 136.953C194.379 136.695 194.47 136.392 194.47 136.083C194.47 135.877 194.43 135.674 194.351 135.484C194.273 135.294 194.157 135.121 194.012 134.976C193.867 134.831 193.694 134.715 193.504 134.637C193.314 134.558 193.111 134.518 192.905 134.518Z" fill="#FFC800"/>
<path d="M179.374 133.677C179.064 133.677 178.762 133.769 178.504 133.941C178.247 134.113 178.046 134.357 177.928 134.643C177.809 134.929 177.778 135.244 177.839 135.547C177.899 135.851 178.048 136.13 178.267 136.349C178.486 136.568 178.765 136.717 179.069 136.777C179.372 136.838 179.687 136.807 179.973 136.688C180.259 136.57 180.503 136.369 180.675 136.112C180.847 135.854 180.939 135.552 180.939 135.242C180.939 134.827 180.774 134.429 180.481 134.135C180.187 133.842 179.789 133.677 179.374 133.677Z" fill="#FFC800"/>
<path d="M192.905 144.606C192.596 144.606 192.293 144.698 192.036 144.87C191.778 145.042 191.577 145.287 191.459 145.573C191.341 145.859 191.31 146.173 191.37 146.477C191.43 146.781 191.579 147.06 191.798 147.279C192.017 147.498 192.296 147.647 192.6 147.707C192.903 147.767 193.218 147.736 193.504 147.618C193.79 147.499 194.035 147.299 194.207 147.041C194.379 146.784 194.47 146.481 194.47 146.172C194.47 145.757 194.306 145.358 194.012 145.065C193.718 144.771 193.32 144.606 192.905 144.606Z" fill="#FFC800"/>
<path d="M179.374 143.77C179.064 143.77 178.762 143.861 178.504 144.033C178.247 144.205 178.046 144.45 177.928 144.736C177.809 145.022 177.778 145.337 177.839 145.64C177.899 145.944 178.048 146.223 178.267 146.442C178.486 146.661 178.765 146.81 179.069 146.87C179.372 146.93 179.687 146.899 179.973 146.781C180.259 146.663 180.503 146.462 180.675 146.204C180.847 145.947 180.939 145.644 180.939 145.335C180.939 144.92 180.774 144.522 180.481 144.228C180.187 143.934 179.789 143.77 179.374 143.77Z" fill="#FFC800"/>
<path d="M192.905 154.696C192.596 154.696 192.293 154.788 192.035 154.96C191.778 155.132 191.577 155.377 191.459 155.663C191.34 155.949 191.31 156.264 191.37 156.567C191.43 156.871 191.58 157.15 191.799 157.369C192.018 157.588 192.297 157.737 192.6 157.797C192.904 157.857 193.219 157.826 193.505 157.708C193.791 157.589 194.035 157.388 194.207 157.131C194.379 156.873 194.471 156.57 194.47 156.261C194.47 156.055 194.43 155.852 194.351 155.662C194.273 155.472 194.157 155.3 194.012 155.154C193.867 155.009 193.694 154.894 193.504 154.815C193.314 154.737 193.111 154.696 192.905 154.696Z" fill="#FFC800"/>
<path d="M179.374 153.855C179.064 153.855 178.762 153.947 178.504 154.119C178.247 154.291 178.046 154.536 177.928 154.822C177.809 155.108 177.778 155.423 177.839 155.726C177.899 156.03 178.048 156.309 178.267 156.528C178.486 156.747 178.765 156.896 179.069 156.956C179.373 157.016 179.687 156.985 179.973 156.867C180.259 156.748 180.504 156.547 180.676 156.29C180.848 156.032 180.939 155.73 180.939 155.42C180.939 155.005 180.774 154.607 180.48 154.314C180.187 154.02 179.789 153.855 179.374 153.855Z" fill="#FFC800"/>
<path d="M192.905 164.785C192.596 164.785 192.293 164.877 192.035 165.049C191.778 165.221 191.577 165.466 191.459 165.752C191.34 166.038 191.31 166.352 191.37 166.656C191.43 166.96 191.58 167.239 191.799 167.458C192.018 167.676 192.297 167.825 192.6 167.886C192.904 167.946 193.219 167.915 193.505 167.796C193.791 167.678 194.035 167.477 194.207 167.22C194.379 166.962 194.471 166.659 194.47 166.35C194.47 166.144 194.43 165.941 194.351 165.751C194.273 165.561 194.157 165.388 194.012 165.243C193.867 165.098 193.694 164.983 193.504 164.904C193.314 164.825 193.111 164.785 192.905 164.785Z" fill="#FFC800"/>
<path d="M179.374 163.944C179.064 163.944 178.762 164.036 178.504 164.208C178.247 164.38 178.046 164.625 177.928 164.911C177.809 165.197 177.778 165.511 177.839 165.815C177.899 166.119 178.048 166.398 178.267 166.616C178.486 166.835 178.765 166.984 179.069 167.045C179.372 167.105 179.687 167.074 179.973 166.956C180.259 166.837 180.503 166.637 180.675 166.379C180.847 166.122 180.939 165.819 180.939 165.51C180.939 165.094 180.774 164.696 180.481 164.403C180.187 164.109 179.789 163.944 179.374 163.944Z" fill="#FFC800"/>
<path d="M180.555 150.219C179.209 150.643 177.865 151.074 176.523 151.511C171.021 153.333 165.567 155.294 160.162 157.394C158.896 157.884 157.635 158.382 156.379 158.887C155.838 159.106 155.303 159.326 154.769 159.546C154.001 159.86 153.235 160.175 152.471 160.504C151.93 160.723 151.396 160.95 150.862 161.185C149.61 161.704 148.364 162.242 147.123 162.8C140.991 165.486 134.944 168.364 128.984 171.434C127.725 172.08 126.474 172.736 125.23 173.395V173.403C123.862 174.127 122.496 174.863 121.133 175.612C121.396 176.242 121.659 176.878 121.923 177.507C123.313 177.103 124.696 176.687 126.079 176.271C127.388 175.867 128.691 175.463 129.986 175.049C136.52 172.971 142.979 170.688 149.362 168.2C150.627 167.71 151.894 167.212 153.152 166.699C153.693 166.488 154.235 166.268 154.768 166.041C155.528 165.727 156.297 165.412 157.057 165.09C157.599 164.871 158.133 164.644 158.667 164.41C159.912 163.891 161.154 163.354 162.392 162.8H162.399C167.858 160.406 173.251 157.855 178.578 155.146C179.8 154.539 181.014 153.91 182.221 153.273C184.292 152.196 186.348 151.096 188.389 149.973C188.126 149.344 187.863 148.715 187.607 148.078C185.244 148.768 182.894 149.482 180.555 150.219Z" fill="#51DBC9"/>
<path d="M180.545 171.438C174.589 168.372 168.54 165.494 162.399 162.804H162.391C161.155 162.247 159.918 161.706 158.666 161.18C158.132 160.953 157.591 160.726 157.057 160.506C156.296 160.177 155.528 159.86 154.767 159.548C154.233 159.328 153.691 159.109 153.151 158.889C151.893 158.384 150.627 157.887 149.361 157.396C143.961 155.289 138.505 153.328 132.993 151.513C131.654 151.075 130.3 150.635 128.955 150.211C126.62 149.479 124.276 148.77 121.923 148.082C121.659 148.718 121.396 149.348 121.133 149.977C123.174 151.103 125.227 152.201 127.293 153.27C128.505 153.916 129.716 154.535 130.937 155.15C136.257 157.85 141.652 160.401 147.123 162.804C148.367 163.352 149.61 163.889 150.854 164.414C151.389 164.648 151.93 164.875 152.47 165.094C153.231 165.417 153.999 165.74 154.768 166.045C155.301 166.272 155.836 166.492 156.377 166.703C157.636 167.217 158.897 167.714 160.161 168.197C166.548 170.691 173.011 172.977 179.551 175.052C180.853 175.469 182.156 175.88 183.458 176.275C184.84 176.699 186.223 177.111 187.607 177.511C187.863 176.882 188.126 176.245 188.389 175.616C187.036 174.87 185.675 174.136 184.306 173.414C183.055 172.748 181.801 172.089 180.545 171.438Z" fill="#51DBC9"/>
<path d="M167.534 189.243C165.317 182.135 162.859 175.12 160.159 168.199C159.675 166.932 159.177 165.671 158.666 164.416C158.454 163.874 158.235 163.333 158.008 162.8C157.693 162.032 157.378 161.271 157.056 160.51C156.837 159.969 156.61 159.427 156.376 158.894C155.85 157.65 155.313 156.407 154.766 155.163C152.652 150.341 150.417 145.572 148.063 140.858C147.441 139.614 146.811 138.372 146.174 137.133C144.798 134.463 143.386 131.809 141.938 129.173C141.309 129.436 140.679 129.699 140.043 129.956C140.87 132.794 141.731 135.619 142.628 138.429C143.052 139.731 143.479 141.033 143.908 142.336C145.606 147.407 147.423 152.428 149.359 157.402C149.849 158.667 150.347 159.934 150.859 161.192C151.078 161.733 151.291 162.267 151.518 162.802C151.825 163.57 152.147 164.337 152.469 165.099C152.688 165.641 152.915 166.175 153.149 166.709C153.668 167.954 154.207 169.198 154.765 170.441C157.765 177.297 161.011 184.046 164.504 190.687C165.133 191.902 165.777 193.113 166.435 194.322C166.808 195.025 167.189 195.727 167.577 196.429C168.206 196.166 168.843 195.903 169.472 195.647C169.238 194.839 169.004 194.037 168.755 193.239C168.361 191.897 167.959 190.566 167.534 189.243Z" fill="#51DBC9"/>
<path d="M163.35 137.114C162.713 138.352 162.084 139.594 161.462 140.838C159.113 145.557 156.882 150.33 154.767 155.158C154.21 156.401 153.672 157.645 153.152 158.889C152.917 159.423 152.69 159.965 152.471 160.504C152.142 161.265 151.825 162.027 151.52 162.795C151.293 163.329 151.073 163.87 150.854 164.41C150.349 165.669 149.852 166.932 149.361 168.201C146.661 175.123 144.2 182.137 141.978 189.245C141.561 190.576 141.152 191.91 140.749 193.247C140.516 194.045 140.282 194.842 140.047 195.64C140.683 195.896 141.313 196.159 141.942 196.423C142.322 195.727 142.703 195.033 143.072 194.33C143.732 193.118 144.383 191.9 145.011 190.686C148.501 184.049 151.752 177.298 154.765 170.433C155.313 169.189 155.849 167.945 156.374 166.7C156.609 166.166 156.836 165.633 157.054 165.091C157.378 164.33 157.692 163.562 158.006 162.793C158.233 162.259 158.453 161.718 158.664 161.178C159.177 159.92 159.675 158.659 160.158 157.395C162.103 152.412 163.92 147.385 165.609 142.314C166.048 141.012 166.474 139.709 166.889 138.407C167.789 135.598 168.65 132.778 169.474 129.949C168.844 129.693 168.208 129.429 167.579 129.166C166.13 131.794 164.721 134.443 163.35 137.114Z" fill="#51DBC9"/>
<path d="M180.555 150.219C179.209 150.643 177.865 151.074 176.523 151.511C171.021 153.333 165.567 155.294 160.162 157.394C158.896 157.884 157.635 158.382 156.379 158.887C155.838 159.106 155.303 159.326 154.769 159.546C154.001 159.86 153.235 160.175 152.471 160.504C151.93 160.723 151.396 160.95 150.862 161.185C149.61 161.704 148.364 162.242 147.123 162.8C140.991 165.486 134.944 168.364 128.984 171.434C127.725 172.08 126.474 172.736 125.23 173.395V173.403C123.862 174.127 122.496 174.863 121.133 175.612C121.396 176.242 121.659 176.878 121.923 177.507C123.313 177.103 124.696 176.687 126.079 176.271C127.388 175.867 128.691 175.463 129.986 175.049C136.52 172.971 142.979 170.688 149.362 168.2C150.627 167.71 151.894 167.212 153.152 166.699C153.693 166.488 154.235 166.268 154.768 166.041C155.528 165.727 156.297 165.412 157.057 165.09C157.599 164.871 158.133 164.644 158.667 164.41C159.912 163.891 161.154 163.354 162.392 162.8H162.399C167.858 160.406 173.251 157.855 178.578 155.146C179.8 154.539 181.014 153.91 182.221 153.273C184.292 152.196 186.348 151.096 188.389 149.973C188.126 149.344 187.863 148.715 187.607 148.078C185.244 148.768 182.894 149.482 180.555 150.219Z" fill="#51DBC9"/>
<path d="M180.545 171.438C174.589 168.372 168.54 165.494 162.399 162.804H162.391C161.155 162.247 159.918 161.706 158.666 161.18C158.132 160.953 157.591 160.726 157.057 160.506C156.296 160.177 155.528 159.86 154.767 159.548C154.233 159.328 153.691 159.109 153.151 158.889C151.893 158.384 150.627 157.887 149.361 157.396C143.961 155.289 138.505 153.328 132.993 151.513C131.654 151.075 130.3 150.635 128.955 150.211C126.62 149.479 124.276 148.77 121.923 148.082C121.659 148.718 121.396 149.348 121.133 149.977C123.174 151.103 125.227 152.201 127.293 153.27C128.505 153.916 129.716 154.535 130.937 155.15C136.257 157.85 141.652 160.401 147.123 162.804C148.367 163.352 149.61 163.889 150.854 164.414C151.389 164.648 151.93 164.875 152.47 165.094C153.231 165.417 153.999 165.74 154.768 166.045C155.301 166.272 155.836 166.492 156.377 166.703C157.636 167.217 158.897 167.714 160.161 168.197C166.548 170.691 173.011 172.977 179.551 175.052C180.853 175.469 182.156 175.88 183.458 176.275C184.84 176.699 186.223 177.111 187.607 177.511C187.863 176.882 188.126 176.245 188.389 175.616C187.036 174.87 185.675 174.136 184.306 173.414C183.055 172.748 181.801 172.089 180.545 171.438Z" fill="#51DBC9"/>
<path d="M167.534 189.243C165.317 182.135 162.859 175.12 160.159 168.199C159.675 166.932 159.177 165.671 158.666 164.416C158.454 163.874 158.235 163.333 158.008 162.8C157.693 162.032 157.378 161.271 157.056 160.51C156.837 159.969 156.61 159.427 156.376 158.894C155.85 157.65 155.313 156.407 154.766 155.163C152.652 150.341 150.417 145.572 148.063 140.858C147.441 139.614 146.811 138.372 146.174 137.133C144.798 134.463 143.386 131.809 141.938 129.173C141.309 129.436 140.679 129.699 140.043 129.956C140.87 132.794 141.731 135.619 142.628 138.429C143.052 139.731 143.479 141.033 143.908 142.336C145.606 147.407 147.423 152.428 149.359 157.402C149.849 158.667 150.347 159.934 150.859 161.192C151.078 161.733 151.291 162.267 151.518 162.802C151.825 163.57 152.147 164.337 152.469 165.099C152.688 165.641 152.915 166.175 153.149 166.709C153.668 167.954 154.207 169.198 154.765 170.441C157.765 177.297 161.011 184.046 164.504 190.687C165.133 191.902 165.777 193.113 166.435 194.322C166.808 195.025 167.189 195.727 167.577 196.429C168.206 196.166 168.843 195.903 169.472 195.647C169.238 194.839 169.004 194.037 168.755 193.239C168.361 191.897 167.959 190.566 167.534 189.243Z" fill="#51DBC9"/>
<path d="M163.35 137.114C162.713 138.352 162.084 139.594 161.462 140.838C159.113 145.557 156.882 150.33 154.767 155.158C154.21 156.401 153.672 157.645 153.152 158.889C152.917 159.423 152.69 159.965 152.471 160.504C152.142 161.265 151.825 162.027 151.52 162.795C151.293 163.329 151.073 163.87 150.854 164.41C150.349 165.669 149.852 166.932 149.361 168.201C146.661 175.123 144.2 182.137 141.978 189.245C141.561 190.576 141.152 191.91 140.749 193.247C140.516 194.045 140.282 194.842 140.047 195.64C140.683 195.896 141.313 196.159 141.942 196.423C142.322 195.727 142.703 195.033 143.072 194.33C143.732 193.118 144.383 191.9 145.011 190.686C148.501 184.049 151.752 177.298 154.765 170.433C155.313 169.189 155.849 167.945 156.374 166.7C156.609 166.166 156.836 165.633 157.054 165.091C157.378 164.33 157.692 163.562 158.006 162.793C158.233 162.259 158.453 161.718 158.664 161.178C159.177 159.92 159.675 158.659 160.158 157.395C162.103 152.412 163.92 147.385 165.609 142.314C166.048 141.012 166.474 139.709 166.889 138.407C167.789 135.598 168.65 132.778 169.474 129.949C168.844 129.693 168.208 129.429 167.579 129.166C166.13 131.794 164.721 134.443 163.35 137.114Z" fill="#51DBC9"/>
<path d="M148.065 140.852C147.444 139.608 146.814 138.367 146.177 137.128C144.969 137.485 143.784 137.917 142.629 138.42C143.053 139.722 143.48 141.025 143.909 142.327C145.25 141.718 146.641 141.225 148.065 140.852Z" fill="#51DBC9"/>
<path d="M165.614 142.316C166.053 141.013 166.48 139.711 166.894 138.408C166.733 138.327 166.565 138.255 166.397 138.189C165.402 137.775 164.386 137.416 163.352 137.113C162.716 138.352 162.087 139.593 161.465 140.838C162.612 141.135 163.737 141.513 164.831 141.968C165.093 142.082 165.358 142.192 165.614 142.316Z" fill="#51DBC9"/>
<path d="M182.223 153.277C181.733 152.224 181.175 151.202 180.555 150.219C179.209 150.643 177.865 151.074 176.523 151.511C177.306 152.665 177.993 153.881 178.58 155.146C179.802 154.543 181.016 153.914 182.223 153.277Z" fill="#51DBC9"/>
<path d="M132.993 151.514C131.654 151.075 130.3 150.636 128.954 150.212C128.34 151.198 127.785 152.219 127.293 153.271C128.505 153.917 129.716 154.536 130.937 155.151C131.519 153.883 132.207 152.666 132.993 151.514Z" fill="#51DBC9"/>
<path d="M179.55 175.052C179.396 175.484 179.235 175.908 179.06 176.332C176.797 181.819 172.733 186.372 167.537 189.242C166.561 189.789 165.549 190.271 164.509 190.684C158.254 193.193 151.272 193.195 145.016 190.691C144.913 190.654 144.803 190.61 144.701 190.566C143.767 190.183 142.858 189.743 141.979 189.249C136.235 186.066 132.079 180.937 129.986 175.054C129.568 173.874 129.233 172.666 128.984 171.439C127.725 172.086 126.474 172.741 125.23 173.401V173.408C125.465 174.377 125.75 175.332 126.079 176.276C128.567 183.403 133.667 189.579 140.749 193.251C141.503 193.639 142.279 194.005 143.076 194.334C143.091 194.342 143.114 194.349 143.128 194.356C146.824 195.889 150.787 196.675 154.788 196.668C158.789 196.662 162.749 195.864 166.44 194.32C167.23 193.99 168.006 193.632 168.759 193.237C175.123 189.954 180.114 184.519 182.845 177.9C183.072 177.362 183.277 176.82 183.459 176.276C183.794 175.338 184.077 174.383 184.308 173.415C183.057 172.749 181.804 172.09 180.548 171.439C180.307 172.667 179.973 173.875 179.55 175.052Z" fill="#51DBC9"/>
<path d="M166.395 134.715C150.91 128.302 133.095 135.681 126.681 151.166C120.267 166.651 127.65 184.466 143.131 190.88C158.612 197.294 176.431 189.911 182.845 174.43C189.259 158.949 181.879 141.129 166.395 134.715ZM179.06 172.862C173.511 186.259 158.097 192.645 144.699 187.095C131.301 181.545 124.916 166.131 130.466 152.735C136.015 139.339 151.429 132.953 164.827 138.503C178.225 144.052 184.61 159.465 179.06 172.862Z" fill="#51DBC9"/>
<path d="M166.176 135.243C162.558 133.742 158.68 132.969 154.763 132.968C150.846 132.967 146.967 133.738 143.348 135.237C139.73 136.736 136.442 138.933 133.673 141.704C130.904 144.475 128.708 147.764 127.212 151.384C120.919 166.577 128.159 184.058 143.352 190.351C150.66 193.379 158.871 193.379 166.178 190.352C173.486 187.325 179.292 181.519 182.319 174.211C185.346 166.903 185.346 158.692 182.32 151.384C179.293 144.077 173.487 138.271 166.179 135.243H166.176ZM181.317 173.796C179.876 177.285 177.76 180.456 175.091 183.127C172.423 185.798 169.254 187.916 165.766 189.361C162.278 190.806 158.539 191.548 154.764 191.547C150.989 191.545 147.251 190.799 143.764 189.352C129.123 183.287 122.144 166.441 128.209 151.799C129.654 148.312 131.771 145.143 134.44 142.474C137.108 139.805 140.277 137.688 143.764 136.244C147.251 134.799 150.989 134.056 154.763 134.056C158.537 134.056 162.275 134.799 165.762 136.243C169.249 137.688 172.418 139.805 175.087 142.474C177.756 145.143 179.873 148.311 181.317 151.798C182.762 155.285 183.505 159.023 183.505 162.797C183.505 166.572 182.762 170.309 181.317 173.796Z" fill="#51DBC9"/>
<path d="M167.718 131.522C150.472 124.378 130.631 132.597 123.487 149.842C116.344 167.087 124.562 186.93 141.808 194.073C159.054 201.216 178.896 192.997 186.039 175.752C193.182 158.507 184.962 138.665 167.718 131.522ZM182.257 174.184C175.978 189.342 158.537 196.566 143.378 190.288C128.22 184.01 120.992 166.568 127.272 151.41C133.552 136.251 150.992 129.028 166.15 135.307C181.308 141.586 188.532 159.025 182.254 174.184H182.257Z" fill="#51DBC9"/>
<path d="M171.659 118.737C170.367 118.203 168.611 119.492 167.16 122.998C165.708 126.504 165.111 130.899 166.401 131.433C167.69 131.966 170.377 128.438 171.829 124.931C173.281 121.425 172.949 119.271 171.659 118.737Z" fill="#51DBC9"/>
<path d="M169.681 129.34L167.868 128.589C167.64 128.502 167.386 128.507 167.162 128.604C166.937 128.701 166.759 128.881 166.665 129.107C166.572 129.333 166.57 129.587 166.66 129.814C166.751 130.041 166.926 130.224 167.149 130.324L168.963 131.075C169.077 131.127 169.201 131.154 169.326 131.157C169.452 131.16 169.577 131.137 169.694 131.091C169.81 131.044 169.916 130.975 170.006 130.887C170.095 130.799 170.166 130.693 170.214 130.577C170.262 130.461 170.287 130.337 170.286 130.211C170.285 130.086 170.259 129.962 170.209 129.846C170.159 129.731 170.087 129.627 169.997 129.54C169.906 129.453 169.799 129.385 169.681 129.34Z" fill="#51DBC9"/>
<path d="M139.921 195.128C139.066 194.774 136.733 198.45 135.281 201.956C133.828 205.461 133.808 207.47 134.662 207.824C135.516 208.179 136.924 206.743 138.377 203.237C139.831 199.732 140.775 195.483 139.921 195.128Z" fill="#51DBC9"/>
<path d="M142.375 195.27L140.561 194.519C140.447 194.467 140.323 194.439 140.198 194.437C140.072 194.434 139.947 194.457 139.83 194.503C139.714 194.549 139.608 194.619 139.518 194.707C139.429 194.795 139.358 194.9 139.31 195.016C139.262 195.132 139.237 195.257 139.238 195.382C139.239 195.508 139.265 195.632 139.315 195.747C139.365 195.863 139.437 195.967 139.527 196.054C139.618 196.141 139.725 196.209 139.843 196.253L141.657 197.005C141.887 197.1 142.145 197.1 142.375 197.004C142.605 196.909 142.788 196.726 142.883 196.496C142.978 196.266 142.978 196.008 142.883 195.778C142.788 195.548 142.605 195.365 142.375 195.27Z" fill="#51DBC9"/>
<path d="M193.175 145.074C189.669 146.528 185.994 148.86 186.348 149.715C186.702 150.569 190.952 149.62 194.456 148.168C197.961 146.716 199.397 145.31 199.043 144.453C198.689 143.595 196.681 143.622 193.175 145.074Z" fill="#51DBC9"/>
<path d="M188.219 147.876C188.119 147.653 187.936 147.477 187.708 147.387C187.481 147.296 187.228 147.298 187.002 147.392C186.776 147.485 186.595 147.664 186.498 147.888C186.402 148.113 186.396 148.366 186.484 148.595L187.236 150.409C187.331 150.639 187.514 150.821 187.744 150.917C187.974 151.012 188.232 151.012 188.462 150.916C188.692 150.821 188.875 150.638 188.97 150.408C189.065 150.178 189.065 149.92 188.97 149.69L188.219 147.876Z" fill="#51DBC9"/>
<path d="M112.713 178.196C109.207 179.65 107.773 181.053 108.126 181.911C108.48 182.769 110.489 182.746 113.994 181.293C117.5 179.841 121.176 177.507 120.822 176.653C120.468 175.799 116.219 176.744 112.713 178.196Z" fill="#51DBC9"/>
<path d="M122.29 175.188C122.245 175.071 122.177 174.964 122.09 174.873C122.003 174.783 121.899 174.71 121.784 174.661C121.668 174.611 121.544 174.585 121.419 174.584C121.293 174.583 121.168 174.607 121.052 174.656C120.936 174.704 120.831 174.774 120.743 174.864C120.655 174.953 120.586 175.06 120.539 175.176C120.493 175.293 120.47 175.418 120.473 175.543C120.476 175.669 120.503 175.793 120.555 175.907L121.306 177.72C121.353 177.834 121.422 177.938 121.509 178.025C121.596 178.112 121.7 178.181 121.814 178.229C121.928 178.276 122.05 178.3 122.173 178.3C122.296 178.3 122.418 178.276 122.532 178.229C122.646 178.182 122.75 178.113 122.837 178.025C122.924 177.938 122.993 177.835 123.041 177.721C123.088 177.607 123.112 177.485 123.112 177.362C123.112 177.238 123.088 177.116 123.041 177.002L122.29 175.188Z" fill="#51DBC9"/>
<path d="M193.015 177C189.51 175.547 185.261 174.599 184.907 175.454C184.552 176.308 188.228 178.643 191.733 180.094C195.239 181.545 197.248 181.567 197.602 180.713C197.956 179.858 196.521 178.452 193.015 177Z" fill="#51DBC9"/>
<path d="M187.022 174.251C186.792 174.156 186.534 174.156 186.303 174.251C186.073 174.346 185.891 174.529 185.795 174.759L185.044 176.573C184.949 176.803 184.949 177.062 185.044 177.292C185.14 177.522 185.322 177.704 185.552 177.8C185.783 177.895 186.041 177.895 186.271 177.799C186.501 177.704 186.684 177.521 186.779 177.291L187.53 175.478C187.625 175.248 187.625 174.989 187.53 174.759C187.435 174.529 187.252 174.346 187.022 174.251Z" fill="#51DBC9"/>
<path d="M116.351 145.074C112.844 143.62 110.836 143.602 110.482 144.456C110.128 145.311 111.563 146.718 115.069 148.172C118.575 149.625 122.823 150.573 123.177 149.718C123.532 148.864 119.856 146.526 116.351 145.074Z" fill="#51DBC9"/>
<path d="M122.532 147.368C122.302 147.273 122.043 147.273 121.813 147.368C121.583 147.464 121.401 147.646 121.305 147.876L120.554 149.69C120.467 149.919 120.472 150.172 120.569 150.397C120.666 150.622 120.846 150.8 121.072 150.893C121.298 150.987 121.551 150.989 121.779 150.898C122.006 150.808 122.189 150.632 122.289 150.409L123.04 148.595C123.135 148.365 123.135 148.107 123.04 147.877C122.945 147.646 122.762 147.464 122.532 147.368Z" fill="#51DBC9"/>
<path d="M166.46 194.062C165.606 194.416 166.554 198.666 168.006 202.171C169.459 205.676 170.864 207.112 171.722 206.757C172.58 206.402 172.556 204.395 171.104 200.889C169.652 197.384 167.315 193.708 166.46 194.062Z" fill="#51DBC9"/>
<path d="M167.577 194.199L165.763 194.951C165.533 195.046 165.351 195.229 165.255 195.459C165.16 195.689 165.16 195.947 165.255 196.177C165.35 196.407 165.533 196.59 165.763 196.685C165.993 196.781 166.251 196.781 166.481 196.686L168.296 195.934C168.519 195.834 168.694 195.651 168.785 195.424C168.875 195.197 168.873 194.943 168.78 194.717C168.686 194.492 168.508 194.311 168.283 194.214C168.059 194.118 167.805 194.112 167.577 194.199Z" fill="#51DBC9"/>
<path d="M135.118 117.818C133.897 118.322 133.621 120.454 135.073 123.956C136.526 127.458 139.156 131.014 140.377 130.509C141.597 130.004 140.942 125.631 139.488 122.126C138.034 118.62 136.338 117.312 135.118 117.818Z" fill="#51DBC9"/>
<path d="M141.657 128.59L139.843 129.341C139.725 129.386 139.618 129.454 139.527 129.541C139.437 129.628 139.365 129.732 139.315 129.847C139.265 129.962 139.239 130.087 139.238 130.212C139.237 130.338 139.262 130.462 139.31 130.578C139.358 130.694 139.429 130.799 139.518 130.888C139.608 130.976 139.714 131.045 139.83 131.091C139.947 131.138 140.072 131.16 140.198 131.158C140.323 131.155 140.447 131.127 140.561 131.076L142.375 130.325C142.605 130.23 142.788 130.047 142.883 129.817C142.978 129.587 142.978 129.328 142.883 129.098C142.788 128.868 142.605 128.685 142.375 128.59C142.145 128.495 141.887 128.495 141.657 128.59Z" fill="#51DBC9"/>
<path d="M163.045 167.784L162.822 164.957H159.893C159.825 165.119 159.752 165.275 159.67 165.426C159.019 166.646 157.938 167.58 156.636 168.046C155.334 168.512 153.905 168.477 152.628 167.947C151.958 167.67 151.349 167.264 150.836 166.751C150.323 166.238 149.916 165.629 149.64 164.959H146.7L146.652 165.565L146.477 167.775L146.192 171.393L142.895 217.282L149.911 216.549C154.247 216.097 158.587 215.778 162.933 215.594L163.306 215.578H163.328C163.564 215.569 163.801 215.559 164.037 215.551H164.044C164.863 215.52 165.682 215.493 166.5 215.47L163.318 171.378L163.045 167.784Z" fill="#51DBC9"/>
<path d="M162.821 164.954H159.893C159.324 166.313 158.239 167.39 156.876 167.951C155.513 168.511 153.984 168.508 152.624 167.943C151.953 167.666 151.344 167.26 150.831 166.747C150.318 166.234 149.912 165.625 149.635 164.954H146.695L146.472 167.771L146.191 171.393C147.316 172.518 148.651 173.41 150.121 174.018C151.59 174.626 153.165 174.939 154.756 174.937C156.346 174.936 157.921 174.621 159.389 174.011C160.858 173.401 162.192 172.507 163.314 171.38L163.043 167.785L162.821 164.954Z" fill="#51DBC9"/>
<path d="M158.457 153.87C153.539 151.831 147.868 154.179 145.829 159.097C144.896 161.35 144.849 163.873 145.698 166.16C146.547 168.446 148.228 170.327 150.405 171.426C152.583 172.525 155.095 172.76 157.438 172.085C159.782 171.409 161.784 169.873 163.042 167.784C163.285 167.37 163.5 166.941 163.684 166.498C164.171 165.326 164.422 164.069 164.423 162.8C164.424 161.53 164.174 160.273 163.689 159.1C163.203 157.928 162.492 156.862 161.594 155.965C160.696 155.067 159.63 154.356 158.457 153.87ZM159.903 164.929C159.903 164.941 159.891 164.941 159.891 164.954C159.322 166.312 158.237 167.39 156.874 167.95C155.512 168.51 153.982 168.507 152.622 167.942C151.263 167.37 150.184 166.285 149.62 164.923C149.055 163.56 149.051 162.03 149.607 160.665C149.881 159.98 150.288 159.356 150.805 158.83C151.322 158.303 151.938 157.885 152.617 157.598C153.297 157.312 154.027 157.163 154.765 157.161C155.502 157.159 156.233 157.303 156.915 157.586C157.596 157.868 158.215 158.283 158.735 158.806C159.255 159.329 159.665 159.951 159.943 160.634C160.221 161.317 160.361 162.049 160.354 162.786C160.347 163.524 160.194 164.253 159.903 164.931V164.929Z" fill="#51DBC9"/>
<path d="M177.383 150.427C176.037 150.852 174.693 151.283 173.352 151.72C167.849 153.542 162.395 155.503 156.99 157.602C155.724 158.092 154.464 158.59 153.208 159.095C152.666 159.314 152.132 159.534 151.597 159.754C150.829 160.068 150.063 160.383 149.3 160.712C148.758 160.931 148.224 161.158 147.69 161.393C146.439 161.912 145.193 162.45 143.952 163.008C137.82 165.694 131.773 168.572 125.813 171.642C124.554 172.288 123.302 172.945 122.058 173.603V173.611C120.69 174.335 119.324 175.071 117.961 175.82C118.224 176.45 118.488 177.086 118.752 177.715C120.142 177.311 121.524 176.896 122.907 176.479C124.217 176.075 125.519 175.671 126.815 175.257C133.349 173.179 139.808 170.896 146.191 168.408C147.457 167.918 148.72 167.418 149.98 166.908C150.522 166.696 151.063 166.476 151.596 166.249C152.357 165.935 153.125 165.62 153.886 165.299C154.427 165.079 154.962 164.852 155.496 164.618C156.74 164.098 157.981 163.561 159.22 163.008H159.228C164.686 160.616 170.079 158.064 175.406 155.354C176.628 154.747 177.842 154.118 179.05 153.481C181.12 152.404 183.176 151.304 185.218 150.181C184.955 149.552 184.691 148.923 184.435 148.286C182.073 148.978 179.722 149.691 177.383 150.427Z" fill="#51DBC9"/>
<path d="M177.373 171.646C171.417 168.58 165.368 165.702 159.227 163.012H159.219C157.983 162.456 156.746 161.914 155.495 161.388C154.961 161.161 154.419 160.934 153.885 160.715C153.124 160.385 152.356 160.069 151.595 159.756C151.061 159.536 150.52 159.317 149.979 159.098C148.721 158.592 147.458 158.094 146.19 157.604C140.789 155.497 135.333 153.537 129.821 151.722C128.482 151.283 127.128 150.844 125.782 150.419C123.449 149.687 121.098 148.978 118.756 148.29C118.491 148.927 118.228 149.556 117.965 150.185C120.007 151.312 122.06 152.41 124.126 153.478C125.337 154.124 126.549 154.744 127.77 155.358C133.09 158.059 138.485 160.61 143.956 163.012C145.199 163.561 146.443 164.098 147.687 164.622C148.221 164.856 148.762 165.083 149.302 165.302C150.063 165.626 150.831 165.949 151.6 166.253C152.134 166.48 152.668 166.7 153.21 166.912C154.468 167.424 155.729 167.922 156.993 168.405C163.381 170.9 169.844 173.185 176.383 175.26C177.686 175.678 178.988 176.086 180.29 176.483C181.673 176.907 183.056 177.32 184.439 177.719C184.695 177.09 184.959 176.453 185.222 175.824C183.868 175.078 182.508 174.344 181.139 173.622C179.885 172.956 178.63 172.298 177.373 171.646Z" fill="#51DBC9"/>
<path d="M164.363 189.45C162.146 182.345 159.687 175.331 156.987 168.406C156.503 167.14 156.005 165.879 155.495 164.623C155.282 164.082 155.064 163.54 154.837 163.007C154.522 162.239 154.207 161.478 153.885 160.718C153.665 160.176 153.438 159.634 153.205 159.102C152.677 157.858 152.141 156.614 151.595 155.37C149.48 150.548 147.245 145.78 144.891 141.066C144.269 139.821 143.64 138.579 143.003 137.341C141.627 134.67 140.215 132.017 138.767 129.38C138.138 129.643 137.508 129.907 136.871 130.163C137.698 133.002 138.56 135.826 139.456 138.636C139.881 139.938 140.305 141.241 140.737 142.543C142.434 147.615 144.252 152.636 146.19 157.606C146.68 158.872 147.18 160.135 147.69 161.396C147.91 161.938 148.121 162.472 148.348 163.006C148.656 163.774 148.978 164.54 149.3 165.304C149.52 165.845 149.746 166.379 149.98 166.913C150.5 168.157 151.039 169.401 151.595 170.645C154.596 177.501 157.842 184.249 161.334 190.891C161.963 192.106 162.607 193.318 163.266 194.526C163.64 195.229 164.02 195.931 164.408 196.633C165.037 196.37 165.673 196.107 166.303 195.851C166.069 195.043 165.835 194.241 165.586 193.444C165.19 192.106 164.787 190.777 164.363 189.45Z" fill="#51DBC9"/>
<path d="M160.179 137.323C159.542 138.561 158.913 139.803 158.291 141.047C155.942 145.767 153.71 150.54 151.595 155.367C151.04 156.61 150.501 157.855 149.98 159.099C149.746 159.633 149.519 160.174 149.3 160.714C148.97 161.475 148.654 162.236 148.348 163.004C148.121 163.538 147.902 164.08 147.683 164.619C147.178 165.878 146.68 167.144 146.19 168.41C143.49 175.332 141.029 182.346 138.807 189.454C138.39 190.785 137.98 192.119 137.578 193.456L136.875 195.849C137.511 196.105 138.141 196.368 138.771 196.632C139.151 195.937 139.531 195.242 139.901 194.539C140.56 193.327 141.211 192.11 141.84 190.895C145.33 184.258 148.581 177.507 151.593 170.642C152.142 169.398 152.679 168.154 153.203 166.91C153.437 166.375 153.664 165.841 153.883 165.3C154.206 164.539 154.52 163.771 154.835 163.002C155.062 162.469 155.281 161.927 155.493 161.387C156.005 160.129 156.503 158.868 156.986 157.604C158.932 152.621 160.749 147.594 162.437 142.523C162.876 141.221 163.3 139.919 163.718 138.617C164.618 135.807 165.479 132.987 166.302 130.158C165.672 129.902 165.036 129.638 164.407 129.375C162.959 132.003 161.55 134.652 160.179 137.323Z" fill="#51DBC9"/>
<path d="M177.383 150.427C176.037 150.852 174.693 151.283 173.352 151.72C167.849 153.542 162.395 155.503 156.99 157.602C155.724 158.092 154.464 158.59 153.208 159.095C152.666 159.314 152.132 159.534 151.597 159.754C150.829 160.068 150.063 160.383 149.3 160.712C148.758 160.931 148.224 161.158 147.69 161.393C146.439 161.912 145.193 162.45 143.952 163.008C137.82 165.694 131.773 168.572 125.813 171.642C124.554 172.288 123.302 172.945 122.058 173.603V173.611C120.69 174.335 119.324 175.071 117.961 175.82C118.224 176.45 118.488 177.086 118.752 177.715C120.142 177.311 121.524 176.896 122.907 176.479C124.217 176.075 125.519 175.671 126.815 175.257C133.349 173.179 139.808 170.896 146.191 168.408C147.457 167.918 148.72 167.418 149.98 166.908C150.522 166.696 151.063 166.476 151.596 166.249C152.357 165.935 153.125 165.62 153.886 165.299C154.427 165.079 154.962 164.852 155.496 164.618C156.74 164.098 157.981 163.561 159.22 163.008H159.228C164.686 160.616 170.079 158.064 175.406 155.354C176.628 154.747 177.842 154.118 179.05 153.481C181.12 152.404 183.176 151.304 185.218 150.181C184.955 149.552 184.691 148.923 184.435 148.286C182.073 148.978 179.722 149.691 177.383 150.427Z" fill="#3CB5A5"/>
<path d="M177.373 171.646C171.417 168.58 165.368 165.702 159.227 163.012H159.219C157.983 162.456 156.746 161.914 155.495 161.388C154.961 161.161 154.419 160.934 153.885 160.715C153.124 160.385 152.356 160.069 151.595 159.756C151.061 159.536 150.52 159.317 149.979 159.098C148.721 158.592 147.458 158.094 146.19 157.604C140.789 155.497 135.333 153.537 129.821 151.722C128.482 151.283 127.128 150.844 125.782 150.419C123.449 149.687 121.098 148.978 118.756 148.29C118.491 148.927 118.228 149.556 117.965 150.185C120.007 151.312 122.06 152.41 124.126 153.478C125.337 154.124 126.549 154.744 127.77 155.358C133.09 158.059 138.485 160.61 143.956 163.012C145.199 163.561 146.443 164.098 147.687 164.622C148.221 164.856 148.762 165.083 149.302 165.302C150.063 165.626 150.831 165.949 151.6 166.253C152.134 166.48 152.668 166.7 153.21 166.912C154.468 167.424 155.729 167.922 156.993 168.405C163.381 170.9 169.844 173.185 176.383 175.26C177.686 175.678 178.988 176.086 180.29 176.483C181.673 176.907 183.056 177.32 184.439 177.719C184.695 177.09 184.959 176.453 185.222 175.824C183.868 175.078 182.508 174.344 181.139 173.622C179.885 172.956 178.63 172.298 177.373 171.646Z" fill="#3CB5A5"/>
<path d="M164.363 189.45C162.146 182.345 159.687 175.331 156.987 168.406C156.503 167.14 156.005 165.879 155.495 164.623C155.282 164.082 155.064 163.54 154.837 163.007C154.522 162.239 154.207 161.478 153.885 160.718C153.665 160.176 153.438 159.634 153.205 159.102C152.677 157.858 152.141 156.614 151.595 155.37C149.48 150.548 147.245 145.78 144.891 141.066C144.269 139.821 143.64 138.579 143.003 137.341C141.627 134.67 140.215 132.017 138.767 129.38C138.138 129.643 137.508 129.907 136.871 130.163C137.698 133.002 138.56 135.826 139.456 138.636C139.881 139.938 140.305 141.241 140.737 142.543C142.434 147.615 144.252 152.636 146.19 157.606C146.68 158.872 147.18 160.135 147.69 161.396C147.91 161.938 148.121 162.472 148.348 163.006C148.656 163.774 148.978 164.54 149.3 165.304C149.52 165.845 149.746 166.379 149.98 166.913C150.5 168.157 151.039 169.401 151.595 170.645C154.596 177.501 157.842 184.249 161.334 190.891C161.963 192.106 162.607 193.318 163.266 194.526C163.64 195.229 164.02 195.931 164.408 196.633C165.037 196.37 165.673 196.107 166.303 195.851C166.069 195.043 165.835 194.241 165.586 193.444C165.19 192.106 164.787 190.777 164.363 189.45Z" fill="#3CB5A5"/>
<path d="M160.179 137.323C159.542 138.561 158.913 139.803 158.291 141.047C155.942 145.767 153.71 150.54 151.595 155.367C151.04 156.61 150.501 157.855 149.98 159.099C149.746 159.633 149.519 160.174 149.3 160.714C148.97 161.475 148.654 162.236 148.348 163.004C148.121 163.538 147.902 164.08 147.683 164.619C147.178 165.878 146.68 167.144 146.19 168.41C143.49 175.332 141.029 182.346 138.807 189.454C138.39 190.785 137.98 192.119 137.578 193.456L136.875 195.849C137.511 196.105 138.141 196.368 138.771 196.632C139.151 195.937 139.531 195.242 139.901 194.539C140.56 193.327 141.211 192.11 141.84 190.895C145.33 184.258 148.581 177.507 151.593 170.642C152.142 169.398 152.679 168.154 153.203 166.91C153.437 166.375 153.664 165.841 153.883 165.3C154.206 164.539 154.52 163.771 154.835 163.002C155.062 162.469 155.281 161.927 155.493 161.387C156.005 160.129 156.503 158.868 156.986 157.604C158.932 152.621 160.749 147.594 162.437 142.523C162.876 141.221 163.3 139.919 163.718 138.617C164.618 135.807 165.479 132.987 166.302 130.158C165.672 129.902 165.036 129.638 164.407 129.375C162.959 132.003 161.55 134.652 160.179 137.323Z" fill="#3CB5A5"/>
<g opacity="0.3">
<path d="M144.894 141.061C144.272 139.816 143.642 138.574 143.006 137.336C141.798 137.694 140.612 138.125 139.457 138.628C139.882 139.93 140.306 141.233 140.738 142.535C142.079 141.927 143.469 141.434 144.894 141.061Z" fill="#51DBC9"/>
</g>
<g opacity="0.3">
<path d="M179.051 153.485C178.56 152.432 178.003 151.41 177.383 150.427C176.037 150.852 174.693 151.282 173.352 151.719C174.134 152.873 174.822 154.088 175.407 155.354C176.629 154.754 177.844 154.122 179.051 153.485Z" fill="#51DBC9"/>
</g>
<g opacity="0.3">
<path d="M162.441 142.526C162.881 141.224 163.305 139.921 163.722 138.619C163.561 138.538 163.393 138.465 163.225 138.399C162.23 137.986 161.214 137.627 160.181 137.323C159.544 138.562 158.915 139.803 158.293 141.048C159.44 141.345 160.565 141.723 161.659 142.178C161.922 142.291 162.185 142.401 162.441 142.526Z" fill="#51DBC9"/>
</g>
<g opacity="0.3">
<path d="M176.377 175.261C176.223 175.693 176.063 176.117 175.887 176.542C173.623 182.029 169.559 186.581 164.362 189.449C163.386 189.997 162.374 190.479 161.333 190.891C155.078 193.4 148.097 193.402 141.841 190.898C141.738 190.861 141.628 190.817 141.526 190.773C140.592 190.391 139.683 189.951 138.804 189.456C133.06 186.274 128.904 181.144 126.811 175.261C126.392 174.081 126.058 172.873 125.809 171.646C124.55 172.293 123.299 172.949 122.055 173.608V173.615C122.289 174.588 122.575 175.54 122.904 176.483C125.391 183.61 130.496 189.786 137.574 193.459C138.328 193.847 139.103 194.213 139.901 194.541C139.916 194.549 139.938 194.557 139.952 194.564C143.648 196.097 147.611 196.883 151.612 196.876C155.613 196.87 159.574 196.071 163.265 194.527C164.055 194.198 164.831 193.839 165.584 193.444C171.947 190.161 176.939 184.726 179.67 178.107C179.897 177.569 180.101 177.027 180.284 176.483C180.618 175.545 180.902 174.59 181.133 173.622C179.882 172.957 178.629 172.298 177.372 171.646C177.132 172.875 176.8 174.083 176.377 175.261Z" fill="#51DBC9"/>
</g>
<g opacity="0.3">
<path d="M129.82 151.723C128.481 151.283 127.127 150.845 125.782 150.42C125.168 151.406 124.614 152.427 124.121 153.479C125.333 154.125 126.544 154.744 127.765 155.359C128.347 154.091 129.034 152.875 129.82 151.723Z" fill="#51DBC9"/>
</g>
<path d="M163.219 134.925C147.735 128.511 129.92 135.894 123.505 151.374C117.091 166.855 124.474 184.675 139.956 191.089C155.437 197.502 173.257 190.123 179.671 174.638C186.084 159.153 178.705 141.339 163.219 134.925ZM175.885 173.071C170.339 186.469 154.921 192.853 141.524 187.305C128.127 181.756 121.741 166.34 127.289 152.942C132.837 139.544 148.252 133.16 161.65 138.71C175.048 144.259 181.435 159.673 175.885 173.071Z" fill="#245851"/>
<g opacity="0.2">
<path d="M163.003 135.45C159.385 133.948 155.506 133.174 151.589 133.172C147.671 133.17 143.792 133.941 140.173 135.44C136.554 136.939 133.266 139.137 130.497 141.908C127.728 144.679 125.533 147.969 124.036 151.59C117.743 166.782 124.983 184.264 140.176 190.557C143.798 192.073 147.683 192.859 151.609 192.87C155.535 192.882 159.425 192.117 163.055 190.622C166.685 189.126 169.984 186.929 172.763 184.155C175.542 181.382 177.745 178.087 179.248 174.46C180.75 170.832 181.522 166.944 181.518 163.018C181.514 159.092 180.735 155.206 179.226 151.581C177.717 147.957 175.507 144.666 172.723 141.898C169.939 139.13 166.636 136.938 163.003 135.45ZM178.144 174.002C176.702 177.491 174.586 180.661 171.918 183.332C169.249 186.003 166.081 188.121 162.593 189.566C159.105 191.011 155.366 191.754 151.591 191.752C147.816 191.751 144.078 191.005 140.591 189.557C125.949 183.494 118.972 166.648 125.036 152.007C126.469 148.504 128.58 145.318 131.248 142.633C133.915 139.948 137.087 137.816 140.581 136.36C144.075 134.903 147.822 134.152 151.607 134.147C155.392 134.143 159.14 134.887 162.637 136.335C166.134 137.784 169.311 139.909 171.984 142.588C174.658 145.267 176.776 148.448 178.216 151.949C179.657 155.449 180.392 159.199 180.38 162.984C180.367 166.769 179.608 170.514 178.144 174.005V174.002Z" fill="#51DBC9"/>
</g>
<path d="M164.543 131.734C147.297 124.591 127.456 132.809 120.312 150.055C113.168 167.3 121.388 187.142 138.633 194.285C155.879 201.429 175.72 193.21 182.864 175.964C190.008 158.719 181.788 138.874 164.543 131.734ZM179.081 174.397C172.803 189.556 155.362 196.78 140.204 190.501C125.046 184.222 117.821 166.781 124.1 151.622C130.379 136.463 147.819 129.24 162.977 135.519C178.135 141.798 185.358 159.235 179.079 174.393L179.081 174.397Z" fill="#3CB5A5"/>
<path d="M169.933 118.726C169.079 118.372 167.672 119.807 166.218 123.313C164.764 126.819 163.817 131.067 164.671 131.421C165.525 131.776 167.86 128.1 169.312 124.594C170.764 121.088 170.788 119.08 169.933 118.726Z" fill="#52A59A"/>
<path d="M166.51 129.554L164.696 128.802C164.582 128.755 164.46 128.73 164.337 128.73C164.214 128.731 164.092 128.755 163.978 128.802C163.864 128.849 163.76 128.918 163.673 129.006C163.586 129.093 163.517 129.196 163.47 129.31C163.423 129.424 163.398 129.546 163.398 129.67C163.398 129.793 163.423 129.915 163.47 130.029C163.517 130.143 163.586 130.246 163.674 130.333C163.761 130.42 163.864 130.49 163.978 130.537L165.792 131.288C166.021 131.383 166.28 131.383 166.51 131.288C166.74 131.193 166.923 131.01 167.018 130.78C167.113 130.55 167.113 130.292 167.018 130.062C166.923 129.832 166.74 129.649 166.51 129.554Z" fill="#297268"/>
<path d="M138.507 194.591C137.653 194.237 135.319 197.912 133.867 201.418C132.415 204.923 132.394 206.933 133.248 207.286C134.103 207.64 135.51 206.205 136.964 202.699C138.418 199.194 139.362 194.945 138.507 194.591Z" fill="#52A59A"/>
<path d="M139.202 195.479L137.388 194.728C137.158 194.632 136.899 194.632 136.669 194.728C136.439 194.823 136.256 195.006 136.161 195.236C136.066 195.466 136.066 195.725 136.161 195.955C136.257 196.185 136.44 196.367 136.67 196.463L138.483 197.214C138.598 197.265 138.721 197.293 138.847 197.295C138.972 197.298 139.097 197.276 139.214 197.229C139.331 197.183 139.437 197.113 139.526 197.025C139.616 196.937 139.686 196.832 139.735 196.716C139.783 196.6 139.807 196.475 139.806 196.35C139.805 196.224 139.779 196.1 139.729 195.985C139.68 195.869 139.608 195.765 139.517 195.678C139.426 195.591 139.319 195.524 139.202 195.479Z" fill="#297268"/>
<path d="M190.003 145.283C186.497 146.736 182.822 149.068 183.176 149.923C183.531 150.777 187.78 149.828 191.285 148.377C194.789 146.925 196.225 145.518 195.871 144.661C195.518 143.804 193.509 143.83 190.003 145.283Z" fill="#208B7D"/>
<path d="M185.048 148.086C184.953 147.856 184.771 147.673 184.541 147.577C184.311 147.482 184.052 147.482 183.822 147.577C183.592 147.672 183.409 147.855 183.314 148.085C183.218 148.315 183.218 148.574 183.314 148.804L184.065 150.618C184.165 150.841 184.348 151.016 184.575 151.107C184.802 151.197 185.056 151.195 185.282 151.102C185.508 151.008 185.688 150.83 185.785 150.606C185.882 150.381 185.887 150.127 185.8 149.899L185.048 148.086Z" fill="#3D8B81"/>
<path d="M111.896 177.635C108.391 179.089 106.956 180.493 107.31 181.351C107.665 182.208 109.673 182.185 113.178 180.733C116.683 179.28 120.359 176.946 120.006 176.093C119.652 175.239 115.402 176.183 111.896 177.635Z" fill="#52A59A"/>
<path d="M119.119 175.394C119.024 175.164 118.841 174.981 118.611 174.886C118.381 174.791 118.122 174.791 117.892 174.886C117.662 174.981 117.479 175.164 117.384 175.394C117.289 175.624 117.289 175.882 117.384 176.112L118.135 177.926C118.235 178.15 118.418 178.325 118.645 178.415C118.872 178.506 119.126 178.504 119.352 178.41C119.578 178.317 119.758 178.139 119.855 177.914C119.952 177.689 119.957 177.436 119.87 177.208L119.119 175.394Z" fill="#297268"/>
<path d="M191.285 177.635C187.778 176.181 183.531 175.234 183.176 176.089C182.822 176.943 186.497 179.277 190.003 180.729C193.508 182.181 195.518 182.201 195.871 181.347C196.225 180.492 194.79 179.087 191.285 177.635Z" fill="#52A59A"/>
<path d="M185.29 174.886C185.06 174.791 184.802 174.791 184.572 174.886C184.342 174.981 184.159 175.164 184.064 175.394L183.312 177.207C183.261 177.322 183.233 177.446 183.231 177.571C183.228 177.697 183.251 177.821 183.297 177.938C183.343 178.055 183.413 178.161 183.501 178.25C183.589 178.34 183.694 178.411 183.81 178.459C183.926 178.507 184.051 178.531 184.176 178.53C184.302 178.529 184.426 178.503 184.541 178.454C184.657 178.404 184.761 178.332 184.848 178.241C184.935 178.15 185.003 178.043 185.047 177.926L185.799 176.112C185.846 175.998 185.87 175.876 185.87 175.753C185.87 175.629 185.846 175.507 185.799 175.394C185.752 175.28 185.682 175.176 185.595 175.089C185.508 175.002 185.404 174.933 185.29 174.886Z" fill="#297268"/>
<path d="M113.178 145.283C109.673 143.829 107.664 143.811 107.31 144.664C106.956 145.518 108.391 146.926 111.896 148.38C115.401 149.834 119.65 150.78 120.005 149.926C120.361 149.071 116.684 146.735 113.178 145.283Z" fill="#208B7D"/>
<path d="M119.361 147.577C119.131 147.482 118.872 147.482 118.642 147.577C118.412 147.673 118.229 147.855 118.134 148.085L117.383 149.899C117.331 150.013 117.304 150.137 117.301 150.262C117.298 150.388 117.321 150.513 117.367 150.63C117.414 150.746 117.483 150.852 117.571 150.942C117.659 151.031 117.765 151.102 117.881 151.15C117.997 151.198 118.121 151.223 118.247 151.222C118.372 151.221 118.496 151.195 118.612 151.145C118.727 151.095 118.831 151.023 118.918 150.933C119.005 150.842 119.073 150.735 119.118 150.617L119.869 148.803C119.916 148.689 119.94 148.567 119.94 148.444C119.94 148.321 119.916 148.199 119.869 148.085C119.822 147.971 119.753 147.868 119.665 147.781C119.578 147.693 119.475 147.624 119.361 147.577Z" fill="#3D8B81"/>
<path d="M164.675 194.591C163.821 194.945 164.769 199.195 166.222 202.699C167.674 206.204 169.079 207.64 169.937 207.286C170.795 206.933 170.771 204.924 169.319 201.418C167.868 197.911 165.529 194.237 164.675 194.591Z" fill="#52A59A"/>
<path d="M165.792 194.727L163.978 195.478C163.864 195.525 163.761 195.594 163.674 195.681C163.586 195.769 163.517 195.872 163.47 195.986C163.423 196.1 163.398 196.222 163.398 196.345C163.398 196.468 163.423 196.591 163.47 196.704C163.517 196.818 163.586 196.922 163.673 197.009C163.76 197.096 163.864 197.165 163.978 197.213C164.092 197.26 164.214 197.284 164.337 197.284C164.46 197.284 164.582 197.26 164.696 197.213L166.51 196.462C166.734 196.362 166.909 196.179 166.999 195.952C167.09 195.724 167.088 195.471 166.994 195.245C166.901 195.019 166.723 194.838 166.498 194.742C166.273 194.645 166.02 194.64 165.792 194.727Z" fill="#297268"/>
<path d="M133.248 118.726C132.394 119.08 132.415 121.089 133.867 124.594C135.319 128.099 137.653 131.775 138.507 131.421C139.362 131.068 138.413 126.817 136.96 123.313C135.508 119.808 134.103 118.372 133.248 118.726Z" fill="#52A59A"/>
<path d="M138.482 128.798L136.669 129.55C136.442 129.648 136.263 129.83 136.171 130.059C136.078 130.287 136.079 130.543 136.173 130.771C136.267 130.999 136.448 131.181 136.675 131.277C136.902 131.373 137.158 131.375 137.387 131.284L139.201 130.533C139.424 130.433 139.6 130.25 139.69 130.023C139.781 129.796 139.779 129.542 139.685 129.316C139.592 129.09 139.413 128.91 139.189 128.813C138.964 128.716 138.711 128.711 138.482 128.798Z" fill="#297268"/>
<path d="M160.142 171.588L159.87 167.992L159.668 165.424L159.648 165.163H156.719C156.15 166.521 155.065 167.598 153.702 168.158C152.34 168.719 150.811 168.716 149.45 168.151C148.235 167.651 147.239 166.731 146.644 165.559C146.578 165.429 146.517 165.296 146.46 165.161H143.525L143.302 167.978L143.019 171.598L139.707 217.612L142.889 217.279L147.529 216.794L149.905 216.547C154.241 216.094 158.581 215.776 162.927 215.591L163.3 215.576H163.313L160.856 181.524L160.142 171.588Z" fill="#0B8D7D"/>
<path d="M159.87 167.992L159.668 165.424L159.648 165.163H156.719C156.15 166.521 155.065 167.598 153.702 168.158C152.34 168.719 150.811 168.716 149.45 168.151C148.235 167.651 147.239 166.731 146.644 165.559C146.578 165.429 146.517 165.296 146.46 165.161H143.525L143.302 167.978L143.019 171.598L139.707 217.612L142.889 217.279L147.529 216.794C148.2 206.738 149.405 190.954 150.51 188.394C151.597 185.877 157.192 183.11 160.856 181.523L160.14 171.589L159.87 167.992Z" fill="#23B9A5"/>
<g opacity="0.2">
<path d="M159.649 165.163H156.72C156.151 166.521 155.067 167.598 153.705 168.158C152.343 168.718 150.815 168.716 149.455 168.152C148.785 167.875 148.175 167.469 147.662 166.956C147.15 166.443 146.743 165.834 146.467 165.163H143.526L143.304 167.98L143.02 171.6C144.144 172.725 145.479 173.617 146.949 174.226C148.418 174.834 149.993 175.146 151.584 175.145C153.174 175.144 154.749 174.829 156.217 174.219C157.686 173.609 159.02 172.715 160.143 171.588L159.87 167.992L159.649 165.163Z" fill="#1D1D1B"/>
</g>
<path d="M155.288 154.079C150.37 152.04 144.698 154.388 142.66 159.306C141.725 161.559 141.677 164.083 142.525 166.37C143.373 168.658 145.055 170.54 147.233 171.639C149.411 172.738 151.924 172.973 154.268 172.297C156.612 171.621 158.614 170.083 159.872 167.992C160.116 167.579 160.332 167.15 160.518 166.707C161.005 165.535 161.256 164.278 161.256 163.008C161.257 161.739 161.007 160.482 160.521 159.309C160.036 158.136 159.323 157.07 158.425 156.173C157.527 155.275 156.461 154.564 155.288 154.079ZM156.733 165.138C156.733 165.15 156.721 165.15 156.721 165.163C156.151 166.521 155.067 167.598 153.705 168.158C152.344 168.718 150.816 168.716 149.456 168.151C148.096 167.579 147.017 166.494 146.453 165.132C145.888 163.769 145.884 162.239 146.44 160.873C146.704 160.174 147.105 159.535 147.62 158.995C148.136 158.454 148.754 158.022 149.44 157.725C150.125 157.428 150.863 157.272 151.61 157.266C152.357 157.26 153.098 157.404 153.788 157.69C154.478 157.976 155.104 158.397 155.628 158.93C156.152 159.462 156.563 160.094 156.838 160.789C157.113 161.484 157.245 162.227 157.227 162.973C157.209 163.72 157.041 164.456 156.733 165.136V165.138Z" fill="#0B8D7D"/>
<path d="M185.768 29.9363C178.567 34.9925 172.909 41.1245 178.432 43.3658L196.452 45.7542C196.452 45.7542 200.299 46.5037 203.771 50.3766C203.899 50.6997 208.914 47.5796 209.943 45.6427C210.971 43.7059 192.971 24.877 185.768 29.9363Z" fill="#2D3AAF"/>
<path d="M197.9 41.9857C189.668 36.5298 180.354 37.6904 176.363 41.5173C176.634 42.27 177.291 42.9025 178.434 43.3661L196.454 45.7544C196.454 45.7544 200.301 46.504 203.773 50.3768C203.819 50.4931 204.5 50.1628 205.394 49.6039C204.479 47.7042 202.44 44.9936 197.9 41.9857Z" fill="#123284"/>
<path d="M196.374 45.2076C194.285 44.4589 186.872 42.1319 178.436 43.3661C178.359 43.3766 178.287 43.4078 178.227 43.4565L175.784 45.5008C174.675 46.428 175.402 48.0159 176.967 48.0854L185.954 48.4949C189.735 48.6669 193.466 47.6937 196.454 45.7528C196.687 45.605 196.642 45.3037 196.374 45.2076Z" fill="#123284"/>
<path d="M177.947 41.7878C178.444 41.7878 178.846 41.4507 178.846 41.035C178.846 40.6193 178.444 40.2822 177.947 40.2822C177.45 40.2822 177.047 40.6193 177.047 41.035C177.047 41.4507 177.45 41.7878 177.947 41.7878Z" fill="#FBB258"/>
<path d="M197.173 40.8018C196.676 40.8018 196.273 41.1386 196.273 41.5545C196.273 41.9705 196.677 42.3073 197.173 42.3073C197.669 42.3073 198.073 41.9705 198.073 41.5545C198.073 41.1386 197.671 40.8018 197.173 40.8018Z" fill="#FBB258"/>
<path d="M196.688 41.4349C192.096 42.2232 183.06 42.7539 178.359 40.8235C178.117 40.7233 177.82 40.8073 177.699 41.0117C177.579 41.216 177.68 41.4632 177.925 41.5633C180.474 42.6133 184.121 42.9833 187.729 42.9833C191.134 42.9833 194.504 42.6513 196.886 42.2426C197.152 42.1974 197.324 41.9793 197.27 41.758C197.215 41.5367 196.955 41.3929 196.688 41.4349Z" fill="#FBB258"/>
<path d="M186.532 44.1549C185.991 43.9934 180.858 43.7179 179.546 44.209C179.546 44.209 175.839 46.4488 176.98 46.8857C178.121 47.3227 182.512 47.3501 183.339 46.9665C184.166 46.5828 187.074 44.3189 186.532 44.1549Z" fill="#2D3AAF"/>
<path d="M188.031 44.5112C188.031 44.5112 184.567 46.8979 185.67 47.1766C186.772 47.4552 192.912 46.5983 192.623 45.7437C192.335 44.8892 188.585 44.109 188.031 44.5112Z" fill="#2D3AAF"/>
<path d="M112.466 130.129C112.04 130.23 111.62 130.468 111.379 130.865C110.962 131.555 111.201 132.444 111.344 133.239C111.722 135.451 111.227 137.724 109.965 139.579C111.515 140.141 113.074 140.672 114.643 141.174C115.016 141.294 115.467 141.395 115.764 141.112C115.991 140.897 116.032 140.542 116.058 140.224C116.135 139.271 116.211 138.317 116.287 137.363C116.419 135.729 116.541 134.026 115.983 132.517C115.425 131.007 113.961 129.777 112.466 130.129Z" fill="#F7A18A"/>
<path d="M123.017 142.943C125.593 140.175 123.151 136.92 120.737 138.515C122.825 135.905 120.09 133.358 117.822 135.127C119.459 133.22 117.411 130.088 114.017 132.808L106.32 138.581C102.316 143.334 115.026 157.212 119.476 153.941L124.241 148.744C128.176 144.757 125.286 141.651 123.017 142.943Z" fill="#FBC5A9"/>
<path d="M189.677 139.508C188.822 139.185 187.783 138.881 187.063 139.443C186.344 140.005 186.411 141.209 186.987 141.93C187.562 142.651 188.476 143.003 189.356 143.279C190.237 143.554 191.161 143.804 191.868 144.398C192.595 145.009 192.999 145.912 193.622 146.63C194.082 147.154 194.649 147.572 195.286 147.856C195.923 148.139 196.613 148.282 197.31 148.274C198.134 148.257 199.049 147.944 199.387 147.192C199.791 146.304 199.196 145.283 198.536 144.562C196.216 142.032 192.884 140.729 189.677 139.508Z" fill="#FBC5A9"/>
<path d="M194.669 142.857C189.801 142.055 183.864 140.452 182.866 142.89C182.586 144.539 183.479 144.702 182.612 145.949C182.062 146.74 182.135 147.64 182.607 148.713C183.132 149.906 181.624 150.032 182.187 151.709C182.689 153.205 182.531 153.739 182.643 154.601C182.766 155.548 183.653 156 184.156 156.206L191.842 157.707C192.733 157.88 193.651 157.853 194.53 157.626L200.236 156.164L199.575 145.6L194.669 142.857Z" fill="#FBC5A9"/>
<path d="M195.871 142.381L197.823 157.645L203.945 157.655L202.341 141.136L195.871 142.381Z" fill="white"/>
<path d="M144.417 59.4106L144.298 59.249L144.105 59.2999L144.417 59.4106Z" fill="#1A2E35"/>
<path d="M147.303 59.6323C147.16 59.4456 146.989 59.2821 146.796 59.1477C146.735 59.1126 146.671 59.0824 146.605 59.0572C146.543 59.0364 146.479 59.0207 146.414 59.0104C146.296 58.9927 146.177 58.9843 146.057 58.9853C145.834 58.9865 145.61 59.0021 145.389 59.0322C145.022 59.0837 144.658 59.1568 144.3 59.2511L144.419 59.4126L144.108 59.3036L144.3 59.2527C144.088 58.9692 143.872 58.6921 143.634 58.4248C143.49 58.2627 143.338 58.1084 143.177 57.9628C143.133 57.9256 143.096 57.8885 143.042 57.8521C143.016 57.8336 142.997 57.8174 142.962 57.7972C142.924 57.7736 142.883 57.7546 142.841 57.7407C142.715 57.7025 142.583 57.6877 142.452 57.6971C141.993 57.7245 141.597 57.8586 141.198 57.987C140.806 58.1239 140.424 58.2875 140.055 58.4765C140.465 58.4006 140.87 58.315 141.274 58.2511C141.664 58.1742 142.061 58.1356 142.458 58.1356C142.534 58.137 142.609 58.1517 142.679 58.1793C142.693 58.1841 142.692 58.1898 142.697 58.1914L142.743 58.231C142.775 58.256 142.809 58.2923 142.842 58.323C142.978 58.4649 143.107 58.6137 143.228 58.7689C143.478 59.0823 143.728 59.4094 143.955 59.7381L144.068 59.8996L144.267 59.8455C144.661 59.7381 145.074 59.6388 145.473 59.5661C145.671 59.5265 145.871 59.4995 146.072 59.4853C146.266 59.4764 146.456 59.478 146.574 59.5346C146.739 59.6303 146.891 59.7482 147.024 59.8851C147.175 60.0275 147.319 60.1777 147.454 60.335C147.737 60.646 148.003 60.9811 148.278 61.3042C148.109 60.908 147.91 60.5256 147.682 60.1605C147.565 59.978 147.438 59.8017 147.303 59.6323Z" fill="#1A2E35"/>
<path d="M155.568 70.2849C155.304 70.0511 155.004 69.8603 154.68 69.7195C154.579 69.6849 154.476 69.6579 154.371 69.6387C154.274 69.6266 154.176 69.6222 154.077 69.6258C153.899 69.6348 153.722 69.6569 153.547 69.692C153.218 69.7598 152.895 69.8483 152.578 69.957C152.054 70.1394 151.541 70.353 151.043 70.5967L151.266 70.797L150.776 70.7275C150.864 70.6823 150.954 70.6403 151.043 70.5967C150.648 70.2421 150.251 69.8972 149.822 69.5741C149.564 69.3775 149.294 69.1955 149.015 69.0289C148.939 68.9869 148.87 68.9441 148.785 68.9054C148.741 68.886 148.704 68.8674 148.656 68.8464C148.594 68.8233 148.529 68.8073 148.463 68.7987C148.267 68.7794 148.069 68.7964 147.878 68.8488C147.213 69.0233 146.667 69.3334 146.119 69.6403C145.582 69.9599 145.067 70.3156 144.578 70.7049C145.159 70.4731 145.728 70.2316 146.304 70.0175C146.88 69.8035 147.464 69.5895 148.01 69.5022C148.121 69.4821 148.235 69.4821 148.347 69.5022C148.369 69.5022 148.369 69.5135 148.378 69.5152L148.458 69.5588C148.513 69.5862 148.573 69.6298 148.63 69.6662C148.872 69.8343 149.105 70.0152 149.328 70.2082C149.787 70.5959 150.25 71.0029 150.684 71.4197L150.899 71.6265L151.174 71.4892C151.722 71.217 152.296 70.9496 152.87 70.7267C153.149 70.6107 153.434 70.5123 153.725 70.4319C154.008 70.3624 154.291 70.3083 154.476 70.3584C154.719 70.4206 154.986 70.5837 155.241 70.742C155.505 70.9069 155.76 71.0854 156.005 71.2767C156.511 71.6515 156.999 72.061 157.499 72.4649C157.135 71.9323 156.73 71.4289 156.287 70.9593C156.06 70.7219 155.82 70.4968 155.568 70.2849Z" fill="#1A2E35"/>
<path d="M151.268 70.8009L151.045 70.6006C150.956 70.6442 150.866 70.6862 150.777 70.7314L151.268 70.8009Z" fill="#1A2E35"/>
<path d="M277.953 108.998C277.915 108.944 277.876 108.889 277.838 108.837C277.773 108.852 277.709 108.866 277.645 108.883L277.953 108.998Z" fill="#1A2E35"/>
<path d="M280.835 109.293C280.697 109.102 280.531 108.935 280.341 108.795C280.281 108.758 280.217 108.726 280.152 108.699C280.09 108.677 280.026 108.66 279.962 108.648C279.844 108.627 279.725 108.616 279.606 108.614C279.383 108.609 279.159 108.619 278.937 108.644C278.568 108.686 278.203 108.75 277.842 108.835C277.881 108.889 277.923 108.943 277.958 108.997L277.649 108.879C277.714 108.862 277.778 108.849 277.842 108.833C277.637 108.544 277.429 108.262 277.196 107.989C277.057 107.823 276.909 107.665 276.752 107.515C276.708 107.477 276.671 107.434 276.62 107.401C276.594 107.382 276.576 107.365 276.544 107.344C276.508 107.319 276.468 107.299 276.426 107.284C276.301 107.243 276.17 107.225 276.038 107.232C275.579 107.247 275.179 107.367 274.776 107.489C274.379 107.617 273.99 107.771 273.613 107.952C274.025 107.887 274.432 107.813 274.839 107.758C275.23 107.691 275.628 107.662 276.025 107.673C276.1 107.676 276.174 107.693 276.244 107.722C276.258 107.727 276.257 107.732 276.262 107.735L276.307 107.775C276.338 107.801 276.372 107.838 276.403 107.87C276.536 108.015 276.662 108.167 276.779 108.325C277.021 108.648 277.263 108.978 277.483 109.314L277.593 109.48L277.792 109.431C278.19 109.334 278.6 109.245 279.004 109.183C279.202 109.148 279.403 109.126 279.604 109.116C279.798 109.116 279.988 109.116 280.104 109.178C280.267 109.278 280.416 109.4 280.546 109.54C280.693 109.686 280.832 109.84 280.964 110.001C281.24 110.319 281.496 110.657 281.763 110.994C281.605 110.594 281.416 110.207 281.198 109.836C281.086 109.649 280.965 109.468 280.835 109.293Z" fill="#1A2E35"/>
<path d="M259.955 105.012L259.656 104.983C259.61 105.071 259.564 105.159 259.52 105.248L259.955 105.012Z" fill="#1A2E35"/>
<path d="M263.108 102.04C262.756 102.009 262.402 102.034 262.058 102.112C261.957 102.146 261.859 102.186 261.764 102.233C261.679 102.281 261.598 102.335 261.521 102.395C261.383 102.508 261.254 102.631 261.135 102.764C260.91 103.013 260.702 103.276 260.512 103.552C260.198 104.011 259.913 104.488 259.656 104.98L259.955 105.009L259.52 105.244C259.564 105.156 259.61 105.068 259.656 104.98C259.127 104.929 258.606 104.889 258.068 104.883C257.744 104.88 257.421 104.893 257.099 104.924C257.013 104.936 256.932 104.942 256.84 104.962C256.793 104.971 256.759 104.977 256.701 104.991C256.637 105.009 256.576 105.035 256.518 105.067C256.348 105.168 256.199 105.3 256.078 105.455C255.645 105.991 255.39 106.562 255.133 107.137C254.889 107.713 254.684 108.305 254.52 108.909C254.849 108.378 255.166 107.845 255.499 107.331C255.833 106.816 256.177 106.297 256.565 105.902C256.642 105.82 256.734 105.752 256.835 105.702C256.855 105.691 256.86 105.702 256.867 105.694L256.957 105.683C257.017 105.672 257.091 105.672 257.159 105.667C257.454 105.657 257.748 105.664 258.042 105.688C258.642 105.727 259.253 105.779 259.854 105.857L260.149 105.895L260.289 105.622C260.568 105.076 260.871 104.522 261.197 104.006C261.351 103.747 261.522 103.498 261.709 103.261C261.895 103.037 262.088 102.828 262.269 102.754C262.5 102.662 262.813 102.633 263.112 102.609C263.411 102.585 263.73 102.581 264.044 102.585C264.674 102.585 265.309 102.625 265.952 102.653C265.343 102.44 264.718 102.276 264.083 102.161C263.76 102.104 263.435 102.064 263.108 102.04Z" fill="#1A2E35"/>
<path d="M140.319 64.0392C139.998 63.895 139.656 63.8015 139.306 63.7622C139.2 63.7599 139.094 63.7659 138.989 63.7799C138.892 63.7973 138.797 63.8224 138.704 63.8551C138.537 63.9171 138.375 63.991 138.219 64.0764C137.926 64.2386 137.643 64.419 137.372 64.6167C136.925 64.9465 136.499 65.3028 136.096 65.6837L136.368 65.8081L135.883 65.8888C135.955 65.8194 136.028 65.7523 136.1 65.6853C135.615 65.4632 135.135 65.2524 134.63 65.0706C134.325 64.9599 134.015 64.8661 133.699 64.7896C133.618 64.7718 133.538 64.7516 133.443 64.7403C133.396 64.7338 133.362 64.7266 133.302 64.7225C133.236 64.718 133.169 64.7215 133.104 64.733C132.911 64.7732 132.726 64.8485 132.56 64.9551C131.976 65.3186 131.548 65.7741 131.115 66.2329C130.695 66.6964 130.307 67.1881 129.953 67.7045C130.438 67.3112 130.911 66.9114 131.398 66.5358C131.885 66.1602 132.378 65.783 132.874 65.5375C132.974 65.4849 133.084 65.4512 133.197 65.4381C133.219 65.4381 133.221 65.4422 133.23 65.4381L133.318 65.4567C133.378 65.4672 133.448 65.4906 133.514 65.5084C133.795 65.5967 134.071 65.7003 134.341 65.8186C134.894 66.0528 135.457 66.3032 135.995 66.5746L136.262 66.7086L136.484 66.4954C136.927 66.0722 137.396 65.6473 137.874 65.2653C138.105 65.0717 138.348 64.8928 138.601 64.7298C138.851 64.5796 139.102 64.4455 139.297 64.4366C139.545 64.4245 139.85 64.5004 140.141 64.5755C140.441 64.6553 140.738 64.7502 141.029 64.8598C141.624 65.0674 142.211 65.3138 142.806 65.5512C142.301 65.1504 141.765 64.7897 141.203 64.4721C140.916 64.3129 140.621 64.1684 140.319 64.0392Z" fill="#1A2E35"/>
<path d="M136.364 65.809L136.091 65.6846C136.02 65.7516 135.947 65.8186 135.875 65.8881L136.364 65.809Z" fill="#1A2E35"/>
<g opacity="0.5">
<path d="M269.967 75.5002C268.011 74.9967 265.95 75.0844 264.044 75.7523C262.139 76.4201 260.474 77.638 259.26 79.2521C258.047 80.8661 257.339 82.8037 257.227 84.8199C257.114 86.8361 257.603 88.8404 258.629 90.5792C259.656 92.318 261.175 93.7133 262.995 94.5887C264.815 95.464 266.853 95.7801 268.853 95.4969C270.852 95.2138 272.723 94.3441 274.228 92.9979C275.733 91.6516 276.805 89.8893 277.308 87.9338C277.643 86.6353 277.718 85.2837 277.53 83.9561C277.342 82.6285 276.894 81.3509 276.213 80.1964C275.531 79.0418 274.628 78.0328 273.557 77.227C272.485 76.4213 271.265 75.8345 269.967 75.5002Z" fill="white"/>
</g>
</svg>
