<svg width="45" height="45" viewBox="0 0 45 45" fill="none" xmlns="http://www.w3.org/2000/svg">
<path d="M37.1195 7.45105V37.4068C37.1195 37.7704 36.975 38.1191 36.7179 38.3762C36.4608 38.6333 36.1121 38.7778 35.7485 38.7778H14.3065C13.9429 38.7778 13.5942 38.6333 13.3371 38.3762C13.08 38.1191 12.9355 37.7704 12.9355 37.4068V16.3212L20.4759 6.08008H35.7485C36.1121 6.08008 36.4608 6.22452 36.7179 6.48163C36.975 6.73873 37.1195 7.08745 37.1195 7.45105Z" fill="#EDEEEF"/>
<path d="M20.4748 6.0957V14.8905C20.4748 15.2541 20.3304 15.6028 20.0733 15.8599C19.8162 16.117 19.4675 16.2615 19.1038 16.2615H12.9688L20.4748 6.0957Z" fill="#CFD0D1"/>
<path d="M27.8504 24.8076H9.12292C8.36576 24.8076 7.75195 25.4214 7.75195 26.1786V33.0609C7.75195 33.818 8.36576 34.4318 9.12292 34.4318H27.8504C28.6076 34.4318 29.2214 33.818 29.2214 33.0609V26.1786C29.2214 25.4214 28.6076 24.8076 27.8504 24.8076Z" fill="#FF3717"/>
<path d="M14.7162 30.1761V31.6568H13.5234V27.5919H15.1686C15.4888 27.5746 15.809 27.626 16.1077 27.7427C16.3203 27.8389 16.4993 27.9965 16.6218 28.1951C16.7458 28.402 16.8099 28.6394 16.8069 28.8806C16.815 29.0556 16.7848 29.2303 16.7185 29.3924C16.6522 29.5546 16.5514 29.7004 16.423 29.8197C16.1373 30.0683 15.7662 30.1961 15.388 30.1761H14.7162ZM14.7162 29.3056H15.1138C15.4634 29.3056 15.6347 29.1685 15.6347 28.9011C15.6347 28.6338 15.4771 28.5173 15.1549 28.5173H14.7162V29.3056ZM17.2525 31.6568V27.5919H18.7537C19.0273 27.5713 19.3019 27.6151 19.5555 27.7199C19.809 27.8246 20.0345 27.9874 20.2138 28.1951C20.5368 28.5914 20.7092 29.0892 20.7005 29.6003C20.7294 30.1434 20.5421 30.6757 20.1795 31.081C20.0074 31.2719 19.7953 31.4224 19.5583 31.5219C19.3213 31.6215 19.0653 31.6675 18.8085 31.6568H17.2525ZM18.4452 30.7177H18.7537C18.8563 30.7159 18.9566 30.6871 19.0444 30.6341C19.1323 30.5812 19.2046 30.5059 19.2541 30.4161C19.3977 30.169 19.4667 29.8857 19.4529 29.6003C19.4583 29.3336 19.397 29.0697 19.2747 28.8326C19.2266 28.7361 19.1522 28.6552 19.0599 28.5994C18.9677 28.5435 18.8615 28.5151 18.7537 28.5173H18.4452V30.7177ZM23.6275 30.135H22.3662V31.6568H21.2077V27.5919H24.0114V28.5584H22.3662V29.2439H23.6275V30.135Z" fill="#EDEEEF"/>
</svg>
