<svg width="213" height="182" viewBox="0 0 213 182" fill="none" xmlns="http://www.w3.org/2000/svg">
<path d="M169.75 113C169.75 147.242 195.992 182 161.75 182C127.508 182 0.25 140.742 0.25 106.5C0.25 72.2588 86.5083 66 120.75 66C154.992 66 169.75 78.7587 169.75 113Z" fill="#E1E9FE"/>
<path d="M144.203 116.8C144.203 116.8 134.858 103.538 133.563 104.556C132.267 105.543 129.584 117.108 129.584 117.108L126.685 117.17C126.685 117.17 117.618 108.904 115.86 110.076C114.071 111.248 114.657 114.641 114.657 114.641C106.73 116.461 99.5752 118.65 94.0545 124.695L94.7331 129.198L94.2088 133.609C94.2088 133.609 105.343 140.085 112.714 141.257C112.714 141.257 111.665 146.13 113.547 146.285C115.397 146.408 126.346 138.667 126.346 138.667L143.494 121.149L144.172 116.831L144.203 116.8Z" fill="#2D3AAF"/>
<path d="M145.586 138.087C145.586 138.087 134.668 152.737 133.989 149.837C132.447 148.789 131.861 145.365 133.866 143.176L139.51 137.562L145.586 138.087Z" fill="#2D3AAF"/>
<path d="M170.693 125.308C170.693 125.308 141.301 101.314 92.6948 126.82C90.4434 127.745 87.9452 127.776 85.6629 126.943C84.3367 128.208 84.3059 130.305 85.5704 131.631C85.6321 131.693 85.6938 131.754 85.7555 131.816C88.3153 131.199 90.9677 131.168 93.5275 131.662C93.5275 131.662 109.504 140.575 138.186 140.02C166.869 139.465 172.914 126.851 172.914 126.851L168.843 128.979L170.724 125.308H170.693Z" fill="#738FE4"/>
<path d="M155.582 119.977C155.582 119.977 145.712 126.978 155.859 135.182C155.859 135.182 148.118 132.776 148.396 127.07C148.704 121.364 155.551 119.977 155.551 119.977H155.582Z" fill="#2D3AAF"/>
<path d="M158.883 125.404C159.191 126.483 160.055 127.193 160.918 126.853C161.782 126.514 162.09 125.466 161.782 124.355C161.473 123.276 160.61 122.566 159.777 122.906C158.944 123.245 158.574 124.263 158.883 125.404Z" fill="#2D3AAF"/>
<path d="M144.541 126.914L145.004 128.58C145.004 128.58 134.302 135.241 130.447 132.836C128.565 131.664 119.467 131.17 118.542 129.196C117.616 127.222 144.51 126.945 144.51 126.945L144.541 126.914Z" fill="#2D3AAF"/>
<path d="M89.3052 127.231C89.3052 127.231 75.8891 114.956 74.2853 115.912C72.6816 116.869 80.577 125.689 80.6079 128.064C80.6387 130.439 72.2498 136.823 72.7741 138.427C73.2984 140.031 89.3361 131.025 89.3361 131.025L90.2305 128.958L89.2744 127.201L89.3052 127.231Z" fill="#2D3AAF"/>
<g clip-path="url(#clip0_4326_32388)">
<path d="M52.6845 116.254C53.0231 116.257 53.3616 116.066 53.5654 115.737C53.7472 115.445 53.7911 115.116 53.8319 114.853C53.8632 114.637 53.7127 114.439 53.4964 114.408C53.2864 114.376 53.0826 114.527 53.0513 114.743C53.0231 114.953 52.9917 115.173 52.8977 115.32C52.8381 115.417 52.7284 115.474 52.6813 115.464C52.5873 115.442 52.5089 115.185 52.5434 114.875C52.6908 113.568 53.4494 112.354 54.1203 111.282C54.2363 111.097 54.1798 110.856 53.9949 110.74C53.8099 110.624 53.5654 110.68 53.4525 110.865C52.7378 112.01 51.929 113.304 51.7628 114.787C51.6939 115.402 51.8976 116.088 52.5027 116.232C52.5654 116.248 52.6281 116.254 52.6876 116.254H52.6845Z" fill="#2DD9C3"/>
<path d="M169.658 75.5131C169.72 75.5131 169.786 75.4943 169.839 75.4536C169.968 75.3533 169.993 75.1683 169.896 75.0398C169.821 74.9426 162.45 65.2714 160.015 61.1647C150.412 44.9823 143.842 38.8912 143.776 38.8316C143.538 38.6466 121.684 21.6931 108.605 14.9405C100.661 10.84 93.4606 6.95589 88.2034 4.12194C84.7926 2.28175 82.3317 0.955684 81.2564 0.42902C81.1059 0.356917 80.9335 0.41648 80.8614 0.563821C80.7893 0.711162 80.8489 0.886716 80.9962 0.958819C82.0589 1.47921 84.5198 2.80528 87.9212 4.64233C93.1816 7.47942 100.386 11.3636 108.333 15.4672C121.361 22.1915 143.174 39.1137 143.393 39.283C143.44 39.3269 149.952 45.371 159.504 61.4656C161.958 65.6006 169.35 75.3 169.422 75.3971C169.479 75.4724 169.567 75.5131 169.654 75.5131H169.658Z" fill="#A3A7CD"/>
<path d="M195.455 85.0999C195.555 85.0999 195.655 85.0654 195.734 84.9902C195.89 84.8397 195.897 84.5889 195.746 84.4321C157.071 43.9699 119.54 16.3608 81.0088 0.0311043C80.8113 -0.0535381 80.5761 0.040509 80.4915 0.241143C80.4068 0.441777 80.5009 0.67376 80.7015 0.758402C119.132 17.0442 156.579 44.5938 195.176 84.9807C195.251 85.0591 195.354 85.0999 195.455 85.103V85.0999Z" fill="#2D3AAF"/>
<path d="M195.731 82.0439C194.981 82.3825 194.216 82.7336 193.643 83.323C193.072 83.9123 192.731 84.7995 193.013 85.5707C193.138 85.9061 193.367 86.1945 193.593 86.4735C198.95 93.0882 204.308 99.7028 209.665 106.314C209.825 106.512 210.01 106.725 210.261 106.772C210.568 106.832 210.853 106.628 211.101 106.437C213.289 104.728 213.129 103.709 211.599 101.85C209.759 99.6088 208.004 97.2952 206.195 95.0287C205.254 93.8468 196.342 81.7618 195.724 82.0439H195.731Z" fill="#2DD9C3"/>
<path d="M54.5225 107C54.5871 107 54.6537 106.968 54.688 106.909C56.4213 104.061 55.1138 100.524 54.1815 98.6671C53.7679 97.8453 53.2937 97.0333 52.8337 96.2489C51.8873 94.6308 50.9087 92.9575 50.4446 91.1384C49.579 87.7406 50.5556 83.6688 53.1262 79.9655C54.9988 77.2674 57.4725 74.9654 59.8636 72.7403C60.3943 72.2456 60.925 71.7509 61.4496 71.2543C66.5647 66.3961 70.1099 62.0129 72.61 57.4641C75.7154 51.8116 77.0854 45.9286 76.5749 40.4495C76.2016 36.4605 74.8275 32.6114 73.4958 28.8904C72.4284 25.9025 71.3226 22.8122 70.7435 19.6687C70.4752 18.2102 70.235 16.3103 70.7718 14.5444C71.4255 12.3883 73.1346 10.6756 74.6419 9.16588L79.6742 4.12832C80.778 3.02266 81.9382 1.71401 81.7243 0.160958C81.7102 0.0584723 81.6174 -0.0105082 81.5104 0.00131704C81.4055 0.0151132 81.3329 0.107744 81.347 0.21023C81.5387 1.59772 80.443 2.82558 79.4018 3.86817L74.3695 8.90572C72.8299 10.4469 71.0865 12.1931 70.4066 14.438C69.8476 16.2807 70.0938 18.2358 70.3682 19.7337C70.9514 22.9068 72.0611 26.0109 73.1346 29.0126C74.4583 32.7119 75.8263 36.5393 76.1936 40.483C76.698 45.8872 75.3421 51.6993 72.273 57.2867C69.7931 61.802 66.2681 66.1537 61.1812 70.9843C60.6586 71.4809 60.128 71.9756 59.5973 72.4683C57.1901 74.7072 54.7021 77.025 52.8054 79.7547C50.1742 83.5446 49.1774 87.7268 50.0693 91.2251C50.5455 93.0935 51.5362 94.7885 52.4967 96.4302C52.9527 97.2107 53.4229 98.0168 53.8325 98.8288C54.7324 100.616 55.9955 104.02 54.3551 106.716C54.3006 106.805 54.3309 106.919 54.4217 106.97C54.4519 106.988 54.4842 106.996 54.5165 106.996L54.5225 107Z" fill="#A3A7CD"/>
<path d="M52.2832 110.481C52.3083 109.892 52.3835 109.299 52.5936 108.747C52.8036 108.196 53.1986 107.964 53.5529 107.493C54.299 106.503 56.0764 107.124 56.4809 108.296C56.8853 109.468 56.3304 110.757 55.6188 111.773C55.1767 112.403 54.4996 113.049 53.7535 112.867C53.1704 112.726 52.8475 112.139 52.6845 111.541C52.5936 111.49 52.5121 111.425 52.4525 111.34C52.277 111.099 52.2707 110.779 52.2832 110.484V110.481Z" fill="#2DD9C3"/>
<path d="M144.35 37.9257C144.092 38.3018 143.835 38.6749 143.578 39.0511C143.136 39.6969 142.356 40.4273 141.691 40.0104C141.867 39.2643 142.08 38.4617 142.675 37.9821C143.271 37.5024 144.375 37.6216 144.575 38.3614L144.35 37.9257Z" fill="#39363F"/>
<path d="M116.577 18.8957C116.734 18.9521 116.891 19.0085 117.048 19.0618C116.875 19.6355 116.69 20.2374 116.267 20.6606C115.844 21.087 115.107 21.2657 114.643 20.8863C114.765 20.2813 114.906 19.6418 115.342 19.206C115.778 18.7703 116.615 18.6825 116.96 19.1935L116.577 18.8925V18.8957Z" fill="#39363F"/>
<path d="M81.1749 0.212624C81.4069 0.059014 81.7423 0.200085 81.8928 0.435203C82.0433 0.67032 82.0621 0.961867 82.0746 1.24087C82.0934 1.65155 82.1091 2.08416 81.921 2.45408C81.7361 2.82087 81.2752 3.08733 80.9022 2.91178C80.6294 2.78325 80.4884 2.46976 80.4601 2.1688C80.3912 1.44778 80.8896 0.711074 81.5824 0.50417C81.8207 0.714209 82.0589 0.921113 82.2972 1.13115L81.1749 0.212624Z" fill="#39363F"/>
<path d="M172.454 67.9013C174.523 66.9546 178.282 67.917 179.902 69.3496C181 70.3183 181.667 71.7541 181.705 73.2181C181.774 76.0207 179.385 78.5882 176.608 78.9706C173.83 79.3531 170.965 77.701 169.658 75.2213C169.288 74.5191 169.024 73.7354 169.065 72.9422C169.143 71.4124 171.002 68.5659 172.451 67.9013H172.454ZM178.445 75.1304C178.862 75.1523 179.216 74.8326 179.238 74.4156C179.26 73.9987 178.94 73.6444 178.523 73.6225C178.106 73.6006 177.752 73.9203 177.73 74.3373C177.708 74.7542 178.028 75.1084 178.445 75.1304ZM177.909 72.0707C178.21 72.3591 178.689 72.3466 178.978 72.0456C179.266 71.7447 179.254 71.2651 178.953 70.9766C178.652 70.6882 178.172 70.7008 177.884 71.0017C177.595 71.3027 177.608 71.7823 177.909 72.0707ZM174.686 76.6916C174.836 77.0803 175.275 77.2747 175.664 77.1242C176.053 76.9737 176.247 76.5348 176.097 76.1461C175.946 75.7574 175.507 75.563 175.119 75.7135C174.73 75.864 174.536 76.3028 174.686 76.6916ZM174.62 69.8669C174.771 70.2556 175.21 70.45 175.598 70.2995C175.987 70.149 176.181 69.7101 176.031 69.3214C175.88 68.9327 175.441 68.7383 175.053 68.8888C174.664 69.0393 174.47 69.4782 174.62 69.8669ZM171.764 75.0363C172.065 75.3248 172.545 75.3122 172.833 75.0113C173.122 74.7103 173.109 74.2307 172.808 73.9423C172.507 73.6538 172.028 73.6664 171.739 73.9673C171.451 74.2683 171.463 74.7479 171.764 75.0363ZM172.194 72.3936C172.611 72.4156 172.965 72.0958 172.987 71.6789C173.009 71.2619 172.689 70.9077 172.272 70.8857C171.855 70.8638 171.501 71.1835 171.479 71.6005C171.457 72.0174 171.777 72.3717 172.194 72.3936Z" fill="#2DD9C3"/>
</g>
<defs>
<clipPath id="clip0_4326_32388">
<rect width="181" height="120" fill="white" transform="matrix(-1 0 0 1 212.75 0)"/>
</clipPath>
</defs>
</svg>
