<svg width="88" height="87" viewBox="0 0 88 87" fill="none" xmlns="http://www.w3.org/2000/svg">
<path d="M83.6236 58.6685C74.8607 79.091 51.7299 87.8627 33.6063 86.367C28.658 85.9588 18.7015 85.1369 10.9273 77.8068C-4.00229 63.7296 -1.70282 34.3041 12.5891 16.9801C14.4294 14.7492 27.169 -0.198154 47.0212 0.00199151C61.5559 0.148447 71.7577 8.33504 72.9982 9.35483C74.5654 10.6431 78.0216 13.705 81.1367 18.5618C88.4557 29.9743 89.0992 45.9062 83.6232 58.6682L83.6236 58.6685Z" fill="url(#paint0_linear_1570_62124)"/>
<path d="M73.9654 7.00405C67.7274 13.2369 55.2166 28.0516 38.7184 59.259C38.7184 59.259 35.8254 64.8126 31.905 62.2234L18.3949 52.9375C18.3949 52.9375 16.0697 51.3368 14.2128 51.0459C13.9565 51.0058 13.6945 51.0238 13.4462 51.0986C13.1978 51.1734 12.9694 51.3031 12.778 51.4781C12.5865 51.653 12.4368 51.8688 12.34 52.1095C12.2431 52.3501 12.2016 52.6094 12.2185 52.8683C12.305 54.0925 13.0686 56.1236 15.8145 59.3185C21.222 65.6162 33.2622 77.6514 33.2622 77.6514C33.2622 77.6514 37.4649 81.9472 41.2902 76.2541C41.5136 75.9179 41.71 75.5646 41.8775 75.1974C44.2503 70.0504 65.3675 24.3874 75.1507 7.92658C75.6093 7.16086 74.597 6.37352 73.9654 7.00405Z" fill="#91B3FA"/>
<defs>
<linearGradient id="paint0_linear_1570_62124" x1="92.4787" y1="97.8122" x2="28.8631" y2="29.0332" gradientUnits="userSpaceOnUse">
<stop stop-color="#DAE3FE"/>
<stop offset="1" stop-color="#E9EFFD"/>
</linearGradient>
</defs>
</svg>
