<svg width="87" height="87" viewBox="0 0 87 87" fill="none" xmlns="http://www.w3.org/2000/svg">
    <path d="M82.8736 58.6685C74.1107 79.091 50.9799 87.8627 32.8563 86.367C27.908 85.9588 17.9515 85.1369 10.1773 77.8068C-4.75229 63.7296 -2.45282 34.3041 11.8391 16.9801C13.6794 14.7492 26.419 -0.198154 46.2712 0.00199151C60.8059 0.148447 71.0077 8.33504 72.2482 9.35483C73.8154 10.6431 77.2716 13.705 80.3867 18.5618C87.7057 29.9743 88.3492 45.9062 82.8732 58.6682L82.8736 58.6685Z" fill="url(#paint0_linear_1900_93160)"/>
    <path d="M73.2154 7.00405C66.9774 13.2369 54.4666 28.0516 37.9684 59.259C37.9684 59.259 35.0754 64.8126 31.155 62.2234L17.6449 52.9375C17.6449 52.9375 15.3197 51.3368 13.4628 51.0459C13.2065 51.0058 12.9445 51.0238 12.6962 51.0986C12.4478 51.1734 12.2194 51.3031 12.028 51.4781C11.8365 51.653 11.6868 51.8688 11.59 52.1095C11.4931 52.3501 11.4516 52.6094 11.4685 52.8683C11.555 54.0925 12.3186 56.1237 15.0645 59.3185C20.472 65.6162 32.5122 77.6514 32.5122 77.6514C32.5122 77.6514 36.7149 81.9472 40.5402 76.2541C40.7636 75.9179 40.96 75.5646 41.1275 75.1974C43.5003 70.0504 64.6175 24.3874 74.4007 7.92658C74.8593 7.16086 73.847 6.37352 73.2154 7.00405Z" fill="#91B3FA"/>
    <defs>
    <linearGradient id="paint0_linear_1900_93160" x1="91.7287" y1="97.8122" x2="28.1131" y2="29.0332" gradientUnits="userSpaceOnUse">
    <stop stop-color="#DAE3FE"/>
    <stop offset="1" stop-color="#E9EFFD"/>
    </linearGradient>
    </defs>
</svg>
    