<svg width="162" height="162" viewBox="0 0 162 162" fill="none" xmlns="http://www.w3.org/2000/svg">
<mask id="mask0_4785_32047" style="mask-type:luminance" maskUnits="userSpaceOnUse" x="14" y="38" width="124" height="124">
<path d="M76 162C110.242 162 138 134.242 138 100C138 65.7583 110.242 38 76 38C41.7584 38 14 65.7583 14 100C14 134.242 41.7584 162 76 162Z" fill="white"/>
</mask>
<g mask="url(#mask0_4785_32047)">
<path opacity="0.8" d="M149.693 26.3047H2.30664V173.691H149.693V26.3047Z" fill="#E9EFFE"/>
<mask id="mask1_4785_32047" style="mask-type:luminance" maskUnits="userSpaceOnUse" x="2" y="26" width="148" height="148">
<path d="M149.693 26.3047H2.30664V173.691H149.693V26.3047Z" fill="white"/>
</mask>
<g mask="url(#mask1_4785_32047)">
<path d="M-31.9522 101.888C-25.4454 105.032 -16.5622 104.579 -9.30411 105.015C0.284 105.588 9.70001 103.304 19.1491 102.083C28.6115 100.862 37.7759 101.554 47.1125 103.433C52.5536 104.529 57.945 105.836 63.3927 106.902C77.8428 109.725 92.0611 108.802 106.187 104.833C113.15 102.877 120.716 100.898 128.014 101.388C132.843 101.712 137.648 103.407 141.623 106.164L136.275 195.614L-36.9365 185.258" fill="#91B3FA"/>
<path d="M-31.9522 101.888C-25.4454 105.032 -16.5622 104.579 -9.30411 105.015C0.284 105.588 9.70001 103.304 19.1491 102.083C28.6115 100.862 37.7759 101.554 47.1125 103.433C52.5536 104.529 57.945 105.836 63.3927 106.902C77.8428 109.725 92.0611 108.802 106.187 104.833C113.15 102.877 120.716 100.898 128.014 101.388C132.843 101.712 137.648 103.407 141.623 106.164L136.275 195.614L-36.9365 185.258" fill="#91B3FA"/>
<path d="M162.875 122.823C160.74 121.44 158.404 120.311 155.362 119.567C149.818 118.206 143.96 117.968 138.255 117.998C123.507 118.074 109.242 121.45 94.8019 123.786C88.9736 124.73 83.0923 125.461 77.1713 125.613C61.5199 126.02 46.9904 120.831 31.5442 120.053C16.5646 119.299 1.42291 121.579 -13.4375 118.951C-17.8956 118.163 -22.4563 116.849 -25.7031 113.738V180.16H170.034V128.281C167.423 126.259 165.278 124.382 162.878 122.827L162.875 122.823Z" fill="#738FE4"/>
<path d="M131.155 128.194C123.255 131.279 114.858 133.324 106.333 132.606C97.9591 131.901 89.9331 128.492 81.4306 129.101C74.2486 129.614 67.3777 132.1 60.3778 133.589C56.2341 134.47 52.0275 135.088 47.7812 134.883C34.5227 134.245 22.0916 129.22 9.55784 125.312C4.55694 123.753 -0.559813 122.548 -5.79571 122.177C-9.34367 121.926 -14.9933 121.496 -17.6377 124.471V193.408H165.513V121.721C153.578 118.047 142.044 123.945 131.155 128.198V128.194Z" fill="#2D3AAF"/>
</g>
</g>
<mask id="mask2_4785_32047" style="mask-type:alpha" maskUnits="userSpaceOnUse" x="0" y="0" width="162" height="113">
<rect width="162" height="113" fill="#D9D9D9"/>
</mask>
<g mask="url(#mask2_4785_32047)">
<path d="M40.6072 171.152C40.6072 171.152 38.0957 163.542 40.8108 157.146C43.5286 150.745 55.755 123.767 55.755 123.767L48.3705 112.057L74.1455 63.7654L99.5765 53.9884L40.6072 171.152Z" fill="#91B3FA"/>
<path d="M86.9743 63.2155L75.1533 66.381L59.656 95.3808L66.4423 102.922L86.9743 63.2155Z" fill="#EBEBEB"/>
<path opacity="0.3" d="M60.4549 96.2737L75.6229 67.2704L86.2698 64.575L87.1443 63.1758L75.1529 66.3819L59.6555 95.3818L60.4549 96.2737Z" fill="#2D3AAF"/>
<path opacity="0.4" d="M77.87 66.6996L76.7303 82.9422L79.6706 77.3199L80.2997 66.0878L77.87 66.6996Z" fill="white"/>
<path opacity="0.4" d="M72.7644 72.7366L69.9784 96.161L67.7072 100.504L70.5038 77.0591L72.7644 72.7366Z" fill="white"/>
<path d="M55.9481 109.748L66.3873 115.208C66.632 115.336 66.8319 114.953 66.5872 114.825L56.1481 109.366C55.9034 109.238 55.7035 109.62 55.9481 109.748Z" fill="#263238"/>
<path d="M69.5907 83.6624L80.0299 89.1218C80.2745 89.2498 80.4745 88.8675 80.2298 88.7395L69.7907 83.2801C69.546 83.1521 69.3461 83.5344 69.5907 83.6624Z" fill="#263238"/>
<path d="M82.4804 56.2444L92.9195 61.7038C93.1642 61.8318 93.3641 61.4495 93.1194 61.3215L82.6803 55.8621C82.4356 55.7342 82.2357 56.1164 82.4804 56.2444Z" fill="#263238"/>
<path d="M94.3847 29.1897L104.824 34.6492C105.068 34.7771 105.268 34.3948 105.024 34.2669L94.5846 28.8074C94.3399 28.6795 94.14 29.0618 94.3847 29.1897Z" fill="#263238"/>
<path d="M101.021 14.0999L111.461 19.5593C111.705 19.6873 111.905 19.305 111.66 19.177L101.221 13.7176C100.977 13.5896 100.777 13.9719 101.021 14.0999Z" fill="#263238"/>
<path fill-rule="evenodd" clip-rule="evenodd" d="M96.4816 29.9696C96.4832 29.9675 96.4849 29.9653 96.4866 29.9631C96.5297 29.9071 96.5925 29.8243 96.6722 29.7163C96.8317 29.5003 97.0591 29.1833 97.3319 28.7772C97.8774 27.9651 98.6052 26.7962 99.3359 25.3672C100.796 22.5119 102.274 18.6033 102.319 14.419L101.888 14.4144C101.844 18.5055 100.396 22.3458 98.9517 25.1708C98.2303 26.5818 97.5117 27.7358 96.9738 28.5366C96.7048 28.9369 96.4812 29.2487 96.3252 29.46C96.2471 29.5657 96.186 29.6462 96.1446 29.7001C96.1239 29.727 96.1081 29.7473 96.0976 29.7607L96.0859 29.7756L96.083 29.7792L96.0824 29.78L96.0189 29.8596L96.0398 29.9591C96.2051 30.7454 96.1486 31.7521 95.9089 32.9256C95.6698 34.096 95.2519 35.4163 94.7086 36.8224C93.6219 39.6345 92.041 42.7711 90.4133 45.7068C88.7862 48.6414 87.1153 51.3701 85.8509 53.3655C85.2188 54.363 84.6884 55.177 84.3162 55.7415C84.1301 56.0237 83.9836 56.2436 83.8836 56.3927C83.8336 56.4673 83.7953 56.5243 83.7695 56.5625L83.7402 56.6057L83.7311 56.6192C83.731 56.6194 83.7305 56.6201 83.9089 56.7413L83.7305 56.6201L83.7018 56.6622L83.6951 56.7127C82.8774 62.8241 79.6396 69.6306 76.5928 74.9232C75.0712 77.5664 73.6008 79.826 72.5109 81.4247C71.966 82.224 71.5163 82.8579 71.2031 83.2917C71.0464 83.5086 70.9239 83.6755 70.8407 83.788C70.7991 83.8442 70.7672 83.8869 70.7459 83.9154L70.7218 83.9475L70.7158 83.9555L70.7143 83.9574C70.7143 83.9575 70.7139 83.958 70.8859 84.0882L70.7143 83.9574L70.6826 83.9994L70.6735 84.0506C69.548 90.4077 66.1608 96.9058 63.0439 101.825C61.4869 104.282 60.0004 106.34 58.9033 107.784C58.3548 108.506 57.9038 109.074 57.5902 109.462C57.4334 109.655 57.3109 109.804 57.2278 109.904C57.1862 109.954 57.1545 109.991 57.1332 110.017L57.1092 110.045L57.1033 110.052L57.1018 110.054C57.1018 110.054 57.1014 110.054 57.2655 110.194L57.1018 110.054L57.0613 110.101L57.0522 110.162C56.0248 117.034 52.5808 123.499 49.3834 128.254C47.7859 130.629 46.2528 132.574 45.1193 133.925C44.5526 134.6 44.086 135.126 43.7614 135.484C43.5991 135.662 43.4723 135.799 43.3863 135.89C43.3433 135.936 43.3105 135.97 43.2885 135.993L43.2638 136.019L43.2576 136.026L43.2562 136.027L43.2198 136.065L43.2045 136.114C40.2655 145.622 36.6045 152.122 33.6826 156.241C32.2216 158.301 30.9452 159.766 30.0357 160.715C29.581 161.19 29.218 161.535 28.9696 161.761C28.8454 161.874 28.7498 161.957 28.6857 162.012C28.6537 162.039 28.6295 162.059 28.6136 162.072L28.5959 162.087L28.5918 162.09L28.5909 162.091L28.7254 162.259C28.86 162.428 28.8601 162.428 28.8603 162.428L28.8623 162.426L28.8677 162.422L28.888 162.405C28.9057 162.39 28.9317 162.369 28.9655 162.34C29.0331 162.282 29.1322 162.196 29.2599 162.08C29.5154 161.847 29.8854 161.495 30.3472 161.014C31.2706 160.05 32.5607 158.569 34.0345 156.491C36.9773 152.342 40.6514 145.816 43.6016 136.29C43.6243 136.266 43.6575 136.231 43.7006 136.186C43.7883 136.092 43.9167 135.954 44.0807 135.774C44.4088 135.413 44.8791 134.882 45.4498 134.202C46.5909 132.842 48.1337 130.885 49.7414 128.495C52.945 123.73 56.4175 117.227 57.4697 110.287C57.4912 110.261 57.5213 110.225 57.5594 110.18C57.6437 110.078 57.7674 109.928 57.9255 109.733C58.2416 109.343 58.6954 108.771 59.2468 108.045C60.3496 106.594 61.8434 104.525 63.4083 102.056C66.527 97.134 69.9401 90.6005 71.0893 84.1766L71.0913 84.1739C71.1131 84.1448 71.1454 84.1015 71.1875 84.0446C71.2717 83.9308 71.3952 83.7626 71.5528 83.5443C71.8681 83.1076 72.3201 82.4706 72.8674 81.6678C73.9619 80.0623 75.4384 77.7933 76.9667 75.1385C80.0114 69.8495 83.2756 63.0054 84.1159 56.8203L84.127 56.8039C84.1531 56.7652 84.1917 56.7079 84.242 56.6329C84.3425 56.4829 84.4897 56.2622 84.6764 55.979C85.0498 55.4127 85.5816 54.5965 86.2153 53.5964C87.4826 51.5965 89.1582 48.8602 90.7906 45.916C92.4225 42.9727 94.0141 39.8166 95.111 36.9779C95.6594 35.5586 96.0861 34.2139 96.3316 33.0119C96.5673 31.8581 96.6393 30.8208 96.4816 29.9696Z" fill="#BDBDBD"/>
<path fill-rule="evenodd" clip-rule="evenodd" d="M100.443 32.0399C100.444 32.0378 100.446 32.0356 100.448 32.0334C100.491 31.9774 100.553 31.8946 100.633 31.7866C100.793 31.5706 101.02 31.2536 101.293 30.8475C101.838 30.0354 102.566 28.8666 103.297 27.4375C104.757 24.5823 106.235 20.6736 106.28 16.4893L105.849 16.4847C105.805 20.5758 104.357 24.4161 102.913 27.2411C102.191 28.6521 101.473 29.8061 100.935 30.6069C100.666 31.0072 100.442 31.319 100.286 31.5304C100.208 31.636 100.147 31.7165 100.106 31.7704C100.085 31.7973 100.069 31.8176 100.059 31.831L100.047 31.8459L100.044 31.8495L100.043 31.8503L99.9798 31.9299L100.001 32.0294C100.166 32.8157 100.11 33.8224 99.8699 34.9959C99.6308 36.1663 99.2129 37.4866 98.6695 38.8927C97.5828 41.7048 96.0019 44.8414 94.3743 47.7771C92.7472 50.7117 91.0762 53.4404 89.8118 55.4358C89.1797 56.4334 88.6494 57.2474 88.2772 57.8118C88.0911 58.094 87.9445 58.3139 87.8445 58.4631C87.7946 58.5376 87.7562 58.5946 87.7304 58.6328L87.7012 58.676L87.692 58.6895C87.6919 58.6897 87.6914 58.6904 87.8698 58.8117L87.6914 58.6904L87.6628 58.7325L87.656 58.7831C86.8383 64.8944 83.6005 71.7009 80.5538 76.9936C79.0322 79.6368 77.5618 81.8964 76.4719 83.4951C75.927 84.2943 75.4773 84.9282 75.164 85.362C75.0074 85.5789 74.8849 85.7458 74.8016 85.8583C74.76 85.9145 74.7282 85.9572 74.7069 85.9857L74.6828 86.0178L74.6767 86.0258L74.6753 86.0278C74.6752 86.0278 74.6748 86.0283 74.8469 86.1585L74.6753 86.0278L74.6435 86.0697L74.6345 86.1209C73.509 92.4781 70.1217 98.9762 67.0048 103.895C65.4478 106.352 63.9613 108.411 62.8643 109.855C62.3158 110.577 61.8648 111.145 61.5511 111.532C61.3943 111.726 61.2718 111.874 61.1887 111.974C61.1471 112.024 61.1154 112.062 61.0941 112.087L61.0702 112.115L61.0642 112.122L61.0628 112.124C61.0627 112.124 61.0623 112.125 61.2264 112.265L61.0628 112.124L61.0222 112.172L61.0131 112.233C59.9857 119.105 56.5417 125.569 53.3443 130.324C51.7468 132.7 50.2137 134.645 49.0803 135.995C48.5136 136.67 48.047 137.197 47.7224 137.554C47.5601 137.733 47.4333 137.869 47.3472 137.96C47.3042 138.006 47.2714 138.041 47.2494 138.064L47.2247 138.09L47.2186 138.096L47.2171 138.097L47.1807 138.135L47.1654 138.184C44.2264 147.692 40.5654 154.192 37.6436 158.312C36.1826 160.372 34.9061 161.837 33.9967 162.785C33.542 163.26 33.179 163.605 32.9306 163.831C32.8064 163.944 32.7108 164.027 32.6467 164.082C32.6147 164.109 32.5905 164.129 32.5746 164.142L32.5569 164.157L32.5527 164.16L32.5519 164.161L32.6864 164.33C32.821 164.498 32.8211 164.498 32.8212 164.498L32.8232 164.496L32.8287 164.492L32.849 164.475C32.8667 164.461 32.8926 164.439 32.9264 164.41C32.994 164.353 33.0931 164.266 33.2209 164.15C33.4764 163.918 33.8464 163.566 34.3081 163.084C35.2316 162.121 36.5217 160.639 37.9955 158.561C40.9383 154.412 44.6123 147.887 47.5625 138.361C47.5852 138.337 47.6185 138.302 47.6616 138.256C47.7492 138.163 47.8777 138.025 48.0417 137.844C48.3697 137.483 48.8401 136.952 49.4107 136.272C50.5518 134.913 52.0946 132.956 53.7023 130.565C56.9059 125.801 60.3785 119.298 61.4306 112.357C61.4522 112.332 61.4822 112.296 61.5203 112.25C61.6046 112.149 61.7283 111.999 61.8864 111.803C62.2026 111.413 62.6563 110.841 63.2078 110.116C64.3105 108.664 65.8043 106.596 67.3692 104.126C70.4879 99.2043 73.9011 92.6708 75.0502 86.2469L75.0523 86.2442C75.0741 86.2151 75.1063 86.1718 75.1484 86.1149C75.2326 86.0011 75.3561 85.8329 75.5138 85.6146C75.8291 85.178 76.281 84.5409 76.8283 83.7381C77.9229 82.1326 79.3994 79.8636 80.9277 77.2088C83.9723 71.9198 87.2366 65.0757 88.0768 58.8907L88.088 58.8742C88.114 58.8356 88.1527 58.7782 88.2029 58.7032C88.3035 58.5532 88.4506 58.3325 88.6373 58.0493C89.0108 57.483 89.5426 56.6668 90.1763 55.6667C91.4435 53.6668 93.1191 50.9305 94.7516 47.9863C96.3834 45.0431 97.975 41.8869 99.0719 39.0482C99.6204 37.6289 100.047 36.2842 100.293 35.0822C100.528 33.9284 100.6 32.8911 100.443 32.0399Z" fill="#BDBDBD"/>
<path fill-rule="evenodd" clip-rule="evenodd" d="M108.093 28.4937L97.0227 27.196L97.0561 26.9104L108.127 28.2081L108.093 28.4937Z" fill="#263238"/>
<path d="M34.134 176.135C34.134 176.135 51.1939 177.598 58.4554 176.002C65.7143 174.41 74.3267 161.504 76.873 157.033C79.4193 152.561 123.415 68.8326 124.878 65.2417C126.34 61.6509 129.485 51.2802 122.785 40.3108C116.081 29.3465 112.288 16.7886 112.288 16.7886C112.206 16.9466 68.6566 116.553 34.1367 176.13L34.134 176.135Z" fill="#91B3FA"/>
<path d="M41.0043 176.564L44.3468 176.689C44.3468 176.689 107.322 51.1954 116.169 27.2408L114.876 24.0783C114.876 24.0783 79.463 103.026 41.0017 176.569L41.0043 176.564Z" fill="white"/>
<path opacity="0.4" d="M33.7065 175.911C33.7065 175.911 36.6324 176.163 40.576 176.342C40.576 176.342 102.218 58.9216 114.45 23.852C112.759 19.5399 111.853 16.5671 111.853 16.5671C111.771 16.7251 68.2213 116.331 33.7014 175.909L33.7065 175.911Z" fill="white"/>
<path opacity="0.3" d="M95.6286 103.171C94.5281 99.9717 91.0423 98.2702 87.843 99.3706C84.6436 100.471 82.9421 103.957 84.0426 107.156C85.143 110.356 88.6288 112.057 91.8282 110.957C95.0275 109.856 96.729 106.37 95.6286 103.171Z" fill="#2D3AAF"/>
<path opacity="0.3" d="M109.44 76.7379C108.429 73.5092 104.992 71.7116 101.763 72.7229C98.5343 73.7342 96.7367 77.1714 97.748 80.4C98.7593 83.6287 102.196 85.4263 105.425 84.415C108.654 83.4037 110.451 79.9666 109.44 76.7379Z" fill="#2D3AAF"/>
<path d="M68.2362 101.393L72.4669 103.605C72.7116 103.733 72.9115 103.351 72.6669 103.223L68.4362 101.011C68.1915 100.883 67.9916 101.265 68.2362 101.393Z" fill="#263238"/>
<path d="M72.9014 102.587L72.1523 104.02L73.0851 104.507L73.8342 103.075L72.9014 102.587Z" fill="#263238"/>
<path d="M80.964 107.712C82.0726 105.592 81.2529 102.975 79.1331 101.866C77.0133 100.757 74.3962 101.577 73.2876 103.697C72.179 105.817 72.9987 108.434 75.1185 109.542C77.2383 110.651 79.8554 109.831 80.964 107.712Z" fill="#2D3AAF"/>
<path opacity="0.2" d="M73.6308 107.299C73.6308 107.299 75.2849 109.994 77.747 109.581C80.4104 109.13 80.8557 106.579 80.8557 106.579C80.8557 106.579 79.232 108.566 77.5628 108.394C75.2619 108.152 74.6774 106.34 74.6774 106.34L73.6332 107.306L73.6308 107.299Z" fill="white"/>
<path d="M72.9745 106.954C72.9745 106.954 75.8473 105.036 75.7842 101.582C75.7842 101.582 74.0791 101.963 73.2834 103.695C72.4877 105.428 72.8792 106.677 72.9745 106.954Z" fill="#263238"/>
<path d="M95.4589 46.2366L100.964 49.1156C101.209 49.2435 101.409 48.8612 101.164 48.7333L95.6588 45.8543C95.4142 45.7263 95.2142 46.1086 95.4589 46.2366Z" fill="#263238"/>
<path d="M101.399 48.095L100.65 49.5273L101.583 50.0152L102.332 48.5828L101.399 48.095Z" fill="#263238"/>
<path d="M109.462 53.2233C110.571 51.1035 109.751 48.4863 107.631 47.3777C105.511 46.2691 102.894 47.0889 101.786 49.2087C100.677 51.3284 101.497 53.9456 103.617 55.0542C105.736 56.1628 108.353 55.343 109.462 53.2233Z" fill="#2D3AAF"/>
<path opacity="0.2" d="M102.128 52.8103C102.128 52.8103 103.782 55.506 106.244 55.0928C108.907 54.6422 109.353 52.0903 109.353 52.0903C109.353 52.0903 107.729 54.0778 106.06 53.9059C103.759 53.6633 103.174 51.8517 103.174 51.8517L102.13 52.8181L102.128 52.8103Z" fill="white"/>
<path d="M101.472 52.4661C101.472 52.4661 104.344 50.5476 104.281 47.0936C104.281 47.0936 102.576 47.4743 101.78 49.2068C100.985 50.9393 101.376 52.1891 101.472 52.4661Z" fill="#263238"/>
<path opacity="0.3" d="M67.8358 169.398L126.772 52.0618C126.772 52.0618 127.954 59.0867 124.875 65.2468C121.799 71.4017 76.0781 159.012 76.0781 159.012C76.0781 159.012 68.7773 168.417 67.8331 169.403L67.8358 169.398Z" fill="#2D3AAF"/>
</g>
</svg>
