<svg width="26" height="26" viewBox="0 0 26 26" fill="none" xmlns="http://www.w3.org/2000/svg">
<g id="Tik Tok" clip-path="url(#clip0_2320_29156)">
<path id="Vector" fill-rule="evenodd" clip-rule="evenodd" d="M10.3677 10.0393V9.04467C10.0225 8.99579 9.67438 8.9704 9.32572 8.96875C5.06231 8.96875 1.59375 12.4379 1.59375 16.7014C1.59375 19.3167 2.90081 21.6317 4.8947 23.0317C3.55962 21.6039 2.81739 19.7219 2.81847 17.7672C2.81847 13.5645 6.18832 10.1374 10.3677 10.0393Z" fill="#00F2EA"/>
<path id="Vector_2" fill-rule="evenodd" clip-rule="evenodd" d="M10.5487 21.2996C12.4509 21.2996 14.0027 19.7864 14.0734 17.9006L14.0798 1.06586H17.1553C17.0896 0.714361 17.0564 0.357576 17.056 0H12.8557L12.8487 16.8353C12.7786 18.7206 11.2262 20.2332 9.32462 20.2332C8.75368 20.2334 8.19135 20.0943 7.6864 19.8279C8.01243 20.2828 8.4421 20.6535 8.93983 20.9094C9.43756 21.1654 9.98905 21.2991 10.5487 21.2996ZM22.9004 6.78003V5.84439C21.7702 5.84545 20.6642 5.51666 19.718 4.89827C20.5475 5.85337 21.6644 6.5136 22.901 6.78003" fill="#00F2EA"/>
<path id="Vector_3" fill-rule="evenodd" clip-rule="evenodd" d="M19.7183 4.89766C18.7911 3.83674 18.2804 2.4754 18.281 1.06641H17.1556C17.3013 1.84519 17.6036 2.58629 18.0441 3.24483C18.4846 3.90338 19.0541 4.46567 19.7183 4.89766ZM9.32488 13.171C8.38871 13.1721 7.49122 13.5445 6.82923 14.2065C6.16729 14.8684 5.79494 15.7659 5.79382 16.7021C5.79446 17.3461 5.97105 17.9777 6.30457 18.5286C6.63809 19.0794 7.11579 19.5287 7.68608 19.8279C7.25184 19.229 7.01804 18.5082 7.01798 17.7686C7.01889 16.8323 7.39119 15.9346 8.05318 15.2726C8.71517 14.6105 9.61277 14.238 10.549 14.2369C10.9129 14.2369 11.2616 14.2971 11.5909 14.4005V10.1119C11.2458 10.063 10.8976 10.0376 10.549 10.036C10.4877 10.036 10.4275 10.0395 10.3668 10.0406V13.3346C10.0299 13.2273 9.67848 13.1722 9.32488 13.171Z" fill="#FF004F"/>
<path id="Vector_4" fill-rule="evenodd" clip-rule="evenodd" d="M22.9024 6.78183V10.0466C20.724 10.0466 18.7061 9.34984 17.058 8.16717V16.704C17.058 20.9674 13.59 24.436 9.32657 24.436C7.67901 24.436 6.15119 23.9162 4.89551 23.0343C5.61744 23.8128 6.49236 24.4338 7.4655 24.8585C8.43864 25.283 9.48898 25.5021 10.5507 25.5018C14.8141 25.5018 18.2827 22.0333 18.2827 17.7704V9.23361C19.9853 10.4579 22.03 11.1155 24.1271 11.113V6.91151C23.7066 6.91151 23.2978 6.86593 22.9024 6.78125" fill="#FF004F"/>
<path id="Vector_5" fill-rule="evenodd" clip-rule="evenodd" d="M17.0567 16.7021V8.16533C18.7592 9.38976 20.804 10.0473 22.9011 10.0447V6.77999C21.6646 6.5133 20.548 5.85285 19.7187 4.89766C19.0546 4.46567 18.4849 3.90338 18.0444 3.24483C17.604 2.58629 17.3017 1.84519 17.156 1.06641H14.0805L14.074 17.9011C14.0034 19.7864 12.4516 21.2996 10.5494 21.2996C9.98973 21.2991 9.43824 21.1652 8.94051 20.9093C8.44284 20.6534 8.01316 20.2827 7.68708 19.8279C7.11668 19.5288 6.63882 19.0796 6.30519 18.5287C5.97157 17.9778 5.79487 17.3462 5.79424 16.7021C5.7953 15.7659 6.16765 14.8684 6.82964 14.2065C7.49158 13.5445 8.38913 13.1721 9.3253 13.171C9.68856 13.171 10.0372 13.2306 10.3672 13.3346V10.0406C6.18784 10.1388 2.81799 13.5659 2.81799 17.7686C2.81799 19.801 3.60761 21.6512 4.89423 23.033C6.19129 23.9461 7.73909 24.4355 9.3253 24.4341C13.5887 24.4341 17.0567 20.9655 17.0567 16.7021Z" fill="black"/>
</g>
<defs>
<clipPath id="clip0_2320_29156">
<rect width="25.5" height="25.5" fill="white"/>
</clipPath>
</defs>
</svg>
