<svg width="161" height="67" viewBox="0 0 161 67" fill="none" xmlns="http://www.w3.org/2000/svg">
<path d="M40.0552 30.707C40.0552 32.1509 39.7685 33.5807 39.2114 34.9147C38.6543 36.2487 37.8378 37.4608 36.8084 38.4818C35.7791 39.5028 34.5571 40.3126 33.2121 40.8652C31.8672 41.4178 30.4257 41.7022 28.97 41.7022C27.5143 41.7022 26.0728 41.4178 24.7278 40.8652C23.3829 40.3126 22.1609 39.5028 21.1315 38.4818C20.1022 37.4608 19.2856 36.2487 18.7285 34.9147C18.1715 33.5807 17.8847 32.1509 17.8847 30.707" stroke="white" stroke-width="3.72737"/>
<path d="M17.5508 26.785C17.7264 26.5589 18.068 26.5589 18.2436 26.785L21.0506 30.4003C21.2743 30.6884 21.069 31.1077 20.7043 31.1077H15.0902C14.7254 31.1077 14.5201 30.6884 14.7438 30.4003L17.5508 26.785Z" fill="white"/>
<path d="M39.6957 26.785C39.8713 26.5589 40.2129 26.5589 40.3884 26.785L43.1955 30.4003C43.4192 30.6884 43.2139 31.1077 42.8491 31.1077H37.235C36.8703 31.1077 36.665 30.6884 36.8887 30.4003L39.6957 26.785Z" fill="white"/>
<line x1="28.8601" y1="21.2949" x2="28.8601" y2="41.6629" stroke="white" stroke-width="3.72737"/>
<path d="M33.8798 28.5322H24.1464" stroke="white" stroke-width="3.72737" stroke-linecap="round"/>
<circle cx="28.9101" cy="17.7283" r="3.01041" stroke="white" stroke-width="2.63108"/>
<path d="M55.9286 28.7196C55.9286 13.9813 43.8309 2 28.9686 2C14.1062 2 2 13.9898 2 28.7196C2 35.5612 4.61014 42.0454 9.34102 47.0234C9.40971 47.1255 9.48698 47.2277 9.57284 47.3128L27.7236 65.3017C28.0585 65.6336 28.4964 65.8038 28.9428 65.8038C29.3893 65.8038 29.8272 65.6336 30.162 65.3017C30.8318 64.638 30.8318 63.5573 30.162 62.885L12.2002 45.0918C12.1572 45.0322 12.1143 44.9641 12.0542 44.9131C7.79554 40.5392 5.44298 34.7954 5.44298 28.7281C5.44298 15.8704 15.9952 5.41228 28.96 5.41228C41.9249 5.41228 52.4856 15.8704 52.4856 28.7281C52.4856 34.9485 50.0386 40.7945 45.5911 45.2024C45.5911 45.2024 45.5911 45.2109 45.5739 45.2194C45.5739 45.2194 45.5567 45.2279 45.5567 45.2365L42.1481 48.6147C41.4784 49.2784 41.4784 50.3591 42.1481 51.0229C42.4829 51.3547 42.9208 51.5249 43.3673 51.5249C43.8138 51.5249 44.2517 51.3547 44.5865 51.0229L47.9951 47.6446C47.9951 47.6446 48.0037 47.6361 48.0123 47.6276C48.0123 47.6276 48.0295 47.6191 48.0295 47.6106C53.1296 42.556 55.9372 35.8505 55.9372 28.7196H55.9286Z" fill="white" stroke="white" stroke-width="2.19257" stroke-miterlimit="10"/>
<path d="M72.6739 18.585H69.5693V15.8386H72.6739V18.585ZM72.5784 33.1291H69.6887V20.5194H72.5784V33.1291Z" fill="white"/>
<path d="M90.7358 30.4543C90.3059 30.916 89.8521 31.33 89.3745 31.6962C88.9128 32.0464 88.4113 32.3569 87.8699 32.6276C87.3286 32.8823 86.7316 33.0733 86.0788 33.2007C85.4419 33.344 84.7334 33.4157 83.9533 33.4157C82.7274 33.4157 81.597 33.1928 80.5621 32.747C79.5272 32.3012 78.6277 31.6962 77.8634 30.9319C77.1151 30.1518 76.526 29.2363 76.0962 28.1855C75.6663 27.1347 75.4514 26.0043 75.4514 24.7943C75.4514 23.6002 75.6583 22.4778 76.0723 21.427C76.5022 20.3762 77.0992 19.4607 77.8634 18.6805C78.6277 17.8845 79.5352 17.2636 80.586 16.8178C81.6368 16.356 82.799 16.1252 84.0727 16.1252C84.8369 16.1252 85.5295 16.1889 86.1504 16.3162C86.7873 16.4436 87.3684 16.6267 87.8938 16.8655C88.4192 17.0884 88.9048 17.3591 89.3506 17.6775C89.7964 17.9959 90.2183 18.3462 90.6163 18.7283L88.7297 20.9016C88.061 20.2806 87.3525 19.7791 86.6042 19.397C85.8559 19.0149 85.0041 18.8238 84.0488 18.8238C83.2528 18.8238 82.5124 18.983 81.8278 19.3015C81.1591 19.604 80.578 20.0259 80.0844 20.5672C79.5909 21.0926 79.2088 21.7135 78.9381 22.43C78.6675 23.1465 78.5321 23.9186 78.5321 24.7465C78.5321 25.5744 78.6675 26.3546 78.9381 27.087C79.2088 27.8034 79.5909 28.4323 80.0844 28.9736C80.578 29.5149 81.1591 29.9448 81.8278 30.2632C82.5124 30.5658 83.2528 30.717 84.0488 30.717C85.0678 30.717 85.9435 30.5259 86.6758 30.1438C87.4082 29.7458 88.1326 29.2124 88.8491 28.5438L90.7358 30.4543Z" fill="white"/>
<path d="M95.8811 26.0123V33.1291H92.9913V15.6953H95.8811V22.4778C96.088 22.1753 96.3109 21.8966 96.5497 21.6419C96.8045 21.3712 97.0911 21.1324 97.4095 20.9254C97.7438 20.7185 98.1021 20.5593 98.4842 20.4478C98.8822 20.3204 99.328 20.2567 99.8216 20.2567C101.254 20.2567 102.361 20.6946 103.141 21.5702C103.921 22.4459 104.311 23.6241 104.311 25.1048V33.1291H101.422V25.9645C101.422 24.9774 101.183 24.2211 100.705 23.6957C100.243 23.1544 99.5827 22.8838 98.723 22.8838C97.8792 22.8838 97.1946 23.1624 96.6692 23.7196C96.1438 24.2609 95.8811 25.0252 95.8811 26.0123Z" fill="white"/>
<path d="M117.883 33.1291H115.017V31.5767C114.587 32.0862 114.038 32.5161 113.369 32.8664C112.701 33.2166 111.889 33.3918 110.933 33.3918C110.328 33.3918 109.755 33.3042 109.214 33.1291C108.673 32.9699 108.195 32.731 107.781 32.4126C107.383 32.0783 107.057 31.6723 106.802 31.1946C106.563 30.7011 106.444 30.1359 106.444 29.499V29.4513C106.444 28.7667 106.571 28.1696 106.826 27.6601C107.08 27.1506 107.431 26.7287 107.877 26.3944C108.338 26.06 108.88 25.8133 109.5 25.654C110.137 25.4789 110.822 25.3913 111.554 25.3913C112.319 25.3913 112.963 25.4391 113.489 25.5346C114.03 25.6302 114.548 25.7575 115.041 25.9167V25.6063C115.041 24.7306 114.77 24.0619 114.229 23.6002C113.704 23.1385 112.939 22.9076 111.936 22.9076C111.22 22.9076 110.583 22.9793 110.026 23.1226C109.469 23.2659 108.903 23.4569 108.33 23.6957L107.542 21.3792C108.243 21.0608 108.959 20.806 109.692 20.615C110.424 20.4239 111.308 20.3284 112.342 20.3284C114.221 20.3284 115.614 20.7981 116.522 21.7374C117.429 22.6609 117.883 23.9664 117.883 25.654V33.1291ZM115.089 28.5676V27.7795C114.723 27.6362 114.285 27.5168 113.775 27.4213C113.282 27.3258 112.756 27.278 112.199 27.278C111.292 27.278 110.583 27.4531 110.074 27.8034C109.564 28.1537 109.309 28.6552 109.309 29.308V29.3557C109.309 29.9607 109.54 30.4225 110.002 30.7409C110.48 31.0593 111.061 31.2185 111.745 31.2185C112.223 31.2185 112.661 31.1548 113.059 31.0275C113.473 30.9001 113.831 30.725 114.134 30.5021C114.436 30.2632 114.667 29.9846 114.826 29.6662C115.001 29.3319 115.089 28.9657 115.089 28.5676Z" fill="white"/>
<path d="M123.712 28.3288V33.1291H120.822V20.5194H123.712V23.3614C124.11 22.4061 124.675 21.6419 125.408 21.0687C126.14 20.4956 127.064 20.2329 128.178 20.2806V23.3375H128.011C127.374 23.3375 126.793 23.441 126.267 23.648C125.742 23.8549 125.288 24.1654 124.906 24.5794C124.524 24.9933 124.23 25.5187 124.023 26.1556C123.816 26.7765 123.712 27.5009 123.712 28.3288Z" fill="white"/>
<path d="M133.677 23.0032V29.1886C133.677 29.7458 133.812 30.1518 134.083 30.4065C134.354 30.6454 134.736 30.7648 135.229 30.7648C135.85 30.7648 136.447 30.6215 137.02 30.3349V32.6992C136.654 32.9062 136.264 33.0654 135.85 33.1768C135.436 33.2883 134.959 33.344 134.417 33.344C133.892 33.344 133.406 33.2803 132.96 33.153C132.515 33.0256 132.125 32.8186 131.79 32.532C131.472 32.2454 131.225 31.8713 131.05 31.4096C130.875 30.9319 130.787 30.3429 130.787 29.6423V23.0032H129.187V20.5194H130.787V17.0566H133.677V20.5194H137.068V23.0032H133.677Z" fill="white"/>
<path d="M141.335 27.8512C141.51 28.8861 141.924 29.6821 142.577 30.2394C143.23 30.7807 144.026 31.0513 144.965 31.0513C145.682 31.0513 146.303 30.924 146.828 30.6692C147.353 30.4145 147.871 30.0403 148.38 29.5468L150.076 31.0513C149.471 31.7678 148.747 32.341 147.903 32.7708C147.075 33.2007 146.08 33.4157 144.917 33.4157C144.01 33.4157 143.158 33.2564 142.362 32.938C141.582 32.6196 140.897 32.1738 140.308 31.6006C139.735 31.0275 139.281 30.3429 138.947 29.5468C138.613 28.7348 138.446 27.8353 138.446 26.8481C138.446 25.9406 138.597 25.0888 138.899 24.2928C139.202 23.4967 139.624 22.8041 140.165 22.2151C140.722 21.6101 141.375 21.1324 142.123 20.7821C142.872 20.4319 143.7 20.2567 144.607 20.2567C145.61 20.2567 146.486 20.4398 147.234 20.806C147.998 21.1722 148.627 21.6658 149.121 22.2867C149.63 22.9076 150.012 23.6321 150.267 24.46C150.522 25.2879 150.649 26.1556 150.649 27.0631C150.649 27.1904 150.641 27.3178 150.625 27.4452C150.625 27.5726 150.617 27.7079 150.601 27.8512H141.335ZM141.311 25.9406H147.783C147.736 25.4789 147.632 25.049 147.473 24.651C147.314 24.2371 147.099 23.8868 146.828 23.6002C146.557 23.2977 146.231 23.0589 145.849 22.8838C145.483 22.7086 145.061 22.6211 144.583 22.6211C143.692 22.6211 142.951 22.9315 142.362 23.5524C141.789 24.1575 141.439 24.9535 141.311 25.9406Z" fill="white"/>
<path d="M155.943 28.3288V33.1291H153.054V20.5194H155.943V23.3614C156.341 22.4061 156.907 21.6419 157.639 21.0687C158.371 20.4956 159.295 20.2329 160.409 20.2806V23.3375H160.242C159.605 23.3375 159.024 23.441 158.499 23.648C157.973 23.8549 157.52 24.1654 157.137 24.5794C156.755 24.9933 156.461 25.5187 156.254 26.1556C156.047 26.7765 155.943 27.5009 155.943 28.3288Z" fill="white"/>
<path d="M77.78 45.0825C77.78 45.6482 77.6768 46.1795 77.4704 46.6764C77.264 47.1657 76.9696 47.5899 76.5874 47.9492C76.2128 48.3085 75.7618 48.5914 75.2343 48.7978C74.7144 49.0042 74.1411 49.1074 73.5142 49.1074H70.5213V41.0804H73.5142C74.1411 41.0804 74.7144 41.1837 75.2343 41.3901C75.7618 41.5888 76.2128 41.8679 76.5874 42.2272C76.9696 42.5865 77.264 43.0107 77.4704 43.5C77.6768 43.9893 77.78 44.5168 77.78 45.0825ZM76.3007 45.1054C76.3007 44.7079 76.2319 44.3448 76.0943 44.016C75.9644 43.6797 75.7771 43.3892 75.5324 43.1445C75.2954 42.8999 75.0049 42.7088 74.6609 42.5712C74.3169 42.4336 73.9347 42.3648 73.5142 42.3648H71.9318V47.8231H73.5142C73.9347 47.8231 74.3169 47.7581 74.6609 47.6282C75.0049 47.4906 75.2954 47.3033 75.5324 47.0663C75.7771 46.8216 75.9644 46.535 76.0943 46.2062C76.2319 45.8699 76.3007 45.5029 76.3007 45.1054ZM80.4793 46.8025V49.1074H79.0917V43.0528H80.4793V44.4174C80.6704 43.9587 80.9418 43.5917 81.2934 43.3165C81.6451 43.0413 82.0885 42.9152 82.6236 42.9381V44.4059H82.5433C82.2375 44.4059 81.9585 44.4556 81.7062 44.555C81.454 44.6544 81.2361 44.8034 81.0526 45.0022C80.8691 45.201 80.7277 45.4532 80.6283 45.759C80.5289 46.0572 80.4793 46.405 80.4793 46.8025ZM89.5116 46.0801C89.5116 46.5159 89.4275 46.9248 89.2593 47.3071C89.0988 47.6893 88.8733 48.0257 88.5828 48.3162C88.2999 48.599 87.9597 48.8246 87.5622 48.9928C87.1647 49.1609 86.7327 49.245 86.2664 49.245C85.8077 49.245 85.3796 49.1648 84.9821 49.0042C84.5922 48.836 84.252 48.6105 83.9615 48.3277C83.6787 48.0372 83.457 47.7046 83.2964 47.33C83.1359 46.9478 83.0556 46.5388 83.0556 46.103C83.0556 45.6673 83.1359 45.2583 83.2964 44.8761C83.4646 44.4862 83.6901 44.1498 83.973 43.867C84.2635 43.5765 84.6037 43.3471 84.9936 43.1789C85.3911 43.0107 85.823 42.9267 86.2893 42.9267C86.7557 42.9267 87.1838 43.0107 87.5737 43.1789C87.9712 43.3395 88.3114 43.565 88.5942 43.8555C88.8847 44.1383 89.1103 44.4709 89.2708 44.8531C89.4313 45.2354 89.5116 45.6444 89.5116 46.0801ZM88.1241 46.103C88.1241 45.8355 88.0782 45.5832 87.9865 45.3462C87.8947 45.1092 87.7648 44.9028 87.5966 44.727C87.4361 44.5435 87.2411 44.4021 87.0118 44.3027C86.7901 44.1957 86.5416 44.1422 86.2664 44.1422C85.9912 44.1422 85.7389 44.1957 85.5096 44.3027C85.2879 44.4021 85.0968 44.5397 84.9362 44.7155C84.7757 44.8913 84.6534 45.0978 84.5693 45.3347C84.4852 45.5641 84.4431 45.8125 84.4431 46.0801C84.4431 46.3477 84.489 46.6038 84.5807 46.8484C84.6725 47.0854 84.7986 47.2918 84.9592 47.4676C85.1273 47.6435 85.3223 47.7849 85.544 47.8919C85.7733 47.9913 86.0218 48.041 86.2893 48.041C86.5722 48.041 86.8245 47.9913 87.0462 47.8919C87.2755 47.7849 87.4705 47.6435 87.631 47.4676C87.7915 47.2918 87.9139 47.0892 87.9979 46.8599C88.082 46.6229 88.1241 46.3706 88.1241 46.103ZM96.9468 46.0801C96.9468 46.5847 96.8665 47.0319 96.706 47.4218C96.5531 47.8116 96.3429 48.1442 96.0753 48.4194C95.8154 48.687 95.5134 48.8895 95.1694 49.0272C94.833 49.1648 94.4852 49.2336 94.1259 49.2336C93.629 49.2336 93.2162 49.1265 92.8874 48.9125C92.5587 48.6984 92.2873 48.45 92.0733 48.1671V50.9422H90.6858V43.0528H92.0733V44.0619C92.295 43.7408 92.5702 43.4733 92.8989 43.2592C93.2276 43.0375 93.6366 42.9267 94.1259 42.9267C94.4852 42.9267 94.833 42.9955 95.1694 43.1331C95.5058 43.2707 95.8039 43.4771 96.0638 43.7523C96.3314 44.0198 96.5454 44.3486 96.706 44.7385C96.8665 45.1283 96.9468 45.5756 96.9468 46.0801ZM95.5363 46.0801C95.5363 45.782 95.4905 45.5144 95.3987 45.2774C95.307 45.0328 95.1809 44.8264 95.0203 44.6582C94.8674 44.49 94.684 44.36 94.4699 44.2683C94.2635 44.1766 94.0418 44.1307 93.8048 44.1307C93.5678 44.1307 93.3423 44.1766 93.1282 44.2683C92.9142 44.36 92.7269 44.4938 92.5664 44.6697C92.4058 44.8378 92.2759 45.0404 92.1765 45.2774C92.0847 45.5144 92.0389 45.782 92.0389 46.0801C92.0389 46.3783 92.0847 46.6458 92.1765 46.8828C92.2759 47.1198 92.4058 47.3262 92.5664 47.502C92.7269 47.6702 92.9142 47.8002 93.1282 47.8919C93.3423 47.9836 93.5678 48.0295 93.8048 48.0295C94.0418 48.0295 94.2635 47.9836 94.4699 47.8919C94.684 47.8002 94.8674 47.6702 95.0203 47.502C95.1809 47.3338 95.307 47.1313 95.3987 46.8943C95.4905 46.6496 95.5363 46.3783 95.5363 46.0801ZM105.64 41.0231L109.171 49.1074H107.681L106.867 47.1695H103.071L102.245 49.1074H100.8L104.332 41.0231H105.64ZM106.351 45.9196L104.963 42.7088L103.587 45.9196H106.351ZM111.536 45.6902V49.1074H110.148V43.0528H111.536V43.9931C111.635 43.8478 111.742 43.7141 111.857 43.5917C111.979 43.4618 112.117 43.3471 112.27 43.2477C112.43 43.1483 112.602 43.0719 112.786 43.0184C112.977 42.9572 113.191 42.9267 113.428 42.9267C114.116 42.9267 114.647 43.1369 115.022 43.5573C115.397 43.9778 115.584 44.5435 115.584 45.2545V49.1074H114.196V45.6673C114.196 45.1933 114.082 44.8302 113.852 44.5779C113.631 44.318 113.313 44.188 112.901 44.188C112.495 44.188 112.167 44.3218 111.914 44.5894C111.662 44.8493 111.536 45.2163 111.536 45.6902ZM124.531 41.0231L128.063 49.1074H126.572L125.758 47.1695H121.963L121.137 49.1074H119.692L123.224 41.0231H124.531ZM125.242 45.9196L123.855 42.7088L122.479 45.9196H125.242ZM130.428 45.6902V49.1074H129.04V43.0528H130.428V43.9931C130.527 43.8478 130.634 43.7141 130.749 43.5917C130.871 43.4618 131.009 43.3471 131.162 43.2477C131.322 43.1483 131.494 43.0719 131.678 43.0184C131.869 42.9572 132.083 42.9267 132.32 42.9267C133.008 42.9267 133.539 43.1369 133.914 43.5573C134.288 43.9778 134.475 44.5435 134.475 45.2545V49.1074H133.088V45.6673C133.088 45.1933 132.973 44.8302 132.744 44.5779C132.522 44.318 132.205 44.188 131.792 44.188C131.387 44.188 131.058 44.3218 130.806 44.5894C130.554 44.8493 130.428 45.2163 130.428 45.6902ZM141.187 48.1098C140.889 48.4462 140.549 48.7214 140.166 48.9354C139.784 49.1418 139.299 49.245 138.71 49.245C138.259 49.245 137.842 49.1648 137.46 49.0042C137.078 48.836 136.745 48.6105 136.463 48.3277C136.187 48.0372 135.969 47.7046 135.809 47.33C135.656 46.9478 135.58 46.5388 135.58 46.103C135.58 45.6673 135.656 45.2583 135.809 44.8761C135.969 44.4938 136.187 44.1575 136.463 43.867C136.745 43.5765 137.078 43.3471 137.46 43.1789C137.85 43.0107 138.271 42.9267 138.722 42.9267C139.295 42.9267 139.769 43.0222 140.144 43.2133C140.526 43.4044 140.858 43.6567 141.141 43.9702L140.281 44.899C140.067 44.6773 139.838 44.4976 139.593 44.36C139.356 44.2148 139.062 44.1422 138.71 44.1422C138.458 44.1422 138.225 44.1957 138.011 44.3027C137.797 44.4021 137.613 44.5397 137.46 44.7155C137.307 44.8913 137.185 45.0978 137.093 45.3347C137.009 45.5641 136.967 45.8125 136.967 46.0801C136.967 46.3553 137.009 46.6114 137.093 46.8484C137.185 47.0854 137.311 47.2918 137.472 47.4676C137.632 47.6435 137.823 47.7849 138.045 47.8919C138.267 47.9913 138.511 48.041 138.779 48.041C139.108 48.041 139.394 47.9722 139.639 47.8346C139.891 47.6893 140.128 47.5058 140.35 47.2842L141.187 48.1098ZM143.612 45.6902V49.1074H142.224V40.7364H143.612V43.9931C143.711 43.8478 143.818 43.7141 143.933 43.5917C144.055 43.4618 144.193 43.3471 144.346 43.2477C144.506 43.1483 144.678 43.0719 144.862 43.0184C145.053 42.9572 145.267 42.9267 145.504 42.9267C146.192 42.9267 146.723 43.1369 147.098 43.5573C147.472 43.9778 147.66 44.5435 147.66 45.2545V49.1074H146.272V45.6673C146.272 45.1933 146.157 44.8302 145.928 44.5779C145.706 44.318 145.389 44.188 144.976 44.188C144.571 44.188 144.242 44.3218 143.99 44.5894C143.738 44.8493 143.612 45.2163 143.612 45.6902ZM155.22 46.0801C155.22 46.5159 155.136 46.9248 154.967 47.3071C154.807 47.6893 154.581 48.0257 154.291 48.3162C154.008 48.599 153.668 48.8246 153.27 48.9928C152.873 49.1609 152.441 49.245 151.975 49.245C151.516 49.245 151.088 49.1648 150.69 49.0042C150.3 48.836 149.96 48.6105 149.67 48.3277C149.387 48.0372 149.165 47.7046 149.005 47.33C148.844 46.9478 148.764 46.5388 148.764 46.103C148.764 45.6673 148.844 45.2583 149.005 44.8761C149.173 44.4862 149.398 44.1498 149.681 43.867C149.972 43.5765 150.312 43.3471 150.702 43.1789C151.099 43.0107 151.531 42.9267 151.998 42.9267C152.464 42.9267 152.892 43.0107 153.282 43.1789C153.679 43.3395 154.02 43.565 154.302 43.8555C154.593 44.1383 154.818 44.4709 154.979 44.8531C155.139 45.2354 155.22 45.6444 155.22 46.0801ZM153.832 46.103C153.832 45.8355 153.786 45.5832 153.695 45.3462C153.603 45.1092 153.473 44.9028 153.305 44.727C153.144 44.5435 152.949 44.4021 152.72 44.3027C152.498 44.1957 152.25 44.1422 151.975 44.1422C151.699 44.1422 151.447 44.1957 151.218 44.3027C150.996 44.4021 150.805 44.5397 150.644 44.7155C150.484 44.8913 150.362 45.0978 150.277 45.3347C150.193 45.5641 150.151 45.8125 150.151 46.0801C150.151 46.3477 150.197 46.6038 150.289 46.8484C150.381 47.0854 150.507 47.2918 150.667 47.4676C150.836 47.6435 151.03 47.7849 151.252 47.8919C151.481 47.9913 151.73 48.041 151.998 48.041C152.28 48.041 152.533 47.9913 152.754 47.8919C152.984 47.7849 153.179 47.6435 153.339 47.4676C153.5 47.2918 153.622 47.0892 153.706 46.8599C153.79 46.6229 153.832 46.3706 153.832 46.103ZM157.781 46.8025V49.1074H156.394V43.0528H157.781V44.4174C157.973 43.9587 158.244 43.5917 158.596 43.3165C158.947 43.0413 159.391 42.9152 159.926 42.9381V44.4059H159.846C159.54 44.4059 159.261 44.4556 159.008 44.555C158.756 44.6544 158.538 44.8034 158.355 45.0022C158.171 45.201 158.03 45.4532 157.931 45.759C157.831 46.0572 157.781 46.405 157.781 46.8025Z" fill="white"/>
</svg>
