<svg width="27" height="26" viewBox="0 0 27 26" fill="none" xmlns="http://www.w3.org/2000/svg">
<g id="Yelp" clip-path="url(#clip0_2320_29163)">
<g id="Group">
<path id="Vector" d="M10.4393 16.2489C10.8553 16.1424 11.136 15.7524 11.164 15.2548C11.19 14.7457 10.9308 14.2944 10.5035 14.1319L9.32331 13.6436C5.28153 11.9499 5.10075 11.8833 4.89681 11.8809C4.58441 11.8691 4.30612 12.0283 4.11437 12.3342C3.70812 12.9968 3.53628 15.0837 3.67603 16.4686C3.726 16.9257 3.80766 17.3067 3.92547 17.5346C4.08756 17.8483 4.36178 18.0364 4.67459 18.0465C4.87487 18.0579 4.99878 18.0229 8.76025 16.794C8.76025 16.7936 10.4312 16.2525 10.4393 16.2489ZM12.5469 17.8141C12.0801 17.6321 11.578 17.7451 11.2961 18.103L10.4685 19.0975C7.63494 22.4759 7.51916 22.6319 7.44928 22.8321C7.40744 22.9516 7.38997 23.0759 7.405 23.201C7.42206 23.3789 7.50047 23.5569 7.63331 23.721C8.2894 24.5152 11.4387 25.6925 12.4441 25.5179C12.7943 25.4524 13.0478 25.253 13.1567 24.954C13.2217 24.7622 13.2298 24.6294 13.2404 20.6144L13.2505 18.822C13.2773 18.3886 13.0015 17.9933 12.5469 17.8141ZM16.351 14.3825C16.351 14.3825 16.3336 14.4126 16.3283 14.4191C16.5395 14.337 16.9157 14.244 17.6023 14.0787C21.8736 13.0277 22.0385 12.9708 22.2075 12.8591C22.4655 12.6832 22.5951 12.3862 22.5732 12.0251C22.5732 12.0129 22.5748 12.0019 22.5732 11.9885C22.4635 10.9241 20.6248 8.15107 19.7197 7.70095C19.3987 7.54454 19.0778 7.55592 18.8129 7.73589C18.6484 7.84598 18.5257 8.01051 16.2389 11.1882C16.2389 11.1882 15.2046 12.619 15.1924 12.6328C14.9194 12.9688 14.9174 13.4522 15.1823 13.8658C15.4581 14.2944 15.9245 14.5024 16.351 14.3825ZM12.6704 0.760574C12.5827 0.440043 12.3365 0.210105 11.9802 0.118699C10.8902 -0.156739 6.72372 1.03114 5.95022 1.8412C5.70362 2.10364 5.61059 2.42823 5.68494 2.71342C5.806 2.96814 10.9707 11.2223 10.9707 11.2223C11.7352 12.4801 12.3576 12.2855 12.5611 12.2209C12.7638 12.1567 13.3826 11.9613 13.3127 10.4943C13.2392 8.77629 12.7305 1.11604 12.6704 0.760574ZM18.3664 17.1792C18.3664 17.1792 16.7179 16.6259 16.6963 16.6153C16.2986 16.4585 15.8416 16.6023 15.5357 16.9886C15.2188 17.3823 15.1692 17.9003 15.4232 18.2939L16.087 19.3908C18.3193 23.0735 18.4891 23.3335 18.6508 23.4614C18.8986 23.6601 19.2139 23.693 19.5433 23.5573C20.4923 23.1734 22.5642 20.4962 22.7109 19.4659C22.7604 19.108 22.6503 18.7985 22.407 18.6023C22.2473 18.48 22.1238 18.4324 18.3664 17.1792Z" fill="#F93838"/>
</g>
<g id="Group_2">
<path id="Vector_2" d="M10.4401 16.2473C10.8561 16.1409 11.1368 15.7509 11.1648 15.2532C11.1908 14.7442 10.9316 14.2929 10.5042 14.1304L9.32409 13.6421C5.2823 11.9484 5.72796 13.1521 5.52443 13.1505C5.21202 13.1379 4.93374 13.2971 4.74159 13.6035C4.33493 14.2661 3.53705 15.0826 3.6768 16.4675C3.72677 16.9246 3.80843 17.3056 3.92624 17.5335C4.08834 17.8471 4.36255 18.0352 4.67537 18.0454C4.87565 18.0568 4.99955 18.0218 8.76102 16.7929C8.76102 16.7921 10.4319 16.251 10.4401 16.2473ZM12.5477 17.8126C12.0809 17.6306 11.92 18.7084 11.6381 19.0671C11.6381 19.0671 10.8142 20.0616 10.8114 20.0616C7.97737 23.4396 7.51993 22.6307 7.45046 22.8306C7.40862 22.9501 7.39115 23.0744 7.40618 23.1995C7.42324 23.3774 7.50165 23.5554 7.63449 23.7195C8.29059 24.5137 11.4398 25.691 12.4453 25.5163C12.7955 25.4509 13.049 25.2515 13.1579 24.9525C13.2229 24.7607 13.231 24.6279 13.2416 20.6129L13.2517 18.8205C13.2781 18.3871 13.0023 17.9918 12.5477 17.8126ZM16.3518 14.381C16.3518 14.381 16.3343 14.4111 16.3291 14.4176C16.5403 14.3355 16.9165 14.2425 17.6031 14.0771C21.8744 13.0262 22.0393 12.9693 22.2083 12.8576C22.4663 12.6817 22.5959 12.3847 22.5739 12.0236C22.5739 12.0114 22.5756 12.0004 22.5739 11.987C22.4642 10.9226 21.1423 9.35652 20.2368 8.9064C19.9162 8.74999 19.5945 8.76137 19.3304 8.94133C19.1651 9.05143 18.5265 8.00899 16.2397 11.1867C16.2397 11.1867 15.2054 12.6175 15.1932 12.6313C14.9202 12.9673 14.9181 13.4507 15.183 13.8643C15.4589 14.2929 15.9252 14.5009 16.3518 14.381ZM12.6712 0.759053C12.5834 0.438522 12.3372 0.208584 11.981 0.117178C10.891 -0.158259 8.8829 1.45618 8.11062 2.26665C7.86321 2.52908 7.77018 2.85368 7.84452 3.13887C7.96559 3.39358 10.9714 11.2212 10.9714 11.2212C11.736 12.479 12.3584 12.2844 12.5619 12.2198C12.7646 12.1556 13.3833 11.9602 13.3135 10.4932C13.2399 8.77477 12.7313 1.11452 12.6712 0.759053ZM18.3672 17.1776C18.3672 17.1776 17.3443 16.9676 17.3227 16.9571C16.9242 16.8006 16.468 16.9441 16.1621 17.3304C15.8452 17.7249 15.7956 18.242 16.0496 18.6361L16.0877 19.3893C18.3201 23.0719 18.4899 23.3319 18.6516 23.4599C18.8994 23.6586 19.2146 23.6915 19.5441 23.5558C20.4931 23.1719 22.565 20.4947 22.7116 19.4644C22.7612 19.1065 22.6511 18.797 22.4078 18.6007C22.2481 18.4785 22.1246 18.4309 18.3672 17.1776Z" fill="#CC2414"/>
</g>
</g>
<defs>
<clipPath id="clip0_2320_29163">
<rect width="26" height="26" fill="white" transform="translate(0.174988 -0.195312)"/>
</clipPath>
</defs>
</svg>
