<svg width="61" height="79" viewBox="0 0 61 79" fill="none" xmlns="http://www.w3.org/2000/svg">
<g clip-path="url(#clip0_5323_29822)">
<path d="M29.0282 35.4117L25.8674 32.251L13.7335 44.3849L16.8942 47.5457L29.0282 35.4117Z" stroke="black" stroke-width="3" stroke-linecap="round" stroke-linejoin="round"/>
<path d="M44.2261 47.5504L47.3869 44.3896L35.253 32.2557L32.0922 35.4165L44.2261 47.5504Z" stroke="black" stroke-width="3" stroke-linecap="round" stroke-linejoin="round"/>
<path d="M30.42 59.34C46.3921 59.34 59.34 46.3921 59.34 30.42C59.34 14.4479 46.3921 1.5 30.42 1.5C14.4479 1.5 1.5 14.4479 1.5 30.42C1.5 46.3921 14.4479 59.34 30.42 59.34Z" stroke="black" stroke-width="3" stroke-miterlimit="10"/>
<path d="M30.42 34.7703C32.8224 34.7703 34.77 32.8228 34.77 30.4203C34.77 28.0179 32.8224 26.0703 30.42 26.0703C28.0176 26.0703 26.07 28.0179 26.07 30.4203C26.07 32.8228 28.0176 34.7703 30.42 34.7703Z" stroke="black" stroke-width="3" stroke-miterlimit="10"/>
<path d="M32.62 7.90039H28.15V25.0604H32.62V7.90039Z" stroke="black" stroke-width="3" stroke-linecap="round" stroke-linejoin="round"/>
<path d="M52.2397 23.5765L50.408 19.499L34.7548 26.5306L36.5865 30.6081L52.2397 23.5765Z" stroke="black" stroke-width="3" stroke-linecap="round" stroke-linejoin="round"/>
<path d="M24.6323 30.6048L26.4639 26.5273L10.8107 19.4958L8.97909 23.5733L24.6323 30.6048Z" stroke="black" stroke-width="3" stroke-linecap="round" stroke-linejoin="round"/>
<path d="M59.54 49.1906V56.7606L30.47 46.6706L1.5 56.7606V50.4006L12.8 45.9606L30.47 39.1006L48.13 45.1506L59.54 49.1906Z" fill="white"/>
<path d="M50.86 72.0004L48.13 76.9504H12.8L10.08 72.0004L10.28 71.9004H30.47H50.65L50.86 72.0004Z" fill="white"/>
<path d="M59.54 56.7609L50.86 72.0009L50.65 71.9009H30.47V46.6709L59.54 56.7609Z" fill="white"/>
<path d="M17.85 61.8109C16.44 61.8109 15.33 62.9209 15.33 64.3309C15.33 65.7409 16.44 66.8509 17.85 66.8509C19.26 66.8509 20.37 65.7409 20.37 64.3309C20.37 62.9209 19.26 61.8109 17.85 61.8109ZM1.5 56.7609L30.57 46.6709V71.9009H10.38L10.18 72.0009L1.5 56.7609Z" fill="white"/>
<path d="M59.54 57.9704C59.44 57.9704 59.24 57.9704 59.14 57.8704L30.58 47.8804L2 57.8704C1.29 58.0704 0.59 57.7704 0.38 57.0604C0.18 56.3504 0.48 55.6504 1.19 55.4404L30.26 45.3504C30.56 45.2504 30.87 45.2504 31.07 45.3504L60.14 55.4404C60.85 55.6404 61.15 56.3504 60.95 57.0604C60.55 57.6704 60.04 57.9704 59.54 57.9704Z" fill="black"/>
<path d="M48.13 78.1604H12.8C12.3 78.1604 11.89 77.9604 11.69 77.5504L0.289996 57.3704C0.189996 57.1704 0.0899963 56.9704 0.0899963 56.7604V50.4004C0.0899963 49.9004 0.389996 49.3904 0.899996 49.1904L29.97 37.8904C30.27 37.7904 30.58 37.7904 30.88 37.8904L48.54 44.0504L59.95 47.9904C60.45 48.1904 60.76 48.6004 60.76 49.2004V56.7704C60.76 56.9704 60.66 57.1704 60.56 57.3804L49.15 77.5704C49.05 77.9704 48.65 78.1804 48.14 78.1804L48.13 78.1604ZM13.51 75.6404H47.32L58.22 56.3604V50.0004L30.46 40.3104L2.71 51.3104V56.4604L13.51 75.6404Z" fill="black"/>
<path d="M30.47 73.1107C29.76 73.1107 29.16 72.5007 29.16 71.8007V46.5707C29.16 45.8607 29.77 45.2607 30.47 45.2607C31.17 45.2607 31.78 45.8707 31.78 46.5707V71.8007C31.78 72.5107 31.17 73.1107 30.47 73.1107Z" fill="black"/>
<path d="M50.65 73.1102H10.28C9.57 73.1102 8.97 72.5002 8.97 71.8002C8.97 71.1002 9.58 70.4902 10.28 70.4902H50.65C51.36 70.4902 51.96 71.1002 51.96 71.8002C51.96 72.5002 51.35 73.1102 50.65 73.1102Z" fill="black"/>
</g>
<defs>
<clipPath id="clip0_5323_29822">
<rect width="61.01" height="78.16" fill="white"/>
</clipPath>
</defs>
</svg>
