<svg width="126" height="54" viewBox="0 0 126 54" fill="none" xmlns="http://www.w3.org/2000/svg">
<g clip-path="url(#clip0_5323_29853)">
<path d="M41.48 48.5298H21.28L14.52 27.9698L125.87 17.2998L124.87 19.6598C122 31.8398 113.07 42.3598 102.08 46.4798L99.72 47.3698H99.47L54.56 48.4898L54.49 45.4898L99.15 44.3798L101.04 43.6698C110.58 40.0898 118.45 31.2098 121.5 20.7298L18.55 30.5998L23.46 45.5298H41.49V48.5298H41.48Z" fill="black"/>
<path d="M102.84 20.97L102.83 12.79L124.86 12.84L125.95 17.34L123.03 18.04L122.5 15.84L105.83 15.8L105.84 20.96L102.84 20.97Z" fill="black"/>
<path d="M9.73 53.1899L8.99 40.9599L6.82 40.1099C3.43 38.7799 1.1 35.5699 0.880004 31.9399L0.0100043 17.5499C-0.109996 15.5799 0.550004 13.6799 1.85 12.2099C3.16 10.7299 4.96 9.85992 6.93 9.73992L17.51 9.09992C19.49 8.96992 21.38 9.63992 22.85 10.9399C24.33 12.2499 25.21 14.0499 25.32 16.0199L26.13 29.3799L23.14 29.5599L22.33 16.1999C22.26 15.0299 21.74 13.9599 20.86 13.1799C19.98 12.3999 18.85 12.0199 17.69 12.0899L7.11 12.7299C5.94 12.7999 4.87 13.3199 4.09 14.1999C3.31 15.0799 2.92 16.1999 2.99 17.3699L3.86 31.7599C4.01 34.2299 5.6 36.4199 7.9 37.3199L11.85 38.8699L12.7 53.0099L9.71 53.1899H9.73Z" fill="black"/>
<path d="M16.2732 0.00351522L13.2787 0.18457L14.7265 24.1308L17.7211 23.9498L16.2732 0.00351522Z" fill="black"/>
</g>
<defs>
<clipPath id="clip0_5323_29853">
<rect width="125.95" height="53.19" fill="white"/>
</clipPath>
</defs>
</svg>
