<svg width="104" height="114" viewBox="0 0 104 114" fill="none" xmlns="http://www.w3.org/2000/svg">
<g clip-path="url(#clip0_5323_29871)">
<path d="M34.33 77.1C32.85 70.68 32.1 64.09 32.1 57.49C32.1 24.79 50.03 2.37 50.79 1.43L51.95 0L53.11 1.43C53.65 2.1 66.44 18.05 70.56 42.67L67.6 43.16C64.33 23.63 55.2 9.44 51.95 4.88C47.96 10.49 35.1 30.65 35.1 57.49C35.1 63.86 35.82 70.23 37.25 76.42L34.33 77.09V77.1Z" fill="black"/>
<path d="M51.95 112.62L50.84 111.39C50.5 111.02 42.53 102.08 37.06 86.4998L39.89 85.5098C43.97 97.1098 49.59 105.01 51.95 108.02C55.87 103 68.8 84.3998 68.8 57.4998C68.8 56.1598 68.77 54.7998 68.7 53.4398L71.7 53.2998C71.77 54.6998 71.8 56.1098 71.8 57.4998C71.8 90.2498 53.83 110.54 53.06 111.39L51.95 112.62Z" fill="black"/>
<path d="M43.63 69.0002H40.63V62.0402C40.63 55.1002 45.82 49.4502 52.2 49.4502H52.4C55.19 49.4502 57.89 50.5502 60 52.5402L57.94 54.7202C56.4 53.2602 54.43 52.4502 52.41 52.4502H52.21C47.49 52.4502 43.64 56.7502 43.64 62.0402V69.0002H43.63Z" fill="black"/>
<path d="M52.4 80.5298H52.2C50.19 80.5298 48.22 79.9598 46.49 78.8898L48.07 76.3398C49.33 77.1198 50.75 77.5298 52.2 77.5298H52.4C57.12 77.5298 60.97 73.2298 60.97 67.9398V62.0498H63.97V67.9398C63.97 74.8798 58.78 80.5298 52.4 80.5298Z" fill="black"/>
<path d="M53.45 49.6299H50.45V45.6299H53.45V49.6299ZM53.45 41.6299H50.45V37.6299H53.45V41.6299ZM53.45 33.6299H50.45V29.6299H53.45V33.6299ZM53.45 25.6299H50.45V21.6299H53.45V25.6299ZM53.45 17.6299H50.45V13.6299H53.45V17.6299Z" fill="black"/>
<path d="M87.0469 29.2914L20.2465 96.0918L22.3678 98.2131L89.1682 31.4127L87.0469 29.2914Z" fill="black"/>
<path d="M84.1 42.0397L76.7 34.6397L92.16 12.2397C93.27 10.6397 95.01 9.71973 96.94 9.71973C99.65 9.71973 101.98 11.5497 102.62 14.1697L103.56 17.9997C104.67 22.5497 103.13 27.2397 99.55 30.2497L84.11 42.0397H84.1ZM80.58 34.2797L84.36 38.0597L97.66 27.8997C100.31 25.6697 101.47 22.1297 100.63 18.6997L99.69 14.8697C99.32 13.3797 98.04 12.7097 96.92 12.7097C96.37 12.7097 95.35 12.8697 94.61 13.9297L80.57 34.2697L80.58 34.2797Z" fill="black"/>
<path d="M11.18 113.62C10.21 113.62 9.22999 113.5 8.27999 113.27L4.44999 112.33C2.18999 111.78 0.519989 110.01 0.0999885 107.72C-0.320011 105.43 0.609989 103.19 2.51999 101.87L24.92 86.4102L32.32 93.8102L20.57 109.2C18.2 112.03 14.79 113.62 11.17 113.62H11.18ZM24.57 90.3002L4.22999 104.34C3.28999 104.99 2.84999 106.05 3.04999 107.18C3.25999 108.31 4.04999 109.14 5.15999 109.42L8.98999 110.36C9.70999 110.53 10.44 110.62 11.18 110.62C13.91 110.62 16.48 109.42 18.24 107.33L28.35 94.0802L24.57 90.3002Z" fill="black"/>
</g>
<defs>
<clipPath id="clip0_5323_29871">
<rect width="103.91" height="113.62" fill="white"/>
</clipPath>
</defs>
</svg>
