<svg width="84" height="116" viewBox="0 0 84 116" fill="none" xmlns="http://www.w3.org/2000/svg">
<g clip-path="url(#clip0_5323_29881)">
<path d="M13.5 115.72C11.76 115.72 10.08 115.21 8.63 114.24L7.88 113.74C2.95 110.45 0 104.95 0 99.02V42.03C0 29.79 2.99 17.59 8.65 6.74L12.17 0H14.83L18.35 6.75C24.01 17.6 27 29.8 27 42.03V99.03C27 104.96 24.05 110.46 19.12 113.75L18.37 114.25C16.92 115.21 15.24 115.73 13.5 115.73V115.72ZM13.5 3.94L11.31 8.14C5.87 18.55 3 30.27 3 42.03V99.03C3 103.95 5.45 108.52 9.54 111.25L10.29 111.75C12.2 113.02 14.8 113.02 16.7 111.75L17.45 111.25C21.55 108.52 23.99 103.95 23.99 99.03V42.03C23.99 30.28 21.12 18.56 15.68 8.13L13.49 3.93L13.5 3.94Z" fill="black"/>
<path d="M13.55 97.7198H13.44C9.67999 97.7198 6.62 94.6598 6.62 90.8998V73.3098L13.5 61.7998L20.38 73.3098V90.8998C20.38 94.6598 17.32 97.7198 13.56 97.7198H13.55ZM9.62 74.1298V90.8898C9.62 92.9998 11.33 94.7098 13.44 94.7098H13.55C15.66 94.7098 17.37 92.9998 17.37 90.8898V74.1298L13.49 67.6398L9.60999 74.1298H9.62Z" fill="black"/>
<path d="M15 32.0596H12V28.0596H15V32.0596ZM15 24.0596H12V20.0596H15V24.0596ZM15 16.0596H12V12.0596H15V16.0596Z" fill="black"/>
<path d="M69.71 115.72C67.97 115.72 66.29 115.21 64.84 114.24L64.09 113.74C59.16 110.45 56.21 104.95 56.21 99.0198V42.0298C56.21 29.7898 59.2 17.5898 64.86 6.74977L68.38 0.00976562H71.04L74.56 6.75977C80.22 17.6098 83.21 29.8098 83.21 42.0398V99.0398C83.21 104.97 80.26 110.47 75.33 113.76L74.58 114.26C73.13 115.22 71.45 115.74 69.71 115.74V115.72ZM69.71 3.92977L67.52 8.12977C62.08 18.5498 59.21 30.2698 59.21 42.0298V99.0298C59.21 103.95 61.66 108.52 65.75 111.25L66.5 111.75C68.41 113.02 71.01 113.02 72.91 111.75L73.66 111.25C77.76 108.52 80.2 103.95 80.2 99.0298V42.0298C80.2 30.2798 77.33 18.5498 71.89 8.12977L69.7 3.92977H69.71Z" fill="black"/>
<path d="M69.77 97.7198H69.66C65.9 97.7198 62.84 94.6598 62.84 90.8998V73.3098L69.72 61.7998L76.6 73.3098V90.8998C76.6 94.6598 73.54 97.7198 69.78 97.7198H69.77ZM65.84 74.1298V90.8898C65.84 92.9998 67.55 94.7098 69.66 94.7098H69.77C71.88 94.7098 73.59 92.9998 73.59 90.8898V74.1298L69.71 67.6398L65.83 74.1298H65.84Z" fill="black"/>
<path d="M71.21 32.0596H68.21V28.0596H71.21V32.0596ZM71.21 24.0596H68.21V20.0596H71.21V24.0596ZM71.21 16.0596H68.21V12.0596H71.21V16.0596Z" fill="black"/>
<path d="M64.33 72.2197H49.09V75.2197H64.33V72.2197Z" fill="black"/>
<path d="M49.09 75.2197H48.09V72.2197H49.09V75.2197ZM44.09 75.2197H40.09V72.2197H44.09V75.2197ZM36.09 75.2197H32.09V72.2197H36.09V75.2197Z" fill="black"/>
<path d="M32.1 72.2197H18.88V75.2197H32.1V72.2197Z" fill="black"/>
<path d="M81.71 94.7197H1.5V97.7197H81.71V94.7197Z" fill="black"/>
<path d="M81.71 49.2197H1.5V52.2197H81.71V49.2197Z" fill="black"/>
<path d="M15 55.9697H12V64.7197H15V55.9697Z" fill="black"/>
<path d="M71.21 55.9697H68.21V64.7197H71.21V55.9697Z" fill="black"/>
</g>
<defs>
<clipPath id="clip0_5323_29881">
<rect width="83.21" height="115.72" fill="white"/>
</clipPath>
</defs>
</svg>
