<svg width="126" height="73" viewBox="0 0 126 73" fill="none" xmlns="http://www.w3.org/2000/svg">
<g clip-path="url(#clip0_5323_29906)">
<path d="M41.48 67.8999H21.28L14.52 47.3399L125.87 36.6699L124.87 39.0299C122 51.2099 113.07 61.7299 102.08 65.8499L99.72 66.7399H99.47L54.56 67.8599L54.49 64.8599L99.15 63.7499L101.04 63.0399C110.58 59.4599 118.45 50.5799 121.5 40.0999L18.55 49.9799L23.46 64.9099H41.49V67.9099L41.48 67.8999Z" fill="black"/>
<path d="M41.81 44.7899L40.96 30.8099L48.01 30.3799L51.63 43.8999L48.73 44.6699L45.75 33.5199L44.14 33.6199L44.8 44.6099L41.81 44.7899Z" fill="black"/>
<path d="M68.0801 43.6603L67.1901 28.9803L71.6101 28.7103C78.6801 28.2803 85.4601 32.0103 88.8901 38.2003L90.3701 40.8703L87.7501 42.3303L86.2701 39.6503C83.3901 34.4603 77.7101 31.3403 71.7901 31.7003L70.3701 31.7903L71.0801 43.4803L68.0901 43.6603H68.0801Z" fill="black"/>
<path d="M102.84 40.3399L102.83 32.1699L124.86 32.2199L125.95 36.7099L123.03 37.4199L122.5 35.2199L105.83 35.1699L105.84 40.3399H102.84Z" fill="black"/>
<path d="M9.73 72.57L8.99 60.34L6.82 59.49C3.43 58.16 1.1 54.95 0.880004 51.32L0.0100043 36.92C-0.109996 34.95 0.550004 33.05 1.85 31.58C3.16 30.1 4.96 29.23 6.93 29.11L17.51 28.47C19.49 28.34 21.38 29.01 22.85 30.31C24.33 31.62 25.21 33.42 25.32 35.39L26.13 48.75L23.14 48.93L22.33 35.57C22.26 34.4 21.74 33.33 20.86 32.55C19.98 31.77 18.85 31.39 17.69 31.46L7.11 32.1C5.94 32.17 4.87 32.69 4.09 33.57C3.31 34.45 2.92 35.57 2.99 36.74L3.86 51.13C4.01 53.6 5.6 55.79 7.9 56.69L11.85 58.24L12.7 72.38L9.71 72.56L9.73 72.57Z" fill="black"/>
<path d="M16.2729 19.3785L13.2783 19.5596L14.7262 43.5058L17.7207 43.3248L16.2729 19.3785Z" fill="black"/>
<path d="M98.63 1.5V40.02" stroke="black" stroke-width="3" stroke-linecap="round" stroke-linejoin="round"/>
<path d="M76.96 42.39V9.6L98.63 1.5L61.01 3.17L41.78 11.32L76.96 9.6" fill="black"/>
<path d="M76.96 42.39V9.6L98.63 1.5L61.01 3.17L41.78 11.32L76.96 9.6" stroke="black" stroke-width="3" stroke-linecap="round" stroke-linejoin="round"/>
<path d="M41.78 11.3203V45.2803" stroke="black" stroke-width="3" stroke-linecap="round" stroke-linejoin="round"/>
<path d="M57.99 8.87012V43.0201" stroke="black" stroke-width="3" stroke-linecap="round" stroke-linejoin="round"/>
</g>
<defs>
<clipPath id="clip0_5323_29906">
<rect width="125.95" height="72.57" fill="white"/>
</clipPath>
</defs>
</svg>
