<svg width="112" height="40" viewBox="0 0 112 40" fill="none" xmlns="http://www.w3.org/2000/svg">
<g clip-path="url(#clip0_5323_29919)">
<path d="M26.96 39.23H6.76L0 18.67L111.35 8L110.35 10.36C107.48 22.54 98.55 33.06 87.56 37.18L85.2 38.07H84.95L40.04 39.19L39.97 36.19L84.63 35.08L86.52 34.37C96.06 30.79 103.93 21.91 106.98 11.43L4.02 21.3L8.93 36.23H26.96V39.23Z" fill="black"/>
<path d="M27.2799 16.11L26.4399 2.12996L33.4899 1.70996L37.1099 15.22L34.2099 16L31.2199 4.84996L29.6099 4.94996L30.2699 15.93L27.2799 16.11Z" fill="black"/>
<path d="M53.55 14.9797L52.66 0.299668L57.08 0.0296676C64.15 -0.400332 70.93 3.32967 74.36 9.51967L75.84 12.1897L73.22 13.6497L71.74 10.9697C68.86 5.77967 63.18 2.65967 57.26 3.01967L55.84 3.10967L56.55 14.7997L53.56 14.9797H53.55Z" fill="black"/>
<path d="M88.31 11.6702L88.3 3.49023L110.33 3.55023L111.42 8.04023L108.5 8.74023L107.97 6.54023L91.31 6.50023V11.6602L88.31 11.6702Z" fill="black"/>
</g>
<defs>
<clipPath id="clip0_5323_29919">
<rect width="111.42" height="39.23" fill="white"/>
</clipPath>
</defs>
</svg>
