<svg width="106" height="84" viewBox="0 0 106 84" fill="none" xmlns="http://www.w3.org/2000/svg">
<g clip-path="url(#clip0_5323_29895)">
<path d="M3.65 83.5902L0 63.5402L44.99 62.3902C48.7 62.3402 52.36 61.7402 55.88 60.6102L61.92 58.6802C71.83 55.5102 82.13 53.5202 92.51 52.7702L103.16 52.0002C104.06 51.9402 104.91 52.4102 105.33 53.2102C105.75 54.0102 105.64 54.9802 105.07 55.6802L103.44 57.6802C97.45 65.0002 93.08 73.3102 90.44 82.3902L87.56 81.5503C90.31 72.0802 94.88 63.4102 101.12 55.7802L101.66 55.1202L92.73 55.7602C82.58 56.4902 72.52 58.4402 62.83 61.5402L56.79 63.4702C52.99 64.6902 49.04 65.3302 45.04 65.3902L3.57 66.4502L6.59 83.0602L3.64 83.6002L3.65 83.5902Z" fill="black"/>
<path d="M58.0299 55.5901L57.45 52.6501L61.3699 51.8801L61.95 54.8201L58.0299 55.5901ZM65.8799 54.0401L65.3 51.1001L69.22 50.3301L69.8 53.2701L65.8799 54.0401Z" fill="black"/>
<path d="M49.96 59.4304L46.97 59.1904L47.92 47.3404L49.02 47.1104C49.31 47.0504 56.18 45.6304 65.49 44.9404C85.37 43.4804 93.14 47.9804 93.46 48.1704L93.75 48.4004L97.83 52.4804L95.71 54.6004L91.78 50.6704C90.7 50.1204 83.08 46.6504 65.7 47.9304C58.7 48.4404 53.02 49.4004 50.72 49.8304L49.95 59.4304H49.96Z" fill="black"/>
<path d="M50.74 49.0502L47.9 48.0902C47.92 48.0302 49.82 42.1902 48.66 32.3802L48.46 30.7002H71.37L79.46 45.4202L76.83 46.8702L69.59 33.7002H51.81C52.66 43.2302 50.82 48.8002 50.74 49.0502Z" fill="black"/>
<path d="M76.48 30.7002H45.15V33.7002H76.48V30.7002Z" fill="black"/>
<path d="M65.84 36.0709L62.8856 36.5918L64.7489 47.1588L67.7033 46.6378L65.84 36.0709Z" fill="black"/>
<path d="M57.6101 11.8798L55.59 8.42977L58.18 6.91977L60.2001 10.3698L57.6101 11.8798ZM53.57 4.96977L51.55 1.51977L54.14 0.00976562L56.16 3.45977L53.57 4.96977Z" fill="black"/>
<path d="M60.2138 10.3872L57.5846 11.832L67.1781 29.2897L69.8072 27.8449L60.2138 10.3872Z" fill="black"/>
<path d="M49.98 32.1205V29.9705C49.98 28.7305 50.98 27.7305 52.22 27.7305H54.49C55.73 27.7305 56.73 28.7305 56.73 29.9705V32.5405L49.98 32.1205Z" fill="black"/>
<path d="M44.12 78.7402H14.12V69.9902H20.87V72.9902H17.12V75.7402H44.12V78.7402Z" fill="black"/>
</g>
<defs>
<clipPath id="clip0_5323_29895">
<rect width="105.58" height="83.59" fill="white"/>
</clipPath>
</defs>
</svg>
