<svg width="113" height="47" viewBox="0 0 113 47" fill="none" xmlns="http://www.w3.org/2000/svg">
<g clip-path="url(#clip0_5323_29939)">
<path d="M86.64 46.1404H8.43L1.15 29.2604H0.5L0.29 27.9804C0.26 27.7804 0.26 27.5604 0.32 27.3304L0 26.5904L1.3 26.3404C1.4 26.2904 1.52 26.2504 1.64 26.2104L2.93 25.8104L3.01 25.9904C3.15 25.9604 3.3 25.9304 3.46 25.8904C35.55 19.0804 58.98 17.6504 72.99 17.6504C87.79 17.6504 100.52 19.1804 110.85 22.2004L112.13 22.5804L111.91 23.9004C109.98 35.2404 100.66 41.4304 95.27 44.1204C92.6 45.4504 89.62 46.1504 86.65 46.1504L86.64 46.1404ZM10.41 43.1404H86.64C89.15 43.1404 91.67 42.5504 93.92 41.4204C98.58 39.1004 106.49 33.9104 108.67 24.7004C98.86 22.0104 86.86 20.6504 72.98 20.6504C59.1 20.6504 35.98 22.0604 4.21 28.7904L10.4 43.1304L10.41 43.1404Z" fill="black"/>
<path d="M47.44 20.96L44.49 20.45L47.9 0.75L70.73 0L71.17 0.36C71.17 0.36 109.21 20.41 111.6 22.43L107.72 22.97C106.07 21.58 70.34 3.57 69.7 3.04L50.44 3.67L47.44 20.96Z" fill="black"/>
<path d="M28.89 32.8903L28.55 29.9103L28.96 29.8603C29.61 29.7803 30.84 29.6303 32.54 29.4403L32.87 32.4203C31.18 32.6103 29.97 32.7503 29.32 32.8303L28.89 32.8803V32.8903ZM96.19 32.5403C94.97 32.2803 93.67 32.0403 92.33 31.8303L92.8 28.8703C94.19 29.0903 95.54 29.3403 96.81 29.6103L96.19 32.5403ZM36.83 32.0103L36.53 29.0303C37.75 28.9103 39.09 28.7803 40.53 28.6503L40.8 31.6403C39.37 31.7703 38.04 31.8903 36.83 32.0103ZM44.77 31.3003L44.54 28.3103C45.83 28.2103 47.16 28.1103 48.55 28.0203L48.75 31.0103C47.38 31.1003 46.05 31.2003 44.77 31.3003ZM88.42 31.2803C87.13 31.1303 85.82 30.9903 84.49 30.8803L84.75 27.8903C86.11 28.0103 87.46 28.1403 88.78 28.3003L88.42 31.2803ZM52.72 30.7703L52.55 27.7703C53.86 27.7003 55.2 27.6303 56.57 27.5703L56.7 30.5703C55.35 30.6303 54.02 30.7003 52.72 30.7703ZM80.54 30.6003C79.23 30.5203 77.91 30.4603 76.58 30.4103L76.69 27.4103C78.04 27.4603 79.39 27.5203 80.72 27.6003L80.54 30.5903V30.6003ZM60.68 30.4203L60.58 27.4203C61.91 27.3803 63.25 27.3403 64.6 27.3203L64.65 30.3203C63.31 30.3403 61.99 30.3703 60.67 30.4203H60.68ZM72.61 30.3103C71.42 30.2903 70.23 30.2803 69.03 30.2803H68.63V27.2803H69.02C70.23 27.2803 71.44 27.2803 72.65 27.3103L72.6 30.3103H72.61Z" fill="black"/>
</g>
<defs>
<clipPath id="clip0_5323_29939">
<rect width="112.12" height="46.14" fill="white"/>
</clipPath>
</defs>
</svg>
