<svg width="113" height="47" viewBox="0 0 113 47" fill="none" xmlns="http://www.w3.org/2000/svg">
<g clip-path="url(#clip0_5323_29943)">
<path d="M86.64 46.1404H8.43L1.15 29.2604H0.5L0.29 27.9804C0.26 27.7804 0.26 27.5604 0.32 27.3304L0 26.5904L1.3 26.3404C1.4 26.2904 1.52 26.2504 1.64 26.2104L2.93 25.8104L3.01 25.9904C3.15 25.9604 3.3 25.9304 3.46 25.8904C35.55 19.0804 58.98 17.6504 72.99 17.6504C87.79 17.6504 100.52 19.1804 110.85 22.2004L112.13 22.5804L111.91 23.9004C109.98 35.2404 100.66 41.4304 95.27 44.1204C92.6 45.4504 89.62 46.1504 86.65 46.1504L86.64 46.1404ZM10.41 43.1404H86.64C89.15 43.1404 91.67 42.5504 93.92 41.4204C98.58 39.1004 106.49 33.9104 108.67 24.7004C98.86 22.0104 86.86 20.6504 72.98 20.6504C59.1 20.6504 35.98 22.0604 4.21 28.7904L10.4 43.1304L10.41 43.1404Z" fill="black"/>
<path d="M47.44 20.96L44.49 20.45L47.9 0.75L70.73 0L71.17 0.36C71.17 0.36 90.72 16.66 93.11 18.68L88.79 18.3C87.14 16.91 70.34 3.56 69.71 3.03L50.45 3.66L47.45 20.95L47.44 20.96Z" fill="black"/>
<path d="M96.19 32.5404C94.97 32.2804 93.67 32.0404 92.33 31.8304L92.8 28.8704C94.19 29.0904 95.54 29.3404 96.81 29.6104L96.19 32.5404ZM88.43 31.2804C87.14 31.1304 85.83 30.9904 84.5 30.8804L84.76 27.8904C86.12 28.0104 87.47 28.1404 88.79 28.3004L88.43 31.2804ZM80.55 30.5904C79.24 30.5104 77.92 30.4504 76.59 30.4004L76.7 27.4004C78.05 27.4504 79.4 27.5104 80.73 27.5904L80.55 30.5804V30.5904Z" fill="black"/>
</g>
<defs>
<clipPath id="clip0_5323_29943">
<rect width="112.12" height="46.14" fill="white"/>
</clipPath>
</defs>
</svg>
