<svg width="126" height="69" viewBox="0 0 126 69" fill="none" xmlns="http://www.w3.org/2000/svg">
<g clip-path="url(#clip0_5323_29947)">
<path d="M41.48 64.2202H21.28L14.52 43.6602L125.87 32.9902L124.87 35.3502C122 47.5302 113.07 58.0502 102.08 62.1702L99.72 63.0602H99.47L54.56 64.1802L54.49 61.1802L99.15 60.0702L101.04 59.3602C110.58 55.7802 118.45 46.9002 121.5 36.4202C92.12 39.2402 62.75 42.0502 33.37 44.8702L18.55 46.2902C20.19 51.2702 21.82 56.2402 23.46 61.2202H41.49V64.2202H41.48Z" fill="black"/>
<path d="M41.81 41.1004L40.96 27.1204L48.01 26.6904L51.63 40.2104L48.73 40.9804L45.75 29.8404L44.14 29.9304L44.8 40.9204L41.81 41.1004Z" fill="black"/>
<path d="M68.08 39.9699L67.19 25.2899L71.61 25.0199C78.68 24.5899 85.46 28.3199 88.89 34.5099L90.37 37.1799L87.75 38.6399L86.27 35.9599C83.39 30.7699 77.71 27.6499 71.79 28.0099L70.37 28.0999L71.08 39.7899L68.09 39.9699H68.08Z" fill="black"/>
<path d="M102.84 36.6505L102.83 28.4805L124.86 28.5305L125.95 33.0205L123.03 33.7305L122.5 31.5305L105.83 31.4805L105.84 36.6505H102.84Z" fill="black"/>
<path d="M9.73 68.8806L8.99 56.6506L6.82 55.8006C3.43 54.4706 1.1 51.2606 0.880004 47.6306L0.0100043 33.2306C-0.109996 31.2606 0.550004 29.3606 1.85 27.8906C3.16 26.4106 4.96 25.5406 6.93 25.4206L17.51 24.7806C19.49 24.6506 21.38 25.3206 22.85 26.6206C24.33 27.9306 25.21 29.7306 25.32 31.7006L26.13 45.0606L23.14 45.2406L22.33 31.8806C22.26 30.7106 21.74 29.6406 20.86 28.8606C19.98 28.0806 18.85 27.7006 17.69 27.7706L7.11 28.4106C5.94 28.4806 4.87 29.0006 4.09 29.8806C3.31 30.7606 2.92 31.8806 2.99 33.0506L3.86 47.4406C4.01 49.9106 5.6 52.1006 7.9 53.0006L11.85 54.5506L12.7 68.6906L9.71 68.8706L9.73 68.8806Z" fill="black"/>
<path d="M16.2801 15.6852L13.2856 15.8662L14.7335 39.8125L17.728 39.6314L16.2801 15.6852Z" fill="black"/>
<path d="M32.21 42.89H24.98V10.39C24.98 5.48 29.47 1.5 35.01 1.5H47.77L32.21 42.89Z" fill="white" stroke="black" stroke-width="3" stroke-linecap="round" stroke-linejoin="round"/>
</g>
<defs>
<clipPath id="clip0_5323_29947">
<rect width="125.95" height="68.88" fill="white"/>
</clipPath>
</defs>
</svg>
