<svg width="106" height="53" viewBox="0 0 106 53" fill="none" xmlns="http://www.w3.org/2000/svg">
<g clip-path="url(#clip0_5323_29956)">
<path d="M3.65 52.2702L0 32.2102L44.99 31.0602C48.7 31.0102 52.36 30.4102 55.88 29.2802L61.92 27.3502C71.83 24.1802 82.13 22.1902 92.51 21.4402L103.16 20.6702C104.06 20.6102 104.91 21.0802 105.33 21.8802C105.75 22.6802 105.64 23.6502 105.07 24.3502L103.44 26.3502C97.45 33.6702 93.08 41.9802 90.44 51.0602L87.56 50.2202C90.31 40.7502 94.88 32.0802 101.12 24.4502L101.66 23.7902L92.73 24.4302C82.58 25.1602 72.52 27.1102 62.83 30.2102L56.79 32.1402C52.99 33.3602 49.04 34.0002 45.04 34.0602L3.57 35.1202L6.59 51.7302L3.64 52.2702H3.65Z" fill="black"/>
<path d="M58.03 24.2698L57.45 21.3298L61.37 20.5598L61.95 23.4998L58.03 24.2698ZM65.88 22.7198L65.3 19.7798L69.22 19.0098L69.8 21.9498L65.88 22.7198Z" fill="black"/>
<path d="M32.18 32.3496L29.19 31.8996L30.14 2.30957L31.24 2.10957C31.53 2.05957 38.4 0.839567 47.71 0.239567C67.59 -1.02043 75.36 2.85957 75.68 3.01957L75.97 3.21957L80.05 6.73957L77.93 8.56957L74 5.18957C72.92 4.71957 65.3 1.72957 47.92 2.82957C40.92 3.26957 35.24 4.09957 32.94 4.46957L32.17 32.3596L32.18 32.3496Z" fill="black"/>
<path d="M44.12 47.4199H14.12V38.6699H20.87V41.6699H17.12V44.4199H44.12V47.4199Z" fill="black"/>
</g>
<defs>
<clipPath id="clip0_5323_29956">
<rect width="105.58" height="52.27" fill="white"/>
</clipPath>
</defs>
</svg>
