<svg width="126" height="66" viewBox="0 0 126 66" fill="none" xmlns="http://www.w3.org/2000/svg">
<g clip-path="url(#clip0_5323_29984)">
<path d="M41.48 60.4097H21.28L14.52 39.8497L125.87 29.1797L124.87 31.5397C122 43.7197 113.07 54.2397 102.08 58.3597L99.72 59.2497H99.47L54.56 60.3697L54.49 57.3697L99.15 56.2597L101.04 55.5497C110.58 51.9697 118.45 43.0897 121.5 32.6097L18.55 42.4797L23.46 57.4097H41.49V60.4097H41.48Z" fill="black"/>
<path d="M102.84 32.8499L102.83 24.6699L124.86 24.7199L125.95 29.2199L123.03 29.9199L122.5 27.7199L105.83 27.6799L105.84 32.8399L102.84 32.8499Z" fill="black"/>
<path d="M9.73 65.0698L8.99 52.8398L6.82 51.9898C3.43 50.6598 1.1 47.4498 0.880004 43.8198L0.0100043 29.4298C-0.109996 27.4598 0.550004 25.5598 1.85 24.0898C3.16 22.6098 4.96 21.7398 6.93 21.6198L17.51 20.9798C19.49 20.8498 21.38 21.5198 22.85 22.8198C24.33 24.1298 25.21 25.9298 25.32 27.8998L26.13 41.2598L23.14 41.4398L22.33 28.0798C22.26 26.9098 21.74 25.8398 20.86 25.0598C19.98 24.2798 18.85 23.8998 17.69 23.9698L7.11 24.6098C5.94 24.6798 4.87 25.1998 4.09 26.0798C3.31 26.9598 2.92 28.0798 2.99 29.2498L3.86 43.6398C4.01 46.1098 5.6 48.2998 7.9 49.1998L11.85 50.7498L12.7 64.8898L9.71 65.0698H9.73Z" fill="black"/>
<path d="M16.94 41.1801L15.5 10.8101L18.49 10.5801L19.94 40.9501L16.94 41.1801Z" fill="black"/>
<path d="M16.3 11.9396L33.0401 2.55957V40.4296" stroke="black" stroke-width="3" stroke-miterlimit="10"/>
</g>
<defs>
<clipPath id="clip0_5323_29984">
<rect width="125.95" height="65.07" fill="white"/>
</clipPath>
</defs>
</svg>
