<svg width="106" height="86" viewBox="0 0 106 86" fill="none" xmlns="http://www.w3.org/2000/svg">
<g clip-path="url(#clip0_5323_29998)">
<path d="M3.65 85.5805L0 65.5305L44.99 64.3805C48.7 64.3305 52.36 63.7305 55.88 62.6005L61.92 60.6705C71.83 57.5005 82.13 55.5105 92.51 54.7605L103.16 53.9905C104.06 53.9305 104.91 54.4005 105.33 55.2005C105.75 56.0005 105.64 56.9705 105.07 57.6705L103.44 59.6705C97.45 66.9905 93.08 75.3005 90.44 84.3805L87.56 83.5405C90.31 74.0705 94.88 65.4005 101.12 57.7705L101.66 57.1105L92.73 57.7505C82.58 58.4805 72.52 60.4305 62.83 63.5305L56.79 65.4605C52.99 66.6805 49.04 67.3205 45.04 67.3805L3.57 68.4405L6.59 85.0505L3.64 85.5905L3.65 85.5805Z" fill="black"/>
<path d="M39.32 55.5901L38.74 52.6501L42.66 51.8801L43.24 54.8201L39.32 55.5901ZM47.17 54.0401L46.59 51.1001L50.51 50.3301L51.09 53.2701L47.17 54.0401Z" fill="black"/>
<path d="M31.26 59.4304L28.27 59.1904L29.22 47.3404L30.32 47.1104C30.61 47.0504 37.48 45.6304 46.79 44.9404C66.67 43.4804 74.44 47.9804 74.76 48.1704L75.05 48.4004L79.13 52.4804L77.01 54.6004L73.08 50.6704C72 50.1204 64.38 46.6504 47 47.9304C40 48.4404 34.32 49.4004 32.02 49.8304L31.25 59.4304H31.26Z" fill="black"/>
<path d="M32.04 49.0502L29.2 48.0902C29.22 48.0302 31.1199 42.1902 29.9599 32.3802L29.76 30.7002H52.6699L60.7599 45.4202L58.13 46.8702L50.8899 33.7002H33.11C33.96 43.2302 32.12 48.8002 32.04 49.0502Z" fill="black"/>
<path d="M57.7799 30.7002H26.45V33.7002H57.7799V30.7002Z" fill="black"/>
<path d="M47.1341 36.0689L44.1797 36.5898L46.0429 47.1568L48.9974 46.6359L47.1341 36.0689Z" fill="black"/>
<path d="M38.9 11.8798L36.88 8.42977L39.47 6.91977L41.49 10.3698L38.9 11.8798ZM34.86 4.96977L32.84 1.51977L35.43 0.00976562L37.45 3.45977L34.86 4.96977Z" fill="black"/>
<path d="M41.5065 10.398L38.8773 11.8428L48.4708 29.3005L51.1 27.8557L41.5065 10.398Z" fill="black"/>
<path d="M31.28 32.1205V29.9705C31.28 28.7305 32.28 27.7305 33.52 27.7305H35.79C37.03 27.7305 38.03 28.7305 38.03 29.9705V32.5405L31.28 32.1205Z" fill="black"/>
<path d="M44.12 80.7305H14.12V71.9805H20.87V74.9805H17.12V77.7305H44.12V80.7305Z" fill="black"/>
</g>
<defs>
<clipPath id="clip0_5323_29998">
<rect width="105.58" height="85.58" fill="white"/>
</clipPath>
</defs>
</svg>
