<svg width="76" height="89" viewBox="0 0 76 89" fill="none" xmlns="http://www.w3.org/2000/svg">
<g clip-path="url(#clip0_5323_30009)">
<path d="M16.0179 89C15.1099 89 14.2019 88.7439 13.3948 88.2239L11.0356 86.6949C8.22623 84.8787 6.54993 81.7974 6.54993 78.4523V31.325C6.54993 14.0481 20.6045 0 37.8719 0H38.485C55.7524 0 69.8069 14.0481 69.8069 31.325V78.7938C69.8069 81.8983 68.3169 84.8476 65.818 86.6949L64.0873 87.9677C62.411 89.2018 60.1449 89.2251 58.4454 88.0298L56.5518 86.6949C53.9442 84.8632 52.3843 81.8595 52.3843 78.6696V32.5436H54.7125V78.6696C54.7125 81.0989 55.8999 83.3885 57.8866 84.7856L59.7802 86.1205C60.6571 86.7414 61.829 86.7259 62.6982 86.0895L64.4288 84.8166C66.3379 83.4118 67.471 81.161 67.471 78.7938V31.325C67.471 15.3365 54.4642 2.32842 38.4772 2.32842H37.8641C21.885 2.32842 8.87812 15.3365 8.87812 31.325V78.4523C8.87812 81.0058 10.1586 83.3497 12.3006 84.739L14.6598 86.268C15.529 86.8268 16.631 86.8035 17.4692 86.2059L19.4326 84.8088C21.396 83.404 22.5679 81.1299 22.5679 78.7161V32.5436H24.8961V78.7084C24.8961 81.8673 23.3595 84.8554 20.7907 86.6949L18.8273 88.0919C17.9814 88.6973 17.0035 89 16.0257 89H16.0179Z" fill="black"/>
<path d="M24.8884 32.544H22.5602C22.5602 31.4264 22.6766 30.3087 22.9094 29.2221L25.191 29.7033C24.997 30.6269 24.8961 31.5816 24.8961 32.544H24.8884ZM52.3843 32.4276C52.3766 31.4729 52.2679 30.5183 52.0662 29.5947L54.34 29.0902C54.5806 30.1768 54.7048 31.2866 54.7125 32.412L52.3843 32.4353V32.4276ZM26.068 26.9946L23.9416 26.0399C24.3995 25.0232 24.966 24.053 25.6179 23.1527L27.496 24.5265C26.9372 25.2948 26.4483 26.1253 26.0602 26.9946H26.068ZM51.1504 26.8859C50.7546 26.0244 50.2657 25.1939 49.6992 24.4333L51.5695 23.044C52.2369 23.9366 52.8112 24.9068 53.2691 25.9158L51.1504 26.8859ZM29.4206 22.4076L27.8685 20.6768C28.6989 19.9317 29.6068 19.272 30.5769 18.7209L31.7333 20.7389C30.9106 21.2123 30.1268 21.7789 29.4206 22.4076ZM47.7668 22.33C47.0528 21.7013 46.269 21.1425 45.4386 20.6768L46.5794 18.6433C47.5495 19.1866 48.4652 19.8386 49.3034 20.5759L47.7668 22.3222V22.33ZM34.3486 19.5825L33.6424 17.3627C34.6978 17.0212 35.7998 16.7961 36.9174 16.6874L37.1502 19.0081C36.1956 19.1012 35.2566 19.2953 34.3564 19.5825H34.3486ZM42.8232 19.5514C41.9152 19.272 40.9762 19.0857 40.0216 19.0003L40.2312 16.6797C41.3409 16.7806 42.443 16.9979 43.5139 17.3239L42.8232 19.5514Z" fill="black"/>
<path d="M48.9231 75.2158H27.4338V77.5442H48.9231V75.2158Z" fill="black"/>
<path d="M53.5484 60.399H23.7243C23.0801 60.399 22.5602 59.879 22.5602 59.2348V51.7062C22.5602 51.062 23.0801 50.542 23.7243 50.542H30.9727V52.8704H24.8884V58.0705H52.3843V52.8704H45.8499V50.542H53.5484C54.1926 50.542 54.7125 51.062 54.7125 51.7062V59.2348C54.7125 59.879 54.1926 60.399 53.5484 60.399Z" fill="black"/>
<path d="M45.8499 52.8704H43.3898V50.542H45.8499V52.8704ZM40.2856 52.8704H37.1813V50.542H40.2856V52.8704ZM34.077 52.8704H30.9728V50.542H34.077V52.8704Z" fill="black"/>
<path d="M7.36489 51.7373H1.15637V54.0657H7.36489V51.7373Z" fill="black"/>
<path d="M7.36489 31.2939H1.15637V33.6224H7.36489V31.2939Z" fill="black"/>
<path d="M7.36489 72.1729H1.15637V74.5013H7.36489V72.1729Z" fill="black"/>
<path d="M1.59093 53.3127L1.54437 53.1652C0.954556 51.2171 0.527721 49.1914 0.27162 47.1579C-0.349232 42.1285 0.0776035 37.1224 1.54437 32.2715L1.58317 32.1318L3.81823 32.7993L3.77167 32.9468C2.39804 37.4872 1.99448 42.1751 2.57653 46.8785C2.80935 48.78 3.2129 50.6738 3.76391 52.5055L3.81047 52.653L1.57541 53.3205L1.59093 53.3127Z" fill="black"/>
<path d="M1.59091 73.7492L1.54434 73.6018C-0.519989 66.7717 -0.519989 59.5459 1.54434 52.7081L1.58315 52.5684L3.81821 53.2358L3.77165 53.3833C1.83149 59.7787 1.83149 66.5466 3.77165 72.9343L3.81821 73.0817L1.58315 73.7492H1.59091Z" fill="black"/>
<path d="M74.8436 51.8145H68.6351V54.1429H74.8436V51.8145Z" fill="black"/>
<path d="M74.8436 72.25H68.6351V74.5784H74.8436V72.25Z" fill="black"/>
<path d="M74.8436 31.3789H68.6351V33.7073H74.8436V31.3789Z" fill="black"/>
<path d="M74.4091 73.756L72.1818 73.0807L72.2283 72.9333C73.602 68.4006 73.9978 63.7127 73.4157 59.0093C73.1829 57.1155 72.7793 55.2217 72.2283 53.3823L72.1818 53.2348L74.4091 52.5596L74.4556 52.707C75.0454 54.6707 75.48 56.6886 75.7284 58.7221C76.3492 63.7515 75.9224 68.7576 74.4556 73.6085L74.4091 73.756Z" fill="black"/>
<path d="M74.4091 53.3204L72.1818 52.6452L72.2283 52.4977C74.1607 46.1023 74.1607 39.3421 72.2283 32.9467L72.1818 32.7993L74.4091 32.124L74.4556 32.2715C76.5277 39.1093 76.5277 46.3352 74.4556 53.1729L74.4091 53.3204Z" fill="black"/>
</g>
<defs>
<clipPath id="clip0_5323_30009">
<rect width="76" height="89" fill="white"/>
</clipPath>
</defs>
</svg>
