<svg width="112" height="47" viewBox="0 0 112 47" fill="none" xmlns="http://www.w3.org/2000/svg">
<g clip-path="url(#clip0_5323_30029)">
<path d="M26.96 46.2202H6.76L0 25.6702L111.35 14.9902L110.35 17.3502C107.48 29.5302 98.55 40.0502 87.56 44.1702L85.2 45.0602H84.95L40.04 46.1802L39.97 43.1802L84.63 42.0702L86.52 41.3602C96.06 37.7802 103.93 28.9002 106.98 18.4202L4.02 28.2902L8.93 43.2202H26.96V46.2202Z" fill="black"/>
<path d="M27.2799 23.1102L26.4399 9.1302L33.4899 8.7002L37.1099 22.2102L34.2099 22.9902L31.2199 11.8402L29.6099 11.9402L30.2699 22.9302L27.2799 23.1102Z" fill="black"/>
<path d="M50.22 21.15L49.37 7.17L56.43 6.75L60.04 20.26L57.15 21.04L54.16 9.89L52.55 9.99L53.21 20.97L50.22 21.15Z" fill="black"/>
<path d="M108.96 16.4599C106.14 12.7899 101.53 8.87988 94.7499 6.15988C87.1199 3.09988 80.2899 2.00988 75.4399 1.62988V19.7299" stroke="black" stroke-width="3" stroke-miterlimit="10"/>
</g>
<defs>
<clipPath id="clip0_5323_30029">
<rect width="111.35" height="46.22" fill="white"/>
</clipPath>
</defs>
</svg>
