<svg width="106" height="106" viewBox="0 0 106 106" fill="none" xmlns="http://www.w3.org/2000/svg">
<g clip-path="url(#clip0_5323_30039)">
<path d="M18.1866 20.9148L16.0653 23.0361L82.8657 89.8365L84.987 87.7152L18.1866 20.9148Z" fill="black"/>
<path d="M93.4 104.58C89.78 104.58 86.37 102.99 84.05 100.22L72.26 84.7799L79.66 77.3799L102.06 92.8399C103.98 94.1599 104.9 96.4099 104.48 98.6899C104.06 100.98 102.39 102.74 100.13 103.3L96.3 104.24C95.35 104.47 94.37 104.59 93.4 104.59V104.58ZM76.23 85.0399L86.39 98.3399C88.1 100.38 90.67 101.58 93.4 101.58C94.14 101.58 94.87 101.49 95.59 101.32L99.42 100.38C100.53 100.11 101.32 99.2699 101.53 98.1399C101.74 97.0099 101.3 95.9499 100.36 95.2999L80.02 81.2599L76.24 85.0399H76.23Z" fill="black"/>
<path d="M20.47 32.9997L5.08 21.2497C1.44 18.1997 -0.0999972 13.4997 1.02 8.94969L1.96 5.11969C2.59 2.50969 4.93 0.679688 7.63 0.679688C9.56 0.679688 11.3 1.59969 12.41 3.19969L27.87 25.5997L20.47 32.9997ZM7.63 3.67969C6.51 3.67969 5.22 4.34969 4.86 5.83969L3.92 9.66969C3.08 13.0997 4.24 16.6397 6.95 18.9097L20.2 29.0197L23.98 25.2397L9.94 4.89969C9.2 3.82969 8.18 3.67969 7.63 3.67969Z" fill="black"/>
<path d="M88.19 22.9202C86.62 22.9202 85.15 22.3102 84.05 21.2002C82.94 20.0902 82.33 18.6202 82.33 17.0602C82.33 15.5002 82.94 14.0202 84.05 12.9202C85.16 11.8102 86.63 11.2002 88.19 11.2002C89.75 11.2002 91.23 11.8102 92.34 12.9202C93.45 14.0302 94.06 15.5002 94.06 17.0602C94.06 18.6202 93.45 20.1002 92.34 21.2002C91.23 22.3102 89.76 22.9202 88.19 22.9202ZM88.19 14.2002C87.43 14.2002 86.71 14.5002 86.17 15.0402C85.63 15.5802 85.33 16.3002 85.33 17.0602C85.33 17.8202 85.63 18.5402 86.17 19.0802C87.25 20.1602 89.14 20.1602 90.22 19.0802C90.76 18.5402 91.06 17.8202 91.06 17.0602C91.06 16.3002 90.76 15.5802 90.22 15.0402C89.68 14.5002 88.96 14.2002 88.2 14.2002H88.19Z" fill="black"/>
<path d="M95.6164 7.51005L90.2212 12.9053L92.3425 15.0266L97.7377 9.63137L95.6164 7.51005Z" fill="black"/>
<path d="M78.17 37.5197L75.91 18.7597L76.96 17.1497L83.42 15.1797L84.29 18.0497L79.04 19.6497L81.14 37.1597L78.17 37.5197Z" fill="black"/>
<path d="M86.48 29.34L67.73 27.08L68.09 24.11L85.6 26.21L87.2 20.96L90.07 21.83L88.1 28.29L86.48 29.34Z" fill="black"/>
<path d="M5.78 105.25L4.26 104.88L0.37 100.99L0 99.4704L2.88 90.4604C3.29 87.9203 3.93 85.4204 4.78 83.0104C5.63 80.6004 6.7 78.2504 7.96 76.0404C9.8 72.8204 12.06 69.8603 14.68 67.2403L35.08 46.8604L37.2 48.9804L16.8 69.3604C14.37 71.7904 12.28 74.5303 10.57 77.5203C9.4 79.5703 8.4 81.7503 7.61 83.9903C6.81 86.2703 6.21 88.6303 5.82 91.0303L5.77 91.2504L3.14 99.5004L5.74 102.1L14.21 99.4203C19.4 98.5903 24.26 96.8104 28.67 94.1204C31.29 92.5204 33.73 90.6104 35.9 88.4404L56.3 68.0603L58.42 70.1804L38.02 90.5603C35.68 92.9003 33.06 94.9504 30.23 96.6804C25.52 99.5504 20.33 101.46 14.8 102.36L5.79 105.24L5.78 105.25Z" fill="black"/>
<path d="M65.31 63.09L63.2 60.96L86.57 37.78C91.31 33.04 94.81 27.09 96.71 20.56L101.62 3.65L84.71 8.56C78.18 10.45 72.22 13.96 67.49 18.7L44.12 41.89L42.01 39.76L65.38 16.58C70.47 11.49 76.87 7.72 83.89 5.68L103.39 0L105.25 1.86L99.58 21.39C97.54 28.4 93.78 34.8 88.68 39.9L65.31 63.09Z" fill="black"/>
<path d="M60.21 58.2599L58.11 56.1199L66.76 47.6499C69.24 45.1699 69.24 41.1099 66.75 38.6199L66.64 38.5099C65.43 37.2999 63.82 36.6299 62.11 36.6299C60.4 36.6299 58.8 37.2999 57.59 38.4999L48.93 46.9799L46.83 44.8399L55.48 36.3699C57.24 34.6099 59.6 33.6299 62.11 33.6299C64.62 33.6299 66.98 34.6099 68.75 36.3799L68.86 36.4899C72.53 40.1599 72.53 46.1199 68.86 49.7799L60.2 58.2599H60.21Z" fill="black"/>
<path d="M24.94 89.8102C22.53 89.8102 20.13 88.9002 18.3 87.0602L18.19 86.9502C14.53 83.2902 14.53 77.3302 18.19 73.6602L39.91 51.9502L42.03 54.0702L20.31 75.7802C17.82 78.2702 17.82 82.3302 20.31 84.8202L20.42 84.9302C22.92 87.4202 26.97 87.4202 29.46 84.9302L51.18 63.2202L53.3 65.3402L31.58 87.0502C29.75 88.8802 27.34 89.8002 24.94 89.8002V89.8102Z" fill="black"/>
</g>
<defs>
<clipPath id="clip0_5323_30039">
<rect width="105.25" height="105.25" fill="white"/>
</clipPath>
</defs>
</svg>
