<svg width="663" height="561" viewBox="0 0 663 561" fill="none" xmlns="http://www.w3.org/2000/svg">
<path fill-rule="evenodd" clip-rule="evenodd" d="M0 119.82C0 53.6644 54.1392 0 120.45 0C181.654 0 232.456 45.6877 239.922 104.764H240.9V119.82C240.9 151.628 228.456 181.59 205.95 204.172C205.665 204.478 205.389 204.75 205.132 204.987L192.101 217.944C187.899 222.123 182.34 224.292 176.72 224.292C171.101 224.292 165.542 222.123 161.339 217.944C152.802 209.455 152.802 195.638 161.339 187.149L174.289 174.272C174.559 173.983 174.821 173.726 175.066 173.499C189.449 159.059 197.298 140.084 197.298 119.853C197.298 77.8392 162.852 43.4915 120.416 43.4915C77.9877 43.4915 43.5677 77.8321 43.5677 119.853C43.5677 139.589 51.1328 158.268 64.9387 172.605C65.5118 173.164 65.9627 173.683 66.292 174.089L135.763 243.133L135.798 243.169C144.207 251.638 144.305 265.403 135.73 273.929C131.528 278.108 125.969 280.277 120.349 280.277C114.73 280.277 109.171 278.108 104.968 273.929L34.0349 203.397C33.2564 202.623 32.614 201.854 32.1074 201.188C11.4378 178.996 0 150.184 0 119.82ZM184.573 182.963L178.641 171.031C178.612 171.045 178.584 171.06 178.555 171.074L178.598 171.052L178.63 171.036L178.635 171.034C178.638 171.033 178.641 171.031 184.573 182.963ZM185.285 184.446H185.31C185.302 184.446 185.294 184.446 185.285 184.446Z" fill="url(#paint0_linear_808_6438)" fill-opacity="0.2"/>
<path fill-rule="evenodd" clip-rule="evenodd" d="M278.899 160.457C278.899 226.613 333.039 280.277 399.349 280.277C460.554 280.277 511.356 234.59 518.821 175.514H519.799V160.457C519.799 128.65 507.356 98.6871 484.849 76.1056C484.564 75.7992 484.288 75.5277 484.031 75.2904L471 62.3333C466.798 58.1548 461.239 55.9851 455.619 55.9851C450 55.9851 444.441 58.1548 440.239 62.3333C431.701 70.8224 431.701 84.6394 440.239 93.1285L453.189 106.005C453.459 106.294 453.721 106.552 453.965 106.779C468.348 121.219 476.198 140.193 476.198 160.424C476.198 202.438 441.751 236.786 399.316 236.786C356.887 236.786 322.467 202.445 322.467 160.424C322.467 140.689 330.032 122.01 343.838 107.672C344.411 107.114 344.862 106.595 345.191 106.189L414.662 37.1441L414.697 37.1088C423.107 28.6396 423.204 14.8745 414.629 6.34818C410.427 2.16965 404.868 0 399.249 0C393.629 0 388.07 2.16962 383.868 6.34818L312.934 76.8801C312.156 77.6541 311.513 78.4236 311.007 79.0894C290.337 101.282 278.899 130.093 278.899 160.457ZM463.472 97.3141L457.54 109.246C457.512 109.232 457.483 109.218 457.454 109.203L457.498 109.225L457.53 109.241L457.535 109.244C457.537 109.245 457.54 109.246 463.472 97.3141ZM464.185 95.831H464.21C464.201 95.831 464.193 95.831 464.185 95.831Z" fill="url(#paint1_linear_808_6438)" fill-opacity="0.2"/>
<path fill-rule="evenodd" clip-rule="evenodd" d="M136.057 440.065C136.057 506.086 190.24 559.562 256.506 559.562C317.659 559.562 368.488 514.051 375.973 455.121H376.956V440.065C376.956 408.328 364.502 378.441 341.99 355.924C341.705 355.619 341.428 355.348 341.171 355.111L328.141 342.194C323.935 338.025 318.382 335.869 312.777 335.869C307.172 335.869 301.618 338.025 297.412 342.194C288.853 350.679 288.853 364.508 297.412 372.993L310.362 385.83C310.632 386.118 310.894 386.375 311.139 386.601C325.517 400.992 333.355 419.891 333.355 440.032C333.355 481.846 298.953 516.111 256.473 516.111C214 516.111 179.624 481.854 179.624 440.032C179.624 420.384 187.178 401.78 200.979 387.492C201.552 386.935 202.003 386.417 202.333 386.012L271.803 317.182L271.838 317.146C280.269 308.681 280.367 294.904 271.77 286.382C267.564 282.213 262.011 280.056 256.406 280.056C250.801 280.056 245.247 282.213 241.041 286.382L170.108 356.696C169.329 357.468 168.686 358.236 168.179 358.901C147.504 381.03 136.057 409.769 136.057 440.065ZM320.622 377.142L314.714 389.062C314.712 389.061 314.71 389.06 314.709 389.059M320.622 377.142C314.714 389.062 314.711 389.06 314.709 389.059ZM321.4 375.638C321.4 375.638 321.399 375.638 321.4 375.638Z" fill="url(#paint2_linear_808_6438)" fill-opacity="0.2"/>
<path fill-rule="evenodd" clip-rule="evenodd" d="M662.855 399.877C662.855 333.721 608.716 280.057 542.406 280.057C481.201 280.057 430.399 325.744 422.934 384.82H421.956V399.877C421.956 431.684 434.399 461.647 456.906 484.228C457.191 484.535 457.467 484.806 457.724 485.044L470.755 498.001C474.957 502.179 480.516 504.349 486.135 504.349C491.755 504.349 497.314 502.179 501.516 498.001C510.054 489.512 510.054 475.695 501.516 467.206L488.566 454.329C488.296 454.04 488.034 453.782 487.79 453.555C473.406 439.115 465.557 420.141 465.557 399.91C465.557 357.896 500.004 323.548 542.439 323.548C584.868 323.548 619.288 357.889 619.288 399.91C619.288 419.645 611.723 438.324 597.917 452.661C597.344 453.22 596.893 453.739 596.563 454.145L527.093 523.19L527.058 523.225C518.648 531.694 518.551 545.46 527.126 553.986C531.328 558.164 536.887 560.334 542.506 560.334C548.126 560.334 553.685 558.164 557.887 553.986L628.821 483.454C629.599 482.68 630.241 481.91 630.748 481.245C651.418 459.052 662.855 430.241 662.855 399.877ZM478.283 463.02L484.215 451.088C484.243 451.102 484.272 451.116 484.3 451.131L484.257 451.109L484.225 451.093L484.22 451.09C484.217 451.089 484.215 451.088 478.283 463.02ZM477.57 464.503H477.545C477.554 464.503 477.562 464.503 477.57 464.503Z" fill="url(#paint3_linear_808_6438)" fill-opacity="0.2"/>
<defs>
<linearGradient id="paint0_linear_808_6438" x1="120.45" y1="-117.942" x2="120.45" y2="265.222" gradientUnits="userSpaceOnUse">
<stop offset="0.296875" stop-color="#2BADEE"/>
<stop offset="1" stop-color="#203291"/>
</linearGradient>
<linearGradient id="paint1_linear_808_6438" x1="399.35" y1="398.22" x2="399.35" y2="15.0558" gradientUnits="userSpaceOnUse">
<stop offset="0.296875" stop-color="#2BADEE"/>
<stop offset="1" stop-color="#203291"/>
</linearGradient>
<linearGradient id="paint2_linear_808_6438" x1="256.507" y1="677.093" x2="256.507" y2="295.112" gradientUnits="userSpaceOnUse">
<stop offset="0.296875" stop-color="#2BADEE"/>
<stop offset="1" stop-color="#203291"/>
</linearGradient>
<linearGradient id="paint3_linear_808_6438" x1="542.405" y1="162.114" x2="542.405" y2="545.278" gradientUnits="userSpaceOnUse">
<stop offset="0.296875" stop-color="#2BADEE"/>
<stop offset="1" stop-color="#203291"/>
</linearGradient>
</defs>
</svg>
