<svg width="113" height="65" viewBox="0 0 113 65" fill="none" xmlns="http://www.w3.org/2000/svg">
<g clip-path="url(#clip0_5323_30056)">
<path d="M86.64 64.6602H8.43L1.15 47.7702H0.5L0.29 46.4902C0.26 46.2902 0.26 46.0702 0.32 45.8402L0 45.1002L1.3 44.8502C1.4 44.8002 1.52 44.7602 1.64 44.7202L2.93 44.3202L3.01 44.5002C3.15 44.4702 3.3 44.4402 3.46 44.4002C35.55 37.5902 58.98 36.1602 72.99 36.1602C87.79 36.1602 100.52 37.6902 110.85 40.7102L112.13 41.0902L111.91 42.4102C109.98 53.7502 100.66 59.9402 95.27 62.6302C92.6 63.9602 89.62 64.6602 86.65 64.6602H86.64ZM10.41 61.6602H86.64C89.15 61.6602 91.67 61.0702 93.92 59.9402C98.58 57.6202 106.49 52.4302 108.67 43.2202C98.86 40.5302 86.86 39.1702 72.98 39.1702C59.1 39.1702 35.98 40.5802 4.21 47.3102L10.4 61.6502L10.41 61.6602Z" fill="black"/>
<path d="M28.89 51.4098L28.55 48.4298L28.96 48.3798C29.61 48.2998 30.84 48.1498 32.54 47.9598L32.87 50.9398C31.18 51.1298 29.97 51.2698 29.32 51.3498L28.89 51.3998V51.4098ZM96.19 51.0598C94.97 50.7998 93.67 50.5598 92.33 50.3498L92.8 47.3898C94.19 47.6098 95.54 47.8598 96.81 48.1298L96.19 51.0598ZM36.83 50.5298L36.53 47.5498C37.75 47.4298 39.09 47.2998 40.53 47.1698L40.8 50.1598C39.37 50.2898 38.04 50.4098 36.83 50.5298ZM44.77 49.8198L44.54 46.8298C45.83 46.7298 47.16 46.6298 48.55 46.5398L48.75 49.5298C47.38 49.6198 46.05 49.7198 44.77 49.8198ZM88.42 49.7998C87.13 49.6498 85.82 49.5098 84.49 49.3998L84.75 46.4098C86.11 46.5298 87.46 46.6598 88.78 46.8198L88.42 49.7998ZM52.72 49.2898L52.55 46.2898C53.86 46.2198 55.2 46.1498 56.57 46.0898L56.7 49.0898C55.35 49.1498 54.02 49.2198 52.72 49.2898ZM80.54 49.1198C79.23 49.0398 77.91 48.9798 76.58 48.9298L76.69 45.9298C78.04 45.9798 79.39 46.0398 80.72 46.1198L80.54 49.1098V49.1198ZM60.68 48.9398L60.58 45.9398C61.91 45.8998 63.25 45.8598 64.6 45.8398L64.65 48.8398C63.31 48.8598 61.99 48.8898 60.67 48.9398H60.68ZM72.61 48.8298C71.42 48.8098 70.23 48.7998 69.03 48.7998H68.63V45.7998H69.02C70.23 45.7998 71.44 45.7998 72.65 45.8298L72.6 48.8298H72.61Z" fill="black"/>
<path d="M38.41 17.49L42.33 1.5H68.85L72.66 9.49" stroke="black" stroke-width="3" stroke-miterlimit="10"/>
<path d="M26.19 40.8602L33.12 17.4902H79.91L86.64 29.1802" stroke="black" stroke-width="3" stroke-miterlimit="10"/>
</g>
<defs>
<clipPath id="clip0_5323_30056">
<rect width="112.12" height="64.66" fill="white"/>
</clipPath>
</defs>
</svg>
