<svg width="126" height="92" viewBox="0 0 126 92" fill="none" xmlns="http://www.w3.org/2000/svg">
<g clip-path="url(#clip0_5323_30084)">
<path d="M41.48 86.6997H21.28L14.52 66.1397L125.87 55.4697L124.87 57.8297C122 70.0097 113.07 80.5297 102.08 84.6497L99.72 85.5397H99.47L54.56 86.6597L54.49 83.6597L99.15 82.5497L101.04 81.8397C110.58 78.2597 118.45 69.3797 121.5 58.8997L18.55 68.7697L23.46 83.6997H41.49V86.6997H41.48Z" fill="black"/>
<path d="M9.73 91.3698L8.99 79.1398L6.82 78.2898C3.43 76.9598 1.1 73.7498 0.880004 70.1198L0.0100043 55.7198C-0.109996 53.7498 0.550004 51.8498 1.85 50.3798C3.16 48.8998 4.96 48.0298 6.93 47.9098L17.51 47.2698C19.49 47.1398 21.38 47.8098 22.85 49.1098C24.33 50.4198 25.21 52.2198 25.32 54.1898L26.13 67.5498L23.14 67.7298L22.33 54.3698C22.26 53.1998 21.74 52.1298 20.86 51.3498C19.98 50.5698 18.85 50.1898 17.69 50.2598L7.11 50.8998C5.94 50.9698 4.87 51.4898 4.09 52.3698C3.31 53.2498 2.92 54.3698 2.99 55.5398L3.86 69.9298C4.01 72.3998 5.6 74.5898 7.9 75.4898L11.85 77.0398L12.7 91.1798L9.71 91.3598L9.73 91.3698Z" fill="black"/>
<path d="M60.79 59.4304L57.8 59.1904L58.75 47.3404L59.85 47.1104C60.14 47.0504 67.01 45.6304 76.32 44.9404C96.2 43.4804 103.97 47.9804 104.29 48.1704L104.58 48.4004L108.66 52.4804L106.54 54.6004L102.61 50.6704C101.53 50.1204 93.91 46.6504 76.53 47.9304C69.53 48.4404 63.85 49.4004 61.55 49.8304L60.78 59.4304H60.79Z" fill="black"/>
<path d="M61.57 49.0502L58.73 48.0902C58.75 48.0302 60.65 42.1902 59.49 32.3802L59.29 30.7002H82.2L90.29 45.4202L87.66 46.8702L80.42 33.7002H62.64C63.49 43.2302 61.65 48.8002 61.57 49.0502Z" fill="black"/>
<path d="M87.31 30.7002H55.98V33.7002H87.31V30.7002Z" fill="black"/>
<path d="M76.6655 36.0709L73.7111 36.5918L75.5744 47.1588L78.5288 46.6378L76.6655 36.0709Z" fill="black"/>
<path d="M68.44 11.8798L66.42 8.42977L69.01 6.91977L71.03 10.3698L68.44 11.8798ZM64.4 4.96977L62.38 1.51977L64.97 0.00976562L66.99 3.45977L64.4 4.96977Z" fill="black"/>
<path d="M71.045 10.3911L68.4158 11.8359L78.0093 29.2936L80.6385 27.8488L71.045 10.3911Z" fill="black"/>
<path d="M60.81 32.1205V29.9705C60.81 28.7305 61.81 27.7305 63.05 27.7305H65.32C66.56 27.7305 67.56 28.7305 67.56 29.9705V32.5405L60.81 32.1205Z" fill="black"/>
</g>
<defs>
<clipPath id="clip0_5323_30084">
<rect width="125.88" height="91.37" fill="white"/>
</clipPath>
</defs>
</svg>
