<svg width="98" height="61" viewBox="0 0 98 61" fill="none" xmlns="http://www.w3.org/2000/svg">
<g clip-path="url(#clip0_5323_30095)">
<path d="M15.11 25.1699L14.45 14.2999L21.5 13.8799L24.22 24.0399L21.26 24.5799L19.24 17.0199L17.62 17.1199L18.08 24.5999L15.11 25.1699Z" fill="black"/>
<path d="M32.13 25.1699L31.48 14.2999L38.53 13.8799L41.25 24.0399L38.29 24.5799L36.27 17.0199L34.65 17.1199L35.11 24.5999L32.13 25.1699Z" fill="black"/>
<path d="M49.19 25.1699L48.54 14.2999L55.59 13.8799L58.31 24.0399L55.35 24.5799L53.32 17.0199L51.71 17.1199L52.17 24.5999L49.19 25.1699Z" fill="black"/>
<path d="M66 25.1699L65.35 14.2999L72.4 13.8799L75.12 24.0399L72.16 24.5799L70.13 17.0199L68.52 17.1199L68.97 24.5999L66 25.1699Z" fill="black"/>
<path d="M90.35 48.5996H6.72C3.83707 48.5996 1.5 50.9344 1.5 53.8146C1.5 56.6948 3.83707 59.0296 6.72 59.0296H90.35C93.2329 59.0296 95.57 56.6948 95.57 53.8146C95.57 50.9344 93.2329 48.5996 90.35 48.5996Z" stroke="black" stroke-width="3" stroke-miterlimit="10"/>
<path d="M84.87 25.1699H12.2C9.62086 25.1699 7.53003 27.2608 7.53003 29.8399V43.9399C7.53003 46.5191 9.62086 48.6099 12.2 48.6099H84.87C87.4492 48.6099 89.54 46.5191 89.54 43.9399V29.8399C89.54 27.2608 87.4492 25.1699 84.87 25.1699Z" fill="white" stroke="black" stroke-width="3" stroke-miterlimit="10"/>
</g>
<defs>
<clipPath id="clip0_5323_30095">
<rect width="97.07" height="60.54" fill="white"/>
</clipPath>
</defs>
</svg>
