<svg width="112" height="42" viewBox="0 0 112 42" fill="none" xmlns="http://www.w3.org/2000/svg">
<g clip-path="url(#clip0_5323_30102)">
<path d="M26.96 41.0601H6.76L0 20.5101L111.35 9.83008L110.35 12.1901C107.48 24.3701 98.55 34.8901 87.56 39.0101L85.2 39.9001H84.95L40.04 41.0201L39.97 38.0201L84.63 36.9101L86.52 36.2001C96.06 32.6201 103.93 23.7401 106.98 13.2601L4.02 23.1401L8.93 38.0701H26.96V41.0701V41.0601Z" fill="black"/>
<path d="M27.2799 17.95L26.4399 3.97004L33.4899 3.54004L37.1099 17.05L34.2099 17.83L31.2199 6.68004L29.6099 6.78004L30.2699 17.77L27.2799 17.95Z" fill="black"/>
<path d="M50.22 15.9998L49.37 2.00984L56.43 1.58984L60.04 15.0998L57.15 15.8798L54.16 4.72984L52.55 4.82984L53.21 15.8098L50.22 15.9998Z" fill="black"/>
<path d="M108.96 12.2298C106.14 9.59984 101.53 6.79984 94.7499 4.83984C87.1199 2.63984 80.2899 1.86984 75.4399 1.58984V14.5698" stroke="black" stroke-width="3" stroke-miterlimit="10"/>
</g>
<defs>
<clipPath id="clip0_5323_30102">
<rect width="111.35" height="41.06" fill="white"/>
</clipPath>
</defs>
</svg>
