<svg width="115" height="88" viewBox="0 0 115 88" fill="none" xmlns="http://www.w3.org/2000/svg">
<g clip-path="url(#clip0_5323_30108)">
<path d="M104.69 87.4902H87.25V84.4902H103.36L104.32 83.4202C106.81 80.6802 108.79 77.4502 110.13 73.9902H90.24V70.9902H114.26L113.67 72.9302C112.21 77.5902 109.76 81.8802 106.54 85.4402L104.68 87.4902H104.69Z" fill="black"/>
<path d="M84.12 87.4902H7.51L5.99 85.5302C3.12 81.8302 1.16 77.4402 0.32 72.8302L0 71.0602L1.79 70.9902H35.29V73.9902H3.65C4.54 77.5202 6.16 80.8402 8.37 83.6902L8.99 84.4902H84.12V87.4902Z" fill="black"/>
<path d="M86.65 71.0801H39.87V74.0801H86.65V71.0801Z" fill="black"/>
<path d="M94.25 4.66992H91.25V16.5399H94.25V4.66992Z" fill="black"/>
<path d="M94.25 63.25H91.25V72.58H94.25V63.25Z" fill="black"/>
<path d="M51.42 0H48.42V9.88H51.42V0Z" fill="black"/>
<path d="M51.42 63.4102H48.42V72.5002H51.42V63.4102Z" fill="black"/>
<path d="M104.42 66.2102L68.95 61.8002L69.85 51.7802C70.6 43.3902 73.98 19.5902 80.5 10.4102L81.33 9.24023L99.91 18.3902L104.42 66.2102ZM72.2 59.1802L101.08 62.7702L97.08 20.3402L82.33 13.0702C77.22 21.3902 73.81 41.1202 72.84 52.0402L72.2 59.1702V59.1802Z" fill="black"/>
<path d="M66.36 66.2099L25.75 61.1599L26.77 49.7699L29.76 50.0399L29 58.5399L63.01 62.7699L58.34 15.1299L45.97 8.95992C44.06 11.7299 40.57 17.6899 36.85 25.7899L34.12 24.5399C38.2 15.6499 42.27 8.76992 44.31 6.13992L45.06 5.16992L61.15 13.1999L66.35 66.2199L66.36 66.2099Z" fill="black"/>
<path d="M29.76 50.0405L26.77 49.7705C26.89 48.4305 27.05 47.0605 27.26 45.7105L30.23 46.1605C30.04 47.4505 29.88 48.7605 29.77 50.0405H29.76ZM30.92 42.3105L27.99 41.6905C28.27 40.3605 28.6 39.0205 28.96 37.7205L31.85 38.5205C31.5 39.7705 31.19 41.0505 30.92 42.3205V42.3105ZM33 34.7805L30.16 33.8105C30.6 32.5305 31.08 31.2405 31.6 29.9805L34.38 31.1205C33.89 32.3205 33.42 33.5505 33 34.7805ZM35.97 27.5505L33.27 26.2505C33.56 25.6505 33.85 25.0605 34.16 24.4805L36.82 25.8605C36.53 26.4205 36.25 26.9805 35.97 27.5505Z" fill="black"/>
<path d="M77.6801 54.9102C77.5401 53.6002 77.4601 52.2902 77.4301 51.0102L80.4301 50.9402C80.4601 52.1402 80.5301 53.3702 80.6601 54.6002L77.6801 54.9102ZM80.5301 47.0902L77.5401 46.8602C77.6501 45.4402 77.8301 44.0502 78.0801 42.7302L81.0301 43.2902C80.8001 44.5002 80.6301 45.7802 80.5301 47.0902ZM81.9801 39.6202L79.1401 38.6602C80.0101 36.0802 80.9101 34.7202 80.9401 34.6602L83.4401 36.3202C83.4401 36.3202 82.7101 37.4502 81.9801 39.6202Z" fill="black"/>
</g>
<defs>
<clipPath id="clip0_5323_30108">
<rect width="114.27" height="87.49" fill="white"/>
</clipPath>
</defs>
</svg>
