<svg width="126" height="45" viewBox="0 0 126 45" fill="none" xmlns="http://www.w3.org/2000/svg">
<g clip-path="url(#clip0_5323_30133)">
<path d="M41.48 39.4497H21.28L14.52 18.8897L125.88 8.21973L124.88 10.5797C122.01 22.7597 113.08 33.2797 102.09 37.3997L99.73 38.2897H99.48L54.57 39.4097L54.5 36.4097L99.16 35.2997L101.05 34.5897C110.59 31.0097 118.46 22.1297 121.51 11.6497L18.55 21.5297L23.46 36.4597H41.49V39.4597L41.48 39.4497Z" fill="black"/>
<path d="M9.73 44.1198L8.99 31.8898L6.82 31.0398C3.43 29.7098 1.1 26.4998 0.880004 22.8698L0.0100043 8.46984C-0.109996 6.49984 0.550004 4.59984 1.85 3.12984C3.17 1.64984 4.97 0.769842 6.94 0.649842L17.52 0.0198424C19.5 -0.110158 21.39 0.559842 22.86 1.85984C24.34 3.16984 25.22 4.96984 25.33 6.93984L26.14 20.2998L23.15 20.4798L22.34 7.11984C22.27 5.94984 21.75 4.87984 20.87 4.09984C19.99 3.31984 18.86 2.93984 17.7 3.00984L7.12 3.64984C5.95 3.71984 4.88 4.23984 4.1 5.11984C3.32 5.99984 2.93 7.11984 3 8.28984L3.87 22.6798C4.02 25.1498 5.61 27.3398 7.91 28.2398L11.86 29.7898L12.71 43.9298L9.72001 44.1098L9.73 44.1198Z" fill="black"/>
<path d="M68.56 15.9299L67.9 5.05988L74.96 4.62988L77.68 14.7999L74.72 15.3399L72.69 7.77988L71.08 7.86988L71.53 15.3599L68.56 15.9299Z" fill="black"/>
</g>
<defs>
<clipPath id="clip0_5323_30133">
<rect width="125.88" height="44.12" fill="white"/>
</clipPath>
</defs>
</svg>
